<svg xmlns="http://www.w3.org/2000/svg" xmlns:xlink="http://www.w3.org/1999/xlink" width="334.825" height="737.125" viewBox="0 0 313.898 691.055"><defs><pattern xlink:href="#a" id="b" patternTransform="matrix(-38.97241 0 0 75.29655 -361.678 -134.667)"/><pattern id="a" patternTransform="scale(10)" height="1" width="2" patternUnits="userSpaceOnUse"><path style="fill:#000;stroke:none" d="M0-.5h1v2H0z"/></pattern></defs><g transform="translate(-168.988 -554.946)"><ellipse style="fill:#fca;fill-opacity:1;stroke:#000;stroke-width:4.22298098;stroke-miterlimit:4;stroke-dasharray:none;stroke-opacity:1" cx="398.571" cy="654.076" rx="12.334" ry="14.479"/><ellipse style="fill:#fca;fill-opacity:1;stroke:#000;stroke-width:4.22298098;stroke-miterlimit:4;stroke-dasharray:none;stroke-opacity:1" cx="247.143" cy="654.648" rx="12.334" ry="14.479"/><ellipse style="fill:#fca;fill-opacity:1;stroke:#000;stroke-width:4.00000048;stroke-miterlimit:4;stroke-dasharray:none;stroke-opacity:1" cx="220.982" cy="987.777" rx="33.851" ry="36.86"/><ellipse style="fill:#fca;fill-opacity:1;stroke:#000;stroke-width:3;stroke-miterlimit:4;stroke-dasharray:none;stroke-opacity:1" cx="430.857" cy="994.548" rx="33.851" ry="36.86"/><path style="fill:#fca;fill-opacity:1;fill-rule:evenodd;stroke:#000;stroke-width:4.00000048;stroke-linecap:butt;stroke-linejoin:miter;stroke-miterlimit:4;stroke-dasharray:none;stroke-opacity:1" d="m245.03 978.815 1.01-126.775-54.043 4.041 3.398 109.667M402.406 980.58l-1.01-126.774 54.043 4.04-3.398 109.667M312.327 1214.866l4.581-120.346-73.328-2.388 9.112 108.953M337.73 1214.202l-4.58-120.346 73.328-2.388-9.112 108.953"/><path style="fill:#241c1c;fill-opacity:1;fill-rule:evenodd;stroke:#000;stroke-width:4;stroke-linecap:butt;stroke-linejoin:miter;stroke-miterlimit:4;stroke-dasharray:none;stroke-opacity:1" d="M240.54 949.992c61.163.772 109.827-5.116 166.245-1.505 17.425 67.211 7.74 86.487 6.018 170.646-46.666 15.5-72.162 1.633-88.012-3.761-22.053 16.582-86.913 10.205-87.26 6.77-11.127-148.263 2.64-165.748 3.009-172.15z"/><path d="M-121.516 596.376s-44.393 56.937-55.714 130c-.45 2.91 54.704-.635 54.704-.635l-6.428 114.286 182.857 1.428-4.286-116.428h49.286c-20.65-82.672-30.188-88.572-52.857-132.857z" style="fill:url(#b);fill-opacity:1;fill-rule:evenodd;stroke:#000;stroke-width:4.00000048;stroke-linecap:butt;stroke-linejoin:miter;stroke-miterlimit:4;stroke-dasharray:none;stroke-opacity:1" transform="translate(361.678 135.95)"/><path transform="translate(530.666 690.896)" d="M-257.616 162.923V43.005l12.505-.011c6.878-.007 15.535-.376 19.238-.82l6.734-.81v241.477H-257.616V162.923zM-179.38 163.06c0-109.21.198-121.14 2.028-121.842 1.116-.428 9.773-.778 19.238-.778h17.21v243.683H-179.381V163.06zM-101.035 126.05l.11-41.363 3.662 7.696c4.414 9.273 14.924 40.723 20.252 60.6l3.868 14.429h-28.002l.11-41.363zM-334.569 151.521c0-18.508.085-19.076 4.638-31.299 6.358-17.066 15.423-36.063 24.393-51.122l7.522-12.629.334 55.67c.184 30.619.15 55.856-.077 56.082-.226.226-8.6.802-18.61 1.28l-18.2.869v-18.85z" style="opacity:1;fill:#87cdde;fill-opacity:1;stroke:#87cdde;stroke-width:2;stroke-miterlimit:4;stroke-dasharray:none;stroke-opacity:1"/><path transform="translate(530.666 690.896)" d="M-294.81 278.145c0-5.534 4.805-92.916 5.648-102.718.579-6.721.573-6.733-3.175-6.733h-3.755V53.86l3.119-4.59c3.054-4.494 3.34-4.606 13.787-5.42 5.868-.456 12.833-.833 15.478-.838l4.81-.007V282.84h-35.912v-4.696zM-217.857 162.281V41.722h37.194v241.119h-37.194V162.28z" style="opacity:1;fill:#fff;fill-opacity:1;stroke:none;stroke-width:2;stroke-miterlimit:4;stroke-dasharray:none;stroke-opacity:1"/><path transform="translate(530.666 690.896)" d="M-140.904 162.223v-121.9l8.474.379 8.474.379 10.76 19.88 10.76 19.879.005 43.286.004 43.286h-19.238l.024 7.374c.013 4.056.866 28.73 1.895 54.829 1.03 26.1 1.884 49.041 1.9 50.981l.028 3.527h-23.086v-121.9z" style="opacity:1;fill:#fff;fill-opacity:1;stroke:#000;stroke-width:2;stroke-miterlimit:4;stroke-dasharray:none;stroke-opacity:0"/><path style="fill:#fca;fill-opacity:1;fill-rule:evenodd;stroke:#000;stroke-width:4;stroke-linecap:butt;stroke-linejoin:miter;stroke-miterlimit:4;stroke-dasharray:none;stroke-opacity:1" d="m286.202 740.772 74.286-1.429s-2.258 37.338-34.286 37.22c-33.563-.123-40-35.791-40-35.791z"/><path style="fill:#fca;fill-rule:evenodd;stroke:#000;stroke-width:4;stroke-linecap:butt;stroke-linejoin:miter;stroke-miterlimit:4;stroke-dasharray:none;stroke-opacity:1" d="M254.958 590.433s-16.309 68.791-5.64 100.658c8.085 24.147 26.238 47.609 49.339 58.325 16.516 7.661 38.35 8.169 54.62 0 20.212-10.148 34.267-32.682 40.53-54.414 9.287-32.216-7.931-100.27-7.931-100.27"/><path style="fill:#fff;fill-rule:evenodd;stroke:#000;stroke-width:4;stroke-linecap:butt;stroke-linejoin:miter;stroke-miterlimit:4;stroke-dasharray:none;stroke-opacity:1" d="M296.094 645.678c-6.312-1.748-12.821-1.162-18.199 3.17-17.894 14.414 13.404 34.735 23.61 23.773 7.918-8.504 10.125-26.943-5.41-26.943z"/><ellipse style="fill:#000;fill-opacity:1;stroke:#000;stroke-width:1.34574461;stroke-miterlimit:4;stroke-dasharray:none;stroke-opacity:1" cx="288.47" cy="658.885" rx="3.197" ry="3.698"/><path d="M345.545 647.032c6.312-1.749 12.821-1.162 18.199 3.17 17.894 14.414-13.404 34.735-23.61 23.773-7.918-8.504-10.125-26.943 5.41-26.943z" style="fill:#fff;fill-rule:evenodd;stroke:#000;stroke-width:4;stroke-linecap:butt;stroke-linejoin:miter;stroke-miterlimit:4;stroke-dasharray:none;stroke-opacity:1"/><ellipse ry="3.698" rx="3.197" cy="660.239" cx="349.986" style="fill:#000;fill-opacity:1;stroke:#000;stroke-width:1.34574461;stroke-miterlimit:4;stroke-dasharray:none;stroke-opacity:1"/><path style="fill:none;fill-rule:evenodd;stroke:#000;stroke-width:4;stroke-linecap:butt;stroke-linejoin:miter;stroke-miterlimit:4;stroke-dasharray:none;stroke-opacity:1" d="M307.696 684.582c12.15 24.61 25.891-.613 25.532 0"/><g style="stroke-width:4;stroke-miterlimit:4;stroke-dasharray:none"><path d="M111.17 536.139c11.862-6.174 14.728-9.3 15.16-9.84" style="fill:none;fill-rule:evenodd;stroke:#000;stroke-width:4;stroke-linecap:butt;stroke-linejoin:miter;stroke-miterlimit:4;stroke-dasharray:none;stroke-opacity:1" transform="translate(163.95 173.996)"/><path d="M118.085 531.086c23.471 35.016 61.832 30.635 77.66 4.255" style="fill:none;fill-rule:evenodd;stroke:#000;stroke-width:4;stroke-linecap:butt;stroke-linejoin:miter;stroke-miterlimit:4;stroke-dasharray:none;stroke-opacity:1" transform="translate(163.95 173.996)"/><path d="M190.16 528.958c4.812 7.047 5.93 8.057 10.372 12.766" style="fill:none;fill-rule:evenodd;stroke:#000;stroke-width:4;stroke-linecap:butt;stroke-linejoin:miter;stroke-miterlimit:4;stroke-dasharray:none;stroke-opacity:1" transform="translate(163.95 173.996)"/></g><path style="fill:none;fill-rule:evenodd;stroke:#000;stroke-width:3;stroke-linecap:butt;stroke-linejoin:miter;stroke-miterlimit:4;stroke-dasharray:none;stroke-opacity:1" d="m325.497 1116.682-1.504-71.077M307.71 1038.241c4.202 4.98 10.793 7.846 17.301 7.523 6.127-.305 12.058-3.412 15.797-8.275l-.752-.752"/><path style="fill:#241c1c;fill-opacity:1;fill-rule:evenodd;stroke:#000;stroke-width:4;stroke-linecap:butt;stroke-linejoin:miter;stroke-miterlimit:4;stroke-dasharray:none;stroke-opacity:1" d="m315.65 1189.101 1.605 53.79h-30.488a19.433 19.433 0 0 0-5.57-3.753 19.504 19.504 0 0 0-10.477-1.502l-8.023 5.651H179.28c-4.619-4.222-7.595-10.197-8.181-16.427-.587-6.23 1.222-12.656 4.972-17.666 2.82-3.767 6.654-6.7 10.825-8.879 4.17-2.18 8.683-3.636 13.244-4.795a112.942 112.942 0 0 1 48.116-1.605l67.395-4.814zM336.225 1189.816l-1.605 53.79h30.489a19.433 19.433 0 0 1 5.57-3.754 19.504 19.504 0 0 1 10.476-1.502l8.023 5.651h83.418c4.62-4.221 7.595-10.197 8.182-16.427.586-6.23-1.222-12.656-4.972-17.665-2.82-3.768-6.654-6.7-10.825-8.88-4.171-2.179-8.684-3.635-13.245-4.795a112.944 112.944 0 0 0-48.116-1.604l-67.395-4.814z"/><path style="fill:none;fill-rule:evenodd;stroke:#000;stroke-width:4.00000048;stroke-linecap:butt;stroke-linejoin:miter;stroke-miterlimit:4;stroke-dasharray:none;stroke-opacity:1" d="m239.152 861.123 16.296-53.898M410.76 860.051l-14.276-50.866"/><path style="fill:#c87137;fill-rule:evenodd;stroke:#000;stroke-width:3.07435679;stroke-linecap:butt;stroke-linejoin:miter;stroke-miterlimit:4;stroke-dasharray:none;stroke-opacity:1" d="M333.11 573.664c-16.046-8.8-25.104-21.48-55.124-5.435-30.02 11.387-39.855 34.42-48.136 71.428 26.138 12.164 62.111-5.435 62.111-5.435 17.34-5.952 28.468-17.34 40.372-38.82 0 0 15.167 32.985 30.28 40.373 13.022 6.366 43.478-.776 43.478-.776.212-22.192-3.167-39.459-15.528-56.677-.662-7.246-23.513-23.215-38.043-21.739-8.575.871-19.41 17.08-19.41 17.08z"/><path style="fill:none;fill-rule:evenodd;stroke:#000;stroke-width:3.00000024;stroke-linecap:butt;stroke-linejoin:miter;stroke-miterlimit:4;stroke-dasharray:none;stroke-opacity:1" d="M312.205 579.3c-19.014 5.556-37.07-4.222-58.589 41.416"/><path style="fill:none;fill-rule:evenodd;stroke:#000;stroke-width:3.00000024;stroke-linecap:butt;stroke-linejoin:miter;stroke-miterlimit:4;stroke-dasharray:none;stroke-opacity:1" d="M302.103 592.431c-20.034 4.883-25.422 12.796-34.345 25.254M276.85 620.716c14.647-5.051 22.728-12.627 30.304-21.214M372.547 624.507c-6.672-19.512-15.04-24.162-28.253-31.923M384.59 617.383c-6.672-19.511-8.978-25.172-24.212-27.883M366.248 575.259l14.142 13.637"/><path style="fill:#fff;fill-rule:evenodd;stroke:none;stroke-width:1px;stroke-linecap:butt;stroke-linejoin:miter;stroke-opacity:1" d="m399.688 1196.134-19.627 28.704 12.94.043 19.034-29.4zM420.248 1194.945l-17.048 30.647 12.494-.046 16.349-30.736zM250.53 1195.506l19.628 28.703-12.94.043-19.034-29.4zM229.971 1194.317l17.048 30.647-12.494-.046-16.349-30.736z"/><path style="fill:#fff;fill-opacity:1;fill-rule:evenodd;stroke:#000;stroke-width:4;stroke-linecap:butt;stroke-linejoin:miter;stroke-miterlimit:4;stroke-dasharray:none;stroke-opacity:1" d="M273.278 738.026c2.771-8.5-15.243-5.603-25.103-5.355-10.66-.262-9.717.085-14.47 6.938-11.821 17.083-41.853 65.072-50.876 123.304-.45 2.91 51.39.47 51.39.47M375.025 735.91c-2.771-8.499 15.243-5.601 25.102-5.354 10.661-.262 9.718.086 14.472 6.939 11.82 17.082 41.851 65.07 50.874 123.303.451 2.91-51.39.47-51.39.47"/><g transform="matrix(.01315 0 0 .01152 350.621 779.447)"><path style="fill:#74acdf" d="M177.58 180.4h2984.9v1983.7H177.58z"/><path style="fill:#fff" d="M177.58 841.65h2984.9v661.25H177.58z"/><g transform="translate(38.033 162.18) scale(4.0479)" id="e"><path style="fill:#f6b40e;stroke:#85340a;stroke-width:1.11160004" d="m396.84 251.31 28.454 61.992s.49 1.185 1.28.859c.79-.327.299-1.512.299-1.512l-23.715-63.956m-.68 24.12c-.347 9.428 5.452 14.613 4.694 23.032-.757 8.42 3.867 13.18 4.94 16.454 1.073 3.274-1.16 5.232-.198 5.698.963.466 3.07-2.12 2.383-6.775-.687-4.655-4.22-6.037-3.39-16.32.83-10.283-4.206-12.678-2.98-22.058" id="c"/><use width="100%" height="100%" transform="rotate(22.5 399.996 250.006)" xlink:href="#c"/><use width="100%" height="100%" transform="rotate(45 399.997 249.994)" xlink:href="#c"/><use width="100%" height="100%" transform="rotate(67.5 400 250.002)" xlink:href="#c"/><path style="fill:#85340a" d="M404.31 274.41c.453 9.054 5.587 13.063 4.579 21.314 2.213-6.525-3.124-11.583-2.82-21.22m-7.649-23.757 19.487 42.577-16.329-43.887" id="d"/><use width="100%" height="100%" transform="rotate(22.5 399.996 250.006)" xlink:href="#d"/><use width="100%" height="100%" transform="rotate(45 399.997 249.994)" xlink:href="#d"/><use width="100%" height="100%" transform="rotate(67.5 400 250.002)" xlink:href="#d"/></g><use width="100%" height="100%" transform="rotate(90 1657.22 1174.18)" xlink:href="#e"/><use width="100%" height="100%" transform="rotate(180 1657.2 1174.15)" xlink:href="#e"/><use width="100%" height="100%" transform="rotate(-90 1657.22 1174.18)" xlink:href="#e"/><circle style="fill:#f6b40e;stroke:#85340a;stroke-width:6.07189989" r="112.44" cx="1657.2" cy="1174.2"/><path style="fill:#843511" d="M1695.5 1150.1c-7.678 0-15.03 3.327-19.354 10.246 8.65 7.783 27.755 8.63 40.73-.886-5.62-6.053-13.7-9.36-21.378-9.36zm-.126 1.771c7.473-.136 14.458 3.297 15.433 6.704-8.65 9.514-22.47 8.688-31.118 1.771 3.784-6.054 9.873-8.37 15.686-8.475z" id="j"/><use width="100%" height="100%" transform="matrix(-1 0 0 1 3315.4 0)" xlink:href="#f"/><use width="100%" height="100%" transform="matrix(-1 0 0 1 3315.4 0)" xlink:href="#g"/><use width="100%" height="100%" transform="translate(76.352)" xlink:href="#h"/><use width="100%" height="100%" transform="matrix(-1 0 0 1 3315.4 0)" xlink:href="#i"/><g style="fill:#85340a"><path d="M1640 1189.7c-3.697.675-6.325 3.956-6.325 7.716 0 4.297 3.552 7.716 7.843 7.716a7.65 7.65 0 0 0 6.325-3.289c2.993 2.252 7.143 2.49 9.36 2.53.342.011.783 0 1.013 0 2.218-.04 6.367-.279 9.36-2.53a7.649 7.649 0 0 0 6.325 3.29c4.291 0 7.843-3.42 7.843-7.717 0-3.76-2.628-7.042-6.325-7.716 2.077.732 3.416 2.739 3.416 4.934a5.18 5.18 0 0 1-5.186 5.186c-2.755 0-5.025-2.187-5.187-4.934-.844 1.686-4.186 6.7-10.752 6.958-6.566-.258-9.907-5.272-10.752-6.958-.162 2.747-2.432 4.934-5.186 4.934a5.18 5.18 0 0 1-5.186-5.186c0-2.195 1.339-4.201 3.415-4.934zM1648.5 1212.7c-8.654 0-12.074 7.84-19.86 13.03 4.326-1.726 7.73-5.138 13.788-8.602 6.056-3.458 11.22.76 14.674.76h.126c3.454 0 8.618-4.217 14.674-.76 6.059 3.465 9.589 6.876 13.915 8.602-7.785-5.19-11.333-13.03-19.987-13.03-1.727 0-5.147.933-8.602 2.656h-.126c-3.454-1.726-6.874-2.656-8.602-2.656z"/><path d="M1645.5 1223c-3.416.151-7.932.837-14.421 2.783 15.574-3.458 19.01 1.77 25.932 1.77h.126c6.922 0 10.358-5.229 25.932-1.77-17.303-5.19-20.742-1.771-25.932-1.771h-.126c-3.244 0-5.818-1.265-11.512-1.012z"/><path d="M1631.9 1225.6c-1.005.012-2.1.021-3.289.126 18.167 1.731 9.434 12.144 28.462 12.144h.126c19.028 0 10.422-10.413 28.588-12.144-19.028-1.727-13.012 9.488-28.588 9.488h-.126c-14.603 0-10.103-9.802-25.173-9.614zM1672.8 1253.7c0-8.595-6.976-15.57-15.57-15.57-8.595 0-15.569 6.975-15.569 15.57a16.01 16.01 0 0 1 15.569-12.303c7.421 0 13.86 5.095 15.57 12.303z"/><path style="fill:#85340a" d="M1587.3 1150c19.894-17.296 44.972-19.894 58.816-6.916 3.388 4.536 5.559 9.387 6.45 14.45 1.741 9.848-1.337 20.489-9.054 31.395.87 0 2.605.86 3.468 1.726 6.868-13.13 9.297-26.62 7.044-39.449a55.915 55.915 0 0 0-2.711-9.859c-19.028-15.565-44.972-17.296-64.002 8.653z" id="g"/><path style="fill:#85340a" d="M1618.4 1144.8c11.24 0 13.838 2.598 19.028 6.922 5.195 4.324 7.785 3.457 8.65 4.324.859.867 0 3.458-1.728 2.59-1.726-.866-5.194-2.59-10.376-6.916-5.194-4.33-10.376-4.324-15.57-4.324-15.57 0-24.219 12.972-25.945 12.106-1.726-.867 8.65-14.704 25.945-14.704z" id="f"/></g><use width="100%" height="100%" transform="translate(-77.643)" xlink:href="#j"/><circle style="fill:#85340a" r="7.784" cx="1618.9" cy="1158.6" id="h"/><path style="fill:#85340a" d="M1597.7 1163.8c14.705 11.246 29.408 10.38 38.057 5.19 8.65-5.19 8.65-6.917 6.922-6.917-1.727 0-3.454 1.727-10.376 5.185-6.922 3.465-17.297 3.465-34.594-3.457z" id="i"/></g><path style="fill:none;fill-opacity:1;stroke:#000;stroke-width:2.08612657;stroke-miterlimit:4;stroke-dasharray:none;stroke-dashoffset:0;stroke-opacity:1" d="M352.374 780.617h40.32v24.915h-40.32z"/><g style="font-style:normal;font-weight:400;font-size:56.50813675px;line-height:125%;font-family:sans-serif;letter-spacing:0;word-spacing:0;fill:#f9f9f9;fill-opacity:1;stroke:none;stroke-width:1px;stroke-linecap:butt;stroke-linejoin:miter;stroke-opacity:1"><path d="M368.211 1105.829q0 .43.161.86.162.378.485.916.377.484 1.076.646v7.157h-16.79v-7.157q.699-.162 1.022-.7.323-.592.323-1.722v-23.68q0-.592-.162-.968-.161-.377-.592-.97-.377-.645-1.076-1.075v-6.62h15.5l.053 33.313zM374.29 1105.183v-10.118l15.069-22.657h15.66v22.388q0 .7.485 1.184.484.485.915.754.43.215 1.022.215v8.18q-.43 0-1.291.054-.808 0-.808 1.346 0 1.345 1.238 1.507v7.373h-16.898v-6.89q1.076-.16 1.506-1.075.485-.915.485-1.615 0-.646-.538-.646H374.29zm16.468-16.414-4.52 6.62q-.216.268-.216.538 0 .592 4.897.592.7 0 .808-.592.107-.592.107-1.454V1090.6q0-1.238-.107-1.83-.054-.646-.323-.646-.216 0-.646.646z" style="font-style:normal;font-variant:normal;font-weight:100;font-stretch:normal;font-family:AcmeFont;-inkscape-font-specification:'AcmeFont Thin';fill:#f9f9f9"/></g></g></svg>