<?xml version="1.0" encoding="UTF-8" standalone="no"?>
<!-- Created with Inkscape (http://www.inkscape.org/) -->

<svg
   xmlns:dc="http://purl.org/dc/elements/1.1/"
   xmlns:cc="http://creativecommons.org/ns#"
   xmlns:rdf="http://www.w3.org/1999/02/22-rdf-syntax-ns#"
   xmlns:svg="http://www.w3.org/2000/svg"
   xmlns="http://www.w3.org/2000/svg"
   xmlns:sodipodi="http://sodipodi.sourceforge.net/DTD/sodipodi-0.dtd"
   xmlns:inkscape="http://www.inkscape.org/namespaces/inkscape"
   width="88.589119mm"
   height="198.1416mm"
   viewBox="0 0 313.89846 702.07654"
   id="svg2"
   version="1.1"
   inkscape:version="0.91 r13725"
   sodipodi:docname="soccer_tonisia.svg"
   inkscape:export-filename="C:\Users\Isenberg\Documents\CloudStation\Fußballer\soccer_tonisia.png"
   inkscape:export-xdpi="114.73759"
   inkscape:export-ydpi="114.73759">
  <defs
     id="defs4">
    <inkscape:path-effect
       effect="spiro"
       id="path-effect4138"
       is_visible="true" />
    <inkscape:path-effect
       effect="spiro"
       id="path-effect4192-6-2"
       is_visible="true" />
    <inkscape:path-effect
       effect="spiro"
       id="path-effect4192-3-1"
       is_visible="true" />
    <inkscape:path-effect
       effect="spiro"
       id="path-effect4192-2"
       is_visible="true" />
    <inkscape:path-effect
       effect="spiro"
       id="path-effect4192-6"
       is_visible="true" />
    <inkscape:path-effect
       effect="spiro"
       id="path-effect4192-3"
       is_visible="true" />
    <inkscape:path-effect
       effect="spiro"
       id="path-effect4192"
       is_visible="true" />
    <inkscape:path-effect
       is_visible="true"
       id="path-effect4188"
       effect="spiro" />
    <inkscape:path-effect
       effect="spiro"
       id="path-effect4184"
       is_visible="true" />
    <inkscape:path-effect
       effect="spiro"
       id="path-effect4176"
       is_visible="true" />
    <inkscape:path-effect
       effect="spiro"
       id="path-effect4172"
       is_visible="true" />
    <inkscape:path-effect
       effect="spiro"
       id="path-effect4162"
       is_visible="true" />
    <inkscape:path-effect
       effect="spiro"
       id="path-effect4158"
       is_visible="true" />
    <inkscape:path-effect
       effect="spiro"
       id="path-effect4157-7"
       is_visible="true" />
    <inkscape:path-effect
       effect="spiro"
       id="path-effect4157"
       is_visible="true" />
    <inkscape:path-effect
       effect="spiro"
       id="path-effect4180"
       is_visible="true" />
    <inkscape:path-effect
       effect="spiro"
       id="path-effect4273"
       is_visible="true" />
    <inkscape:path-effect
       effect="spiro"
       id="path-effect4269"
       is_visible="true" />
    <inkscape:path-effect
       effect="spiro"
       id="path-effect4302"
       is_visible="true" />
    <inkscape:path-effect
       effect="spiro"
       id="path-effect4306"
       is_visible="true" />
    <inkscape:path-effect
       effect="spiro"
       id="path-effect4310"
       is_visible="true" />
    <inkscape:path-effect
       effect="spiro"
       id="path-effect4302-2"
       is_visible="true" />
    <inkscape:path-effect
       effect="spiro"
       id="path-effect4306-8"
       is_visible="true" />
    <inkscape:path-effect
       effect="spiro"
       id="path-effect4310-6"
       is_visible="true" />
    <clipPath
       id="band">
      <circle
         cy="0"
         cx="0"
         r="735"
         id="circle53" />
    </clipPath>
    <clipPath
       id="gcut">
      <path
         inkscape:connector-curvature="0"
         d="m -31.5,0 0,-70 63,0 0,70 z M 0,-47 l 0,12 31.5,0 0,-12 z"
         id="path11" />
    </clipPath>
  </defs>
  <sodipodi:namedview
     id="base"
     pagecolor="#ffffff"
     bordercolor="#666666"
     borderopacity="1.0"
     inkscape:pageopacity="0.0"
     inkscape:pageshadow="2"
     inkscape:zoom="0.45254834"
     inkscape:cx="-240.32784"
     inkscape:cy="112.13656"
     inkscape:document-units="px"
     inkscape:current-layer="layer1"
     showgrid="false"
     fit-margin-top="0"
     fit-margin-left="0"
     fit-margin-right="0"
     fit-margin-bottom="0"
     inkscape:window-width="1280"
     inkscape:window-height="961"
     inkscape:window-x="-8"
     inkscape:window-y="-8"
     inkscape:window-maximized="1" />
  <metadata
     id="metadata7">
    <rdf:RDF>
      <cc:Work
         rdf:about="">
        <dc:format>image/svg+xml</dc:format>
        <dc:type
           rdf:resource="http://purl.org/dc/dcmitype/StillImage" />
        <dc:title></dc:title>
      </cc:Work>
    </rdf:RDF>
  </metadata>
  <g
     inkscape:label="Ebene 1"
     inkscape:groupmode="layer"
     id="layer1"
     transform="translate(-168.98851,-543.92485)">
    <ellipse
       style="fill:#d38d5f;fill-opacity:1;stroke:#000000;stroke-width:4.22298098;stroke-miterlimit:4;stroke-dasharray:none;stroke-opacity:1"
       id="path4387-0"
       cx="396.57144"
       cy="654.07648"
       rx="12.333632"
       ry="14.479342" />
    <ellipse
       style="fill:#d38d5f;fill-opacity:1;stroke:#000000;stroke-width:4.22298098;stroke-miterlimit:4;stroke-dasharray:none;stroke-opacity:1"
       id="path4387-0-4"
       cx="247.14287"
       cy="654.64789"
       rx="12.333632"
       ry="14.479342" />
    <ellipse
       style="fill:#d38d5f;fill-opacity:1;stroke:#000000;stroke-width:4.00000048;stroke-miterlimit:4;stroke-dasharray:none;stroke-opacity:1"
       id="path4250"
       cx="220.98157"
       cy="987.77747"
       rx="33.850857"
       ry="36.859821" />
    <ellipse
       style="fill:#d38d5f;fill-opacity:1;stroke:#000000;stroke-width:3;stroke-miterlimit:4;stroke-dasharray:none;stroke-opacity:1"
       id="path4250-7"
       cx="430.85687"
       cy="994.54761"
       rx="33.850857"
       ry="36.859821" />
    <path
       style="fill:#d38d5f;fill-opacity:1;fill-rule:evenodd;stroke:#000000;stroke-width:4.00000048;stroke-linecap:butt;stroke-linejoin:miter;stroke-miterlimit:4;stroke-dasharray:none;stroke-opacity:1"
       d="m 245.02983,978.8146 1.01016,-126.77414 -54.04317,4.04061 3.39812,109.66719"
       id="path6385"
       inkscape:connector-curvature="0"
       sodipodi:nodetypes="cccc" />
    <path
       style="fill:#d38d5f;fill-opacity:1;fill-rule:evenodd;stroke:#000000;stroke-width:4.00000048;stroke-linecap:butt;stroke-linejoin:miter;stroke-miterlimit:4;stroke-dasharray:none;stroke-opacity:1"
       d="m 402.40576,980.57983 -1.01016,-126.77415 54.04317,4.04061 -3.39812,109.6672"
       id="path6385-0"
       inkscape:connector-curvature="0"
       sodipodi:nodetypes="cccc" />
    <path
       style="fill:#d38d5f;fill-opacity:1;fill-rule:evenodd;stroke:#000000;stroke-width:4.00000048;stroke-linecap:butt;stroke-linejoin:miter;stroke-miterlimit:4;stroke-dasharray:none;stroke-opacity:1"
       d="m 312.32683,1214.8655 4.58159,-120.3455 -73.32888,-2.388 9.1124,108.9529"
       id="path6385-4"
       inkscape:connector-curvature="0"
       sodipodi:nodetypes="cccc" />
    <path
       style="fill:#d38d5f;fill-opacity:1;fill-rule:evenodd;stroke:#000000;stroke-width:4.00000048;stroke-linecap:butt;stroke-linejoin:miter;stroke-miterlimit:4;stroke-dasharray:none;stroke-opacity:1"
       d="m 337.73084,1214.2016 -4.58159,-120.3456 73.32889,-2.388 -9.1124,108.953"
       id="path6385-4-8"
       inkscape:connector-curvature="0"
       sodipodi:nodetypes="cccc" />
    <path
       style="fill:#ffffff;fill-opacity:1;fill-rule:evenodd;stroke:#000000;stroke-width:4;stroke-linecap:butt;stroke-linejoin:miter;stroke-miterlimit:4;stroke-dasharray:none;stroke-opacity:1"
       d="m 240.53983,949.99181 c 61.16302,0.77236 109.82713,-5.11572 166.24531,-1.50448 17.42484,67.21087 7.73954,86.48677 6.01793,170.64547 -46.66599,15.4996 -72.16179,1.6334 -88.01223,-3.7612 -22.05292,16.5823 -86.91318,10.2055 -87.25997,6.7701 -11.12659,-148.263 2.64065,-165.7477 3.00896,-172.14989 z"
       id="path4154"
       inkscape:connector-curvature="0"
       sodipodi:nodetypes="cccccc" />
    <path
       style="fill:#ffffff;fill-opacity:1;fill-rule:evenodd;stroke:#000000;stroke-width:4.00000048;stroke-linecap:butt;stroke-linejoin:miter;stroke-miterlimit:4;stroke-dasharray:none;stroke-opacity:1"
       d="m 235.3226,737.73993 c -11.8202,17.08266 -41.85183,65.07129 -50.87474,123.30335 -0.45095,2.91034 54.70414,-0.63506 54.70414,-0.63506 l -6.42857,114.28571 182.85714,1.42857 -4.28571,-116.42857 49.28571,0 c -19.12397,-76.56397 -28.71743,-87.28068 -48.03803,-123.6241 -5.64082,-10.72502 -2.67752,-9.2868 -15.27062,-8.97066 l -147.4781,3.70231 c -10.66086,-0.26216 -9.71762,0.0855 -14.47122,6.93845 z"
       id="path6383"
       inkscape:connector-curvature="0"
       sodipodi:nodetypes="csccccccccc" />
    <path
       style="fill:#d38d5f;fill-opacity:1;fill-rule:evenodd;stroke:#000000;stroke-width:4;stroke-linecap:butt;stroke-linejoin:miter;stroke-miterlimit:4;stroke-dasharray:none;stroke-opacity:1"
       d="m 286.202,740.77178 74.28571,-1.42857 c 0,0 -2.25735,37.33743 -34.28571,37.22009 -33.56347,-0.12296 -40,-35.79152 -40,-35.79152 z"
       id="path5606"
       inkscape:connector-curvature="0"
       sodipodi:nodetypes="ccsc" />
    <path
       style="fill:#d38d5f;fill-rule:evenodd;stroke:#000000;stroke-width:4;stroke-linecap:butt;stroke-linejoin:miter;stroke-miterlimit:4;stroke-dasharray:none;stroke-opacity:1"
       d="m 268.16715,591.41908 c -26.24052,21.32448 -25.42326,80.03554 -18.84907,99.67145 8.08465,24.14739 26.23834,47.60922 49.33877,58.32502 16.51636,7.66159 38.34934,8.16919 54.62062,0 20.212,-10.14767 35.7531,-32.30711 40.53032,-54.41318 7.13048,-32.99551 1.661,-82.20585 -13.40056,-101.44241 -23.3113,-29.77308 -83.19997,-25.74047 -112.24008,-2.14088 z"
       id="path4140"
       inkscape:connector-curvature="0"
       sodipodi:nodetypes="asaassa" />
    <path
       style="fill:#ffffff;fill-rule:evenodd;stroke:#000000;stroke-width:4;stroke-linecap:butt;stroke-linejoin:miter;stroke-miterlimit:4;stroke-dasharray:none;stroke-opacity:1"
       d="m 296.0943,645.67807 c -6.31189,-1.74857 -12.82162,-1.16196 -18.199,3.16973 -17.8941,14.41441 13.40326,34.73506 23.60951,23.77301 7.91779,-8.50413 10.12548,-26.94274 -5.41051,-26.94274 z"
       id="path4864"
       inkscape:connector-curvature="0" />
    <ellipse
       style="fill:#000000;fill-opacity:1;stroke:#000000;stroke-width:1.34574461;stroke-miterlimit:4;stroke-dasharray:none;stroke-opacity:1"
       id="path4866"
       cx="288.47037"
       cy="658.88531"
       rx="3.1971221"
       ry="3.6980233" />
    <path
       inkscape:connector-curvature="0"
       id="path4874"
       d="m 345.54466,647.03204 c 6.31189,-1.74857 12.82162,-1.16196 18.199,3.16974 17.8941,14.4144 -13.40326,34.73505 -23.60951,23.773 -7.91779,-8.50413 -10.12548,-26.94274 5.41051,-26.94274 z"
       style="fill:#ffffff;fill-rule:evenodd;stroke:#000000;stroke-width:4;stroke-linecap:butt;stroke-linejoin:miter;stroke-miterlimit:4;stroke-dasharray:none;stroke-opacity:1" />
    <ellipse
       ry="3.6980233"
       rx="3.1971221"
       cy="660.23932"
       cx="349.98553"
       id="ellipse4876"
       style="fill:#000000;fill-opacity:1;stroke:#000000;stroke-width:1.34574461;stroke-miterlimit:4;stroke-dasharray:none;stroke-opacity:1" />
    <path
       style="fill:none;fill-rule:evenodd;stroke:#000000;stroke-width:4;stroke-linecap:butt;stroke-linejoin:miter;stroke-miterlimit:4;stroke-dasharray:none;stroke-opacity:1"
       d="m 318.68492,697.19665 c 8.97097,-1.79458 12.89496,-4.29836 11.34971,-7.79519 -6.96706,-15.76611 -7.30029,-16.10334 -6.96706,-15.76611"
       id="path4878"
       inkscape:connector-curvature="0"
       sodipodi:nodetypes="csc"
       inkscape:transform-center-x="5.2140812"
       inkscape:transform-center-y="4.2192757" />
    <g
       id="g4889"
       transform="translate(163.94966,173.99639)"
       style="stroke-width:4;stroke-miterlimit:4;stroke-dasharray:none">
      <path
         inkscape:connector-curvature="0"
         id="path4882"
         d="m 111.17021,536.1388 c 11.86211,-6.17337 14.72731,-9.3001 15.15957,-9.84043"
         style="fill:none;fill-rule:evenodd;stroke:#000000;stroke-width:4;stroke-linecap:butt;stroke-linejoin:miter;stroke-miterlimit:4;stroke-dasharray:none;stroke-opacity:1"
         sodipodi:nodetypes="cc" />
      <path
         inkscape:connector-curvature="0"
         id="path4884"
         d="m 118.08511,531.08561 c 23.47092,35.01681 61.83175,30.63501 77.65957,4.25532"
         style="fill:none;fill-rule:evenodd;stroke:#000000;stroke-width:4;stroke-linecap:butt;stroke-linejoin:miter;stroke-miterlimit:4;stroke-dasharray:none;stroke-opacity:1" />
      <path
         inkscape:connector-curvature="0"
         id="path4886"
         d="m 190.15957,528.95795 c 4.81235,7.04684 5.9297,8.05735 10.37235,12.76596"
         style="fill:none;fill-rule:evenodd;stroke:#000000;stroke-width:4;stroke-linecap:butt;stroke-linejoin:miter;stroke-miterlimit:4;stroke-dasharray:none;stroke-opacity:1"
         sodipodi:nodetypes="cc" />
    </g>
    <path
       style="fill:none;fill-rule:evenodd;stroke:#000000;stroke-width:3;stroke-linecap:butt;stroke-linejoin:miter;stroke-miterlimit:4;stroke-dasharray:none;stroke-opacity:1"
       d="m 325.49745,1116.6817 -1.50449,-71.0765"
       id="path4156"
       inkscape:path-effect="#path-effect4158"
       inkscape:original-d="m 325.49745,1116.6817 -1.50449,-71.0765"
       inkscape:connector-curvature="0"
       sodipodi:nodetypes="cc" />
    <path
       style="fill:none;fill-rule:evenodd;stroke:#000000;stroke-width:3;stroke-linecap:butt;stroke-linejoin:miter;stroke-miterlimit:4;stroke-dasharray:none;stroke-opacity:1"
       d="m 307.70961,1038.2412 c 4.20202,4.9799 10.79371,7.8459 17.30155,7.5224 6.12655,-0.3045 12.05833,-3.4117 15.79707,-8.2747 l -0.75224,-0.7522"
       id="path4160"
       inkscape:path-effect="#path-effect4162"
       inkscape:original-d="m 307.70961,1038.2412 c 0,0 11.01696,7.75 17.30155,7.5224 5.94045,-0.2151 15.79707,-8.2747 15.79707,-8.2747 l -0.75224,-0.7522"
       inkscape:connector-curvature="0"
       sodipodi:nodetypes="cscc" />
    <path
       style="fill:#241c1c;fill-opacity:1;fill-rule:evenodd;stroke:#000000;stroke-width:4;stroke-linecap:butt;stroke-linejoin:miter;stroke-miterlimit:4;stroke-dasharray:none;stroke-opacity:1"
       d="m 315.65033,1189.1014 1.60465,53.7903 -30.48819,0 c -1.61985,-1.5618 -3.51398,-2.8384 -5.56957,-3.7537 -3.26437,-1.4535 -6.93558,-1.9798 -10.47684,-1.502 l -8.02321,5.6511 -83.41815,0 c -4.6189,-4.2219 -7.5947,-10.1972 -8.18117,-16.4273 -0.58647,-6.2302 1.22199,-12.6558 4.97189,-17.6655 2.82009,-3.7675 6.65396,-6.6997 10.82494,-8.8792 4.17098,-2.1794 8.68367,-3.6356 13.24467,-4.7951 15.67405,-3.9846 32.21134,-4.5361 48.11604,-1.6046 l 67.39494,-4.814 z"
       id="path4300"
       inkscape:path-effect="#path-effect4302"
       inkscape:original-d="m 315.65033,1189.1014 1.60465,53.7903 -30.48819,0 c 0,0 -0.60452,0.4524 -5.56957,-3.7537 -3.26499,-2.7658 -10.47684,-1.502 -10.47684,-1.502 l -8.02321,5.6511 -83.41815,0 c 0,0 -8.48177,-23.969 -3.20928,-34.0928 4.26231,-8.1842 15.18874,-11.1687 24.06961,-13.6743 15.44465,-4.3575 48.11604,-1.6046 48.11604,-1.6046 z"
       inkscape:connector-curvature="0"
       sodipodi:nodetypes="cccscccaacc" />
    <path
       style="fill:#241c1c;fill-opacity:1;fill-rule:evenodd;stroke:#000000;stroke-width:4;stroke-linecap:butt;stroke-linejoin:miter;stroke-miterlimit:4;stroke-dasharray:none;stroke-opacity:1"
       d="m 336.22513,1189.8157 -1.60465,53.7903 30.48819,0 c 1.61985,-1.5618 3.51398,-2.8384 5.56957,-3.7537 3.26437,-1.4535 6.93558,-1.9798 10.47684,-1.502 l 8.02321,5.6511 83.41815,0 c 4.61894,-4.2219 7.59476,-10.1972 8.18122,-16.4274 0.58647,-6.2302 -1.22201,-12.6558 -4.97194,-17.6655 -2.8201,-3.7675 -6.65397,-6.6997 -10.82495,-8.8791 -4.17098,-2.1794 -8.68367,-3.6356 -13.24466,-4.7951 -15.67406,-3.9846 -32.21133,-4.5361 -48.11604,-1.6047 l -67.39494,-4.8139 z"
       id="path4300-8"
       inkscape:path-effect="#path-effect4302-2"
       inkscape:original-d="m 336.22513,1189.8157 -1.60465,53.7903 30.48819,0 c 0,0 0.60452,0.4523 5.56957,-3.7537 3.26499,-2.7658 10.47684,-1.502 10.47684,-1.502 l 8.02321,5.6511 83.41815,0 c 0,0 8.48177,-23.969 3.20928,-34.0929 -4.26231,-8.1841 -15.18874,-11.1686 -24.06961,-13.6742 -15.44465,-4.3575 -48.11604,-1.6047 -48.11604,-1.6047 z"
       inkscape:connector-curvature="0"
       sodipodi:nodetypes="cccscccaacc" />
    <path
       style="fill:none;fill-rule:evenodd;stroke:#000000;stroke-width:4.00000048;stroke-linecap:butt;stroke-linejoin:miter;stroke-miterlimit:4;stroke-dasharray:none;stroke-opacity:1"
       d="M 410.75916,860.05109 396.48395,809.18451"
       id="path6498-6"
       inkscape:connector-curvature="0"
       sodipodi:nodetypes="cc" />
    <path
       style="fill:#ffffff;fill-rule:evenodd;stroke:none;stroke-width:1px;stroke-linecap:butt;stroke-linejoin:miter;stroke-opacity:1"
       d="m 399.68843,1196.1341 -19.62754,28.7035 12.94072,0.043 19.03318,-29.3999 z"
       id="path4198"
       inkscape:connector-curvature="0"
       sodipodi:nodetypes="ccccc" />
    <path
       style="fill:#ffffff;fill-rule:evenodd;stroke:none;stroke-width:1px;stroke-linecap:butt;stroke-linejoin:miter;stroke-opacity:1"
       d="m 420.24757,1194.9453 -17.04786,30.6468 12.49429,-0.046 16.3489,-30.7361 z"
       id="path4198-0"
       inkscape:connector-curvature="0"
       sodipodi:nodetypes="ccccc" />
    <path
       style="fill:#ffffff;fill-rule:evenodd;stroke:none;stroke-width:1px;stroke-linecap:butt;stroke-linejoin:miter;stroke-opacity:1"
       d="m 250.53055,1195.5058 19.62754,28.7035 -12.94072,0.043 -19.03318,-29.3999 z"
       id="path4198-2"
       inkscape:connector-curvature="0"
       sodipodi:nodetypes="ccccc" />
    <path
       style="fill:#ffffff;fill-rule:evenodd;stroke:none;stroke-width:1px;stroke-linecap:butt;stroke-linejoin:miter;stroke-opacity:1"
       d="m 229.97141,1194.317 17.04786,30.6468 -12.49429,-0.046 -16.34891,-30.7361 z"
       id="path4198-0-9"
       inkscape:connector-curvature="0"
       sodipodi:nodetypes="ccccc" />
    <path
       inkscape:connector-curvature="0"
       id="path1258"
       d="m 384.82009,782.4352 0,-0.0619 m -0.0311,0.0639 3.7e-4,-0.0655 m -0.023,0.0663 0,-0.0668"
       style="fill:none;stroke:#000000;stroke-width:0.00053333" />
    <path
       style="fill:none;fill-rule:evenodd;stroke:#000000;stroke-width:4.00000048;stroke-linecap:butt;stroke-linejoin:miter;stroke-miterlimit:4;stroke-dasharray:none;stroke-opacity:1"
       d="m 239.152,861.12251 16.29551,-53.89704"
       id="path6498"
       inkscape:connector-curvature="0"
       sodipodi:nodetypes="cc" />
    <path
       style="fill:#1a1a1a;fill-rule:evenodd;stroke:#000000;stroke-width:4;stroke-linecap:butt;stroke-linejoin:miter;stroke-miterlimit:4;stroke-dasharray:none;stroke-opacity:1"
       d="m 257.7529,629.62476 c 3.20625,-10.01473 8.5467,-22.2051 16.19678,-25.54375 29.9529,-13.07207 58.93574,-10.73635 88.38834,-2.20971 7.85094,2.27288 14.29746,12.83827 18.73311,22.6578 6.43846,11.63389 1.08239,19.07385 13.67738,18.63126 2.81309,-0.12022 5.35853,-0.73963 5.15456,-2.61915 -2.85116,-26.27195 -17.3646,-63.06094 -17.3646,-63.06094 -3.96568,-16.94557 -3.77599,-13.59829 -19.00431,-15.57503 -10.9128,-1.40543 -21.68237,-2.16959 -32.38191,-2.43889 -3.6737,-0.0925 -3.43289,5.34215 -7.09304,5.36043 -4.44563,0.0222 -12.7897,-5.34702 -17.22502,-5.18079 -10.19102,0.38194 -20.36885,1.11603 -30.5979,2.07344 -16.73333,1.31491 -14.11364,0.2396 -19.30452,13.68882 -6.77995,17.60269 -18.25727,49.80026 -18.33743,66.23781 -0.0131,2.6874 4.10555,3.18979 8.09558,3.04655 11.69103,0.091 8.18689,-5.97081 11.06298,-15.06785 z"
       id="path4299"
       inkscape:connector-curvature="0"
       sodipodi:nodetypes="cssccsccsssccscc" />
    <g
       id="g4235"
       transform="translate(-73.472814,-11.600971)">
      <rect
         x="422.29105"
         y="796.48938"
         width="41.999996"
         height="27.999998"
         style="fill:#e70013;fill-rule:evenodd;stroke:#000000;stroke-width:2;stroke-miterlimit:4;stroke-dasharray:none;stroke-opacity:1"
         id="rect171" />
      <ellipse
         ry="7.0618029"
         rx="7.0618024"
         cy="810.47668"
         cx="443.32782"
         style="fill:#ffffff;fill-rule:evenodd;stroke:#000000;stroke-width:0.056;stroke-miterlimit:4;stroke-dasharray:none;stroke-opacity:1"
         id="path554" />
      <path
         d="m 443.32803,815.16019 c -2.58517,0 -4.68322,-2.09805 -4.68322,-4.68322 0,-2.58517 2.09805,-4.68322 4.68322,-4.68322 0.64629,0 1.38177,0.14845 1.88187,0.5159 -3.42507,0.1287 -4.2915,3.03391 -4.2915,4.20457 0,1.17067 0.55373,3.7818 4.2915,4.16732 -0.4256,0.27432 -1.23558,0.47865 -1.88187,0.47865 z"
         style="fill:#e70013;fill-rule:evenodd;stroke:#000000;stroke-width:0.056;stroke-miterlimit:4;stroke-dasharray:none;stroke-opacity:1"
         sodipodi:nodetypes="ccccccc"
         inkscape:connector-curvature="0"
         id="path556" />
      <polygon
         points="445.8 282.71 408.12 268.97 383.2 300.38 384.63 260.31 347.05 246.31 385.61 235.29 387.3 195.22 409.7 228.49 448.33 217.72 423.62 249.3"
         inkscape:flatsided="false"
         inkscape:rounded="0"
         sodipodi:cx="445.00092"
         sodipodi:cy="810.51428"
         inkscape:randomized="0"
         d="m 447.45403,812.44704 -2.12646,-0.77579 -1.40676,1.77333 0.0807,-2.26211 -2.12126,-0.78992 2.17634,-0.62227 0.0958,-2.26153 1.26435,1.87753 2.18043,-0.60779 -1.39493,1.78265 z"
         sodipodi:arg2="1.2956244"
         sodipodi:arg1="0.66730589"
         sodipodi:r2="1.2021945"
         sodipodi:r1="3.1230268"
         sodipodi:sides="5"
         sodipodi:type="star"
         style="fill:#e70013;fill-rule:evenodd;stroke:#000000;stroke-width:0.056;stroke-miterlimit:4;stroke-dasharray:none;stroke-opacity:1"
         id="polygon559" />
    </g>
    <g
       style="font-style:normal;font-weight:normal;font-size:53.6223259px;line-height:125%;font-family:sans-serif;letter-spacing:0px;word-spacing:0px;fill:#e70013;fill-opacity:1;stroke:none;stroke-width:1px;stroke-linecap:butt;stroke-linejoin:miter;stroke-opacity:1"
       id="text4241">
      <path
         d="m 369.83914,1105.0109 q 0,0.4086 0.1532,0.8171 0.15321,0.3575 0.45962,0.8682 0.35749,0.4596 1.02138,0.6128 l 0,6.7922 -15.93349,0 0,-6.7922 q 0.6639,-0.1532 0.97031,-0.6639 0.30641,-0.5617 0.30641,-1.6342 l 0,-22.4703 q 0,-0.5617 -0.1532,-0.9192 -0.15321,-0.3575 -0.56176,-0.9193 -0.35748,-0.6128 -1.02138,-1.0213 l 0,-6.2815 14.70784,0 0.0511,31.6116 z"
         style="font-style:normal;font-variant:normal;font-weight:100;font-stretch:normal;font-family:AcmeFont;-inkscape-font-specification:'AcmeFont Thin';fill:#e70013;fill-opacity:1"
         id="path4246" />
      <path
         d="m 386.4852,1098.0145 -2.19596,0 0,-7.6093 2.4513,0 q 3.21734,0 4.443,-0.766 1.99168,-1.2257 1.99168,-5.0558 0,-1.5832 -0.8171,-2.247 -0.76603,-0.715 -2.19596,-0.715 -1.27672,0 -1.99169,0.9192 -0.66389,0.8682 -0.66389,2.2471 l 0,2.8087 -11.89905,0 0,-9.8562 q 2.75772,-2.4003 7.50712,-3.6259 3.93231,-1.0214 8.11995,-1.0214 5.77079,0 9.70309,2.247 4.90261,2.8088 4.90261,8.2221 0,3.6259 -0.51068,5.3112 -0.86817,2.7577 -3.47269,3.9833 -0.35748,0.1532 -0.35748,0.6639 0,0.4597 0.30641,0.6129 3.21734,1.7363 4.08551,4.3919 0.51069,1.5831 0.51069,6.4857 0,5.3623 -4.49406,8.3243 -4.18765,2.7577 -10.92874,2.7577 -4.34085,0 -8.01781,-0.9703 -4.49407,-1.1746 -7.35392,-3.6259 l 0,-10.9288 12.20546,0 0,3.5749 q 0,1.0724 0.6639,2.0938 0.66389,0.9703 1.88954,0.9703 1.32779,0 1.99169,-0.4596 0.91924,-0.6128 1.07245,-1.9406 0.20427,-1.3278 0.20427,-2.1449 0,-3.2174 -2.14489,-4.1366 -1.17459,-0.5107 -5.00475,-0.5107 z"
         style="font-style:normal;font-variant:normal;font-weight:100;font-stretch:normal;font-family:AcmeFont;-inkscape-font-specification:'AcmeFont Thin';fill:#e70013;fill-opacity:1"
         id="path4248" />
    </g>
  </g>
</svg>
