<svg xmlns="http://www.w3.org/2000/svg" xmlns:xlink="http://www.w3.org/1999/xlink" width="334.825" height="749.607" viewBox="0 0 313.899 702.756"><g transform="translate(-168.989 -543.245)"><ellipse style="fill:#ffe6d5;fill-opacity:1;stroke:#000;stroke-width:4.22298098;stroke-miterlimit:4;stroke-dasharray:none;stroke-opacity:1" cx="396.571" cy="654.076" rx="12.334" ry="14.479"/><ellipse style="fill:#ffe6d5;fill-opacity:1;stroke:#000;stroke-width:4.22298098;stroke-miterlimit:4;stroke-dasharray:none;stroke-opacity:1" cx="247.143" cy="654.648" rx="12.334" ry="14.479"/><ellipse style="fill:#ffe6d5;fill-opacity:1;stroke:#000;stroke-width:4.00000048;stroke-miterlimit:4;stroke-dasharray:none;stroke-opacity:1" cx="220.982" cy="987.777" rx="33.851" ry="36.86"/><ellipse style="fill:#ffe6d5;fill-opacity:1;stroke:#000;stroke-width:3;stroke-miterlimit:4;stroke-dasharray:none;stroke-opacity:1" cx="430.857" cy="994.548" rx="33.851" ry="36.86"/><path style="fill:#ffe6d5;fill-opacity:1;fill-rule:evenodd;stroke:#000;stroke-width:4.00000048;stroke-linecap:butt;stroke-linejoin:miter;stroke-miterlimit:4;stroke-dasharray:none;stroke-opacity:1" d="m245.03 978.815 1.01-126.775-54.043 4.041 3.398 109.667M402.406 980.58l-1.01-126.774 54.043 4.04-3.398 109.667M312.327 1214.866l4.581-120.346-73.328-2.388 9.112 108.953M337.73 1214.202l-4.58-120.346 73.328-2.388-9.112 108.953"/><path style="fill:#f9f9f9;fill-opacity:1;fill-rule:evenodd;stroke:#000;stroke-width:4;stroke-linecap:butt;stroke-linejoin:miter;stroke-miterlimit:4;stroke-dasharray:none;stroke-opacity:1" d="M240.54 949.992c61.163.772 109.827-5.116 166.245-1.505 17.425 67.211 7.74 86.487 6.018 170.646-46.666 15.5-72.162 1.633-88.012-3.761-22.053 16.582-86.913 10.205-87.26 6.77-11.127-148.263 2.64-165.748 3.009-172.15z"/><path style="fill:#c60c30;fill-opacity:1;fill-rule:evenodd;stroke:#000;stroke-width:4.00000048;stroke-linecap:butt;stroke-linejoin:miter;stroke-miterlimit:4;stroke-dasharray:none;stroke-opacity:1" d="M235.323 737.74c-11.82 17.083-41.852 65.071-50.875 123.303-.451 2.91 54.704-.635 54.704-.635l-6.429 114.286 182.858 1.429-4.286-116.43h49.286c-19.124-76.563-28.718-87.28-48.038-123.623-5.641-10.725-2.678-9.287-15.271-8.97L249.794 730.8c-10.661-.262-9.718.086-14.471 6.939z"/><path style="fill:#ffe6d5;fill-opacity:1;fill-rule:evenodd;stroke:#000;stroke-width:4;stroke-linecap:butt;stroke-linejoin:miter;stroke-miterlimit:4;stroke-dasharray:none;stroke-opacity:1" d="m286.202 740.772 74.286-1.429s-2.258 37.338-34.286 37.22c-33.563-.123-40-35.791-40-35.791z"/><path style="fill:#ffe6d5;fill-rule:evenodd;stroke:#000;stroke-width:4;stroke-linecap:butt;stroke-linejoin:miter;stroke-miterlimit:4;stroke-dasharray:none;stroke-opacity:1" d="M268.167 591.42c-26.24 21.324-25.423 80.035-18.849 99.67 8.085 24.148 26.238 47.61 49.339 58.326 16.516 7.661 38.35 8.169 54.62 0 20.212-10.148 35.754-32.308 40.53-54.414 7.131-32.995 1.662-82.205-13.4-101.442-23.311-29.773-83.2-25.74-112.24-2.14z"/><path style="fill:#fff;fill-rule:evenodd;stroke:#000;stroke-width:4;stroke-linecap:butt;stroke-linejoin:miter;stroke-miterlimit:4;stroke-dasharray:none;stroke-opacity:1" d="M296.094 645.678c-6.312-1.748-12.821-1.162-18.199 3.17-17.894 14.414 13.404 34.735 23.61 23.773 7.918-8.504 10.125-26.943-5.41-26.943z"/><ellipse style="fill:#000;fill-opacity:1;stroke:#000;stroke-width:1.34574461;stroke-miterlimit:4;stroke-dasharray:none;stroke-opacity:1" cx="288.47" cy="658.885" rx="3.197" ry="3.698"/><path d="M345.545 647.032c6.312-1.749 12.821-1.162 18.199 3.17 17.894 14.414-13.404 34.735-23.61 23.773-7.918-8.504-10.125-26.943 5.41-26.943z" style="fill:#fff;fill-rule:evenodd;stroke:#000;stroke-width:4;stroke-linecap:butt;stroke-linejoin:miter;stroke-miterlimit:4;stroke-dasharray:none;stroke-opacity:1"/><ellipse ry="3.698" rx="3.197" cy="660.239" cx="349.986" style="fill:#000;fill-opacity:1;stroke:#000;stroke-width:1.34574461;stroke-miterlimit:4;stroke-dasharray:none;stroke-opacity:1"/><path style="fill:none;fill-rule:evenodd;stroke:#000;stroke-width:4;stroke-linecap:butt;stroke-linejoin:miter;stroke-miterlimit:4;stroke-dasharray:none;stroke-opacity:1" d="M318.685 697.197c8.97-1.795 12.895-4.299 11.35-7.796-6.967-15.766-7.3-16.103-6.967-15.766"/><g style="stroke-width:4;stroke-miterlimit:4;stroke-dasharray:none"><path d="M111.17 536.139c11.862-6.174 14.728-9.3 15.16-9.84" style="fill:none;fill-rule:evenodd;stroke:#000;stroke-width:4;stroke-linecap:butt;stroke-linejoin:miter;stroke-miterlimit:4;stroke-dasharray:none;stroke-opacity:1" transform="translate(163.95 173.996)"/><path d="M118.085 531.086c23.471 35.016 61.832 30.635 77.66 4.255" style="fill:none;fill-rule:evenodd;stroke:#000;stroke-width:4;stroke-linecap:butt;stroke-linejoin:miter;stroke-miterlimit:4;stroke-dasharray:none;stroke-opacity:1" transform="translate(163.95 173.996)"/><path d="M190.16 528.958c4.812 7.047 5.93 8.057 10.372 12.766" style="fill:none;fill-rule:evenodd;stroke:#000;stroke-width:4;stroke-linecap:butt;stroke-linejoin:miter;stroke-miterlimit:4;stroke-dasharray:none;stroke-opacity:1" transform="translate(163.95 173.996)"/></g><path style="fill:none;fill-rule:evenodd;stroke:#000;stroke-width:3;stroke-linecap:butt;stroke-linejoin:miter;stroke-miterlimit:4;stroke-dasharray:none;stroke-opacity:1" d="m325.497 1116.682-1.504-71.077M307.71 1038.241c4.202 4.98 10.793 7.846 17.301 7.523 6.127-.305 12.058-3.412 15.797-8.275l-.752-.752"/><path style="fill:#241c1c;fill-opacity:1;fill-rule:evenodd;stroke:#000;stroke-width:4;stroke-linecap:butt;stroke-linejoin:miter;stroke-miterlimit:4;stroke-dasharray:none;stroke-opacity:1" d="m315.65 1189.101 1.605 53.79h-30.488a19.433 19.433 0 0 0-5.57-3.753 19.504 19.504 0 0 0-10.477-1.502l-8.023 5.651H179.28c-4.619-4.222-7.595-10.197-8.181-16.427-.587-6.23 1.222-12.656 4.972-17.666 2.82-3.767 6.654-6.7 10.825-8.879 4.17-2.18 8.683-3.636 13.244-4.795a112.942 112.942 0 0 1 48.116-1.605l67.395-4.814zM336.225 1189.816l-1.605 53.79h30.489a19.433 19.433 0 0 1 5.57-3.754 19.504 19.504 0 0 1 10.476-1.502l8.023 5.651h83.418c4.62-4.221 7.595-10.197 8.182-16.427.586-6.23-1.222-12.656-4.972-17.665-2.82-3.768-6.654-6.7-10.825-8.88-4.171-2.179-8.684-3.635-13.245-4.795a112.944 112.944 0 0 0-48.116-1.604l-67.395-4.814z"/><path style="fill:none;fill-rule:evenodd;stroke:#000;stroke-width:4.00000048;stroke-linecap:butt;stroke-linejoin:miter;stroke-miterlimit:4;stroke-dasharray:none;stroke-opacity:1" d="m410.76 860.051-14.276-50.866"/><path style="fill:#fff;fill-rule:evenodd;stroke:none;stroke-width:1px;stroke-linecap:butt;stroke-linejoin:miter;stroke-opacity:1" d="m399.688 1196.134-19.627 28.704 12.94.043 19.034-29.4zM420.248 1194.945l-17.048 30.647 12.494-.046 16.349-30.736zM250.53 1195.506l19.628 28.703-12.94.043-19.034-29.4zM229.971 1194.317l17.048 30.647-12.494-.046-16.349-30.736z"/><path d="M384.82 782.435v-.062m-.031.064v-.065m-.023.066v-.067" style="fill:none;stroke:#000;stroke-width:.00053333"/><path style="fill:none;fill-rule:evenodd;stroke:#000;stroke-width:4.22584534;stroke-linecap:butt;stroke-linejoin:miter;stroke-miterlimit:4;stroke-dasharray:none;stroke-opacity:1" d="m239.152 861.123 16.296-53.898"/><path style="fill:#c60c30" d="M177.58 180.4h2983.9v1983.7H177.58z" transform="matrix(.01271 0 0 .01242 347.125 785.718)"/><path style="fill:#fff" d="M1145.3 180.4h322.58v1983.7H1145.3z" transform="matrix(.01271 0 0 .01242 347.125 785.718)"/><path style="fill:#fff" d="M177.58 1011.7h2983.9v321.17H177.58z" transform="matrix(.01271 0 0 .01242 347.125 785.718)"/><path style="opacity:1;fill:none;fill-opacity:1;stroke:#000;stroke-width:2.58583093;stroke-miterlimit:4;stroke-dasharray:none;stroke-opacity:1" d="M348.774 786.712h39.914v26.581h-39.914z"/><path style="fill:#f95;fill-rule:evenodd;stroke:#000;stroke-width:4;stroke-linecap:butt;stroke-linejoin:miter;stroke-miterlimit:4;stroke-dasharray:none;stroke-opacity:1" d="M236.102 571.231c29.54-1.693 39.888-16.369 58.138-22.013 24.084-7.15 45.91-3.575 62.09 2.258 34.056 20.32 33.94 31.469 41.205 52.494 5.224 15.115 0 47.978 0 47.978h-6.773l-.565-37.818-27.093-14.676 6.773 16.934c-14.111-3.857-23.142-6.303-37.254-15.805v16.934c-12.982-5.833-18.627-6.868-32.174-17.498v18.062c-15.468-2.624-25.215-5.844-41.205-19.756-3.669 13.641-7.62 28.129-6.773 53.623l-6.774.565c-.94-14.3-5.832-43.84 7.338-68.3-9.313-1.787-11.571-6.96-16.933-12.982z"/><use height="100%" width="100%" style="fill:#fff" xlink:href="#Star7" transform="matrix(.66666 0 0 .66666 514.009 965.82)"/><use height="100%" width="100%" style="fill:#fff" xlink:href="#Star7" transform="matrix(.31746 0 0 .31746 554.008 969.154)"/><use height="100%" width="100%" style="fill:#fff" xlink:href="#Star7" transform="matrix(.31746 0 0 .31746 544.008 953.321)"/><use height="100%" width="100%" style="fill:#fff" xlink:href="#Star7" transform="matrix(.31746 0 0 .31746 554.008 942.488)"/><use height="100%" width="100%" style="fill:#fff" xlink:href="#Star7" transform="matrix(.31746 0 0 .31746 562.897 950.654)"/><use height="100%" width="100%" style="fill:#fff" xlink:href="#Star5" transform="translate(558.008 957.488) scale(.18518)"/><g style="font-style:normal;font-weight:400;font-size:54.13669205px;line-height:125%;font-family:sans-serif;letter-spacing:0;word-spacing:0;fill:#c60c30;fill-opacity:1;stroke:none;stroke-width:1px;stroke-linecap:butt;stroke-linejoin:miter;stroke-opacity:1"><path d="M356.454 1108.734q.103.31 1.185.31h1.65q1.238 0 1.805-.568.876-.876.876-2.32v-1.289h12.168v12.065h-30.626v-10.982q0-5.105 4.847-8.559.722-.516 8.971-4.743 4.898-2.527 4.898-5.208 0-3.815-2.887-3.815-1.547 0-2.166 1.031-.618 1.031-.618 2.63v3.609h-12.014v-11.034q2.682-2.526 7.425-3.815 3.97-1.083 8.352-1.083 6.497 0 10.364 2.836 4.485 3.3 4.485 9.899 0 6.084-4.846 10.105-1.908 1.599-9.074 5.208-4.899 2.475-4.899 4.743 0 .62.104.98zM409.245 1106.362q0 5.878-4.795 8.714-3.867 2.268-10.209 2.268-4.382 0-8.043-.98-4.228-1.134-7.012-3.505v-8.868h12.271v2.423q0 1.495.567 2.114.62.567 1.857.567 1.443 0 2.062-.825.464-.619.464-1.908v-1.804q.052-.567.052-.877 0-.773-.31-1.134-.464-.516-1.753-.516-.98.103-1.856.155-.876.052-2.062.052-5.569 0-8.456-1.908-3.506-2.32-3.506-7.579v-8.095q0-4.95 4.331-7.733 3.97-2.578 10.054-2.578 6.496 0 11.085 2.68 5.26 3.094 5.26 8.456v20.882zm-12.632-20.726q0-.98-.98-1.547-.927-.567-2.062-.567-1.031 0-1.804.618-.774.568-.774 1.547v5.826q0 1.496.67 2.063.67.567 1.857.567 1.392 0 2.217-.516.876-.515.876-1.546v-6.445z" style="font-style:normal;font-variant:normal;font-weight:100;font-stretch:normal;font-family:AcmeFont;-inkscape-font-specification:'AcmeFont Thin';fill:#c60c30;fill-opacity:1"/></g></g></svg>