<?xml version="1.0" encoding="UTF-8" standalone="no"?>
<!-- Created with Inkscape (http://www.inkscape.org/) -->

<svg
   xmlns:dc="http://purl.org/dc/elements/1.1/"
   xmlns:cc="http://creativecommons.org/ns#"
   xmlns:rdf="http://www.w3.org/1999/02/22-rdf-syntax-ns#"
   xmlns:svg="http://www.w3.org/2000/svg"
   xmlns="http://www.w3.org/2000/svg"
   xmlns:xlink="http://www.w3.org/1999/xlink"
   xmlns:sodipodi="http://sodipodi.sourceforge.net/DTD/sodipodi-0.dtd"
   xmlns:inkscape="http://www.inkscape.org/namespaces/inkscape"
   width="88.589119mm"
   height="198.1416mm"
   viewBox="0 0 313.89846 702.07654"
   id="svg2"
   version="1.1"
   inkscape:version="0.91 r13725"
   sodipodi:docname="soccer_croatia.svg"
   inkscape:export-filename="C:\Users\Isenberg\Documents\CloudStation\Fußballer\soccer_croatia.png"
   inkscape:export-xdpi="114.73759"
   inkscape:export-ydpi="114.73759">
  <defs
     id="defs4">
    <pattern
       inkscape:collect="always"
       xlink:href="#Checkerboard"
       id="pattern5648"
       patternTransform="matrix(57.533792,-0.45718824,0.48864158,61.491965,345.44602,-10.087918)" />
    <pattern
       inkscape:stockid="Checkerboard"
       id="Checkerboard"
       patternTransform="translate(0,0) scale(10,10)"
       height="2"
       width="2"
       patternUnits="userSpaceOnUse"
       inkscape:collect="always">
      <rect
         id="rect5005"
         height="1"
         width="1"
         y="0"
         x="0"
         style="fill:black;stroke:none" />
      <rect
         id="rect5007"
         height="1"
         width="1"
         y="1"
         x="1"
         style="fill:black;stroke:none" />
    </pattern>
    <inkscape:path-effect
       effect="spiro"
       id="path-effect4138"
       is_visible="true" />
    <inkscape:path-effect
       effect="spiro"
       id="path-effect4192-6-2"
       is_visible="true" />
    <inkscape:path-effect
       effect="spiro"
       id="path-effect4192-3-1"
       is_visible="true" />
    <inkscape:path-effect
       effect="spiro"
       id="path-effect4192-2"
       is_visible="true" />
    <inkscape:path-effect
       effect="spiro"
       id="path-effect4192-6"
       is_visible="true" />
    <inkscape:path-effect
       effect="spiro"
       id="path-effect4192-3"
       is_visible="true" />
    <inkscape:path-effect
       effect="spiro"
       id="path-effect4192"
       is_visible="true" />
    <inkscape:path-effect
       is_visible="true"
       id="path-effect4188"
       effect="spiro" />
    <inkscape:path-effect
       effect="spiro"
       id="path-effect4184"
       is_visible="true" />
    <inkscape:path-effect
       effect="spiro"
       id="path-effect4176"
       is_visible="true" />
    <inkscape:path-effect
       effect="spiro"
       id="path-effect4172"
       is_visible="true" />
    <inkscape:path-effect
       effect="spiro"
       id="path-effect4162"
       is_visible="true" />
    <inkscape:path-effect
       effect="spiro"
       id="path-effect4158"
       is_visible="true" />
    <inkscape:path-effect
       effect="spiro"
       id="path-effect4157-7"
       is_visible="true" />
    <inkscape:path-effect
       effect="spiro"
       id="path-effect4157"
       is_visible="true" />
    <inkscape:path-effect
       effect="spiro"
       id="path-effect4180"
       is_visible="true" />
    <inkscape:path-effect
       effect="spiro"
       id="path-effect4273"
       is_visible="true" />
    <inkscape:path-effect
       effect="spiro"
       id="path-effect4269"
       is_visible="true" />
    <inkscape:path-effect
       effect="spiro"
       id="path-effect4302"
       is_visible="true" />
    <inkscape:path-effect
       effect="spiro"
       id="path-effect4306"
       is_visible="true" />
    <inkscape:path-effect
       effect="spiro"
       id="path-effect4310"
       is_visible="true" />
    <inkscape:path-effect
       effect="spiro"
       id="path-effect4302-2"
       is_visible="true" />
    <inkscape:path-effect
       effect="spiro"
       id="path-effect4306-8"
       is_visible="true" />
    <inkscape:path-effect
       effect="spiro"
       id="path-effect4310-6"
       is_visible="true" />
    <clipPath
       id="band">
      <circle
         cy="0"
         cx="0"
         r="735"
         id="circle53" />
    </clipPath>
    <clipPath
       id="gcut">
      <path
         inkscape:connector-curvature="0"
         d="m -31.5,0 0,-70 63,0 0,70 z M 0,-47 l 0,12 31.5,0 0,-12 z"
         id="path11" />
    </clipPath>
  </defs>
  <sodipodi:namedview
     id="base"
     pagecolor="#ffffff"
     bordercolor="#666666"
     borderopacity="1.0"
     inkscape:pageopacity="0.0"
     inkscape:pageshadow="2"
     inkscape:zoom="0.54267587"
     inkscape:cx="-61.705806"
     inkscape:cy="347.44321"
     inkscape:document-units="px"
     inkscape:current-layer="layer1"
     showgrid="false"
     fit-margin-top="0"
     fit-margin-left="0"
     fit-margin-right="0"
     fit-margin-bottom="0"
     inkscape:window-width="1920"
     inkscape:window-height="1017"
     inkscape:window-x="-8"
     inkscape:window-y="-8"
     inkscape:window-maximized="1" />
  <metadata
     id="metadata7">
    <rdf:RDF>
      <cc:Work
         rdf:about="">
        <dc:format>image/svg+xml</dc:format>
        <dc:type
           rdf:resource="http://purl.org/dc/dcmitype/StillImage" />
        <dc:title />
      </cc:Work>
    </rdf:RDF>
  </metadata>
  <g
     inkscape:label="Ebene 1"
     inkscape:groupmode="layer"
     id="layer1"
     transform="translate(-168.98851,-543.92485)">
    <ellipse
       style="fill:#ffb380;fill-opacity:1;stroke:#000000;stroke-width:4.22298098;stroke-miterlimit:4;stroke-dasharray:none;stroke-opacity:1"
       id="path4387-0"
       cx="396.57144"
       cy="654.07648"
       rx="12.333632"
       ry="14.479342" />
    <ellipse
       style="fill:#ffb380;fill-opacity:1;stroke:#000000;stroke-width:4.22298098;stroke-miterlimit:4;stroke-dasharray:none;stroke-opacity:1"
       id="path4387-0-4"
       cx="247.14287"
       cy="654.64789"
       rx="12.333632"
       ry="14.479342" />
    <ellipse
       style="fill:#ffb380;fill-opacity:1;stroke:#000000;stroke-width:4.00000048;stroke-miterlimit:4;stroke-dasharray:none;stroke-opacity:1"
       id="path4250"
       cx="220.98157"
       cy="987.77747"
       rx="33.850857"
       ry="36.859821" />
    <ellipse
       style="fill:#ffb380;fill-opacity:1;stroke:#000000;stroke-width:3;stroke-miterlimit:4;stroke-dasharray:none;stroke-opacity:1"
       id="path4250-7"
       cx="430.85687"
       cy="994.54761"
       rx="33.850857"
       ry="36.859821" />
    <path
       style="fill:#ffb380;fill-opacity:1;fill-rule:evenodd;stroke:#000000;stroke-width:4.00000048;stroke-linecap:butt;stroke-linejoin:miter;stroke-miterlimit:4;stroke-dasharray:none;stroke-opacity:1"
       d="m 245.02983,978.8146 1.01016,-126.77414 -54.04317,4.04061 3.39812,109.66719"
       id="path6385"
       inkscape:connector-curvature="0"
       sodipodi:nodetypes="cccc" />
    <path
       style="fill:#ffb380;fill-opacity:1;fill-rule:evenodd;stroke:#000000;stroke-width:4.00000048;stroke-linecap:butt;stroke-linejoin:miter;stroke-miterlimit:4;stroke-dasharray:none;stroke-opacity:1"
       d="m 402.40576,980.57983 -1.01016,-126.77415 54.04317,4.04061 -3.39812,109.6672"
       id="path6385-0"
       inkscape:connector-curvature="0"
       sodipodi:nodetypes="cccc" />
    <path
       style="fill:#ffb380;fill-opacity:1;fill-rule:evenodd;stroke:#000000;stroke-width:4.00000048;stroke-linecap:butt;stroke-linejoin:miter;stroke-miterlimit:4;stroke-dasharray:none;stroke-opacity:1"
       d="m 312.32683,1214.8655 4.58159,-120.3455 -73.32888,-2.388 9.1124,108.9529"
       id="path6385-4"
       inkscape:connector-curvature="0"
       sodipodi:nodetypes="cccc" />
    <path
       style="fill:#ffb380;fill-opacity:1;fill-rule:evenodd;stroke:#000000;stroke-width:4.00000048;stroke-linecap:butt;stroke-linejoin:miter;stroke-miterlimit:4;stroke-dasharray:none;stroke-opacity:1"
       d="m 337.73084,1214.2016 -4.58159,-120.3456 73.32889,-2.388 -9.1124,108.953"
       id="path6385-4-8"
       inkscape:connector-curvature="0"
       sodipodi:nodetypes="cccc" />
    <path
       style="fill:#ffffff;fill-opacity:1;fill-rule:evenodd;stroke:#000000;stroke-width:4;stroke-linecap:butt;stroke-linejoin:miter;stroke-miterlimit:4;stroke-dasharray:none;stroke-opacity:1"
       d="m 240.53983,949.99181 c 61.16302,0.77236 109.82713,-5.11572 166.24531,-1.50448 17.42484,67.21087 7.73954,86.48677 6.01793,170.64547 -46.66599,15.4996 -72.16179,1.6334 -88.01223,-3.7612 -22.05292,16.5823 -86.91318,10.2055 -87.25997,6.7701 -11.12659,-148.263 2.64065,-165.7477 3.00896,-172.14989 z"
       id="path4154"
       inkscape:connector-curvature="0"
       sodipodi:nodetypes="cccccc" />
    <g
       id="g5731"
       transform="translate(-475.59508,87.301015)">
      <g
         transform="translate(130.30002,-72.968012)"
         id="g5693">
        <path
           style="fill:url(#pattern5648);fill-opacity:1;fill-rule:evenodd;stroke:#000000;stroke-width:4.00000048;stroke-linecap:butt;stroke-linejoin:miter;stroke-miterlimit:4;stroke-dasharray:none;stroke-opacity:1"
           d="m 580.76862,727.65202 c -11.8202,17.08266 -41.85183,65.07129 -50.87474,123.30335 -0.45095,2.91034 54.70414,-0.63506 54.70414,-0.63506 l -6.42857,114.28571 182.85714,1.42857 -4.28571,-116.42857 49.28571,0 c -19.12397,-76.56397 -28.71743,-87.28068 -48.03803,-123.6241 -5.64082,-10.72502 -2.67752,-9.2868 -15.27062,-8.97066 l -147.4781,3.70231 c -10.66086,-0.26216 -9.71762,0.0855 -14.47122,6.93845 z"
           id="path6383"
           inkscape:connector-curvature="0"
           sodipodi:nodetypes="csccccccccc" />
        <path
           style="opacity:1;fill:#ff0000;fill-opacity:1;stroke:#ffffff;stroke-width:0.65150011;stroke-miterlimit:4;stroke-dasharray:none;stroke-opacity:0.94117647"
           d="m 640.05223,817.47289 c -0.20632,-16.78866 -0.32561,-30.56526 -0.26509,-30.61468 0.0605,-0.0494 12.93644,-0.21247 28.61316,-0.36235 l 28.50313,-0.27251 0,30.49278 0,30.49274 -25.89713,0.01 c -14.24342,0 -26.95053,0.1815 -28.23803,0.3944 l -2.3409,0.3873 -0.37514,-30.52485 z"
           id="path5650"
           inkscape:connector-curvature="0" />
        <path
           style="opacity:1;fill:#ff0000;fill-opacity:1;stroke:none;stroke-width:0.65150011;stroke-miterlimit:4;stroke-dasharray:none;stroke-opacity:1"
           d="m 528.28535,230.21161 c -0.23571,-6.50729 -0.42856,-20.09328 -0.42856,-30.19109 l 0,-18.35964 28.16002,-0.39249 c 15.48801,-0.21586 28.2857,-0.2668 28.43932,-0.11318 0.15361,0.15361 0.42244,13.91622 0.59739,30.58357 l 0.31809,30.30428 -28.32885,0 -28.32885,0 -0.42856,-11.83145 z"
           id="path5677"
           inkscape:connector-curvature="0"
           transform="translate(168.98851,543.92485)" />
        <path
           style="opacity:1;fill:#ff0000;fill-opacity:1;stroke:none;stroke-width:1;stroke-miterlimit:4;stroke-dasharray:none;stroke-opacity:1"
           d="m 413.06858,214.84293 c -0.27744,-27.92435 -0.2559,-28.54597 1.06062,-30.61244 l 1.34382,-2.10932 27.20013,-0.008 27.20013,-0.008 0,30.18953 0,30.18953 -20.6285,0.43097 c -11.34567,0.23704 -24.06301,0.43098 -28.26075,0.43098 l -7.63226,0 -0.28319,-28.50313 z"
           id="path5679"
           inkscape:connector-curvature="0"
           transform="translate(168.98851,543.92485)" />
        <path
           style="opacity:1;fill:#ff0000;fill-opacity:1;stroke:none;stroke-width:1;stroke-miterlimit:4;stroke-dasharray:none;stroke-opacity:1"
           d="m 363.67876,304.33303 c 0,-1.71729 2.63923,-13.77562 4.86393,-22.22272 2.47222,-9.38693 6.89019,-22.81102 10.55277,-32.06481 l 2.39373,-6.04794 15.42082,0 15.42082,0 0.43097,20.62849 c 0.23703,11.34568 0.43097,24.93142 0.43097,30.19055 l 0,9.56205 -15.7415,0.42996 c -25.59487,0.69909 -33.77251,0.58393 -33.77251,-0.47558 z"
           id="path5681"
           inkscape:connector-curvature="0"
           transform="translate(168.98851,543.92485)" />
        <path
           style="opacity:1;fill:#ff0000;fill-opacity:1;stroke:none;stroke-width:1;stroke-miterlimit:4;stroke-dasharray:none;stroke-opacity:1"
           d="m 414.7259,361.86068 c 0.22154,-2.65532 1.03148,-16.40827 1.79988,-30.56211 0.7684,-14.15384 1.44382,-25.79471 1.50094,-25.86861 0.0571,-0.0739 11.84748,-0.22048 26.20082,-0.32575 l 26.09697,-0.19139 0.42455,16.939 c 0.2335,9.31645 0.42515,23.02238 0.42589,30.45763 l 10e-4,13.51863 -21.01088,0.003 c -11.55598,0.002 -24.34795,0.19523 -28.42659,0.43023 l -7.41571,0.42727 0.4028,-4.82786 0,3e-5 z"
           id="path5683"
           inkscape:connector-curvature="0"
           transform="translate(168.98851,543.92485)" />
        <path
           style="opacity:1;fill:#ff0000;fill-opacity:1;stroke:none;stroke-width:1;stroke-miterlimit:4;stroke-dasharray:none;stroke-opacity:1"
           d="m 529.03303,335.0447 c -0.10944,-16.57254 -0.18528,-30.19445 -0.16853,-30.27093 0.0168,-0.0765 12.66966,-0.34292 28.11757,-0.5921 l 28.08711,-0.45306 0.37676,3.52385 c 0.20722,1.93812 0.45402,15.76393 0.54844,30.72401 l 0.17167,27.20016 -28.46702,-3e-5 -28.46701,-2e-5 -0.19899,-30.13188 z"
           id="path5685"
           inkscape:connector-curvature="0"
           transform="translate(168.98851,543.92485)" />
        <path
           style="opacity:1;fill:#ff0000;fill-opacity:1;stroke:none;stroke-width:1;stroke-miterlimit:4;stroke-dasharray:none;stroke-opacity:1"
           d="m 586.27025,287.54257 c -0.23647,-8.65783 -0.42995,-22.25783 -0.42995,-30.22223 l 0,-14.48073 14.70777,-0.47956 c 8.27102,-0.26968 14.94505,-0.23014 15.24995,0.0904 1.43963,1.51326 9.18127,26.2845 14.41194,46.11451 1.80459,6.8414 3.4269,12.95196 3.60512,13.57903 0.30436,1.07089 -1.11636,1.14013 -23.39542,1.14013 l -23.71945,0 -0.42996,-15.7415 z"
           id="path5687"
           inkscape:connector-curvature="0"
           transform="translate(168.98851,543.92485)" />
        <path
           style="opacity:1;fill:#ff0000;fill-opacity:1;stroke:none;stroke-width:1;stroke-miterlimit:4;stroke-dasharray:none;stroke-opacity:1"
           d="m 470.05732,179.7402 0,-1.84842 1.90031,-0.12797 c 1.04516,-0.0704 4.59528,-0.18282 7.88914,-0.24988 5.93431,-0.1208 41.67244,-0.9841 45.54987,-1.10031 l 2.01559,-0.0604 -1.2e-4,2.33307 -1.1e-4,2.33306 -19.06064,0.14362 c -10.48336,0.079 -23.38816,0.20708 -28.67734,0.28464 l -9.6167,0.14102 0,-1.84842 z"
           id="path5689"
           inkscape:connector-curvature="0"
           transform="translate(168.98851,543.92485)" />
        <path
           style="opacity:1;fill:#ff0000;fill-opacity:1;stroke:none;stroke-width:1;stroke-miterlimit:4;stroke-dasharray:none;stroke-opacity:1"
           d="m 473.85476,418.89961 -1.42387,-0.18033 -0.30273,-12.06914 c -0.16651,-6.63802 -0.30317,-18.41752 -0.30368,-26.17666 l -9.5e-4,-14.10753 28.447,-0.21519 c 15.64585,-0.11835 28.48635,-0.19165 28.53445,-0.16288 0.0481,0.0288 0.15175,12.01951 0.23034,26.64609 l 0.14289,26.5938 -26.94979,-0.0739 c -14.82238,-0.0406 -27.59053,-0.15506 -28.37366,-0.25424 z"
           id="path5691"
           inkscape:connector-curvature="0"
           transform="translate(168.98851,543.92485)" />
      </g>
      <path
         transform="translate(168.98851,543.92485)"
         inkscape:connector-curvature="0"
         id="path5705"
         d="m 659.07505,218.86751 c -0.23571,-6.5073 -0.42857,-20.09283 -0.42857,-30.19008 l 0,-18.35864 17.69635,-0.43042 c 9.733,-0.23674 22.44034,-0.43043 28.23854,-0.43043 l 10.54218,0 0.42747,9.87608 c 0.23511,5.43185 0.42747,19.21108 0.42747,30.62051 l 0,20.74442 -28.23744,0 -28.23744,0 -0.42856,-11.83144 z"
         style="opacity:1;fill:#ffffff;fill-opacity:1;stroke:#ffffff;stroke-width:0.65150011;stroke-miterlimit:4;stroke-dasharray:none;stroke-opacity:1" />
      <path
         transform="translate(168.98851,543.92485)"
         inkscape:connector-curvature="0"
         id="path5707"
         d="m 601.83883,262.45958 c -0.14597,-16.57254 -0.25037,-30.16915 -0.232,-30.21471 0.0184,-0.0456 12.8598,-0.29429 28.53652,-0.55274 l 28.50313,-0.46991 0.009,29.21875 c 0.005,16.0703 0.18567,29.87838 0.40174,30.68461 l 0.39283,1.46588 -28.67286,0 -28.67286,0 -0.2654,-30.13188 z"
         style="opacity:1;fill:#ffffff;fill-opacity:1;stroke:#ffffff;stroke-width:0.65150011;stroke-miterlimit:4;stroke-dasharray:none;stroke-opacity:1" />
      <path
         transform="translate(168.98851,543.92485)"
         inkscape:connector-curvature="0"
         id="path5709"
         d="m 512.73613,169.06466 c 3.95407,-10.39999 15.36288,-32.04458 24.6895,-46.84048 l 4.92808,-7.818 0.17003,27.62731 c 0.0935,15.19502 0.0935,27.68943 0,27.76534 -0.0935,0.0759 -6.98615,0.34202 -15.31697,0.59134 l -15.14694,0.4533 0.6763,-1.77881 z"
         style="opacity:1;fill:#ffffff;fill-opacity:1;stroke:#ffffff;stroke-width:0.65150011;stroke-miterlimit:4;stroke-dasharray:none;stroke-opacity:1" />
      <path
         transform="translate(168.98851,543.92485)"
         inkscape:connector-curvature="0"
         id="path5711"
         d="m 601.09019,161.56264 c -0.23497,-4.3699 -0.42722,-17.98507 -0.42722,-30.25592 l 0,-22.31065 28.17738,-0.25075 c 15.49756,-0.13791 28.263,-0.20317 28.36763,-0.14503 0.10464,0.0581 0.37118,13.58482 0.59232,30.05928 l 0.40207,29.95356 -1.56957,0.38043 c -0.86326,0.20924 -13.61738,0.41057 -28.34248,0.44739 l -26.77292,0.067 -0.42721,-7.94527 z"
         style="opacity:1;fill:#ffffff;fill-opacity:1;stroke:#ffffff;stroke-width:0.65150011;stroke-miterlimit:4;stroke-dasharray:none;stroke-opacity:1" />
      <path
         transform="translate(168.98851,543.92485)"
         inkscape:connector-curvature="0"
         id="path5713"
         d="m 657.99498,105.69444 0,-1.87099 8.95813,-0.39917 c 4.92697,-0.21955 17.35993,-0.58791 27.6288,-0.81859 l 18.67068,-0.41942 1.0372,2.00573 c 0.57046,1.10314 1.0372,2.31345 1.0372,2.68957 0,0.46711 -9.08553,0.68386 -28.666,0.68386 l -28.66601,0 0,-1.87099 z"
         style="opacity:1;fill:#ffffff;fill-opacity:1;stroke:#ffffff;stroke-width:0.65150011;stroke-miterlimit:4;stroke-dasharray:none;stroke-opacity:1" />
      <path
         transform="translate(168.98851,543.92485)"
         inkscape:connector-curvature="0"
         id="path5715"
         d="m 546.32995,108.31136 c 0.81666,-1.13651 1.74892,-1.87171 2.70198,-2.13084 0.50675,-0.13779 2.5082,-0.2511 4.44767,-0.25181 3.78253,-10e-4 38.4526,-0.81778 43.52065,-1.02481 l 3.052,-0.12468 0,1.81497 0,1.81497 -5.81608,0.13788 c -3.19885,0.0758 -15.39249,0.20152 -27.09698,0.2793 l -21.2809,0.1414 0.47166,-0.65638 z"
         style="opacity:1;fill:#ffffff;fill-opacity:1;stroke:#ffffff;stroke-width:0.23034008;stroke-miterlimit:4;stroke-dasharray:none;stroke-opacity:1" />
      <path
         transform="translate(168.98851,543.92485)"
         inkscape:connector-curvature="0"
         id="path5717"
         d="m 659.96466,331.75714 c -0.23632,-8.12023 -0.42968,-20.0933 -0.42968,-26.60683 l 0,-11.84279 17.69635,-0.43043 c 9.73299,-0.23673 22.45192,-0.43042 28.26427,-0.43042 10.4086,0 10.57384,0.0221 10.96076,1.46587 0.21606,0.80623 0.39684,12.973 0.40174,27.03726 l 0.009,25.57137 -28.23633,0 -28.23633,0 -0.42967,-14.76403 z"
         style="opacity:1;fill:#ffffff;fill-opacity:1;stroke:#ffffff;stroke-width:0.65150011;stroke-miterlimit:4;stroke-dasharray:none;stroke-opacity:1" />
      <path
         transform="translate(168.98851,543.92485)"
         inkscape:connector-curvature="0"
         id="path5719"
         d="m 659.27626,230.48924 c -0.16115,-0.50179 -0.48414,-14.27745 -0.71775,-30.61259 l -0.42474,-29.70026 17.74545,-0.43162 c 9.76001,-0.23739 22.63498,-0.43162 28.61106,-0.43162 l 10.8656,0 0.42831,15.14737 c 0.23557,8.33106 0.42898,22.11029 0.4298,30.62051 l 0.002,15.47313 -21.39815,0 c -11.76899,0 -24.51439,0.19066 -28.32312,0.4237 -5.63511,0.34479 -6.97953,0.25378 -7.21796,-0.48862 z"
         style="opacity:1;fill:#ffffff;fill-opacity:1;stroke:#ffffff;stroke-width:0.65150011;stroke-miterlimit:4;stroke-dasharray:none;stroke-opacity:1" />
      <path
         transform="translate(168.98851,543.92485)"
         inkscape:connector-curvature="0"
         id="path5721"
         d="m 715.91021,138.65196 c -0.26511,-16.50532 -0.33796,-30.15375 -0.16188,-30.32983 0.39275,-0.39275 13.48001,23.54265 19.45559,35.58251 2.40087,4.83739 5.8379,12.38665 7.63784,16.77613 l 3.27262,7.98087 -14.86106,0 -14.86107,0 -0.48204,-30.00968 z"
         style="opacity:1;fill:#ffffff;fill-opacity:1;stroke:#ffffff;stroke-width:0.65150011;stroke-miterlimit:4;stroke-dasharray:none;stroke-opacity:1" />
      <path
         transform="translate(168.98851,543.92485)"
         inkscape:connector-curvature="0"
         id="path5723"
         d="m 601.98538,286.8454 c -0.23494,-3.54832 -0.42868,-17.33302 -0.43054,-30.63266 l -0.003,-24.18118 28.37958,-0.48221 c 15.60877,-0.26522 28.49992,-0.36187 28.64701,-0.21479 0.14708,0.14709 0.34927,13.95759 0.4493,30.69 l 0.18187,30.42258 -16.2875,0.002 c -8.95813,9.1e-4 -21.73738,0.19207 -28.39834,0.42487 l -12.11084,0.42325 -0.42717,-6.45149 z"
         style="opacity:1;fill:#ffffff;fill-opacity:1;stroke:#ffffff;stroke-width:0.65150011;stroke-miterlimit:4;stroke-dasharray:none;stroke-opacity:1" />
      <path
         transform="translate(168.98851,543.92485)"
         inkscape:connector-curvature="0"
         id="path5725"
         d="m 550.89734,345.38426 -6.02638,-0.21498 0,-25.69633 0,-25.69632 28.34045,-0.17636 28.34046,-0.17635 -2e-4,26.22288 -2e-4,26.22287 -22.31388,-0.13521 c -12.27263,-0.0744 -25.02574,-0.23196 -28.34025,-0.3502 z"
         style="opacity:1;fill:#ffffff;fill-opacity:1;stroke:#ffffff;stroke-width:0.65150011;stroke-miterlimit:4;stroke-dasharray:none;stroke-opacity:1" />
      <path
         transform="translate(168.98851,543.92485)"
         inkscape:connector-curvature="0"
         id="path5727"
         d="m 546.43895,231.39348 -2.01527,-0.25515 -0.42786,-12.77536 c -0.23532,-7.02644 -0.42786,-20.64393 -0.42786,-30.26109 l 0,-17.48573 28.23925,0 28.23926,0 0.42675,8.89826 c 0.23471,4.89404 0.42675,18.4794 0.42675,30.18969 l 0,21.29144 -19.65113,0.43081 c -19.9701,0.4378 -31.17592,0.42722 -34.80989,-0.0329 z"
         style="opacity:1;fill:#ffffff;fill-opacity:1;stroke:#ffffff;stroke-width:0.65150011;stroke-miterlimit:4;stroke-dasharray:none;stroke-opacity:1" />
      <path
         transform="translate(168.98851,543.92485)"
         inkscape:connector-curvature="0"
         id="path5729"
         d="m 600.89871,157.42327 c -7e-4,-6.89776 -0.19443,-20.67699 -0.43052,-30.62051 l -0.42926,-18.07913 28.66541,0 28.6654,0 0.43112,21.60586 c 0.23712,11.88322 0.43112,25.46897 0.43112,30.19055 l 0,8.58469 -15.7415,0.42996 c -8.65782,0.23648 -21.55753,0.42996 -28.666,0.42996 l -12.92451,0 -0.001,-12.54138 z"
         style="opacity:1;fill:#ffffff;fill-opacity:1;stroke:#ffffff;stroke-width:0.65150011;stroke-miterlimit:4;stroke-dasharray:none;stroke-opacity:1" />
    </g>
    <path
       style="fill:#ffb380;fill-opacity:1;fill-rule:evenodd;stroke:#000000;stroke-width:4;stroke-linecap:butt;stroke-linejoin:miter;stroke-miterlimit:4;stroke-dasharray:none;stroke-opacity:1"
       d="m 286.202,740.77178 74.28571,-1.42857 c 0,0 -2.25735,37.33743 -34.28571,37.22009 -33.56347,-0.12296 -40,-35.79152 -40,-35.79152 z"
       id="path5606"
       inkscape:connector-curvature="0"
       sodipodi:nodetypes="ccsc" />
    <path
       style="fill:#ffb380;fill-rule:evenodd;stroke:#000000;stroke-width:4;stroke-linecap:butt;stroke-linejoin:miter;stroke-miterlimit:4;stroke-dasharray:none;stroke-opacity:1"
       d="m 268.16715,591.41908 c -26.24052,21.32448 -25.42326,80.03554 -18.84907,99.67145 8.08465,24.14739 26.23834,47.60922 49.33877,58.32502 16.51636,7.66159 38.34934,8.16919 54.62062,0 20.212,-10.14767 35.7531,-32.30711 40.53032,-54.41318 7.13048,-32.99551 1.661,-82.20585 -13.40056,-101.44241 -23.3113,-29.77308 -83.19997,-25.74047 -112.24008,-2.14088 z"
       id="path4140"
       inkscape:connector-curvature="0"
       sodipodi:nodetypes="asaassa" />
    <path
       style="fill:#ffffff;fill-rule:evenodd;stroke:#000000;stroke-width:4;stroke-linecap:butt;stroke-linejoin:miter;stroke-miterlimit:4;stroke-dasharray:none;stroke-opacity:1"
       d="m 296.0943,645.67807 c -6.31189,-1.74857 -12.82162,-1.16196 -18.199,3.16973 -17.8941,14.41441 13.40326,34.73506 23.60951,23.77301 7.91779,-8.50413 10.12548,-26.94274 -5.41051,-26.94274 z"
       id="path4864"
       inkscape:connector-curvature="0" />
    <ellipse
       style="fill:#000000;fill-opacity:1;stroke:#000000;stroke-width:1.34574461;stroke-miterlimit:4;stroke-dasharray:none;stroke-opacity:1"
       id="path4866"
       cx="288.47037"
       cy="658.88531"
       rx="3.1971221"
       ry="3.6980233" />
    <path
       inkscape:connector-curvature="0"
       id="path4874"
       d="m 345.54466,647.03204 c 6.31189,-1.74857 12.82162,-1.16196 18.199,3.16974 17.8941,14.4144 -13.40326,34.73505 -23.60951,23.773 -7.91779,-8.50413 -10.12548,-26.94274 5.41051,-26.94274 z"
       style="fill:#ffffff;fill-rule:evenodd;stroke:#000000;stroke-width:4;stroke-linecap:butt;stroke-linejoin:miter;stroke-miterlimit:4;stroke-dasharray:none;stroke-opacity:1" />
    <ellipse
       ry="3.6980233"
       rx="3.1971221"
       cy="660.23932"
       cx="349.98553"
       id="ellipse4876"
       style="fill:#000000;fill-opacity:1;stroke:#000000;stroke-width:1.34574461;stroke-miterlimit:4;stroke-dasharray:none;stroke-opacity:1" />
    <path
       style="fill:none;fill-rule:evenodd;stroke:#000000;stroke-width:4;stroke-linecap:butt;stroke-linejoin:miter;stroke-miterlimit:4;stroke-dasharray:none;stroke-opacity:1"
       d="m 318.68492,697.19665 c 8.97097,-1.79458 12.89496,-4.29836 11.34971,-7.79519 -6.96706,-15.76611 -7.30029,-16.10334 -6.96706,-15.76611"
       id="path4878"
       inkscape:connector-curvature="0"
       sodipodi:nodetypes="csc"
       inkscape:transform-center-x="5.2140812"
       inkscape:transform-center-y="4.2192757" />
    <g
       id="g4889"
       transform="translate(163.94966,173.99639)"
       style="stroke-width:4;stroke-miterlimit:4;stroke-dasharray:none">
      <path
         inkscape:connector-curvature="0"
         id="path4882"
         d="m 111.17021,536.1388 c 11.86211,-6.17337 14.72731,-9.3001 15.15957,-9.84043"
         style="fill:none;fill-rule:evenodd;stroke:#000000;stroke-width:4;stroke-linecap:butt;stroke-linejoin:miter;stroke-miterlimit:4;stroke-dasharray:none;stroke-opacity:1"
         sodipodi:nodetypes="cc" />
      <path
         inkscape:connector-curvature="0"
         id="path4884"
         d="m 118.08511,531.08561 c 23.47092,35.01681 61.83175,30.63501 77.65957,4.25532"
         style="fill:none;fill-rule:evenodd;stroke:#000000;stroke-width:4;stroke-linecap:butt;stroke-linejoin:miter;stroke-miterlimit:4;stroke-dasharray:none;stroke-opacity:1" />
      <path
         inkscape:connector-curvature="0"
         id="path4886"
         d="m 190.15957,528.95795 c 4.81235,7.04684 5.9297,8.05735 10.37235,12.76596"
         style="fill:none;fill-rule:evenodd;stroke:#000000;stroke-width:4;stroke-linecap:butt;stroke-linejoin:miter;stroke-miterlimit:4;stroke-dasharray:none;stroke-opacity:1"
         sodipodi:nodetypes="cc" />
    </g>
    <path
       style="fill:none;fill-rule:evenodd;stroke:#000000;stroke-width:3;stroke-linecap:butt;stroke-linejoin:miter;stroke-miterlimit:4;stroke-dasharray:none;stroke-opacity:1"
       d="m 325.49745,1116.6817 -1.50449,-71.0765"
       id="path4156"
       inkscape:path-effect="#path-effect4158"
       inkscape:original-d="m 325.49745,1116.6817 -1.50449,-71.0765"
       inkscape:connector-curvature="0"
       sodipodi:nodetypes="cc" />
    <path
       style="fill:none;fill-rule:evenodd;stroke:#000000;stroke-width:3;stroke-linecap:butt;stroke-linejoin:miter;stroke-miterlimit:4;stroke-dasharray:none;stroke-opacity:1"
       d="m 307.70961,1038.2412 c 4.20202,4.9799 10.79371,7.8459 17.30155,7.5224 6.12655,-0.3045 12.05833,-3.4117 15.79707,-8.2747 l -0.75224,-0.7522"
       id="path4160"
       inkscape:path-effect="#path-effect4162"
       inkscape:original-d="m 307.70961,1038.2412 c 0,0 11.01696,7.75 17.30155,7.5224 5.94045,-0.2151 15.79707,-8.2747 15.79707,-8.2747 l -0.75224,-0.7522"
       inkscape:connector-curvature="0"
       sodipodi:nodetypes="cscc" />
    <path
       style="fill:#241c1c;fill-opacity:1;fill-rule:evenodd;stroke:#000000;stroke-width:4;stroke-linecap:butt;stroke-linejoin:miter;stroke-miterlimit:4;stroke-dasharray:none;stroke-opacity:1"
       d="m 315.65033,1189.1014 1.60465,53.7903 -30.48819,0 c -1.61985,-1.5618 -3.51398,-2.8384 -5.56957,-3.7537 -3.26437,-1.4535 -6.93558,-1.9798 -10.47684,-1.502 l -8.02321,5.6511 -83.41815,0 c -4.6189,-4.2219 -7.5947,-10.1972 -8.18117,-16.4273 -0.58647,-6.2302 1.22199,-12.6558 4.97189,-17.6655 2.82009,-3.7675 6.65396,-6.6997 10.82494,-8.8792 4.17098,-2.1794 8.68367,-3.6356 13.24467,-4.7951 15.67405,-3.9846 32.21134,-4.5361 48.11604,-1.6046 l 67.39494,-4.814 z"
       id="path4300"
       inkscape:path-effect="#path-effect4302"
       inkscape:original-d="m 315.65033,1189.1014 1.60465,53.7903 -30.48819,0 c 0,0 -0.60452,0.4524 -5.56957,-3.7537 -3.26499,-2.7658 -10.47684,-1.502 -10.47684,-1.502 l -8.02321,5.6511 -83.41815,0 c 0,0 -8.48177,-23.969 -3.20928,-34.0928 4.26231,-8.1842 15.18874,-11.1687 24.06961,-13.6743 15.44465,-4.3575 48.11604,-1.6046 48.11604,-1.6046 z"
       inkscape:connector-curvature="0"
       sodipodi:nodetypes="cccscccaacc" />
    <path
       style="fill:#241c1c;fill-opacity:1;fill-rule:evenodd;stroke:#000000;stroke-width:4;stroke-linecap:butt;stroke-linejoin:miter;stroke-miterlimit:4;stroke-dasharray:none;stroke-opacity:1"
       d="m 336.22513,1189.8157 -1.60465,53.7903 30.48819,0 c 1.61985,-1.5618 3.51398,-2.8384 5.56957,-3.7537 3.26437,-1.4535 6.93558,-1.9798 10.47684,-1.502 l 8.02321,5.6511 83.41815,0 c 4.61894,-4.2219 7.59476,-10.1972 8.18122,-16.4274 0.58647,-6.2302 -1.22201,-12.6558 -4.97194,-17.6655 -2.8201,-3.7675 -6.65397,-6.6997 -10.82495,-8.8791 -4.17098,-2.1794 -8.68367,-3.6356 -13.24466,-4.7951 -15.67406,-3.9846 -32.21133,-4.5361 -48.11604,-1.6047 l -67.39494,-4.8139 z"
       id="path4300-8"
       inkscape:path-effect="#path-effect4302-2"
       inkscape:original-d="m 336.22513,1189.8157 -1.60465,53.7903 30.48819,0 c 0,0 0.60452,0.4523 5.56957,-3.7537 3.26499,-2.7658 10.47684,-1.502 10.47684,-1.502 l 8.02321,5.6511 83.41815,0 c 0,0 8.48177,-23.969 3.20928,-34.0929 -4.26231,-8.1841 -15.18874,-11.1686 -24.06961,-13.6742 -15.44465,-4.3575 -48.11604,-1.6047 -48.11604,-1.6047 z"
       inkscape:connector-curvature="0"
       sodipodi:nodetypes="cccscccaacc" />
    <path
       style="fill:none;fill-rule:evenodd;stroke:#000000;stroke-width:4.00000048;stroke-linecap:butt;stroke-linejoin:miter;stroke-miterlimit:4;stroke-dasharray:none;stroke-opacity:1"
       d="M 410.75916,860.05109 396.48395,809.18451"
       id="path6498-6"
       inkscape:connector-curvature="0"
       sodipodi:nodetypes="cc" />
    <path
       style="fill:#ffffff;fill-rule:evenodd;stroke:none;stroke-width:1px;stroke-linecap:butt;stroke-linejoin:miter;stroke-opacity:1"
       d="m 399.68843,1196.1341 -19.62754,28.7035 12.94072,0.043 19.03318,-29.3999 z"
       id="path4198"
       inkscape:connector-curvature="0"
       sodipodi:nodetypes="ccccc" />
    <path
       style="fill:#ffffff;fill-rule:evenodd;stroke:none;stroke-width:1px;stroke-linecap:butt;stroke-linejoin:miter;stroke-opacity:1"
       d="m 420.24757,1194.9453 -17.04786,30.6468 12.49429,-0.046 16.3489,-30.7361 z"
       id="path4198-0"
       inkscape:connector-curvature="0"
       sodipodi:nodetypes="ccccc" />
    <path
       style="fill:#ffffff;fill-rule:evenodd;stroke:none;stroke-width:1px;stroke-linecap:butt;stroke-linejoin:miter;stroke-opacity:1"
       d="m 250.53055,1195.5058 19.62754,28.7035 -12.94072,0.043 -19.03318,-29.3999 z"
       id="path4198-2"
       inkscape:connector-curvature="0"
       sodipodi:nodetypes="ccccc" />
    <path
       style="fill:#ffffff;fill-rule:evenodd;stroke:none;stroke-width:1px;stroke-linecap:butt;stroke-linejoin:miter;stroke-opacity:1"
       d="m 229.97141,1194.317 17.04786,30.6468 -12.49429,-0.046 -16.34891,-30.7361 z"
       id="path4198-0-9"
       inkscape:connector-curvature="0"
       sodipodi:nodetypes="ccccc" />
    <path
       inkscape:connector-curvature="0"
       id="path1258"
       d="m 384.82009,782.4352 0,-0.0619 m -0.0311,0.0639 3.7e-4,-0.0655 m -0.023,0.0663 0,-0.0668"
       style="fill:none;stroke:#000000;stroke-width:0.00053333" />
    <path
       style="fill:none;fill-rule:evenodd;stroke:#000000;stroke-width:4.00000048;stroke-linecap:butt;stroke-linejoin:miter;stroke-miterlimit:4;stroke-dasharray:none;stroke-opacity:1"
       d="m 239.152,861.12251 16.29551,-53.89704"
       id="path6498"
       inkscape:connector-curvature="0"
       sodipodi:nodetypes="cc" />
    <g
       transform="matrix(0.03990573,0,0,0.05016279,349.92785,783.83364)"
       id="g4255">
      <rect
         x="0"
         y="168.09"
         width="963.78003"
         height="149.60001"
         style="fill:#ffffff;fill-rule:evenodd;stroke-width:1pt"
         id="rect675" />
      <g
         transform="matrix(1.0435,0,0,1.0435,0.057924,-0.12704)"
         id="g1089">
        <rect
           x="0.78548002"
           y="288.73001"
           width="925.35999"
           height="187.64"
           style="fill:#003e9f;fill-rule:evenodd;stroke-width:1pt"
           id="rect714" />
        <rect
           x="-1.3302"
           y="2.9171"
           width="926.84998"
           height="157.34"
           style="fill:#d61517;fill-rule:evenodd;stroke-width:1pt"
           id="rect713" />
        <path
           inkscape:connector-curvature="0"
           d="m 99.546,313.18 c 91.174,-33.06 192.26,-50.9 291.06,-51.15 98.8,-0.26 199.56,15.55 299.12,51.91 l 74.11,-152.4 -52.09,-92.489 c 0,0 -92.94,38.909 -93.7,38.909 -0.76,0 -65.53,-72.655 -65.53,-72.655 l -83.17,51.223 -78.1,-60.883 -73.47,59.944 -85.76,-50.53 -62.56,75.781 L 75.68,69.966 25.478,161.61 99.542,313.18 Z"
           transform="matrix(0.26544,0,0,0.2604,359.68,74.414)"
           style="fill:#ffffff;fill-rule:evenodd;stroke:#e5141d;stroke-width:4;stroke-linecap:round"
           id="path683" />
        <path
           inkscape:connector-curvature="0"
           d="M 103.35,305.55 48.053,156.8 99.623,73.057 186.46,111.36 214.82,267.77 c -41.44,10.13 -62.64,16.96 -111.47,37.78 z"
           transform="matrix(0.21501,0.1527,-0.15566,0.21093,537.56,64.727)"
           style="fill:#00a7bd;fill-rule:evenodd;stroke:#0084fd;stroke-width:1pt"
           id="path680" />
        <path
           inkscape:connector-curvature="0"
           d="M 103.49,305.85 40.633,163.64 87.804,80.502 179.54,116.47 218.6,270.27 c -40.48,9.64 -69.47,18.33 -115.11,35.58 z"
           transform="matrix(0.26212,0.041034,-0.041828,0.25715,402.39,62.167)"
           style="fill:none;stroke-width:1pt;stroke-opacity:0.99607999"
           id="path671" />
        <path
           inkscape:connector-curvature="0"
           d="M 103.49,305.85 40.121,160 90.294,81.753 180.28,113.46 217.47,268.27 c -40.17,10.94 -68.34,20.33 -113.98,37.58 z"
           transform="matrix(0.25199,0.081833,-0.083416,0.24721,448.13,56.569)"
           style="fill:#00a7bd;fill-rule:evenodd;stroke:#0084fd;stroke-width:1pt"
           id="path672" />
        <path
           inkscape:connector-curvature="0"
           d="M 103.12,305.58 35.796,160.42 80.787,80.291 174.05,121.67 213.46,271.42 c -42.58,8.98 -65.13,16.31 -110.34,34.16 z"
           transform="matrix(0.26544,0,0,0.2604,359.68,74.414)"
           style="fill:#00a7bd;fill-rule:evenodd;stroke:#0084fd;stroke-width:1pt;stroke-opacity:0.99607999"
           id="path670" />
        <path
           inkscape:connector-curvature="0"
           d="m 82.188,225.18 c 21.192,4.37 36.302,4.53 55.312,-0.79 22.71,-9.47 30.73,-22.24 38.12,-32.5 3.44,21.67 -0.15,41.31 -26.09,55.16 -23.28,10.94 -54.686,4.06 -67.342,-21.87 z"
           transform="matrix(0.26544,0,0,0.2604,359.68,74.414)"
           style="fill:#ffffff;fill-rule:evenodd;stroke:#ffffff;stroke-width:1pt"
           id="path561" />
        <g
           transform="matrix(0.26544,0,0,0.2604,359.68,74.414)"
           id="g591">
          <path
             inkscape:connector-curvature="0"
             d="m 410.94,120.56 -4.06,1.02 0.15,7.5 -5,1.1 -3.5,6.61 2.16,2.04 c 0.11,0.22 -1.7,4.89 -1.62,4.89 0.08,0 1.32,1.77 1.32,1.77 l 1.33,4.06 3.36,0.47 0.86,4.76 5.31,0.86 4.92,3.52 0.31,2.19 5.63,0.15 3.83,1.25 13.36,-1.56 1.79,-2.81 0.16,-3.83 7.19,-0.23 0.66,-6.11 3.8,0 -0.47,-6.87 3.18,0.28 -0.82,-3.29 -1.98,-2.69 -0.39,-4.22 -5.62,-5.62 -1.25,-7.34 c 0,0 -3.6,-1.64 -3.6,-1.72 0,-0.08 -0.23,-4.92 -0.23,-4.92 l 4.06,-5.71 -0.39,-2.26 -3.75,-0.08 -2.81,2.34 c 0,0 -3.75,0.39 -3.75,0.47 l 0,1.72 c 0,0 0.94,3.2 0.94,3.28 0,0.08 -4.3,0 -4.3,0 l -0.16,-5.08 -6.09,-3.04 c 0,0 -5.7,3.9 -5.7,3.98 0,0.08 -0.32,4.53 -0.32,4.53 l -2.73,0.78 -2.81,-4.22 -4.93,-1.87 -2.65,-0.16 -0.08,3.28 5.16,6.8 -0.47,3.98 z"
             style="fill:#faf703;fill-opacity:0.99607999;fill-rule:evenodd;stroke:#544b20;stroke-width:1pt;stroke-opacity:0.99607999"
             id="path568" />
          <path
             inkscape:connector-curvature="0"
             d="m 449.23,148.04 -1.1,-4.09"
             style="fill:none;stroke:#544b20;stroke-width:1pt"
             id="path570" />
          <path
             inkscape:connector-curvature="0"
             d="m 452.33,141.3 -1.88,-2.76"
             style="fill:none;stroke:#544b20;stroke-width:1pt"
             id="path571" />
          <path
             inkscape:connector-curvature="0"
             d="m 400.84,138.21 5.86,-0.34 1.1,5.31 1.99,1.76 0.33,9.73 1.88,0.77 0.55,-3.87 4.53,-0.33 0.89,7.85 -1.11,0.99 0.44,1.22 5.42,-0.11 c 0,0 1.21,-2.1 1.32,-2.1 0.11,0 3.1,-0.33 3.1,-0.22 0,0.11 1.21,2.32 1.21,2.32 l 0.89,-2.99 c 0,0 2.87,-1.21 2.87,-1.1 0,0.11 2.32,3.76 2.32,3.76 l 3.98,-0.56 -2.43,-2.32 -1,-5.08 5.52,-2.98 2.22,3.75 c 0,0 2.09,0.11 1.98,0 -0.11,-0.11 -2.43,-4.31 -2.43,-4.31 l 0,-8.83 4.2,-5.75 5.86,-0.66 0,-2.43 -5.86,-5.42 -1.55,-7.51 -3.31,-1.66 -0.88,1 -3.65,0.33 3.65,5.41 0,3.54 1.65,0.88 -0.33,9.72 c 0,0 -4.09,0.56 -4.09,0.67 0,0.11 -0.33,5.41 -0.33,5.41 l -2.54,2.54 c 0,0 -1.43,5.08 -1.55,5.08 -0.11,0 -2.43,3.1 -2.43,3.1 l -4.53,0.11 c 0,0 -2.65,-2.54 -2.65,-2.65 0,-0.11 -0.44,-3.76 -0.44,-3.76 0,0 -1.77,-0.55 -1.88,-0.55 -0.11,0 -0.99,-4.09 -0.99,-4.09 l -3.1,-1.77 -0.22,-2.43 -2.98,-1.32 c 0,0 -0.33,-2.21 -0.44,-2.32 -0.11,-0.12 -1.44,-1 -1.55,-1 -0.11,0 -0.11,-6.08 -0.11,-6.08 l 2.65,-0.44 -1.48,-1.94 -0.51,-1.7 0,-1.77 2.21,-2.21 c 0,0 -3.97,-0.55 -3.97,-0.44 0,0.11 -3.87,1.76 -3.87,1.66 0.11,0 -0.11,7.18 -0.11,7.18 l -4.53,1.43 -3.65,5.86 1.88,1.66 z"
             style="fill:#544b20;fill-rule:evenodd;stroke:#544b21;stroke-width:1pt;stroke-opacity:0.99999001"
             id="path576" />
          <path
             inkscape:connector-curvature="0"
             d="m 423.71,148.04 2.99,-1.77 -0.12,-3.42 -2.87,-0.67 -1.1,-1.1 3.2,0.55 3.98,-0.33 1.32,-0.66 c -0.55,1.43 -0.99,1.32 -1.1,1.32 -0.11,0 -2.21,1.11 -2.21,1.11 l 0.11,3.31 c 0,0 6.85,0.88 6.74,0.88 -0.11,0 0,1.33 -0.22,1.33 -0.22,0 -7.07,-1.55 -7.07,-1.55 l -4.31,2.66 0.66,-1.66 z"
             style="fill:#544b20;fill-rule:evenodd;stroke:#544b20;stroke-width:1pt"
             id="path577" />
          <path
             inkscape:connector-curvature="0"
             d="m 440.95,127.49 -3.98,3.09 -2.54,4.53 -1.33,0.22 -3.86,-5.19 -4.42,0.11 c 0,0 -2.43,6.08 -2.43,6.19 0,0.11 -1.77,-0.22 -1.77,-0.22 l -4.64,-5.08 c 0,0 -1.44,-2.55 -1.22,-2.55 0.22,0 11.6,0.11 11.6,0.11 l -0.11,-5.52 c 0,0 -1.77,-0.55 -2.65,-1.1 0.66,-0.23 6.3,-0.23 6.3,-0.23 l -2.43,1.66 0,4.75 10.05,0.11 3.43,-0.88 z"
             style="fill:#544b20;fill-rule:evenodd;stroke:#544b20;stroke-width:1pt"
             id="path578" />
          <rect
             x="419.51001"
             y="130.14"
             width="2.6515999"
             height="2.6515999"
             ry="1.3257999"
             style="fill:#796a3a;fill-opacity:0.99607999;fill-rule:evenodd;stroke-width:1pt"
             id="rect579" />
          <rect
             x="432.10999"
             y="129.59"
             width="2.6515999"
             height="2.6515999"
             ry="1.3257999"
             style="fill:#7a6b3a;fill-rule:evenodd;stroke-width:1pt"
             id="rect580" />
          <path
             inkscape:connector-curvature="0"
             d="m 413.55,121.3 c 4.19,-1.69 7.18,-3.06 12.37,-3.53 4.9,-0.52 8.69,0.18 13.04,0.99"
             style="fill:none;stroke:#544b20;stroke-width:1pt"
             id="path581" />
          <path
             inkscape:connector-curvature="0"
             d="m 415.87,112.35 -3.43,0 -4.86,-5.19 2.76,0.33 3.21,1.44 2.32,3.42 z"
             style="fill:#544b20;fill-rule:evenodd;stroke:#544b20;stroke-width:1pt"
             id="path584" />
          <path
             inkscape:connector-curvature="0"
             d="m 436.53,110.36 7.73,-5.96 -2.54,-0.33 -2.87,2.65 -3.43,0.55 1.11,3.09 z"
             style="fill:#544b20;fill-rule:evenodd;stroke:#544b20;stroke-width:1pt"
             id="path585" />
          <path
             inkscape:connector-curvature="0"
             d="m 431.97,111.46 -12.13,0.45 0.12,-1.33 4.42,-0.44 0.55,-1.76 c 0,0 1.32,-0.12 1.32,0 0,0.11 1,1.65 1,1.65 l 4.31,0.77 0.41,0.66 z"
             style="fill:#544b20;fill-rule:evenodd;stroke:#544b20;stroke-width:1pt"
             id="path586" />
          <path
             inkscape:connector-curvature="0"
             d="m 431.34,106.83 -4.2,0.11 -0.34,-2.32 4.54,2.21 z"
             style="fill:#544b20;fill-rule:evenodd;stroke:#544b20;stroke-width:1pt"
             id="path587" />
          <path
             inkscape:connector-curvature="0"
             d="m 424.26,104.73 -0.33,2.32 -4.09,0.66 4.42,-2.98 z"
             style="fill:#544b20;fill-rule:evenodd;stroke:#544b20;stroke-width:1pt"
             id="path588" />
          <path
             inkscape:connector-curvature="0"
             d="m 401.06,147.04 2.1,-5.3 -1.88,-3.64 -1.88,5.41 1.66,3.53 z"
             style="fill:#544b20;fill-rule:evenodd;stroke:#544b20;stroke-width:1pt"
             id="path589" />
          <path
             inkscape:connector-curvature="0"
             d="m 405.37,149.81 2.54,-6.3 -4.86,5.08 2.32,1.22 z"
             transform="translate(-0.11047,0.11044)"
             style="fill:#544b20;fill-rule:evenodd;stroke:#544b20;stroke-width:1pt"
             id="path590" />
        </g>
        <g
           transform="matrix(0.26544,0,0,0.2604,341.88,74.989)"
           id="g576">
          <path
             inkscape:connector-curvature="0"
             d="m 410.94,120.56 -4.06,1.02 0.15,7.5 -5,1.1 -3.5,6.61 2.16,2.04 c 0.11,0.22 -1.7,4.89 -1.62,4.89 0.08,0 1.32,1.77 1.32,1.77 l 1.33,4.06 3.36,0.47 0.86,4.76 5.31,0.86 4.92,3.52 0.31,2.19 5.63,0.15 3.83,1.25 13.36,-1.56 1.79,-2.81 0.16,-3.83 7.19,-0.23 0.66,-6.11 3.8,0 -0.47,-6.87 3.18,0.28 -0.82,-3.29 -1.98,-2.69 -0.39,-4.22 -5.62,-5.62 -1.25,-7.34 c 0,0 -3.6,-1.64 -3.6,-1.72 0,-0.08 -0.23,-4.92 -0.23,-4.92 l 4.06,-5.71 -0.39,-2.26 -3.75,-0.08 -2.81,2.34 c 0,0 -3.75,0.39 -3.75,0.47 l 0,1.72 c 0,0 0.94,3.2 0.94,3.28 0,0.08 -4.3,0 -4.3,0 l -0.16,-5.08 -6.09,-3.04 c 0,0 -5.7,3.9 -5.7,3.98 0,0.08 -0.32,4.53 -0.32,4.53 l -2.73,0.78 -2.81,-4.22 -4.93,-1.87 -2.65,-0.16 -0.08,3.28 5.16,6.8 -0.47,3.98 z"
             style="fill:#faf703;fill-opacity:0.99607999;fill-rule:evenodd;stroke:#544b20;stroke-width:1pt;stroke-opacity:0.99607999"
             id="path579" />
          <path
             inkscape:connector-curvature="0"
             d="m 449.23,148.04 -1.1,-4.09"
             style="fill:none;stroke:#544b20;stroke-width:1pt"
             id="path580" />
          <path
             inkscape:connector-curvature="0"
             d="m 452.33,141.3 -1.88,-2.76"
             style="fill:none;stroke:#544b20;stroke-width:1pt"
             id="path591" />
          <path
             inkscape:connector-curvature="0"
             d="m 400.84,138.21 5.86,-0.34 1.1,5.31 1.99,1.76 0.33,9.73 1.88,0.77 0.55,-3.87 4.53,-0.33 0.89,7.85 -1.11,0.99 0.44,1.22 5.42,-0.11 c 0,0 1.21,-2.1 1.32,-2.1 0.11,0 3.1,-0.33 3.1,-0.22 0,0.11 1.21,2.32 1.21,2.32 l 0.89,-2.99 c 0,0 2.87,-1.21 2.87,-1.1 0,0.11 2.32,3.76 2.32,3.76 l 3.98,-0.56 -2.43,-2.32 -1,-5.08 5.52,-2.98 2.22,3.75 c 0,0 2.09,0.11 1.98,0 -0.11,-0.11 -2.43,-4.31 -2.43,-4.31 l 0,-8.83 4.2,-5.75 5.86,-0.66 0,-2.43 -5.86,-5.42 -1.55,-7.51 -3.31,-1.66 -0.88,1 -3.65,0.33 3.65,5.41 0,3.54 1.65,0.88 -0.33,9.72 c 0,0 -4.09,0.56 -4.09,0.67 0,0.11 -0.33,5.41 -0.33,5.41 l -2.54,2.54 c 0,0 -1.43,5.08 -1.55,5.08 -0.11,0 -2.43,3.1 -2.43,3.1 l -4.53,0.11 c 0,0 -2.65,-2.54 -2.65,-2.65 0,-0.11 -0.44,-3.76 -0.44,-3.76 0,0 -1.77,-0.55 -1.88,-0.55 -0.11,0 -0.99,-4.09 -0.99,-4.09 l -3.1,-1.77 -0.22,-2.43 -2.98,-1.32 c 0,0 -0.33,-2.21 -0.44,-2.32 -0.11,-0.12 -1.44,-1 -1.55,-1 -0.11,0 -0.11,-6.08 -0.11,-6.08 l 2.65,-0.44 -1.48,-1.94 -0.51,-1.7 0,-1.77 2.21,-2.21 c 0,0 -3.97,-0.55 -3.97,-0.44 0,0.11 -3.87,1.76 -3.87,1.66 0.11,0 -0.11,7.18 -0.11,7.18 l -4.53,1.43 -3.65,5.86 1.88,1.66 z"
             style="fill:#544b20;fill-rule:evenodd;stroke:#544b21;stroke-width:1pt;stroke-opacity:0.99999001"
             id="path592" />
          <path
             inkscape:connector-curvature="0"
             d="m 423.71,148.04 2.99,-1.77 -0.12,-3.42 -2.87,-0.67 -1.1,-1.1 3.2,0.55 3.98,-0.33 1.32,-0.66 c -0.55,1.43 -0.99,1.32 -1.1,1.32 -0.11,0 -2.21,1.11 -2.21,1.11 l 0.11,3.31 c 0,0 6.85,0.88 6.74,0.88 -0.11,0 0,1.33 -0.22,1.33 -0.22,0 -7.07,-1.55 -7.07,-1.55 l -4.31,2.66 0.66,-1.66 z"
             style="fill:#544b20;fill-rule:evenodd;stroke:#544b20;stroke-width:1pt"
             id="path593" />
          <path
             inkscape:connector-curvature="0"
             d="m 440.95,127.49 -3.98,3.09 -2.54,4.53 -1.33,0.22 -3.86,-5.19 -4.42,0.11 c 0,0 -2.43,6.08 -2.43,6.19 0,0.11 -1.77,-0.22 -1.77,-0.22 l -4.64,-5.08 c 0,0 -1.44,-2.55 -1.22,-2.55 0.22,0 11.6,0.11 11.6,0.11 l -0.11,-5.52 c 0,0 -1.77,-0.55 -2.65,-1.1 0.66,-0.23 6.3,-0.23 6.3,-0.23 l -2.43,1.66 0,4.75 10.05,0.11 3.43,-0.88 z"
             style="fill:#544b20;fill-rule:evenodd;stroke:#544b20;stroke-width:1pt"
             id="path594" />
          <rect
             x="419.51001"
             y="130.14"
             width="2.6515999"
             height="2.6515999"
             ry="1.3257999"
             style="fill:#796a3a;fill-opacity:0.99607999;fill-rule:evenodd;stroke-width:1pt"
             id="rect595" />
          <rect
             x="432.10999"
             y="129.59"
             width="2.6515999"
             height="2.6515999"
             ry="1.3257999"
             style="fill:#7a6b3a;fill-rule:evenodd;stroke-width:1pt"
             id="rect596" />
          <path
             inkscape:connector-curvature="0"
             d="m 413.55,121.3 c 4.19,-1.69 7.18,-3.06 12.37,-3.53 4.9,-0.52 8.69,0.18 13.04,0.99"
             style="fill:none;stroke:#544b20;stroke-width:1pt"
             id="path597" />
          <path
             inkscape:connector-curvature="0"
             d="m 415.87,112.35 -3.43,0 -4.86,-5.19 2.76,0.33 3.21,1.44 2.32,3.42 z"
             style="fill:#544b20;fill-rule:evenodd;stroke:#544b20;stroke-width:1pt"
             id="path600" />
          <path
             inkscape:connector-curvature="0"
             d="m 436.53,110.36 7.73,-5.96 -2.54,-0.33 -2.87,2.65 -3.43,0.55 1.11,3.09 z"
             style="fill:#544b20;fill-rule:evenodd;stroke:#544b20;stroke-width:1pt"
             id="path601" />
          <path
             inkscape:connector-curvature="0"
             d="m 431.97,111.46 -12.13,0.45 0.12,-1.33 4.42,-0.44 0.55,-1.76 c 0,0 1.32,-0.12 1.32,0 0,0.11 1,1.65 1,1.65 l 4.31,0.77 0.41,0.66 z"
             style="fill:#544b20;fill-rule:evenodd;stroke:#544b20;stroke-width:1pt"
             id="path602" />
          <path
             inkscape:connector-curvature="0"
             d="m 431.34,106.83 -4.2,0.11 -0.34,-2.32 4.54,2.21 z"
             style="fill:#544b20;fill-rule:evenodd;stroke:#544b20;stroke-width:1pt"
             id="path603" />
          <path
             inkscape:connector-curvature="0"
             d="m 424.26,104.73 -0.33,2.32 -4.09,0.66 4.42,-2.98 z"
             style="fill:#544b20;fill-rule:evenodd;stroke:#544b20;stroke-width:1pt"
             id="path604" />
          <path
             inkscape:connector-curvature="0"
             d="m 401.06,147.04 2.1,-5.3 -1.88,-3.64 -1.88,5.41 1.66,3.53 z"
             style="fill:#544b20;fill-rule:evenodd;stroke:#544b20;stroke-width:1pt"
             id="path605" />
          <path
             inkscape:connector-curvature="0"
             d="m 405.37,149.81 2.54,-6.3 -4.86,5.08 2.32,1.22 z"
             transform="translate(-0.11047,0.11044)"
             style="fill:#544b20;fill-rule:evenodd;stroke:#544b20;stroke-width:1pt"
             id="path606" />
        </g>
        <path
           inkscape:connector-curvature="0"
           d="M 103.35,305.55 45.28,157.1 97.96,77.25 186.3,112.32 215.71,268.4 c -40.76,10.5 -63.48,17.58 -112.36,37.15 z"
           transform="matrix(0.23818,0.11495,-0.11717,0.23366,492.03,57.353)"
           style="fill:#001070;fill-rule:evenodd;stroke:#001071;stroke-width:1pt;stroke-opacity:0.99607999"
           id="path673" />
        <g
           transform="matrix(0.26544,0,0,0.2604,351.11,90.442)"
           id="g607">
          <path
             inkscape:connector-curvature="0"
             d="m 410.94,120.56 -4.06,1.02 0.15,7.5 -5,1.1 -3.5,6.61 2.16,2.04 c 0.11,0.22 -1.7,4.89 -1.62,4.89 0.08,0 1.32,1.77 1.32,1.77 l 1.33,4.06 3.36,0.47 0.86,4.76 5.31,0.86 4.92,3.52 0.31,2.19 5.63,0.15 3.83,1.25 13.36,-1.56 1.79,-2.81 0.16,-3.83 7.19,-0.23 0.66,-6.11 3.8,0 -0.47,-6.87 3.18,0.28 -0.82,-3.29 -1.98,-2.69 -0.39,-4.22 -5.62,-5.62 -1.25,-7.34 c 0,0 -3.6,-1.64 -3.6,-1.72 0,-0.08 -0.23,-4.92 -0.23,-4.92 l 4.06,-5.71 -0.39,-2.26 -3.75,-0.08 -2.81,2.34 c 0,0 -3.75,0.39 -3.75,0.47 l 0,1.72 c 0,0 0.94,3.2 0.94,3.28 0,0.08 -4.3,0 -4.3,0 l -0.16,-5.08 -6.09,-3.04 c 0,0 -5.7,3.9 -5.7,3.98 0,0.08 -0.32,4.53 -0.32,4.53 l -2.73,0.78 -2.81,-4.22 -4.93,-1.87 -2.65,-0.16 -0.08,3.28 5.16,6.8 -0.47,3.98 z"
             style="fill:#faf703;fill-opacity:0.99607999;fill-rule:evenodd;stroke:#544b20;stroke-width:1pt;stroke-opacity:0.99607999"
             id="path608" />
          <path
             inkscape:connector-curvature="0"
             d="m 449.23,148.04 -1.1,-4.09"
             style="fill:none;stroke:#544b20;stroke-width:1pt"
             id="path609" />
          <path
             inkscape:connector-curvature="0"
             d="m 452.33,141.3 -1.88,-2.76"
             style="fill:none;stroke:#544b20;stroke-width:1pt"
             id="path610" />
          <path
             inkscape:connector-curvature="0"
             d="m 400.84,138.21 5.86,-0.34 1.1,5.31 1.99,1.76 0.33,9.73 1.88,0.77 0.55,-3.87 4.53,-0.33 0.89,7.85 -1.11,0.99 0.44,1.22 5.42,-0.11 c 0,0 1.21,-2.1 1.32,-2.1 0.11,0 3.1,-0.33 3.1,-0.22 0,0.11 1.21,2.32 1.21,2.32 l 0.89,-2.99 c 0,0 2.87,-1.21 2.87,-1.1 0,0.11 2.32,3.76 2.32,3.76 l 3.98,-0.56 -2.43,-2.32 -1,-5.08 5.52,-2.98 2.22,3.75 c 0,0 2.09,0.11 1.98,0 -0.11,-0.11 -2.43,-4.31 -2.43,-4.31 l 0,-8.83 4.2,-5.75 5.86,-0.66 0,-2.43 -5.86,-5.42 -1.55,-7.51 -3.31,-1.66 -0.88,1 -3.65,0.33 3.65,5.41 0,3.54 1.65,0.88 -0.33,9.72 c 0,0 -4.09,0.56 -4.09,0.67 0,0.11 -0.33,5.41 -0.33,5.41 l -2.54,2.54 c 0,0 -1.43,5.08 -1.55,5.08 -0.11,0 -2.43,3.1 -2.43,3.1 l -4.53,0.11 c 0,0 -2.65,-2.54 -2.65,-2.65 0,-0.11 -0.44,-3.76 -0.44,-3.76 0,0 -1.77,-0.55 -1.88,-0.55 -0.11,0 -0.99,-4.09 -0.99,-4.09 l -3.1,-1.77 -0.22,-2.43 -2.98,-1.32 c 0,0 -0.33,-2.21 -0.44,-2.32 -0.11,-0.12 -1.44,-1 -1.55,-1 -0.11,0 -0.11,-6.08 -0.11,-6.08 l 2.65,-0.44 -1.48,-1.94 -0.51,-1.7 0,-1.77 2.21,-2.21 c 0,0 -3.97,-0.55 -3.97,-0.44 0,0.11 -3.87,1.76 -3.87,1.66 0.11,0 -0.11,7.18 -0.11,7.18 l -4.53,1.43 -3.65,5.86 1.88,1.66 z"
             style="fill:#544b20;fill-rule:evenodd;stroke:#544b21;stroke-width:1pt;stroke-opacity:0.99999001"
             id="path611" />
          <path
             inkscape:connector-curvature="0"
             d="m 423.71,148.04 2.99,-1.77 -0.12,-3.42 -2.87,-0.67 -1.1,-1.1 3.2,0.55 3.98,-0.33 1.32,-0.66 c -0.55,1.43 -0.99,1.32 -1.1,1.32 -0.11,0 -2.21,1.11 -2.21,1.11 l 0.11,3.31 c 0,0 6.85,0.88 6.74,0.88 -0.11,0 0,1.33 -0.22,1.33 -0.22,0 -7.07,-1.55 -7.07,-1.55 l -4.31,2.66 0.66,-1.66 z"
             style="fill:#544b20;fill-rule:evenodd;stroke:#544b20;stroke-width:1pt"
             id="path612" />
          <path
             inkscape:connector-curvature="0"
             d="m 440.95,127.49 -3.98,3.09 -2.54,4.53 -1.33,0.22 -3.86,-5.19 -4.42,0.11 c 0,0 -2.43,6.08 -2.43,6.19 0,0.11 -1.77,-0.22 -1.77,-0.22 l -4.64,-5.08 c 0,0 -1.44,-2.55 -1.22,-2.55 0.22,0 11.6,0.11 11.6,0.11 l -0.11,-5.52 c 0,0 -1.77,-0.55 -2.65,-1.1 0.66,-0.23 6.3,-0.23 6.3,-0.23 l -2.43,1.66 0,4.75 10.05,0.11 3.43,-0.88 z"
             style="fill:#544b20;fill-rule:evenodd;stroke:#544b20;stroke-width:1pt"
             id="path613" />
          <rect
             x="419.51001"
             y="130.14"
             width="2.6515999"
             height="2.6515999"
             ry="1.3257999"
             style="fill:#796a3a;fill-opacity:0.99607999;fill-rule:evenodd;stroke-width:1pt"
             id="rect614" />
          <rect
             x="432.10999"
             y="129.59"
             width="2.6515999"
             height="2.6515999"
             ry="1.3257999"
             style="fill:#7a6b3a;fill-rule:evenodd;stroke-width:1pt"
             id="rect615" />
          <path
             inkscape:connector-curvature="0"
             d="m 413.55,121.3 c 4.19,-1.69 7.18,-3.06 12.37,-3.53 4.9,-0.52 8.69,0.18 13.04,0.99"
             style="fill:none;stroke:#544b20;stroke-width:1pt"
             id="path616" />
          <path
             inkscape:connector-curvature="0"
             d="m 415.87,112.35 -3.43,0 -4.86,-5.19 2.76,0.33 3.21,1.44 2.32,3.42 z"
             style="fill:#544b20;fill-rule:evenodd;stroke:#544b20;stroke-width:1pt"
             id="path619" />
          <path
             inkscape:connector-curvature="0"
             d="m 436.53,110.36 7.73,-5.96 -2.54,-0.33 -2.87,2.65 -3.43,0.55 1.11,3.09 z"
             style="fill:#544b20;fill-rule:evenodd;stroke:#544b20;stroke-width:1pt"
             id="path620" />
          <path
             inkscape:connector-curvature="0"
             d="m 431.97,111.46 -12.13,0.45 0.12,-1.33 4.42,-0.44 0.55,-1.76 c 0,0 1.32,-0.12 1.32,0 0,0.11 1,1.65 1,1.65 l 4.31,0.77 0.41,0.66 z"
             style="fill:#544b20;fill-rule:evenodd;stroke:#544b20;stroke-width:1pt"
             id="path621" />
          <path
             inkscape:connector-curvature="0"
             d="m 431.34,106.83 -4.2,0.11 -0.34,-2.32 4.54,2.21 z"
             style="fill:#544b20;fill-rule:evenodd;stroke:#544b20;stroke-width:1pt"
             id="path622" />
          <path
             inkscape:connector-curvature="0"
             d="m 424.26,104.73 -0.33,2.32 -4.09,0.66 4.42,-2.98 z"
             style="fill:#544b20;fill-rule:evenodd;stroke:#544b20;stroke-width:1pt"
             id="path623" />
          <path
             inkscape:connector-curvature="0"
             d="m 401.06,147.04 2.1,-5.3 -1.88,-3.64 -1.88,5.41 1.66,3.53 z"
             style="fill:#544b20;fill-rule:evenodd;stroke:#544b20;stroke-width:1pt"
             id="path624" />
          <path
             inkscape:connector-curvature="0"
             d="m 405.37,149.81 2.54,-6.3 -4.86,5.08 2.32,1.22 z"
             transform="translate(-0.11047,0.11044)"
             style="fill:#544b20;fill-rule:evenodd;stroke:#544b20;stroke-width:1pt"
             id="path625" />
        </g>
        <path
           inkscape:connector-curvature="0"
           d="m 476.9,225.82 -4.14,4.94 0.32,4.13 8.59,-0.16 c 2.76,-0.66 3.45,-1.64 3.98,-2.78 0.85,-1.41 0.26,-2.18 0.47,-4.06 l -9.22,-2.07 z"
           transform="matrix(0.26544,0,0,0.2604,359.68,74.414)"
           style="fill:#a0210c;fill-rule:evenodd;stroke:#a0210c;stroke-width:1pt;stroke-opacity:0.99651998"
           id="path628" />
        <path
           inkscape:connector-curvature="0"
           d="m 476.58,226.14 -3.5,3.34 0,3.82 7.64,-0.16 c 2.75,-0.66 3.12,-1.17 3.65,-2.3 0.85,-1.41 0.59,-1.38 0.8,-3.27 l -8.59,-1.43 z"
           transform="matrix(0.26544,0,0,0.2604,365.26,77.563)"
           style="fill:#a0210c;fill-rule:evenodd;stroke:#a0210c;stroke-width:1pt;stroke-opacity:0.99651998"
           id="path629" />
        <path
           inkscape:connector-curvature="0"
           d="m 476.9,225.98 -3.98,4.14 0.16,3.18 8.11,0.32 c 2.76,-0.66 2.33,-0.53 3.18,-1.99 0.85,-1.41 0.59,-1.7 0.8,-3.58 l -8.27,-2.07 z"
           transform="matrix(0.26544,0,0,0.2604,374.08,74.829)"
           style="fill:#a0210c;fill-rule:evenodd;stroke:#a0210c;stroke-width:1pt;stroke-opacity:0.99651998"
           id="path630" />
        <path
           inkscape:connector-curvature="0"
           d="m 477.85,225.51 -4.61,3.97 0,3.98 8.59,0.8 c 2.76,-0.67 2.97,-1.49 3.66,-2.47 0.85,-1.41 0.42,-1.54 0.63,-3.42 l -8.27,-2.86 z"
           transform="matrix(0.26544,0,0,0.2604,380.12,76.9)"
           style="fill:#a0210c;fill-rule:evenodd;stroke:#a0210c;stroke-width:1pt;stroke-opacity:0.99651998"
           id="path631" />
        <path
           inkscape:connector-curvature="0"
           d="m 497.1,131.02 16.22,10.97 c 3.06,-2.58 9.4,-1.01 11.88,-0.3 4.47,1.19 7.61,3.88 11.51,4.6 7.13,1.82 15.67,3.09 22.13,2.37 6.47,-0.72 11.91,-4.16 16.68,-6.67 l 0,-1.59 -3.18,0 c -5.16,1.9 -12.4,2 -17.94,1.26 -5.54,-0.74 -7.03,-3.28 -15.3,-5.71 l -0.64,-1.59 c 10.04,0.48 12.08,0.22 16.28,-1.65 4.11,-1.11 5.96,-3.54 8.28,-5.22 l -0.06,-1.88 -3.03,-0.16 c -3.89,2.64 -6.37,3.12 -12.34,2.57 -5.43,-0.56 -10.32,-3.72 -13.96,-3.78 -3.86,0.03 -3.68,-1.85 -7.42,-2.04 -5.94,-0.53 -12.35,0.28 -17.97,1.66 -6.74,2.07 -7.75,3.82 -11.14,7.16 z"
           transform="matrix(0.26544,0,0,0.2604,359.68,74.414)"
           style="fill:#a0210c;fill-rule:evenodd;stroke:#000000;stroke-width:1pt"
           id="path632" />
        <path
           inkscape:connector-curvature="0"
           d="m 500.25,128.58 c 1.55,0.36 3.3,0.82 4.57,1.56 1.27,0.73 0.94,0.72 2.3,1.74 -0.22,-1.32 -0.15,-1.23 -1.03,-2.26 -0.88,-1.04 -2.33,-1.98 -3.49,-2.83 l -2.35,1.79 z"
           transform="matrix(0.26544,0,0,0.2604,359.68,74.414)"
           style="fill-rule:evenodd;stroke:#000000;stroke-width:1pt"
           id="path633" />
        <path
           inkscape:connector-curvature="0"
           d="m 513.81,140.44 c 0.03,-1.42 -0.69,-2.66 -1.23,-3.9 -0.53,-1.24 -0.97,-2.29 -1.97,-3.53 1.25,0.36 1.94,0.91 3.01,2.21 1.06,1.3 1,2.6 1.22,4.47 l -1.03,0.75 z"
           transform="matrix(0.26544,0,0,0.2604,359.68,74.414)"
           style="fill-rule:evenodd;stroke:#000000;stroke-width:1pt"
           id="path634" />
        <path
           inkscape:connector-curvature="0"
           d="m 516.91,123.03 c 0.38,0.99 1.12,1.67 1.75,3.78 0.54,1.91 0.8,4.6 0.8,4.6 -0.21,-1.43 0.15,-3.05 -0.05,-4.47 -0.21,-1.43 -0.97,-2.67 -1.18,-4.1 l -1.32,0.19 z"
           transform="matrix(0.26544,0,0,0.2604,359.68,74.414)"
           style="fill-rule:evenodd;stroke:#000000;stroke-width:1pt"
           id="path635" />
        <path
           inkscape:connector-curvature="0"
           d="m 529.81,123.88 0.66,7.9 0.75,-7.43 -1.41,-0.47 z"
           transform="matrix(0.26544,0,0,0.2604,359.76,74.414)"
           style="fill-rule:evenodd;stroke:#000000;stroke-width:1pt"
           id="path636" />
        <path
           inkscape:connector-curvature="0"
           d="m 526.7,140.35 c 0.32,-1.29 0.26,-2.57 0.1,-3.86 -0.16,-1.29 -0.6,-2.38 -1.04,-3.86 1.26,1.1 1.76,2.48 2.45,3.95 0,1.48 -0.38,2.76 -1.51,3.77 z"
           transform="matrix(0.26544,0,0,0.2604,359.73,74.39)"
           style="fill-rule:evenodd;stroke:#000000;stroke-width:1pt"
           id="path637" />
        <path
           inkscape:connector-curvature="0"
           d="m 540.45,137.06 c 0.05,0 0.4,2.68 -0.2,4.61 -0.6,1.93 -1.03,2.07 -2.15,3.11 1.5,-1.13 2.82,-1.51 3.29,-2.74 0.47,-1.88 -0.75,-4.7 -0.94,-4.98 z"
           transform="matrix(0.26544,0,0,0.2604,359.71,74.341)"
           style="fill-rule:evenodd;stroke:#000000;stroke-width:1pt"
           id="path638" />
        <path
           inkscape:connector-curvature="0"
           d="m 542.05,133.86 c -0.94,0.15 -1.13,-3.83 -1.7,-5.75 0.41,-0.22 0.82,-0.15 1.23,0.75 0.44,0.54 0.31,3.33 0.47,5 z"
           transform="matrix(0.26544,0,0,0.2604,359.91,74.512)"
           style="fill-rule:evenodd;stroke:#000000;stroke-width:1pt"
           id="path639" />
        <path
           inkscape:connector-curvature="0"
           d="m 552.22,133.01 0.37,-3.3 1.04,-0.09 0,2.82 c 0,0.1 -1.32,0.66 -1.41,0.57 z"
           transform="matrix(0.26544,0,0,0.2604,359.68,74.316)"
           style="fill-rule:evenodd;stroke:#000000;stroke-width:1pt"
           id="path640" />
        <path
           inkscape:connector-curvature="0"
           d="m 551.56,141.86 c 0.59,1 1.66,2.19 1.78,3.29 0.13,1.1 -0.22,1.63 -1.03,3.3 l 1.51,0.09 c 0.81,-1.33 1.06,-2.29 0.94,-3.34 -0.13,-1.05 -0.63,-2.1 -1.7,-2.97 l -1.5,-0.37 z"
           transform="matrix(0.26544,0,0,0.2604,359.66,74.316)"
           style="fill-rule:evenodd;stroke:#000000;stroke-width:1pt"
           id="path641" />
        <path
           inkscape:connector-curvature="0"
           d="m 562.57,142.7 0.38,4.62 1.22,-0.66 -0.28,-3.96 -1.32,0 z"
           transform="matrix(0.26544,0,0,0.2604,359.71,74.316)"
           style="fill-rule:evenodd;stroke:#000000;stroke-width:1pt"
           id="path642" />
        <path
           inkscape:connector-curvature="0"
           d="m 496.09,131.83 c -3.67,1.08 -5,3.15 -6.79,4.94 l -10.35,-5.34 c -1.68,1.42 -2.32,3.44 -1.52,5.52 0.81,2.07 4.06,5.32 6.37,6.93 -0.58,2.86 -1.44,5.02 -2.44,7.54 -1.13,2.82 -3.54,6.39 -3.61,7.54 -0.14,1.31 -0.56,4.12 1.36,4.87 1.93,0.75 8.12,-0.52 10.19,-0.38 -0.34,1.12 -1.14,3.09 -0.87,3.94 0.27,0.85 0.83,1.13 2.51,1.18 -0.48,1.05 -1.53,2.37 -1.03,3 1.3,1 2.79,0.83 4.04,0.75 -1.97,2.33 -6.9,6.82 -8.5,8.82 -1.69,2.33 -1.84,4.85 1.44,4.61 -1.22,1.37 -2.39,2.71 -2.21,3.89 0.29,1.43 0.99,2.39 3.33,1.56 -1.38,3.2 -0.47,6.07 0.02,9.4 -1.19,2.53 -0.69,4.87 -0.98,7.77 -2.41,1.39 -2.71,3.2 -4.28,6 -1.41,3.03 -4.05,3.86 -5.51,10.36 l 9.47,2.41 c 0.35,-1.34 1.59,-2.21 1.93,-3.55 0.35,-1.33 0.32,-3 0.16,-4.48 1.87,-2.77 5.67,-8.49 6.89,-11.55 2.07,-1.12 3.57,-1.83 5.13,-1.83 1.55,0 2.53,0.94 4.18,1.83 -0.73,2.58 -2.77,5.38 -2.89,8.99 l 0,9.94 c -0.41,2.47 -3.17,2.51 -4.33,9.95 l 8.5,2.25 c 1.45,-2.51 3.73,-2.85 4.33,-3.85 l 0.62,-10.34 c 1.08,-4.88 7.79,-8.91 7.89,-14.21 2.4,-0.03 3.31,0.22 4.27,-0.28 1.28,-0.46 1.72,-1.19 2.72,-2.12 0.39,1.6 1.62,1.74 2.66,1.74 1.05,0 3.12,-1.5 3.97,-2.11 0.61,0.86 0.93,1.68 2.18,1.98 1.26,0.3 4.82,-0.24 6.26,-0.59 l -6.98,11.65 c -0.26,1.12 0.08,1.82 -0.46,3.13 -0.51,1.18 -1.53,1.75 -1.99,2.83 l 7.92,1.93 1.26,-3.4 c 1.68,-0.72 3.03,-1.11 3.92,-2.21 0.88,-1.1 0.87,-3.18 1.38,-4.37 2.7,-2 6.96,-6.35 9.94,-9.94 2.03,0.35 4.9,2.05 5.99,4.61 0.16,2.74 0.36,7.78 -0.85,11.27 l -5.14,8.18 -0.58,1.34 8.08,2.94 5.14,-4.01 0.2,-5.72 c 2.58,-4.65 6.27,-7.18 9.78,-10.11 0,-0.16 0.38,-6.15 0.24,-6.38 -0.87,-0.67 -1.46,-0.27 -1.77,-1.51 -0.3,-1.23 -0.09,-4.62 0.07,-5.96 0.51,-0.64 1.58,-1.37 1.53,-1.92 -1.4,-1.57 -0.98,-5.62 -0.55,-8.78 -0.1,-3.59 4.72,-7.85 5.46,-9.94 l 0.3,-3.78 c -0.49,-0.93 -1.22,-1.48 -1.25,-2.27 -0.02,-0.79 0.94,-2.09 1.53,-2.92 l 1.02,-1.78 -0.16,-9.31 c -0.29,-1 -1.13,-2.57 -1.94,-2.73 -0.8,-0.16 -1.98,0.76 -2.87,1.77 l -4.65,3.5 c -2.22,0.69 -4.17,0.96 -8.09,-0.03 l -5.97,0.12 c -3.13,0.89 -4.77,1.04 -7.72,-0.27 l -3.53,0.05 c -1.11,0.62 -2.63,1.6 -3.83,1.84 -1.19,0.23 -2.81,0.28 -4.01,-0.09 -9.12,0.62 -6.86,1.29 -9.47,1.87 -2.09,-0.4 -1.42,-1.46 -9.56,-1.54 l -3.23,-0.96 c -4.07,-2.75 -7.21,-7.15 -9.92,-12.2 8.48,-2.47 12.04,-5.05 14.62,-10.95 l -12,0.46 -16.97,-11.49 z"
           transform="matrix(0.26544,0,0,0.2604,359.68,74.414)"
           style="fill:#dc9103;fill-rule:evenodd;stroke:#544b20;stroke-width:1pt"
           id="path643" />
        <path
           inkscape:connector-curvature="0"
           d="m 491.65,147.82 3.4,1.47 c 0.41,0.5 1.22,1.08 1.75,1.11 0.53,0.04 0.98,-0.51 1.44,-0.91 l 3.12,-1.67 c -1.85,-0.27 -2.41,-1.44 -4.38,-1.44 -1.97,0 -3.36,1.05 -5.33,1.44 z"
           transform="matrix(0.26544,0,0,0.2604,359.74,74.18)"
           style="fill-rule:evenodd;stroke:#000000;stroke-width:1pt"
           id="path644" />
        <path
           inkscape:connector-curvature="0"
           d="m 506.77,147.78 c 1.1,0.67 3.11,1.99 4.76,1.99 1.8,-0.15 1.77,-1.44 4.36,-2.3 l 3.8,-3.13 c -2.29,0.03 -7.24,0.48 -9.96,1.33 -2.29,0.61 -2.82,1.54 -2.96,2.11 z"
           transform="matrix(0.26544,0,0,0.2604,359.68,74.414)"
           style="fill-rule:evenodd;stroke:#000000;stroke-width:1pt"
           id="path645" />
        <path
           inkscape:connector-curvature="0"
           d="m 497.93,187.57 c 0,0.28 -0.47,0.49 -0.71,0.15 -0.29,-4.06 -1.17,-6.9 -2.39,-10.06 1.38,2.4 2.53,6.29 3.1,9.91 z"
           transform="matrix(0.26544,0,0,0.2604,359.72,74.465)"
           style="fill-rule:evenodd;stroke:#000000;stroke-width:1pt"
           id="path646" />
        <path
           inkscape:connector-curvature="0"
           d="m 507.27,204.53 c -1.54,0.16 -2.15,-0.07 -3.7,0.09 -0.17,-4.08 -0.18,-8.75 -0.16,-11.66 0.59,0.07 2.31,1.9 3.33,4.79 0.27,2.13 0.65,4.53 0.53,6.78 z"
           transform="matrix(0.26544,0,0,0.2604,359.82,74.384)"
           style="fill-rule:evenodd;stroke:#000000;stroke-width:1pt"
           id="path647" />
        <path
           inkscape:connector-curvature="0"
           d="m 518.03,188.2 c 0.7,0.2 1.67,0.2 1.9,-0.27 0.29,-0.87 -0.59,-1.82 -0.91,-2.88 -1.15,-2.29 -1.78,-4.77 -2.26,-5.85 -0.51,-0.32 -1.05,-0.29 -0.93,0.24 0.66,2.04 1.78,7.98 2.2,8.76 z"
           transform="matrix(0.26544,0,0,0.2604,359.68,74.414)"
           style="fill-rule:evenodd;stroke:#000000;stroke-width:1pt"
           id="path648" />
        <path
           inkscape:connector-curvature="0"
           d="m 528.98,186.97 c 0.07,0.49 -1.57,-0.22 -1.85,-0.78 -0.02,-1.09 -2.24,-9.06 -1.87,-9.37 0.46,-0.23 1.91,2.67 2.37,4 0.11,0.79 1.08,3.68 1.35,6.15 z"
           transform="matrix(0.26544,0,0,0.2604,359.68,74.414)"
           style="fill-rule:evenodd;stroke:#000000;stroke-width:1pt"
           id="path649" />
        <path
           inkscape:connector-curvature="0"
           d="m 527.42,203.38 c -0.03,0.56 1.26,0.1 1.76,-0.32 1.48,-2.34 3.3,-4.81 3.84,-5.75 0.32,-1 1.93,-7.4 1.44,-7.35 -0.18,-0.18 -1.58,3.18 -3.39,6.49 -1.89,3.37 -3.67,6.61 -3.65,6.93 z"
           transform="matrix(0.26544,0,0,0.2604,359.68,74.414)"
           style="fill-rule:evenodd;stroke:#000000;stroke-width:1pt"
           id="path650" />
        <path
           inkscape:connector-curvature="0"
           d="m 538.4,199.95 c -0.54,0.26 1.08,-5.53 1.2,-6.56 0.3,-1.62 0.71,-4.53 1.36,-8.3 0.78,5.26 -0.15,10.92 -2.56,14.86 z"
           transform="matrix(0.26544,0,0,0.2604,359.68,74.414)"
           style="fill-rule:evenodd;stroke:#000000;stroke-width:1pt"
           id="path651" />
        <path
           inkscape:connector-curvature="0"
           d="m 544.98,182.22 c -0.35,0.31 -5.06,-7.63 -4.63,-7.67 0.12,-0.35 3.95,4.97 4.5,5.91 0.22,0.44 0.45,1.12 0.13,1.76 z"
           transform="matrix(0.26544,0,0,0.2604,359.68,74.414)"
           style="fill-rule:evenodd;stroke:#000000;stroke-width:1pt"
           id="path652" />
        <path
           inkscape:connector-curvature="0"
           d="m 556.01,188.12 c -0.35,-0.27 -0.21,-2.81 -0.91,-5.6 -0.69,-2.78 -1.88,-5.46 -1.64,-6.23 0.22,-0.4 0.98,-0.21 1.59,0.32 0.29,1.52 0.98,7.33 1.77,11.11 -0.01,0.37 -0.41,0.62 -0.81,0.4 z"
           transform="matrix(0.26544,0,0,0.2604,359.68,74.414)"
           style="fill-rule:evenodd;stroke:#000000;stroke-width:1pt"
           id="path653" />
        <path
           inkscape:connector-curvature="0"
           d="m 563.72,181.06 c -0.37,-0.41 1.03,2.73 2.05,6.45 1.02,3.73 1.54,10.31 1.79,9.85 0.7,-0.48 0.58,-1.07 1.67,-1.31 1.09,-0.24 5.15,0.15 4.92,-0.13 -2.51,-2.28 -4.83,-4.17 -6.56,-6.65 -1.73,-2.48 -2.88,-5.73 -3.87,-8.21 z"
           transform="matrix(0.26544,0,0,0.2604,359.68,74.414)"
           style="fill-rule:evenodd;stroke:#000000;stroke-width:1pt"
           id="path654" />
        <path
           inkscape:connector-curvature="0"
           d="m 573.22,215.04 c -0.79,0.58 -2.28,1.04 -2.72,0.8 -2.39,-5.08 -3.73,-8.4 -7.06,-13.83 -0.86,-1.29 -3,-1.09 -2.88,-1.59 0.08,-0.59 1.2,-0.36 1.93,-1.2 0.72,-0.85 0.82,-1.93 1.27,-2.32 -0.98,2.34 1.59,5.94 3.03,8.79 0.96,0.26 1.72,0.26 2.17,0.84 0.11,0.27 -1.03,0.46 -0.89,1.44 l 2.43,4.99 c 0.8,0.61 2.02,0.94 3.2,1.12 0.31,0.28 -0.24,0.68 -0.48,0.96 z"
           transform="matrix(0.26544,0,0,0.2604,359.68,74.414)"
           style="fill-rule:evenodd;stroke:#000000;stroke-width:1pt"
           id="path655" />
        <path
           inkscape:connector-curvature="0"
           d="M 103.35,305.55 49.332,155.43 101.83,72.49 l 87.3,39.85 26.31,156.25 c -40.49,10.31 -63.32,16.66 -112.09,36.96 z"
           transform="matrix(0.21652,0.15064,-0.15355,0.21241,536.74,64.477)"
           style="fill:none;stroke-width:1pt;stroke-opacity:0.99607999"
           id="path674" />
        <path
           inkscape:connector-curvature="0"
           d="m 578.2,170.66 c 1.5,0.08 2.86,0.22 3.31,-0.56 0.91,-1.93 1.45,-3.52 0.83,-4.77 -2.36,0.19 -4.14,1.3 -5.1,3.41 0.03,0.74 0.21,1.28 0.96,1.92 z"
           transform="matrix(0.26544,0,0,0.2604,359.68,74.414)"
           style="fill-rule:evenodd;stroke:#000000;stroke-width:1pt"
           id="path656" />
        <path
           inkscape:connector-curvature="0"
           d="m 602.95,169.21 c 23.29,5.02 44.85,10.73 66.42,17.82 21.56,7.09 42.09,15.56 62.96,24.73 l -34.94,71.95 c -19.51,-7.56 -38.76,-13.66 -58.02,-20 -19.25,-6.34 -38.02,-11.95 -57.52,-18.05 l 21.1,-76.45 z"
           transform="matrix(0.26544,0,0,0.2604,359.68,74.414)"
           style="fill:#fdfcfc;fill-rule:evenodd;stroke:#fdfcfc;stroke-width:1pt"
           id="path681" />
        <path
           inkscape:connector-curvature="0"
           d="m 598.31,186.21 c 0,0 32.53,7.4 64.05,17.73 31.53,10.34 62.29,23.61 62.17,23.61 -0.25,0 -19.82,41.09 -19.82,41.09 -18.99,-7.7 -38.97,-14.92 -58.7,-21.4 -19.73,-6.48 -39.47,-12.72 -59.69,-17.49 l 11.99,-43.54 z"
           transform="matrix(0.26544,0,0,0.2604,359.68,74.414)"
           style="fill:#e6151e;fill-rule:evenodd;stroke:#e6151e;stroke-width:1pt"
           id="path682" />
        <path
           inkscape:connector-curvature="0"
           d="m 601.01,206.31 c 3.2,-1.83 5.37,-2.32 7.09,-5.32 l 11.52,0 0.15,4.28 c 2.83,1.38 4.48,2.91 7.31,4.29 2.83,1.38 6.85,2.61 9.68,3.98 l 24.81,2.22 c 3.32,0.54 8.13,1.97 11.01,3.69 2.88,1.73 4.72,3.89 6.27,6.65 5.1,1.82 10.19,2.9 15.44,3.69 5.24,0.79 11.81,1.13 16.91,1.33 2.51,0.89 2.51,2.22 1.33,3.55 0,0 -2.81,3.87 -10.47,3.91 -7.66,0.04 -16.34,-4.36 -20.11,-3.76 0.15,2.36 4.14,7.23 8.72,9.15 l -0.15,11.23 -2.07,1.92 -2.21,-1.48 c 1.77,-2.66 1.18,-5.76 0.44,-8.42 -1.7,-2.51 -1.92,-3.54 -5.09,-3.69 -3.77,-0.74 -6.5,-1.77 -11.3,-5.17 l -1.78,0.3 c -1.03,1.87 -2.07,3.15 -4.43,4.28 l -4.87,-0.3 c 0,0 -11.23,-2.51 -11.23,-2.66 0,-0.14 -0.15,-1.77 0.15,-1.92 0.29,-0.14 3.84,-0.14 4.13,-0.14 2.37,0.74 7.39,0.74 7.39,0.74 l -0.15,-4.29 7.54,-0.44 c -1.53,-5.32 -2.02,-8.72 -9.01,-9.9 l -21.87,0.59 0.3,3.1 c -5.46,-0.73 -15.36,-0.87 -20.42,0.84 -2.95,0.3 -7.2,1.82 -9.12,1.82 l -2.22,-0.59 c -1.47,-0.44 -1.47,-0.88 -0.88,-2.21 9.45,-0.74 10.93,-1.48 13.74,-2.81 0.14,-0.89 -1.04,-2.81 -1.48,-2.95 -5.91,-0.3 -10.64,0.14 -12.26,-0.15 -2.51,-0.74 -5.91,-2.07 -5.91,-2.22 0,-0.15 -0.44,-2.36 -0.29,-2.36 0.14,0 3.84,1.03 3.98,1.03 3.99,0.74 10.93,0.45 12.56,-0.44 l 0.15,-3.25 c -0.15,-1.48 -1.19,-2.81 -1.48,-2.95 -0.3,-0.15 -6.5,-0.89 -8.72,-0.89 -3.59,-0.64 -3.05,-2.46 -3.1,-4.28 z"
           transform="matrix(0.26544,0,0,0.2604,359.68,74.414)"
           style="fill-rule:evenodd;stroke:#010001;stroke-width:1pt;stroke-opacity:0.99607999"
           id="path657" />
        <path
           inkscape:connector-curvature="0"
           d="m 648.72,232.6 c 3.35,1.08 5.81,1.43 10.78,1.77 l 7.54,-0.44 c -1.53,-5.32 -2.02,-8.72 -9.01,-9.9 l -21.87,0.59 0.3,3.1 c 6.65,2.52 9.9,3.89 12.26,4.88 z"
           transform="matrix(0.26544,0,0,0.2604,359.68,74.414)"
           style="fill:#fdfdfd;fill-opacity:0.99607999;fill-rule:evenodd;stroke:#010001;stroke-width:1pt;stroke-opacity:0.99607999"
           id="path658" />
        <path
           inkscape:connector-curvature="0"
           d="M 101.18,306.6 37.614,165.03 84.881,81.715 l 91.449,34.665 40.2,154.53 c -42.01,10.29 -68.89,19.04 -115.35,35.69 z"
           transform="matrix(0.26185,0.042682,-0.043508,0.25688,403.49,61.862)"
           style="fill:#011171;fill-opacity:0.99607999;fill-rule:evenodd;stroke:#011171;stroke-width:1pt"
           id="path679" />
        <path
           inkscape:connector-curvature="0"
           d="m 78.281,151.27 13.75,12.34 -3.906,19.85 19.065,-6.72 14.06,12.34 3.13,-18.28 15.62,-5.16 -11.88,-13.12 3.91,-18.13 c 0,0 -18.75,5.63 -18.75,5.47 0,-0.15 -12.5,-12.18 -12.66,-12.03 -0.15,0.16 -4.058,17.19 -4.058,17.19 l -18.281,6.25 z"
           transform="matrix(0.26544,0,0,0.2604,359.68,74.414)"
           style="fill:#fbfd10;fill-opacity:0.99607999;fill-rule:evenodd;stroke:#fdc605;stroke-width:1pt;stroke-opacity:0.99607999"
           id="path563" />
        <path
           inkscape:connector-curvature="0"
           d="m 78.594,151.42 61.246,14.07 -15.78,5.47 -14.22,-11.72 c 0,0 11.57,29.37 11.41,29.22 -0.16,-0.16 -13.44,-11.41 -13.91,-11.88 l 2.35,-17.34 c 0,0 -21.252,24.06 -21.252,23.9 0,-0.15 4.062,-19.68 4.062,-19.68 L 78.594,151.42 Z"
           transform="matrix(0.26544,0,0,0.2604,359.68,74.414)"
           style="fill:#ffc500;fill-rule:evenodd;stroke-width:1pt"
           id="path565" />
        <path
           inkscape:connector-curvature="0"
           d="M 96.406,145.02 110,158.3 l -9.38,-30.78 -4.214,17.5 z"
           transform="matrix(0.26544,0,0,0.2604,359.68,74.414)"
           style="fill:#ffc500;fill-rule:evenodd;stroke-width:1pt"
           id="path566" />
        <path
           inkscape:connector-curvature="0"
           d="m 113.13,140.02 c 0.15,0.16 -3.29,17.97 -3.13,17.97 1.56,-1.88 22.03,-23.6 21.88,-23.6 -0.16,0 -18.44,5.79 -18.75,5.63 z"
           transform="matrix(0.26544,0,0,0.2604,359.68,74.414)"
           style="fill:#ffc500;fill-rule:evenodd;stroke-width:1pt"
           id="path567" />
        <path
           inkscape:connector-curvature="0"
           d="m 78.281,151.27 13.75,12.34 -3.906,19.85 19.065,-6.72 14.06,12.34 3.13,-18.28 15.62,-5.16 -11.88,-13.12 3.91,-18.13 c 0,0 -18.75,5.63 -18.75,5.47 0,-0.15 -12.5,-12.18 -12.66,-12.03 -0.15,0.16 -4.058,17.19 -4.058,17.19 l -18.281,6.25 z"
           transform="matrix(0.2062,0.16399,-0.16716,0.20228,546.72,62.466)"
           style="fill:#fbfd10;fill-opacity:0.99607999;fill-rule:evenodd;stroke:#fdc605;stroke-width:1pt;stroke-opacity:0.99607999"
           id="path666" />
        <path
           inkscape:connector-curvature="0"
           d="m 78.594,151.42 61.246,14.07 -15.78,5.47 -14.22,-11.72 c 0,0 11.57,29.37 11.41,29.22 -0.16,-0.16 -13.44,-11.41 -13.91,-11.88 l 2.35,-17.34 c 0,0 -21.252,24.06 -21.252,23.9 0,-0.15 4.062,-19.68 4.062,-19.68 L 78.594,151.42 Z"
           transform="matrix(0.2062,0.16399,-0.16716,0.20228,546.72,62.466)"
           style="fill:#ffc500;fill-rule:evenodd;stroke-width:1pt"
           id="path667" />
        <path
           inkscape:connector-curvature="0"
           d="M 96.406,145.02 110,158.3 l -9.38,-30.78 -4.214,17.5 z"
           transform="matrix(0.2062,0.16399,-0.16716,0.20228,546.72,62.466)"
           style="fill:#fdc605;fill-rule:evenodd;stroke-width:1pt"
           id="path668" />
        <path
           inkscape:connector-curvature="0"
           d="m 113.13,140.02 c 0.15,0.16 -3.29,17.97 -3.13,17.97 1.56,-1.88 22.03,-23.6 21.88,-23.6 -0.16,0 -18.44,5.79 -18.75,5.63 z"
           transform="matrix(0.2062,0.16399,-0.16716,0.20228,546.72,62.466)"
           style="fill:#fdc605;fill-rule:evenodd;stroke-width:1pt"
           id="path669" />
        <path
           inkscape:connector-curvature="0"
           d="m 175.37,121.34 c 21.45,-10.45 45.53,-18.61 70.93,-22.166 24.41,-3.558 48.84,-3.866 73.91,-3.811 0,0 3.28,39.137 3.28,39.457 -19.7,0.17 -34.38,-0.2 -69.14,4.38 -34.57,4.88 -48.81,9.07 -69.82,17.28 l -9.16,-35.14 z"
           transform="matrix(0.26544,0,0,0.2604,359.68,74.414)"
           style="fill:#e6141d;fill-rule:evenodd;stroke:#e6141d;stroke-width:1pt"
           id="path675" />
        <path
           inkscape:connector-curvature="0"
           d="m 193.74,190.62 c -0.33,0 10.86,41.39 10.86,41.39 20.63,-5.31 41.59,-9.3 62.56,-12.31 20.96,-3.01 43.25,-4.73 63.56,-6.1 l -3.6,-40.37 c -21.4,-1.31 -45.79,-1.31 -67.85,1.64 -22.05,2.96 -43.47,8.19 -65.53,15.75 z"
           transform="matrix(0.26544,0,0,0.2604,359.68,74.414)"
           style="fill:#e6141d;fill-opacity:0.99607999;fill-rule:evenodd;stroke:#e6141d;stroke-width:1pt"
           id="path677" />
        <path
           inkscape:connector-curvature="0"
           d="m 95.246,318.45 598.87,0 0,391.42 c -15.22,152.44 -158.96,266.38 -290.3,265.51 -141.79,6.31 -298.57,-111.99 -309.88,-266.82 l 1.306,-390.11 z"
           transform="matrix(0.26544,0,0,0.2604,359.68,74.414)"
           style="fill:#ffffff;fill-rule:evenodd;stroke:#e5141d;stroke-width:4"
           id="path688" />
        <path
           inkscape:connector-curvature="0"
           d="m 95.246,318.45 598.87,0 0,391.42 c -15.22,152.44 -158.96,266.38 -290.3,265.51 -141.79,6.31 -298.57,-111.99 -309.88,-266.82 l 1.306,-390.11 z"
           transform="matrix(0.25438,0,0,0.24955,364.04,81.437)"
           style="fill:#d61517;fill-rule:evenodd;stroke:#e5141d;stroke-width:4"
           id="path689" />
        <rect
           height="122.35"
           x="452.67999"
           y="334.03"
           width="110.6"
           transform="matrix(0.26544,0,0,0.2604,359.68,74.414)"
           ry="0"
           style="fill:#ffffff;fill-rule:evenodd;stroke-width:1pt"
           id="rect693" />
        <rect
           height="122.35"
           x="225.60001"
           y="334.03"
           width="110.6"
           transform="matrix(0.26544,0,0,0.2604,359.39,74.414)"
           ry="0"
           style="fill:#ffffff;fill-rule:evenodd;stroke-width:1pt"
           id="rect694" />
        <rect
           height="119.42"
           x="109.11"
           y="460.42999"
           width="112.08"
           transform="matrix(0.26544,0,0,0.2604,359.68,74.414)"
           ry="0"
           style="fill:#ffffff;fill-rule:evenodd;stroke-width:1pt"
           id="rect695" />
        <rect
           height="119.42"
           x="339.51001"
           y="460.42999"
           width="109.49"
           transform="matrix(0.26544,0,0,0.2604,359.68,74.414)"
           ry="0"
           style="fill:#ffffff;fill-rule:evenodd;stroke-width:1pt"
           id="rect696" />
        <rect
           height="119.42"
           x="566.58002"
           y="460.42999"
           width="112.83"
           transform="matrix(0.26544,0,0,0.2604,359.68,74.414)"
           ry="0"
           style="fill:#ffffff;fill-rule:evenodd;stroke-width:1pt"
           id="rect697" />
        <rect
           height="121.25"
           x="452.67999"
           y="583.52002"
           width="110.6"
           transform="matrix(0.26544,0,0,0.2604,359.68,74.414)"
           ry="0"
           style="fill:#ffffff;fill-rule:evenodd;stroke-width:1pt"
           id="rect698" />
        <rect
           height="121.25"
           x="224.5"
           y="583.52002"
           width="110.6"
           transform="matrix(0.26544,0,0,0.2604,359.68,74.414)"
           ry="0"
           style="fill:#ffffff;fill-rule:evenodd;stroke-width:1pt"
           id="rect699" />
        <rect
           height="121.25"
           x="339.51001"
           y="708.81"
           width="109.49"
           transform="matrix(0.26544,0,0,0.2604,359.68,74.319)"
           ry="0"
           style="fill:#ffffff;fill-rule:evenodd;stroke-width:1pt"
           id="rect700" />
        <path
           inkscape:connector-curvature="0"
           d="m 567.28,709.5 0.03,119.12 67.34,0.09 c 30.72,-45.75 41.24,-90.31 44.13,-119.18 -0.5,0 -111.06,-0.05 -111.5,-0.03 z"
           transform="matrix(0.26544,0,0,0.2604,359.68,74.414)"
           style="fill:#ffffff;fill-rule:evenodd;stroke:#ffffff;stroke-width:1pt"
           id="path705" />
        <path
           inkscape:connector-curvature="0"
           d="m 453.36,834.44 0.01,119.54 c 47.9,-10.15 86.92,-33.28 109.25,-50.26 l 0.01,-69.33 -109.27,0.05 z"
           transform="matrix(0.26544,0,0,0.2604,359.68,74.414)"
           style="fill:#ffffff;fill-rule:evenodd;stroke:#ffffff;stroke-width:1pt"
           id="path706" />
        <path
           inkscape:connector-curvature="0"
           d="m 225.34,834.21 -0.16,67.54 c 37.62,27.97 80.59,44.35 109.21,50.64 l 0.02,-118.14 -109.07,-0.04 z"
           transform="matrix(0.26544,0,0,0.2604,359.68,74.414)"
           style="fill:#ffffff;fill-rule:evenodd;stroke:#ffffff;stroke-width:1pt"
           id="path708" />
        <path
           inkscape:connector-curvature="0"
           d="m 109.32,709.34 c 3.58,46.8 23.14,90.21 44.15,119.57 l 67.06,-0.11 0.01,-119.51 -111.22,0.05 z"
           transform="matrix(0.26544,0,0,0.2604,359.68,74.414)"
           style="fill:#ffffff;fill-rule:evenodd;stroke:#ffffff;stroke-width:1pt"
           id="path710" />
      </g>
    </g>
    <rect
       style="opacity:1;fill:none;fill-opacity:1;stroke:#000000;stroke-width:2.58583093;stroke-miterlimit:4;stroke-dasharray:none;stroke-opacity:1"
       id="rect7500"
       width="39.914173"
       height="26.581171"
       x="349.87881"
       y="783.39716" />
    <path
       style="fill:#1a1a1a;fill-rule:evenodd;stroke:#000000;stroke-width:4;stroke-linecap:butt;stroke-linejoin:miter;stroke-miterlimit:4;stroke-dasharray:none;stroke-opacity:1"
       d="m 257.7529,629.62476 c 3.20625,-10.01473 8.5467,-22.2051 16.19678,-25.54375 29.9529,-13.07207 58.93574,-10.73635 88.38834,-2.20971 7.85094,2.27288 14.29746,12.83827 18.73311,22.6578 6.43846,11.63389 1.08239,19.07385 13.67738,18.63126 2.81309,-0.12022 5.35853,-0.73963 5.15456,-2.61915 -2.85116,-26.27195 -17.3646,-63.06094 -17.3646,-63.06094 -3.96568,-16.94557 -3.77599,-13.59829 -19.00431,-15.57503 -10.9128,-1.40543 -21.68237,-2.16959 -32.38191,-2.43889 -3.6737,-0.0925 -3.43289,5.34215 -7.09304,5.36043 -4.44563,0.0222 -12.7897,-5.34702 -17.22502,-5.18079 -10.19102,0.38194 -20.36885,1.11603 -30.5979,2.07344 -16.73333,1.31491 -14.11364,0.2396 -19.30452,13.68882 -6.77995,17.60269 -18.25727,49.80026 -18.33743,66.23781 -0.0131,2.6874 4.10555,3.18979 8.09558,3.04655 11.69103,0.091 8.18689,-5.97081 11.06298,-15.06785 z"
       id="path4299"
       inkscape:connector-curvature="0"
       sodipodi:nodetypes="cssccsccsssccscc" />
    <g
       style="font-style:normal;font-weight:normal;font-size:56.4375px;line-height:125%;font-family:sans-serif;letter-spacing:0px;word-spacing:0px;fill:#000080;fill-opacity:1;stroke:none;stroke-width:1px;stroke-linecap:butt;stroke-linejoin:miter;stroke-opacity:1"
       id="text5757">
      <path
         d="m 372.95597,1105.6007 q 0,0.43 0.16125,0.86 0.16125,0.3763 0.48375,0.9138 0.37625,0.4837 1.075,0.645 l 0,7.1487 -16.77,0 0,-7.1487 q 0.69875,-0.1613 1.02125,-0.6988 0.3225,-0.5912 0.3225,-1.72 l 0,-23.65 q 0,-0.5912 -0.16125,-0.9675 -0.16125,-0.3762 -0.59125,-0.9675 -0.37625,-0.645 -1.075,-1.075 l 0,-6.6112 15.48,0 0.0537,33.2712 z"
         style="font-style:normal;font-variant:normal;font-weight:100;font-stretch:normal;font-family:AcmeFont;-inkscape-font-specification:'AcmeFont Thin';fill:#000080"
         id="path4350" />
      <path
         d="m 397.9472,1115.1682 -14.5125,0 11.7175,-33.0025 q 0.16125,-0.5375 -0.645,-0.645 -0.7525,-0.1612 -1.23625,-0.1612 -1.12875,0.054 -1.55875,0.054 -0.91375,0 -0.91375,1.4513 0,0.7525 0,1.2362 l 0,5.2675 -11.77125,0 0,-17.2 32.1425,0 0,7.3638 -13.2225,35.6362 z"
         style="font-style:normal;font-variant:normal;font-weight:100;font-stretch:normal;font-family:AcmeFont;-inkscape-font-specification:'AcmeFont Thin';fill:#000080"
         id="path4352" />
    </g>
    <path
       style="fill:#ff0000;fill-opacity:1;fill-rule:evenodd;stroke:#000000;stroke-width:4;stroke-linecap:butt;stroke-linejoin:miter;stroke-miterlimit:4;stroke-dasharray:none;stroke-opacity:1"
       d="m 274.90355,739.13546 c 2.77119,-8.4994 -15.24334,-5.6022 -25.10246,-5.3547 -10.66086,-0.2622 -9.71762,0.085 -14.47122,6.9385 l 0,-10e-5 c -11.8202,17.0827 -41.85183,65.0713 -50.87474,123.3034 -0.45095,2.9103 51.38958,0.4698 51.38958,0.4698"
       id="path6383-6"
       inkscape:connector-curvature="0"
       sodipodi:nodetypes="ccccsc" />
    <path
       style="fill:#ff0000;fill-opacity:1;fill-rule:evenodd;stroke:#000000;stroke-width:4;stroke-linecap:butt;stroke-linejoin:miter;stroke-miterlimit:4;stroke-dasharray:none;stroke-opacity:1"
       d="m 375.25654,737.02066 c -2.77119,-8.4994 15.24334,-5.6023 25.10246,-5.3547 10.66086,-0.2622 9.71762,0.085 14.47122,6.9384 l 0,0 c 11.8202,17.0826 41.85183,65.0713 50.87474,123.3033 0.45095,2.9104 -51.38958,0.4698 -51.38958,0.4698"
       id="path6383-6-0"
       inkscape:connector-curvature="0"
       sodipodi:nodetypes="ccccsc" />
  </g>
</svg>
