<svg xmlns="http://www.w3.org/2000/svg" xmlns:xlink="http://www.w3.org/1999/xlink" width="334.825" height="748.882" viewBox="0 0 313.898 702.077"><defs><pattern xlink:href="#a" id="b" patternTransform="matrix(57.5338 -.45719 .48864 61.49197 345.446 -10.088)"/><pattern id="a" patternTransform="scale(10)" height="2" width="2" patternUnits="userSpaceOnUse"><path style="fill:#000;stroke:none" d="M0 0h1v1H0zM1 1h1v1H1z"/></pattern></defs><g transform="translate(-168.989 -543.925)"><ellipse style="fill:#ffb380;fill-opacity:1;stroke:#000;stroke-width:4.22298098;stroke-miterlimit:4;stroke-dasharray:none;stroke-opacity:1" cx="396.571" cy="654.076" rx="12.334" ry="14.479"/><ellipse style="fill:#ffb380;fill-opacity:1;stroke:#000;stroke-width:4.22298098;stroke-miterlimit:4;stroke-dasharray:none;stroke-opacity:1" cx="247.143" cy="654.648" rx="12.334" ry="14.479"/><ellipse style="fill:#ffb380;fill-opacity:1;stroke:#000;stroke-width:4.00000048;stroke-miterlimit:4;stroke-dasharray:none;stroke-opacity:1" cx="220.982" cy="987.777" rx="33.851" ry="36.86"/><ellipse style="fill:#ffb380;fill-opacity:1;stroke:#000;stroke-width:3;stroke-miterlimit:4;stroke-dasharray:none;stroke-opacity:1" cx="430.857" cy="994.548" rx="33.851" ry="36.86"/><path style="fill:#ffb380;fill-opacity:1;fill-rule:evenodd;stroke:#000;stroke-width:4.00000048;stroke-linecap:butt;stroke-linejoin:miter;stroke-miterlimit:4;stroke-dasharray:none;stroke-opacity:1" d="m245.03 978.815 1.01-126.775-54.043 4.041 3.398 109.667M402.406 980.58l-1.01-126.774 54.043 4.04-3.398 109.667M312.327 1214.866l4.581-120.346-73.328-2.388 9.112 108.953M337.73 1214.202l-4.58-120.346 73.328-2.388-9.112 108.953"/><path style="fill:#fff;fill-opacity:1;fill-rule:evenodd;stroke:#000;stroke-width:4;stroke-linecap:butt;stroke-linejoin:miter;stroke-miterlimit:4;stroke-dasharray:none;stroke-opacity:1" d="M240.54 949.992c61.163.772 109.827-5.116 166.245-1.505 17.425 67.211 7.74 86.487 6.018 170.646-46.666 15.5-72.162 1.633-88.012-3.761-22.053 16.582-86.913 10.205-87.26 6.77-11.127-148.263 2.64-165.748 3.009-172.15z"/><path style="fill:url(#b);fill-opacity:1;fill-rule:evenodd;stroke:#000;stroke-width:4.00000048;stroke-linecap:butt;stroke-linejoin:miter;stroke-miterlimit:4;stroke-dasharray:none;stroke-opacity:1" d="M580.769 727.652c-11.82 17.083-41.852 65.071-50.875 123.303-.451 2.91 54.704-.635 54.704-.635l-6.429 114.286 182.858 1.429-4.286-116.429h49.286c-19.124-76.564-28.718-87.28-48.038-123.624-5.641-10.725-2.678-9.287-15.271-8.97l-147.478 3.702c-10.661-.263-9.718.085-14.471 6.938z" transform="translate(-345.295 14.333)"/><path style="opacity:1;fill:red;fill-opacity:1;stroke:#fff;stroke-width:.65150011;stroke-miterlimit:4;stroke-dasharray:none;stroke-opacity:.94117647" d="M640.052 817.473c-.206-16.789-.325-30.565-.265-30.615.06-.05 12.937-.212 28.613-.362l28.503-.273v60.986l-25.897.01c-14.243 0-26.95.181-28.238.394l-2.34.388-.376-30.525z" transform="translate(-345.295 14.333)"/><path style="opacity:1;fill:red;fill-opacity:1;stroke:none;stroke-width:.65150011;stroke-miterlimit:4;stroke-dasharray:none;stroke-opacity:1" d="M528.285 230.212c-.235-6.508-.428-20.094-.428-30.191v-18.36l28.16-.393c15.488-.215 28.286-.266 28.44-.113.153.154.422 13.916.597 30.584l.318 30.304h-56.658l-.429-11.831z" transform="translate(-176.307 558.258)"/><path style="opacity:1;fill:red;fill-opacity:1;stroke:none;stroke-width:1;stroke-miterlimit:4;stroke-dasharray:none;stroke-opacity:1" d="M413.069 214.843c-.278-27.924-.256-28.546 1.06-30.613l1.344-2.109 27.2-.008 27.2-.008v60.38l-20.628.43c-11.346.237-24.063.431-28.261.431h-7.632l-.283-28.503zM363.679 304.333c0-1.717 2.639-13.776 4.864-22.223 2.472-9.387 6.89-22.81 10.552-32.064l2.394-6.048h30.841l.432 20.628c.237 11.346.43 24.931.43 30.19v9.563l-15.74.43c-25.596.699-33.773.584-33.773-.476zM414.726 361.86c.221-2.655 1.031-16.408 1.8-30.561.768-14.154 1.444-25.795 1.5-25.869.058-.074 11.848-.22 26.202-.326l26.097-.191.424 16.939c.234 9.316.425 23.022.426 30.457l.001 13.52-21.01.002c-11.557.002-24.349.195-28.428.43l-7.415.428.403-4.828zM529.033 335.045c-.11-16.573-.185-30.195-.168-30.271.016-.077 12.67-.343 28.117-.592l28.087-.453.377 3.523c.207 1.939.454 15.764.548 30.724l.172 27.2h-56.934l-.199-30.131zM586.27 287.543c-.236-8.658-.43-22.258-.43-30.223v-14.48l14.708-.48c8.271-.27 14.945-.23 15.25.09 1.44 1.514 9.181 26.285 14.412 46.115 1.805 6.841 3.427 12.952 3.605 13.579.304 1.07-1.116 1.14-23.395 1.14H586.7l-.43-15.741zM470.057 179.74v-1.848l1.9-.128c1.046-.07 4.596-.183 7.89-.25 5.934-.12 41.672-.984 45.55-1.1l2.015-.06v4.665l-19.06.144c-10.484.079-23.389.207-28.678.285l-9.617.14v-1.848zM473.855 418.9l-1.424-.18-.303-12.07c-.166-6.638-.303-18.417-.304-26.177v-14.107l28.447-.215c15.645-.119 28.486-.192 28.534-.163.048.029.152 12.02.23 26.646l.143 26.594-26.95-.074c-14.822-.04-27.59-.155-28.373-.254z" transform="translate(-176.307 558.258)"/><path transform="translate(-306.607 631.226)" d="M659.075 218.868c-.236-6.508-.429-20.093-.429-30.19v-18.36l17.697-.43c9.733-.236 22.44-.43 28.238-.43h10.543l.427 9.876c.235 5.432.427 19.211.427 30.62V230.7h-56.474l-.429-11.831zM601.839 262.46c-.146-16.573-.25-30.17-.232-30.215.018-.046 12.86-.294 28.536-.553l28.503-.47.01 29.219c.004 16.07.185 29.878.401 30.685l.393 1.465h-57.346l-.265-30.131zM512.736 169.065c3.954-10.4 15.363-32.045 24.69-46.84l4.928-7.819.17 27.627c.093 15.196.093 27.69 0 27.766-.094.076-6.986.342-15.317.591l-15.147.453.676-1.778zM601.09 161.563c-.235-4.37-.427-17.985-.427-30.256v-22.31l28.177-.252c15.498-.138 28.263-.203 28.368-.145.105.058.371 13.585.592 30.06l.402 29.953-1.57.38c-.862.21-13.617.411-28.342.448l-26.773.067-.427-7.945zM657.995 105.694v-1.87l8.958-.4c4.927-.22 17.36-.588 27.629-.818l18.67-.42 1.038 2.006c.57 1.103 1.037 2.313 1.037 2.69 0 .467-9.086.683-28.666.683h-28.666v-1.87z" style="opacity:1;fill:#fff;fill-opacity:1;stroke:#fff;stroke-width:.65150011;stroke-miterlimit:4;stroke-dasharray:none;stroke-opacity:1"/><path transform="translate(-306.607 631.226)" d="M546.33 108.311c.817-1.136 1.749-1.871 2.702-2.13.507-.138 2.508-.252 4.448-.252 3.782-.001 38.452-.818 43.52-1.025l3.052-.125v3.63l-5.816.138c-3.199.076-15.392.202-27.097.28l-21.28.14.471-.656z" style="opacity:1;fill:#fff;fill-opacity:1;stroke:#fff;stroke-width:.23034008;stroke-miterlimit:4;stroke-dasharray:none;stroke-opacity:1"/><path transform="translate(-306.607 631.226)" d="M659.965 331.757c-.237-8.12-.43-20.093-.43-26.607v-11.842l17.696-.43c9.733-.238 22.452-.431 28.265-.431 10.408 0 10.573.022 10.96 1.466.216.806.397 12.973.402 27.037l.01 25.571h-56.474l-.43-14.764zM659.276 230.49c-.16-.503-.484-14.278-.717-30.613l-.425-29.7 17.745-.432c9.76-.238 22.635-.432 28.611-.432h10.866l.428 15.148c.236 8.33.43 22.11.43 30.62l.002 15.473h-21.398c-11.77 0-24.515.19-28.323.424-5.635.345-6.98.254-7.218-.489zM715.91 138.652c-.265-16.505-.338-30.154-.162-30.33.393-.393 13.48 23.543 19.456 35.583 2.4 4.837 5.838 12.386 7.638 16.776l3.272 7.98h-29.722l-.482-30.009zM601.985 286.845c-.235-3.548-.428-17.333-.43-30.632l-.003-24.181 28.38-.483c15.608-.265 28.5-.362 28.646-.214.148.147.35 13.957.45 30.69l.182 30.422-16.288.002c-8.958.001-21.737.192-28.398.425l-12.111.423-.427-6.451zM550.897 345.384l-6.026-.215v-51.392l28.34-.177 28.34-.176v52.446l-22.313-.136c-12.273-.074-25.026-.232-28.34-.35zM546.439 231.393l-2.015-.255-.428-12.775c-.236-7.026-.428-20.644-.428-30.261v-17.486H600.046l.427 8.898c.235 4.894.427 18.48.427 30.19v21.292l-19.651.43c-19.97.438-31.176.428-34.81-.033zM600.899 157.423c-.001-6.897-.195-20.677-.43-30.62l-.43-18.08h57.331l.43 21.606c.238 11.884.432 25.47.432 30.191v8.585l-15.742.43c-8.657.236-21.557.43-28.666.43H600.9l-.001-12.542z" style="opacity:1;fill:#fff;fill-opacity:1;stroke:#fff;stroke-width:.65150011;stroke-miterlimit:4;stroke-dasharray:none;stroke-opacity:1"/><path style="fill:#ffb380;fill-opacity:1;fill-rule:evenodd;stroke:#000;stroke-width:4;stroke-linecap:butt;stroke-linejoin:miter;stroke-miterlimit:4;stroke-dasharray:none;stroke-opacity:1" d="m286.202 740.772 74.286-1.429s-2.258 37.338-34.286 37.22c-33.563-.123-40-35.791-40-35.791z"/><path style="fill:#ffb380;fill-rule:evenodd;stroke:#000;stroke-width:4;stroke-linecap:butt;stroke-linejoin:miter;stroke-miterlimit:4;stroke-dasharray:none;stroke-opacity:1" d="M268.167 591.42c-26.24 21.324-25.423 80.035-18.849 99.67 8.085 24.148 26.238 47.61 49.339 58.326 16.516 7.661 38.35 8.169 54.62 0 20.212-10.148 35.754-32.308 40.53-54.414 7.131-32.995 1.662-82.205-13.4-101.442-23.311-29.773-83.2-25.74-112.24-2.14z"/><path style="fill:#fff;fill-rule:evenodd;stroke:#000;stroke-width:4;stroke-linecap:butt;stroke-linejoin:miter;stroke-miterlimit:4;stroke-dasharray:none;stroke-opacity:1" d="M296.094 645.678c-6.312-1.748-12.821-1.162-18.199 3.17-17.894 14.414 13.404 34.735 23.61 23.773 7.918-8.504 10.125-26.943-5.41-26.943z"/><ellipse style="fill:#000;fill-opacity:1;stroke:#000;stroke-width:1.34574461;stroke-miterlimit:4;stroke-dasharray:none;stroke-opacity:1" cx="288.47" cy="658.885" rx="3.197" ry="3.698"/><path d="M345.545 647.032c6.312-1.749 12.821-1.162 18.199 3.17 17.894 14.414-13.404 34.735-23.61 23.773-7.918-8.504-10.125-26.943 5.41-26.943z" style="fill:#fff;fill-rule:evenodd;stroke:#000;stroke-width:4;stroke-linecap:butt;stroke-linejoin:miter;stroke-miterlimit:4;stroke-dasharray:none;stroke-opacity:1"/><ellipse ry="3.698" rx="3.197" cy="660.239" cx="349.986" style="fill:#000;fill-opacity:1;stroke:#000;stroke-width:1.34574461;stroke-miterlimit:4;stroke-dasharray:none;stroke-opacity:1"/><path style="fill:none;fill-rule:evenodd;stroke:#000;stroke-width:4;stroke-linecap:butt;stroke-linejoin:miter;stroke-miterlimit:4;stroke-dasharray:none;stroke-opacity:1" d="M318.685 697.197c8.97-1.795 12.895-4.299 11.35-7.796-6.967-15.766-7.3-16.103-6.967-15.766"/><g style="stroke-width:4;stroke-miterlimit:4;stroke-dasharray:none"><path d="M111.17 536.139c11.862-6.174 14.728-9.3 15.16-9.84" style="fill:none;fill-rule:evenodd;stroke:#000;stroke-width:4;stroke-linecap:butt;stroke-linejoin:miter;stroke-miterlimit:4;stroke-dasharray:none;stroke-opacity:1" transform="translate(163.95 173.996)"/><path d="M118.085 531.086c23.471 35.016 61.832 30.635 77.66 4.255" style="fill:none;fill-rule:evenodd;stroke:#000;stroke-width:4;stroke-linecap:butt;stroke-linejoin:miter;stroke-miterlimit:4;stroke-dasharray:none;stroke-opacity:1" transform="translate(163.95 173.996)"/><path d="M190.16 528.958c4.812 7.047 5.93 8.057 10.372 12.766" style="fill:none;fill-rule:evenodd;stroke:#000;stroke-width:4;stroke-linecap:butt;stroke-linejoin:miter;stroke-miterlimit:4;stroke-dasharray:none;stroke-opacity:1" transform="translate(163.95 173.996)"/></g><path style="fill:none;fill-rule:evenodd;stroke:#000;stroke-width:3;stroke-linecap:butt;stroke-linejoin:miter;stroke-miterlimit:4;stroke-dasharray:none;stroke-opacity:1" d="m325.497 1116.682-1.504-71.077M307.71 1038.241c4.202 4.98 10.793 7.846 17.301 7.523 6.127-.305 12.058-3.412 15.797-8.275l-.752-.752"/><path style="fill:#241c1c;fill-opacity:1;fill-rule:evenodd;stroke:#000;stroke-width:4;stroke-linecap:butt;stroke-linejoin:miter;stroke-miterlimit:4;stroke-dasharray:none;stroke-opacity:1" d="m315.65 1189.101 1.605 53.79h-30.488a19.433 19.433 0 0 0-5.57-3.753 19.504 19.504 0 0 0-10.477-1.502l-8.023 5.651H179.28c-4.619-4.222-7.595-10.197-8.181-16.427-.587-6.23 1.222-12.656 4.972-17.666 2.82-3.767 6.654-6.7 10.825-8.879 4.17-2.18 8.683-3.636 13.244-4.795a112.942 112.942 0 0 1 48.116-1.605l67.395-4.814zM336.225 1189.816l-1.605 53.79h30.489a19.433 19.433 0 0 1 5.57-3.754 19.504 19.504 0 0 1 10.476-1.502l8.023 5.651h83.418c4.62-4.221 7.595-10.197 8.182-16.427.586-6.23-1.222-12.656-4.972-17.665-2.82-3.768-6.654-6.7-10.825-8.88-4.171-2.179-8.684-3.635-13.245-4.795a112.944 112.944 0 0 0-48.116-1.604l-67.395-4.814z"/><path style="fill:none;fill-rule:evenodd;stroke:#000;stroke-width:4.00000048;stroke-linecap:butt;stroke-linejoin:miter;stroke-miterlimit:4;stroke-dasharray:none;stroke-opacity:1" d="m410.76 860.051-14.276-50.866"/><path style="fill:#fff;fill-rule:evenodd;stroke:none;stroke-width:1px;stroke-linecap:butt;stroke-linejoin:miter;stroke-opacity:1" d="m399.688 1196.134-19.627 28.704 12.94.043 19.034-29.4zM420.248 1194.945l-17.048 30.647 12.494-.046 16.349-30.736zM250.53 1195.506l19.628 28.703-12.94.043-19.034-29.4zM229.971 1194.317l17.048 30.647-12.494-.046-16.349-30.736z"/><path d="M384.82 782.435v-.062m-.031.064v-.065m-.023.066v-.067" style="fill:none;stroke:#000;stroke-width:.00053333"/><path style="fill:none;fill-rule:evenodd;stroke:#000;stroke-width:4.00000048;stroke-linecap:butt;stroke-linejoin:miter;stroke-miterlimit:4;stroke-dasharray:none;stroke-opacity:1" d="m239.152 861.123 16.296-53.898"/><g><path style="fill:#fff;fill-rule:evenodd;stroke-width:1pt" d="M0 168.09h963.78v149.6H0z" transform="matrix(.0399 0 0 .05016 349.928 783.834)"/><g transform="matrix(.04164 0 0 .05234 349.93 783.827)"><path style="fill:#003e9f;fill-rule:evenodd;stroke-width:1pt" d="M.785 288.73h925.36v187.64H.785z"/><path style="fill:#d61517;fill-rule:evenodd;stroke-width:1pt" d="M-1.33 2.917h926.85v157.34H-1.33z"/><path d="M99.546 313.18c91.174-33.06 192.26-50.9 291.06-51.15 98.8-.26 199.56 15.55 299.12 51.91l74.11-152.4-52.09-92.489s-92.94 38.909-93.7 38.909c-.76 0-65.53-72.655-65.53-72.655l-83.17 51.223-78.1-60.883-73.47 59.944-85.76-50.53-62.56 75.781L75.68 69.966 25.478 161.61l74.064 151.57Z" transform="matrix(.26544 0 0 .2604 359.68 74.414)" style="fill:#fff;fill-rule:evenodd;stroke:#e5141d;stroke-width:4;stroke-linecap:round"/><path d="M103.35 305.55 48.053 156.8l51.57-83.743 86.837 38.303 28.36 156.41c-41.44 10.13-62.64 16.96-111.47 37.78z" transform="matrix(.21501 .1527 -.15566 .21093 537.56 64.727)" style="fill:#00a7bd;fill-rule:evenodd;stroke:#0084fd;stroke-width:1pt"/><path d="M103.49 305.85 40.633 163.64l47.171-83.138 91.736 35.968 39.06 153.8c-40.48 9.64-69.47 18.33-115.11 35.58z" transform="matrix(.26212 .04103 -.04183 .25715 402.39 62.167)" style="fill:none;stroke-width:1pt;stroke-opacity:.99607999"/><path d="M103.49 305.85 40.121 160l50.173-78.247 89.986 31.707 37.19 154.81c-40.17 10.94-68.34 20.33-113.98 37.58z" transform="matrix(.25199 .08183 -.08342 .24721 448.13 56.569)" style="fill:#00a7bd;fill-rule:evenodd;stroke:#0084fd;stroke-width:1pt"/><path d="M103.12 305.58 35.796 160.42l44.991-80.129 93.263 41.379 39.41 149.75c-42.58 8.98-65.13 16.31-110.34 34.16z" transform="matrix(.26544 0 0 .2604 359.68 74.414)" style="fill:#00a7bd;fill-rule:evenodd;stroke:#0084fd;stroke-width:1pt;stroke-opacity:.99607999"/><path d="M82.188 225.18c21.192 4.37 36.302 4.53 55.312-.79 22.71-9.47 30.73-22.24 38.12-32.5 3.44 21.67-.15 41.31-26.09 55.16-23.28 10.94-54.686 4.06-67.342-21.87z" transform="matrix(.26544 0 0 .2604 359.68 74.414)" style="fill:#fff;fill-rule:evenodd;stroke:#fff;stroke-width:1pt"/><g transform="matrix(.26544 0 0 .2604 359.68 74.414)"><path d="m410.94 120.56-4.06 1.02.15 7.5-5 1.1-3.5 6.61 2.16 2.04c.11.22-1.7 4.89-1.62 4.89.08 0 1.32 1.77 1.32 1.77l1.33 4.06 3.36.47.86 4.76 5.31.86 4.92 3.52.31 2.19 5.63.15 3.83 1.25 13.36-1.56 1.79-2.81.16-3.83 7.19-.23.66-6.11h3.8l-.47-6.87 3.18.28-.82-3.29-1.98-2.69-.39-4.22-5.62-5.62-1.25-7.34s-3.6-1.64-3.6-1.72c0-.08-.23-4.92-.23-4.92l4.06-5.71-.39-2.26-3.75-.08-2.81 2.34s-3.75.39-3.75.47v1.72s.94 3.2.94 3.28c0 .08-4.3 0-4.3 0l-.16-5.08-6.09-3.04s-5.7 3.9-5.7 3.98c0 .08-.32 4.53-.32 4.53l-2.73.78-2.81-4.22-4.93-1.87-2.65-.16-.08 3.28 5.16 6.8-.47 3.98z" style="fill:#faf703;fill-opacity:.99607999;fill-rule:evenodd;stroke:#544b20;stroke-width:1pt;stroke-opacity:.99607999"/><path d="m449.23 148.04-1.1-4.09M452.33 141.3l-1.88-2.76" style="fill:none;stroke:#544b20;stroke-width:1pt"/><path d="m400.84 138.21 5.86-.34 1.1 5.31 1.99 1.76.33 9.73 1.88.77.55-3.87 4.53-.33.89 7.85-1.11.99.44 1.22 5.42-.11s1.21-2.1 1.32-2.1c.11 0 3.1-.33 3.1-.22 0 .11 1.21 2.32 1.21 2.32l.89-2.99s2.87-1.21 2.87-1.1c0 .11 2.32 3.76 2.32 3.76l3.98-.56-2.43-2.32-1-5.08 5.52-2.98 2.22 3.75s2.09.11 1.98 0c-.11-.11-2.43-4.31-2.43-4.31v-8.83l4.2-5.75 5.86-.66v-2.43l-5.86-5.42-1.55-7.51-3.31-1.66-.88 1-3.65.33 3.65 5.41v3.54l1.65.88-.33 9.72s-4.09.56-4.09.67c0 .11-.33 5.41-.33 5.41l-2.54 2.54s-1.43 5.08-1.55 5.08c-.11 0-2.43 3.1-2.43 3.1l-4.53.11s-2.65-2.54-2.65-2.65c0-.11-.44-3.76-.44-3.76s-1.77-.55-1.88-.55c-.11 0-.99-4.09-.99-4.09l-3.1-1.77-.22-2.43-2.98-1.32s-.33-2.21-.44-2.32c-.11-.12-1.44-1-1.55-1-.11 0-.11-6.08-.11-6.08l2.65-.44-1.48-1.94-.51-1.7v-1.77l2.21-2.21s-3.97-.55-3.97-.44c0 .11-3.87 1.76-3.87 1.66.11 0-.11 7.18-.11 7.18l-4.53 1.43-3.65 5.86 1.88 1.66z" style="fill:#544b20;fill-rule:evenodd;stroke:#544b21;stroke-width:1pt;stroke-opacity:.99999001"/><path d="m423.71 148.04 2.99-1.77-.12-3.42-2.87-.67-1.1-1.1 3.2.55 3.98-.33 1.32-.66c-.55 1.43-.99 1.32-1.1 1.32-.11 0-2.21 1.11-2.21 1.11l.11 3.31s6.85.88 6.74.88c-.11 0 0 1.33-.22 1.33s-7.07-1.55-7.07-1.55l-4.31 2.66.66-1.66zM440.95 127.49l-3.98 3.09-2.54 4.53-1.33.22-3.86-5.19-4.42.11s-2.43 6.08-2.43 6.19c0 .11-1.77-.22-1.77-.22l-4.64-5.08s-1.44-2.55-1.22-2.55c.22 0 11.6.11 11.6.11l-.11-5.52s-1.77-.55-2.65-1.1c.66-.23 6.3-.23 6.3-.23l-2.43 1.66v4.75l10.05.11 3.43-.88z" style="fill:#544b20;fill-rule:evenodd;stroke:#544b20;stroke-width:1pt"/><rect x="419.51" y="130.14" width="2.652" height="2.652" ry="1.326" style="fill:#796a3a;fill-opacity:.99607999;fill-rule:evenodd;stroke-width:1pt"/><rect x="432.11" y="129.59" width="2.652" height="2.652" ry="1.326" style="fill:#7a6b3a;fill-rule:evenodd;stroke-width:1pt"/><path d="M413.55 121.3c4.19-1.69 7.18-3.06 12.37-3.53 4.9-.52 8.69.18 13.04.99" style="fill:none;stroke:#544b20;stroke-width:1pt"/><path d="M415.87 112.35h-3.43l-4.86-5.19 2.76.33 3.21 1.44 2.32 3.42zM436.53 110.36l7.73-5.96-2.54-.33-2.87 2.65-3.43.55 1.11 3.09zM431.97 111.46l-12.13.45.12-1.33 4.42-.44.55-1.76s1.32-.12 1.32 0c0 .11 1 1.65 1 1.65l4.31.77.41.66zM431.34 106.83l-4.2.11-.34-2.32 4.54 2.21zM424.26 104.73l-.33 2.32-4.09.66 4.42-2.98zM401.06 147.04l2.1-5.3-1.88-3.64-1.88 5.41 1.66 3.53z" style="fill:#544b20;fill-rule:evenodd;stroke:#544b20;stroke-width:1pt"/><path d="m405.37 149.81 2.54-6.3-4.86 5.08 2.32 1.22z" transform="translate(-.11 .11)" style="fill:#544b20;fill-rule:evenodd;stroke:#544b20;stroke-width:1pt"/></g><g transform="matrix(.26544 0 0 .2604 341.88 74.989)"><path d="m410.94 120.56-4.06 1.02.15 7.5-5 1.1-3.5 6.61 2.16 2.04c.11.22-1.7 4.89-1.62 4.89.08 0 1.32 1.77 1.32 1.77l1.33 4.06 3.36.47.86 4.76 5.31.86 4.92 3.52.31 2.19 5.63.15 3.83 1.25 13.36-1.56 1.79-2.81.16-3.83 7.19-.23.66-6.11h3.8l-.47-6.87 3.18.28-.82-3.29-1.98-2.69-.39-4.22-5.62-5.62-1.25-7.34s-3.6-1.64-3.6-1.72c0-.08-.23-4.92-.23-4.92l4.06-5.71-.39-2.26-3.75-.08-2.81 2.34s-3.75.39-3.75.47v1.72s.94 3.2.94 3.28c0 .08-4.3 0-4.3 0l-.16-5.08-6.09-3.04s-5.7 3.9-5.7 3.98c0 .08-.32 4.53-.32 4.53l-2.73.78-2.81-4.22-4.93-1.87-2.65-.16-.08 3.28 5.16 6.8-.47 3.98z" style="fill:#faf703;fill-opacity:.99607999;fill-rule:evenodd;stroke:#544b20;stroke-width:1pt;stroke-opacity:.99607999"/><path d="m449.23 148.04-1.1-4.09M452.33 141.3l-1.88-2.76" style="fill:none;stroke:#544b20;stroke-width:1pt"/><path d="m400.84 138.21 5.86-.34 1.1 5.31 1.99 1.76.33 9.73 1.88.77.55-3.87 4.53-.33.89 7.85-1.11.99.44 1.22 5.42-.11s1.21-2.1 1.32-2.1c.11 0 3.1-.33 3.1-.22 0 .11 1.21 2.32 1.21 2.32l.89-2.99s2.87-1.21 2.87-1.1c0 .11 2.32 3.76 2.32 3.76l3.98-.56-2.43-2.32-1-5.08 5.52-2.98 2.22 3.75s2.09.11 1.98 0c-.11-.11-2.43-4.31-2.43-4.31v-8.83l4.2-5.75 5.86-.66v-2.43l-5.86-5.42-1.55-7.51-3.31-1.66-.88 1-3.65.33 3.65 5.41v3.54l1.65.88-.33 9.72s-4.09.56-4.09.67c0 .11-.33 5.41-.33 5.41l-2.54 2.54s-1.43 5.08-1.55 5.08c-.11 0-2.43 3.1-2.43 3.1l-4.53.11s-2.65-2.54-2.65-2.65c0-.11-.44-3.76-.44-3.76s-1.77-.55-1.88-.55c-.11 0-.99-4.09-.99-4.09l-3.1-1.77-.22-2.43-2.98-1.32s-.33-2.21-.44-2.32c-.11-.12-1.44-1-1.55-1-.11 0-.11-6.08-.11-6.08l2.65-.44-1.48-1.94-.51-1.7v-1.77l2.21-2.21s-3.97-.55-3.97-.44c0 .11-3.87 1.76-3.87 1.66.11 0-.11 7.18-.11 7.18l-4.53 1.43-3.65 5.86 1.88 1.66z" style="fill:#544b20;fill-rule:evenodd;stroke:#544b21;stroke-width:1pt;stroke-opacity:.99999001"/><path d="m423.71 148.04 2.99-1.77-.12-3.42-2.87-.67-1.1-1.1 3.2.55 3.98-.33 1.32-.66c-.55 1.43-.99 1.32-1.1 1.32-.11 0-2.21 1.11-2.21 1.11l.11 3.31s6.85.88 6.74.88c-.11 0 0 1.33-.22 1.33s-7.07-1.55-7.07-1.55l-4.31 2.66.66-1.66zM440.95 127.49l-3.98 3.09-2.54 4.53-1.33.22-3.86-5.19-4.42.11s-2.43 6.08-2.43 6.19c0 .11-1.77-.22-1.77-.22l-4.64-5.08s-1.44-2.55-1.22-2.55c.22 0 11.6.11 11.6.11l-.11-5.52s-1.77-.55-2.65-1.1c.66-.23 6.3-.23 6.3-.23l-2.43 1.66v4.75l10.05.11 3.43-.88z" style="fill:#544b20;fill-rule:evenodd;stroke:#544b20;stroke-width:1pt"/><rect x="419.51" y="130.14" width="2.652" height="2.652" ry="1.326" style="fill:#796a3a;fill-opacity:.99607999;fill-rule:evenodd;stroke-width:1pt"/><rect x="432.11" y="129.59" width="2.652" height="2.652" ry="1.326" style="fill:#7a6b3a;fill-rule:evenodd;stroke-width:1pt"/><path d="M413.55 121.3c4.19-1.69 7.18-3.06 12.37-3.53 4.9-.52 8.69.18 13.04.99" style="fill:none;stroke:#544b20;stroke-width:1pt"/><path d="M415.87 112.35h-3.43l-4.86-5.19 2.76.33 3.21 1.44 2.32 3.42zM436.53 110.36l7.73-5.96-2.54-.33-2.87 2.65-3.43.55 1.11 3.09zM431.97 111.46l-12.13.45.12-1.33 4.42-.44.55-1.76s1.32-.12 1.32 0c0 .11 1 1.65 1 1.65l4.31.77.41.66zM431.34 106.83l-4.2.11-.34-2.32 4.54 2.21zM424.26 104.73l-.33 2.32-4.09.66 4.42-2.98zM401.06 147.04l2.1-5.3-1.88-3.64-1.88 5.41 1.66 3.53z" style="fill:#544b20;fill-rule:evenodd;stroke:#544b20;stroke-width:1pt"/><path d="m405.37 149.81 2.54-6.3-4.86 5.08 2.32 1.22z" transform="translate(-.11 .11)" style="fill:#544b20;fill-rule:evenodd;stroke:#544b20;stroke-width:1pt"/></g><path d="M103.35 305.55 45.28 157.1l52.68-79.85 88.34 35.07 29.41 156.08c-40.76 10.5-63.48 17.58-112.36 37.15z" transform="matrix(.23818 .11495 -.11717 .23366 492.03 57.353)" style="fill:#001070;fill-rule:evenodd;stroke:#001071;stroke-width:1pt;stroke-opacity:.99607999"/><g transform="matrix(.26544 0 0 .2604 351.11 90.442)"><path d="m410.94 120.56-4.06 1.02.15 7.5-5 1.1-3.5 6.61 2.16 2.04c.11.22-1.7 4.89-1.62 4.89.08 0 1.32 1.77 1.32 1.77l1.33 4.06 3.36.47.86 4.76 5.31.86 4.92 3.52.31 2.19 5.63.15 3.83 1.25 13.36-1.56 1.79-2.81.16-3.83 7.19-.23.66-6.11h3.8l-.47-6.87 3.18.28-.82-3.29-1.98-2.69-.39-4.22-5.62-5.62-1.25-7.34s-3.6-1.64-3.6-1.72c0-.08-.23-4.92-.23-4.92l4.06-5.71-.39-2.26-3.75-.08-2.81 2.34s-3.75.39-3.75.47v1.72s.94 3.2.94 3.28c0 .08-4.3 0-4.3 0l-.16-5.08-6.09-3.04s-5.7 3.9-5.7 3.98c0 .08-.32 4.53-.32 4.53l-2.73.78-2.81-4.22-4.93-1.87-2.65-.16-.08 3.28 5.16 6.8-.47 3.98z" style="fill:#faf703;fill-opacity:.99607999;fill-rule:evenodd;stroke:#544b20;stroke-width:1pt;stroke-opacity:.99607999"/><path d="m449.23 148.04-1.1-4.09M452.33 141.3l-1.88-2.76" style="fill:none;stroke:#544b20;stroke-width:1pt"/><path d="m400.84 138.21 5.86-.34 1.1 5.31 1.99 1.76.33 9.73 1.88.77.55-3.87 4.53-.33.89 7.85-1.11.99.44 1.22 5.42-.11s1.21-2.1 1.32-2.1c.11 0 3.1-.33 3.1-.22 0 .11 1.21 2.32 1.21 2.32l.89-2.99s2.87-1.21 2.87-1.1c0 .11 2.32 3.76 2.32 3.76l3.98-.56-2.43-2.32-1-5.08 5.52-2.98 2.22 3.75s2.09.11 1.98 0c-.11-.11-2.43-4.31-2.43-4.31v-8.83l4.2-5.75 5.86-.66v-2.43l-5.86-5.42-1.55-7.51-3.31-1.66-.88 1-3.65.33 3.65 5.41v3.54l1.65.88-.33 9.72s-4.09.56-4.09.67c0 .11-.33 5.41-.33 5.41l-2.54 2.54s-1.43 5.08-1.55 5.08c-.11 0-2.43 3.1-2.43 3.1l-4.53.11s-2.65-2.54-2.65-2.65c0-.11-.44-3.76-.44-3.76s-1.77-.55-1.88-.55c-.11 0-.99-4.09-.99-4.09l-3.1-1.77-.22-2.43-2.98-1.32s-.33-2.21-.44-2.32c-.11-.12-1.44-1-1.55-1-.11 0-.11-6.08-.11-6.08l2.65-.44-1.48-1.94-.51-1.7v-1.77l2.21-2.21s-3.97-.55-3.97-.44c0 .11-3.87 1.76-3.87 1.66.11 0-.11 7.18-.11 7.18l-4.53 1.43-3.65 5.86 1.88 1.66z" style="fill:#544b20;fill-rule:evenodd;stroke:#544b21;stroke-width:1pt;stroke-opacity:.99999001"/><path d="m423.71 148.04 2.99-1.77-.12-3.42-2.87-.67-1.1-1.1 3.2.55 3.98-.33 1.32-.66c-.55 1.43-.99 1.32-1.1 1.32-.11 0-2.21 1.11-2.21 1.11l.11 3.31s6.85.88 6.74.88c-.11 0 0 1.33-.22 1.33s-7.07-1.55-7.07-1.55l-4.31 2.66.66-1.66zM440.95 127.49l-3.98 3.09-2.54 4.53-1.33.22-3.86-5.19-4.42.11s-2.43 6.08-2.43 6.19c0 .11-1.77-.22-1.77-.22l-4.64-5.08s-1.44-2.55-1.22-2.55c.22 0 11.6.11 11.6.11l-.11-5.52s-1.77-.55-2.65-1.1c.66-.23 6.3-.23 6.3-.23l-2.43 1.66v4.75l10.05.11 3.43-.88z" style="fill:#544b20;fill-rule:evenodd;stroke:#544b20;stroke-width:1pt"/><rect x="419.51" y="130.14" width="2.652" height="2.652" ry="1.326" style="fill:#796a3a;fill-opacity:.99607999;fill-rule:evenodd;stroke-width:1pt"/><rect x="432.11" y="129.59" width="2.652" height="2.652" ry="1.326" style="fill:#7a6b3a;fill-rule:evenodd;stroke-width:1pt"/><path d="M413.55 121.3c4.19-1.69 7.18-3.06 12.37-3.53 4.9-.52 8.69.18 13.04.99" style="fill:none;stroke:#544b20;stroke-width:1pt"/><path d="M415.87 112.35h-3.43l-4.86-5.19 2.76.33 3.21 1.44 2.32 3.42zM436.53 110.36l7.73-5.96-2.54-.33-2.87 2.65-3.43.55 1.11 3.09zM431.97 111.46l-12.13.45.12-1.33 4.42-.44.55-1.76s1.32-.12 1.32 0c0 .11 1 1.65 1 1.65l4.31.77.41.66zM431.34 106.83l-4.2.11-.34-2.32 4.54 2.21zM424.26 104.73l-.33 2.32-4.09.66 4.42-2.98zM401.06 147.04l2.1-5.3-1.88-3.64-1.88 5.41 1.66 3.53z" style="fill:#544b20;fill-rule:evenodd;stroke:#544b20;stroke-width:1pt"/><path d="m405.37 149.81 2.54-6.3-4.86 5.08 2.32 1.22z" transform="translate(-.11 .11)" style="fill:#544b20;fill-rule:evenodd;stroke:#544b20;stroke-width:1pt"/></g><path d="m476.9 225.82-4.14 4.94.32 4.13 8.59-.16c2.76-.66 3.45-1.64 3.98-2.78.85-1.41.26-2.18.47-4.06l-9.22-2.07z" transform="matrix(.26544 0 0 .2604 359.68 74.414)" style="fill:#a0210c;fill-rule:evenodd;stroke:#a0210c;stroke-width:1pt;stroke-opacity:.99651998"/><path d="m476.58 226.14-3.5 3.34v3.82l7.64-.16c2.75-.66 3.12-1.17 3.65-2.3.85-1.41.59-1.38.8-3.27l-8.59-1.43z" transform="matrix(.26544 0 0 .2604 365.26 77.563)" style="fill:#a0210c;fill-rule:evenodd;stroke:#a0210c;stroke-width:1pt;stroke-opacity:.99651998"/><path d="m476.9 225.98-3.98 4.14.16 3.18 8.11.32c2.76-.66 2.33-.53 3.18-1.99.85-1.41.59-1.7.8-3.58l-8.27-2.07z" transform="matrix(.26544 0 0 .2604 374.08 74.829)" style="fill:#a0210c;fill-rule:evenodd;stroke:#a0210c;stroke-width:1pt;stroke-opacity:.99651998"/><path d="m477.85 225.51-4.61 3.97v3.98l8.59.8c2.76-.67 2.97-1.49 3.66-2.47.85-1.41.42-1.54.63-3.42l-8.27-2.86z" transform="matrix(.26544 0 0 .2604 380.12 76.9)" style="fill:#a0210c;fill-rule:evenodd;stroke:#a0210c;stroke-width:1pt;stroke-opacity:.99651998"/><path d="m497.1 131.02 16.22 10.97c3.06-2.58 9.4-1.01 11.88-.3 4.47 1.19 7.61 3.88 11.51 4.6 7.13 1.82 15.67 3.09 22.13 2.37 6.47-.72 11.91-4.16 16.68-6.67v-1.59h-3.18c-5.16 1.9-12.4 2-17.94 1.26-5.54-.74-7.03-3.28-15.3-5.71l-.64-1.59c10.04.48 12.08.22 16.28-1.65 4.11-1.11 5.96-3.54 8.28-5.22l-.06-1.88-3.03-.16c-3.89 2.64-6.37 3.12-12.34 2.57-5.43-.56-10.32-3.72-13.96-3.78-3.86.03-3.68-1.85-7.42-2.04-5.94-.53-12.35.28-17.97 1.66-6.74 2.07-7.75 3.82-11.14 7.16z" transform="matrix(.26544 0 0 .2604 359.68 74.414)" style="fill:#a0210c;fill-rule:evenodd;stroke:#000;stroke-width:1pt"/><path d="M500.25 128.58c1.55.36 3.3.82 4.57 1.56 1.27.73.94.72 2.3 1.74-.22-1.32-.15-1.23-1.03-2.26-.88-1.04-2.33-1.98-3.49-2.83l-2.35 1.79zM513.81 140.44c.03-1.42-.69-2.66-1.23-3.9-.53-1.24-.97-2.29-1.97-3.53 1.25.36 1.94.91 3.01 2.21 1.06 1.3 1 2.6 1.22 4.47l-1.03.75zM516.91 123.03c.38.99 1.12 1.67 1.75 3.78.54 1.91.8 4.6.8 4.6-.21-1.43.15-3.05-.05-4.47-.21-1.43-.97-2.67-1.18-4.1l-1.32.19z" transform="matrix(.26544 0 0 .2604 359.68 74.414)" style="fill-rule:evenodd;stroke:#000;stroke-width:1pt"/><path d="m529.81 123.88.66 7.9.75-7.43-1.41-.47z" transform="matrix(.26544 0 0 .2604 359.76 74.414)" style="fill-rule:evenodd;stroke:#000;stroke-width:1pt"/><path d="M526.7 140.35c.32-1.29.26-2.57.1-3.86s-.6-2.38-1.04-3.86c1.26 1.1 1.76 2.48 2.45 3.95 0 1.48-.38 2.76-1.51 3.77z" transform="matrix(.26544 0 0 .2604 359.73 74.39)" style="fill-rule:evenodd;stroke:#000;stroke-width:1pt"/><path d="M540.45 137.06c.05 0 .4 2.68-.2 4.61-.6 1.93-1.03 2.07-2.15 3.11 1.5-1.13 2.82-1.51 3.29-2.74.47-1.88-.75-4.7-.94-4.98z" transform="matrix(.26544 0 0 .2604 359.71 74.341)" style="fill-rule:evenodd;stroke:#000;stroke-width:1pt"/><path d="M542.05 133.86c-.94.15-1.13-3.83-1.7-5.75.41-.22.82-.15 1.23.75.44.54.31 3.33.47 5z" transform="matrix(.26544 0 0 .2604 359.91 74.512)" style="fill-rule:evenodd;stroke:#000;stroke-width:1pt"/><path d="m552.22 133.01.37-3.3 1.04-.09v2.82c0 .1-1.32.66-1.41.57z" transform="matrix(.26544 0 0 .2604 359.68 74.316)" style="fill-rule:evenodd;stroke:#000;stroke-width:1pt"/><path d="M551.56 141.86c.59 1 1.66 2.19 1.78 3.29.13 1.1-.22 1.63-1.03 3.3l1.51.09c.81-1.33 1.06-2.29.94-3.34-.13-1.05-.63-2.1-1.7-2.97l-1.5-.37z" transform="matrix(.26544 0 0 .2604 359.66 74.316)" style="fill-rule:evenodd;stroke:#000;stroke-width:1pt"/><path d="m562.57 142.7.38 4.62 1.22-.66-.28-3.96h-1.32z" transform="matrix(.26544 0 0 .2604 359.71 74.316)" style="fill-rule:evenodd;stroke:#000;stroke-width:1pt"/><path d="M496.09 131.83c-3.67 1.08-5 3.15-6.79 4.94l-10.35-5.34c-1.68 1.42-2.32 3.44-1.52 5.52.81 2.07 4.06 5.32 6.37 6.93-.58 2.86-1.44 5.02-2.44 7.54-1.13 2.82-3.54 6.39-3.61 7.54-.14 1.31-.56 4.12 1.36 4.87 1.93.75 8.12-.52 10.19-.38-.34 1.12-1.14 3.09-.87 3.94.27.85.83 1.13 2.51 1.18-.48 1.05-1.53 2.37-1.03 3 1.3 1 2.79.83 4.04.75-1.97 2.33-6.9 6.82-8.5 8.82-1.69 2.33-1.84 4.85 1.44 4.61-1.22 1.37-2.39 2.71-2.21 3.89.29 1.43.99 2.39 3.33 1.56-1.38 3.2-.47 6.07.02 9.4-1.19 2.53-.69 4.87-.98 7.77-2.41 1.39-2.71 3.2-4.28 6-1.41 3.03-4.05 3.86-5.51 10.36l9.47 2.41c.35-1.34 1.59-2.21 1.93-3.55.35-1.33.32-3 .16-4.48 1.87-2.77 5.67-8.49 6.89-11.55 2.07-1.12 3.57-1.83 5.13-1.83 1.55 0 2.53.94 4.18 1.83-.73 2.58-2.77 5.38-2.89 8.99v9.94c-.41 2.47-3.17 2.51-4.33 9.95l8.5 2.25c1.45-2.51 3.73-2.85 4.33-3.85l.62-10.34c1.08-4.88 7.79-8.91 7.89-14.21 2.4-.03 3.31.22 4.27-.28 1.28-.46 1.72-1.19 2.72-2.12.39 1.6 1.62 1.74 2.66 1.74 1.05 0 3.12-1.5 3.97-2.11.61.86.93 1.68 2.18 1.98 1.26.3 4.82-.24 6.26-.59l-6.98 11.65c-.26 1.12.08 1.82-.46 3.13-.51 1.18-1.53 1.75-1.99 2.83l7.92 1.93 1.26-3.4c1.68-.72 3.03-1.11 3.92-2.21.88-1.1.87-3.18 1.38-4.37 2.7-2 6.96-6.35 9.94-9.94 2.03.35 4.9 2.05 5.99 4.61.16 2.74.36 7.78-.85 11.27l-5.14 8.18-.58 1.34 8.08 2.94 5.14-4.01.2-5.72c2.58-4.65 6.27-7.18 9.78-10.11 0-.16.38-6.15.24-6.38-.87-.67-1.46-.27-1.77-1.51-.3-1.23-.09-4.62.07-5.96.51-.64 1.58-1.37 1.53-1.92-1.4-1.57-.98-5.62-.55-8.78-.1-3.59 4.72-7.85 5.46-9.94l.3-3.78c-.49-.93-1.22-1.48-1.25-2.27-.02-.79.94-2.09 1.53-2.92l1.02-1.78-.16-9.31c-.29-1-1.13-2.57-1.94-2.73-.8-.16-1.98.76-2.87 1.77l-4.65 3.5c-2.22.69-4.17.96-8.09-.03l-5.97.12c-3.13.89-4.77 1.04-7.72-.27l-3.53.05c-1.11.62-2.63 1.6-3.83 1.84-1.19.23-2.81.28-4.01-.09-9.12.62-6.86 1.29-9.47 1.87-2.09-.4-1.42-1.46-9.56-1.54l-3.23-.96c-4.07-2.75-7.21-7.15-9.92-12.2 8.48-2.47 12.04-5.05 14.62-10.95l-12 .46-16.97-11.49z" transform="matrix(.26544 0 0 .2604 359.68 74.414)" style="fill:#dc9103;fill-rule:evenodd;stroke:#544b20;stroke-width:1pt"/><path d="m491.65 147.82 3.4 1.47c.41.5 1.22 1.08 1.75 1.11.53.04.98-.51 1.44-.91l3.12-1.67c-1.85-.27-2.41-1.44-4.38-1.44-1.97 0-3.36 1.05-5.33 1.44z" transform="matrix(.26544 0 0 .2604 359.74 74.18)" style="fill-rule:evenodd;stroke:#000;stroke-width:1pt"/><path d="M506.77 147.78c1.1.67 3.11 1.99 4.76 1.99 1.8-.15 1.77-1.44 4.36-2.3l3.8-3.13c-2.29.03-7.24.48-9.96 1.33-2.29.61-2.82 1.54-2.96 2.11z" transform="matrix(.26544 0 0 .2604 359.68 74.414)" style="fill-rule:evenodd;stroke:#000;stroke-width:1pt"/><path d="M497.93 187.57c0 .28-.47.49-.71.15-.29-4.06-1.17-6.9-2.39-10.06 1.38 2.4 2.53 6.29 3.1 9.91z" transform="matrix(.26544 0 0 .2604 359.72 74.465)" style="fill-rule:evenodd;stroke:#000;stroke-width:1pt"/><path d="M507.27 204.53c-1.54.16-2.15-.07-3.7.09-.17-4.08-.18-8.75-.16-11.66.59.07 2.31 1.9 3.33 4.79.27 2.13.65 4.53.53 6.78z" transform="matrix(.26544 0 0 .2604 359.82 74.384)" style="fill-rule:evenodd;stroke:#000;stroke-width:1pt"/><path d="M518.03 188.2c.7.2 1.67.2 1.9-.27.29-.87-.59-1.82-.91-2.88-1.15-2.29-1.78-4.77-2.26-5.85-.51-.32-1.05-.29-.93.24.66 2.04 1.78 7.98 2.2 8.76zM528.98 186.97c.07.49-1.57-.22-1.85-.78-.02-1.09-2.24-9.06-1.87-9.37.46-.23 1.91 2.67 2.37 4 .11.79 1.08 3.68 1.35 6.15zM527.42 203.38c-.03.56 1.26.1 1.76-.32 1.48-2.34 3.3-4.81 3.84-5.75.32-1 1.93-7.4 1.44-7.35-.18-.18-1.58 3.18-3.39 6.49-1.89 3.37-3.67 6.61-3.65 6.93zM538.4 199.95c-.54.26 1.08-5.53 1.2-6.56.3-1.62.71-4.53 1.36-8.3.78 5.26-.15 10.92-2.56 14.86zM544.98 182.22c-.35.31-5.06-7.63-4.63-7.67.12-.35 3.95 4.97 4.5 5.91.22.44.45 1.12.13 1.76zM556.01 188.12c-.35-.27-.21-2.81-.91-5.6-.69-2.78-1.88-5.46-1.64-6.23.22-.4.98-.21 1.59.32.29 1.52.98 7.33 1.77 11.11-.01.37-.41.62-.81.4zM563.72 181.06c-.37-.41 1.03 2.73 2.05 6.45 1.02 3.73 1.54 10.31 1.79 9.85.7-.48.58-1.07 1.67-1.31 1.09-.24 5.15.15 4.92-.13-2.51-2.28-4.83-4.17-6.56-6.65-1.73-2.48-2.88-5.73-3.87-8.21zM573.22 215.04c-.79.58-2.28 1.04-2.72.8-2.39-5.08-3.73-8.4-7.06-13.83-.86-1.29-3-1.09-2.88-1.59.08-.59 1.2-.36 1.93-1.2.72-.85.82-1.93 1.27-2.32-.98 2.34 1.59 5.94 3.03 8.79.96.26 1.72.26 2.17.84.11.27-1.03.46-.89 1.44l2.43 4.99c.8.61 2.02.94 3.2 1.12.31.28-.24.68-.48.96z" transform="matrix(.26544 0 0 .2604 359.68 74.414)" style="fill-rule:evenodd;stroke:#000;stroke-width:1pt"/><path d="M103.35 305.55 49.332 155.43l52.498-82.94 87.3 39.85 26.31 156.25c-40.49 10.31-63.32 16.66-112.09 36.96z" transform="matrix(.21652 .15064 -.15355 .21241 536.74 64.477)" style="fill:none;stroke-width:1pt;stroke-opacity:.99607999"/><path d="M578.2 170.66c1.5.08 2.86.22 3.31-.56.91-1.93 1.45-3.52.83-4.77-2.36.19-4.14 1.3-5.1 3.41.03.74.21 1.28.96 1.92z" transform="matrix(.26544 0 0 .2604 359.68 74.414)" style="fill-rule:evenodd;stroke:#000;stroke-width:1pt"/><path d="M602.95 169.21c23.29 5.02 44.85 10.73 66.42 17.82 21.56 7.09 42.09 15.56 62.96 24.73l-34.94 71.95c-19.51-7.56-38.76-13.66-58.02-20-19.25-6.34-38.02-11.95-57.52-18.05l21.1-76.45z" transform="matrix(.26544 0 0 .2604 359.68 74.414)" style="fill:#fdfcfc;fill-rule:evenodd;stroke:#fdfcfc;stroke-width:1pt"/><path d="M598.31 186.21s32.53 7.4 64.05 17.73c31.53 10.34 62.29 23.61 62.17 23.61-.25 0-19.82 41.09-19.82 41.09-18.99-7.7-38.97-14.92-58.7-21.4-19.73-6.48-39.47-12.72-59.69-17.49l11.99-43.54z" transform="matrix(.26544 0 0 .2604 359.68 74.414)" style="fill:#e6151e;fill-rule:evenodd;stroke:#e6151e;stroke-width:1pt"/><path d="M601.01 206.31c3.2-1.83 5.37-2.32 7.09-5.32h11.52l.15 4.28c2.83 1.38 4.48 2.91 7.31 4.29 2.83 1.38 6.85 2.61 9.68 3.98l24.81 2.22c3.32.54 8.13 1.97 11.01 3.69 2.88 1.73 4.72 3.89 6.27 6.65 5.1 1.82 10.19 2.9 15.44 3.69 5.24.79 11.81 1.13 16.91 1.33 2.51.89 2.51 2.22 1.33 3.55 0 0-2.81 3.87-10.47 3.91-7.66.04-16.34-4.36-20.11-3.76.15 2.36 4.14 7.23 8.72 9.15l-.15 11.23-2.07 1.92-2.21-1.48c1.77-2.66 1.18-5.76.44-8.42-1.7-2.51-1.92-3.54-5.09-3.69-3.77-.74-6.5-1.77-11.3-5.17l-1.78.3c-1.03 1.87-2.07 3.15-4.43 4.28l-4.87-.3s-11.23-2.51-11.23-2.66c0-.14-.15-1.77.15-1.92.29-.14 3.84-.14 4.13-.14 2.37.74 7.39.74 7.39.74l-.15-4.29 7.54-.44c-1.53-5.32-2.02-8.72-9.01-9.9l-21.87.59.3 3.1c-5.46-.73-15.36-.87-20.42.84-2.95.3-7.2 1.82-9.12 1.82l-2.22-.59c-1.47-.44-1.47-.88-.88-2.21 9.45-.74 10.93-1.48 13.74-2.81.14-.89-1.04-2.81-1.48-2.95-5.91-.3-10.64.14-12.26-.15-2.51-.74-5.91-2.07-5.91-2.22 0-.15-.44-2.36-.29-2.36.14 0 3.84 1.03 3.98 1.03 3.99.74 10.93.45 12.56-.44l.15-3.25c-.15-1.48-1.19-2.81-1.48-2.95-.3-.15-6.5-.89-8.72-.89-3.59-.64-3.05-2.46-3.1-4.28z" transform="matrix(.26544 0 0 .2604 359.68 74.414)" style="fill-rule:evenodd;stroke:#010001;stroke-width:1pt;stroke-opacity:.99607999"/><path d="M648.72 232.6c3.35 1.08 5.81 1.43 10.78 1.77l7.54-.44c-1.53-5.32-2.02-8.72-9.01-9.9l-21.87.59.3 3.1c6.65 2.52 9.9 3.89 12.26 4.88z" transform="matrix(.26544 0 0 .2604 359.68 74.414)" style="fill:#fdfdfd;fill-opacity:.99607999;fill-rule:evenodd;stroke:#010001;stroke-width:1pt;stroke-opacity:.99607999"/><path d="M101.18 306.6 37.614 165.03l47.267-83.315 91.449 34.665 40.2 154.53c-42.01 10.29-68.89 19.04-115.35 35.69z" transform="matrix(.26185 .04268 -.0435 .25688 403.49 61.862)" style="fill:#011171;fill-opacity:.99607999;fill-rule:evenodd;stroke:#011171;stroke-width:1pt"/><path d="m78.281 151.27 13.75 12.34-3.906 19.85 19.065-6.72 14.06 12.34 3.13-18.28 15.62-5.16-11.88-13.12 3.91-18.13s-18.75 5.63-18.75 5.47c0-.15-12.5-12.18-12.66-12.03-.15.16-4.058 17.19-4.058 17.19l-18.281 6.25z" transform="matrix(.26544 0 0 .2604 359.68 74.414)" style="fill:#fbfd10;fill-opacity:.99607999;fill-rule:evenodd;stroke:#fdc605;stroke-width:1pt;stroke-opacity:.99607999"/><path d="m78.594 151.42 61.246 14.07-15.78 5.47-14.22-11.72s11.57 29.37 11.41 29.22c-.16-.16-13.44-11.41-13.91-11.88l2.35-17.34s-21.252 24.06-21.252 23.9c0-.15 4.062-19.68 4.062-19.68l-13.906-12.04ZM96.406 145.02 110 158.3l-9.38-30.78-4.214 17.5zM113.13 140.02c.15.16-3.29 17.97-3.13 17.97 1.56-1.88 22.03-23.6 21.88-23.6-.16 0-18.44 5.79-18.75 5.63z" transform="matrix(.26544 0 0 .2604 359.68 74.414)" style="fill:#ffc500;fill-rule:evenodd;stroke-width:1pt"/><path d="m78.281 151.27 13.75 12.34-3.906 19.85 19.065-6.72 14.06 12.34 3.13-18.28 15.62-5.16-11.88-13.12 3.91-18.13s-18.75 5.63-18.75 5.47c0-.15-12.5-12.18-12.66-12.03-.15.16-4.058 17.19-4.058 17.19l-18.281 6.25z" transform="matrix(.2062 .16399 -.16716 .20228 546.72 62.466)" style="fill:#fbfd10;fill-opacity:.99607999;fill-rule:evenodd;stroke:#fdc605;stroke-width:1pt;stroke-opacity:.99607999"/><path d="m78.594 151.42 61.246 14.07-15.78 5.47-14.22-11.72s11.57 29.37 11.41 29.22c-.16-.16-13.44-11.41-13.91-11.88l2.35-17.34s-21.252 24.06-21.252 23.9c0-.15 4.062-19.68 4.062-19.68l-13.906-12.04Z" transform="matrix(.2062 .16399 -.16716 .20228 546.72 62.466)" style="fill:#ffc500;fill-rule:evenodd;stroke-width:1pt"/><path d="M96.406 145.02 110 158.3l-9.38-30.78-4.214 17.5zM113.13 140.02c.15.16-3.29 17.97-3.13 17.97 1.56-1.88 22.03-23.6 21.88-23.6-.16 0-18.44 5.79-18.75 5.63z" transform="matrix(.2062 .16399 -.16716 .20228 546.72 62.466)" style="fill:#fdc605;fill-rule:evenodd;stroke-width:1pt"/><path d="M175.37 121.34c21.45-10.45 45.53-18.61 70.93-22.166 24.41-3.558 48.84-3.866 73.91-3.811 0 0 3.28 39.137 3.28 39.457-19.7.17-34.38-.2-69.14 4.38-34.57 4.88-48.81 9.07-69.82 17.28l-9.16-35.14z" transform="matrix(.26544 0 0 .2604 359.68 74.414)" style="fill:#e6141d;fill-rule:evenodd;stroke:#e6141d;stroke-width:1pt"/><path d="M193.74 190.62c-.33 0 10.86 41.39 10.86 41.39 20.63-5.31 41.59-9.3 62.56-12.31 20.96-3.01 43.25-4.73 63.56-6.1l-3.6-40.37c-21.4-1.31-45.79-1.31-67.85 1.64-22.05 2.96-43.47 8.19-65.53 15.75z" transform="matrix(.26544 0 0 .2604 359.68 74.414)" style="fill:#e6141d;fill-opacity:.99607999;fill-rule:evenodd;stroke:#e6141d;stroke-width:1pt"/><path d="M95.246 318.45h598.87v391.42c-15.22 152.44-158.96 266.38-290.3 265.51-141.79 6.31-298.57-111.99-309.88-266.82l1.306-390.11z" transform="matrix(.26544 0 0 .2604 359.68 74.414)" style="fill:#fff;fill-rule:evenodd;stroke:#e5141d;stroke-width:4"/><path d="M95.246 318.45h598.87v391.42c-15.22 152.44-158.96 266.38-290.3 265.51-141.79 6.31-298.57-111.99-309.88-266.82l1.306-390.11z" transform="matrix(.25438 0 0 .24955 364.04 81.437)" style="fill:#d61517;fill-rule:evenodd;stroke:#e5141d;stroke-width:4"/><rect height="122.35" x="452.68" y="334.03" width="110.6" transform="matrix(.26544 0 0 .2604 359.68 74.414)" ry="0" style="fill:#fff;fill-rule:evenodd;stroke-width:1pt"/><rect height="122.35" x="225.6" y="334.03" width="110.6" transform="matrix(.26544 0 0 .2604 359.39 74.414)" ry="0" style="fill:#fff;fill-rule:evenodd;stroke-width:1pt"/><rect height="119.42" x="109.11" y="460.43" width="112.08" transform="matrix(.26544 0 0 .2604 359.68 74.414)" ry="0" style="fill:#fff;fill-rule:evenodd;stroke-width:1pt"/><rect height="119.42" x="339.51" y="460.43" width="109.49" transform="matrix(.26544 0 0 .2604 359.68 74.414)" ry="0" style="fill:#fff;fill-rule:evenodd;stroke-width:1pt"/><rect height="119.42" x="566.58" y="460.43" width="112.83" transform="matrix(.26544 0 0 .2604 359.68 74.414)" ry="0" style="fill:#fff;fill-rule:evenodd;stroke-width:1pt"/><rect height="121.25" x="452.68" y="583.52" width="110.6" transform="matrix(.26544 0 0 .2604 359.68 74.414)" ry="0" style="fill:#fff;fill-rule:evenodd;stroke-width:1pt"/><rect height="121.25" x="224.5" y="583.52" width="110.6" transform="matrix(.26544 0 0 .2604 359.68 74.414)" ry="0" style="fill:#fff;fill-rule:evenodd;stroke-width:1pt"/><rect height="121.25" x="339.51" y="708.81" width="109.49" transform="matrix(.26544 0 0 .2604 359.68 74.319)" ry="0" style="fill:#fff;fill-rule:evenodd;stroke-width:1pt"/><path d="m567.28 709.5.03 119.12 67.34.09c30.72-45.75 41.24-90.31 44.13-119.18-.5 0-111.06-.05-111.5-.03zM453.36 834.44l.01 119.54c47.9-10.15 86.92-33.28 109.25-50.26l.01-69.33-109.27.05zM225.34 834.21l-.16 67.54c37.62 27.97 80.59 44.35 109.21 50.64l.02-118.14-109.07-.04zM109.32 709.34c3.58 46.8 23.14 90.21 44.15 119.57l67.06-.11.01-119.51-111.22.05z" transform="matrix(.26544 0 0 .2604 359.68 74.414)" style="fill:#fff;fill-rule:evenodd;stroke:#fff;stroke-width:1pt"/></g></g><path style="opacity:1;fill:none;fill-opacity:1;stroke:#000;stroke-width:2.58583093;stroke-miterlimit:4;stroke-dasharray:none;stroke-opacity:1" d="M349.879 783.397h39.914v26.581h-39.914z"/><path style="fill:#1a1a1a;fill-rule:evenodd;stroke:#000;stroke-width:4;stroke-linecap:butt;stroke-linejoin:miter;stroke-miterlimit:4;stroke-dasharray:none;stroke-opacity:1" d="M257.753 629.625c3.206-10.015 8.547-22.205 16.197-25.544 29.953-13.072 58.935-10.736 88.388-2.21 7.851 2.273 14.297 12.839 18.733 22.658 6.439 11.634 1.083 19.074 13.678 18.631 2.813-.12 5.358-.74 5.154-2.619-2.851-26.272-17.365-63.06-17.365-63.06-3.965-16.946-3.776-13.599-19.004-15.576-10.913-1.405-21.682-2.17-32.382-2.439-3.673-.092-3.433 5.343-7.093 5.36-4.445.023-12.79-5.346-17.225-5.18-10.19.382-20.369 1.116-30.598 2.073-16.733 1.315-14.113.24-19.304 13.69-6.78 17.602-18.257 49.8-18.338 66.237-.013 2.687 4.106 3.19 8.096 3.047 11.691.09 8.187-5.971 11.063-15.068z"/><g style="font-style:normal;font-weight:400;font-size:56.4375px;line-height:125%;font-family:sans-serif;letter-spacing:0;word-spacing:0;fill:navy;fill-opacity:1;stroke:none;stroke-width:1px;stroke-linecap:butt;stroke-linejoin:miter;stroke-opacity:1"><path d="M372.956 1105.6q0 .43.161.86.161.377.484.914.376.484 1.075.645v7.15h-16.77v-7.15q.699-.16 1.021-.698.323-.591.323-1.72v-23.65q0-.592-.162-.968-.16-.376-.59-.967-.377-.645-1.076-1.075v-6.612h15.48l.054 33.272zM397.947 1115.168h-14.512l11.717-33.002q.161-.538-.645-.645-.752-.161-1.236-.161-1.129.054-1.559.054-.914 0-.914 1.45v6.505h-11.77v-17.2h32.142v7.363l-13.223 35.637z" style="font-style:normal;font-variant:normal;font-weight:100;font-stretch:normal;font-family:AcmeFont;-inkscape-font-specification:'AcmeFont Thin';fill:navy"/></g><path style="fill:red;fill-opacity:1;fill-rule:evenodd;stroke:#000;stroke-width:4;stroke-linecap:butt;stroke-linejoin:miter;stroke-miterlimit:4;stroke-dasharray:none;stroke-opacity:1" d="M274.904 739.135c2.77-8.499-15.244-5.602-25.103-5.354-10.66-.262-9.718.085-14.471 6.938-11.82 17.083-41.852 65.071-50.875 123.304-.45 2.91 51.39.47 51.39.47M375.257 737.02c-2.772-8.499 15.243-5.602 25.102-5.354 10.66-.262 9.718.085 14.471 6.938 11.82 17.083 41.852 65.072 50.875 123.304.45 2.91-51.39.47-51.39.47"/></g></svg>