<svg xmlns="http://www.w3.org/2000/svg" xmlns:xlink="http://www.w3.org/1999/xlink" width="334.825" height="737.125" viewBox="0 0 313.898 691.055"><defs><linearGradient id="b"><stop style="stop-color:#0055d4;stop-opacity:1" offset="0"/><stop style="stop-color:#025;stop-opacity:1" offset="1"/></linearGradient><linearGradient xlink:href="#a" id="d" x1="8.436" y1="724.23" x2="-43.978" y2="747.087" gradientUnits="userSpaceOnUse" gradientTransform="translate(441.46 59.466)"/><linearGradient id="a"><stop offset="0" style="stop-color:#0055d4;stop-opacity:1"/><stop offset="1" style="stop-color:#025;stop-opacity:1"/></linearGradient><linearGradient xlink:href="#b" id="c" gradientUnits="userSpaceOnUse" x1="8.436" y1="724.23" x2="-43.978" y2="747.087" gradientTransform="matrix(-1 0 0 1 207.643 59.581)"/></defs><g transform="translate(-168.988 -554.946)"><ellipse style="fill:#f4e3d7;fill-opacity:1;stroke:#000;stroke-width:4.22298098;stroke-miterlimit:4;stroke-dasharray:none;stroke-opacity:1" cx="398.571" cy="654.076" rx="12.334" ry="14.479"/><ellipse style="fill:#f4e3d7;fill-opacity:1;stroke:#000;stroke-width:4.22298098;stroke-miterlimit:4;stroke-dasharray:none;stroke-opacity:1" cx="247.143" cy="654.648" rx="12.334" ry="14.479"/><ellipse style="fill:#ffe6d5;fill-opacity:1;stroke:#000;stroke-width:4.00000048;stroke-miterlimit:4;stroke-dasharray:none;stroke-opacity:1" cx="220.982" cy="987.777" rx="33.851" ry="36.86"/><ellipse style="fill:#ffe6d5;fill-opacity:1;stroke:#000;stroke-width:3;stroke-miterlimit:4;stroke-dasharray:none;stroke-opacity:1" cx="430.857" cy="994.548" rx="33.851" ry="36.86"/><path style="fill:#ffe6d5;fill-opacity:1;fill-rule:evenodd;stroke:#000;stroke-width:4.00000048;stroke-linecap:butt;stroke-linejoin:miter;stroke-miterlimit:4;stroke-dasharray:none;stroke-opacity:1" d="m245.03 978.815 1.01-126.775-54.043 4.041 3.398 109.667M402.406 980.58l-1.01-126.774 54.043 4.04-3.398 109.667M312.327 1214.866l4.581-120.346-73.328-2.388 9.112 108.953M337.73 1214.202l-4.58-120.346 73.328-2.388-9.112 108.953"/><path style="fill:#f9f9f9;fill-opacity:1;fill-rule:evenodd;stroke:#000;stroke-width:4;stroke-linecap:butt;stroke-linejoin:miter;stroke-miterlimit:4;stroke-dasharray:none;stroke-opacity:1" d="M240.54 949.992c61.163.772 109.827-5.116 166.245-1.505 17.425 67.211 7.74 86.487 6.018 170.646-46.666 15.5-72.162 1.633-88.012-3.761-22.053 16.582-86.913 10.205-87.26 6.77-11.127-148.263 2.64-165.748 3.009-172.15z"/><path style="fill:#025;fill-opacity:1;fill-rule:evenodd;stroke:#000;stroke-width:4.00000048;stroke-linecap:butt;stroke-linejoin:miter;stroke-miterlimit:4;stroke-dasharray:none;stroke-opacity:1" d="M240.162 731.043s-44.393 56.938-55.714 130c-.451 2.91 54.704-.635 54.704-.635l-6.429 114.286 182.858 1.429-4.286-116.43h49.286c-20.65-82.67-30.188-88.57-52.858-132.856Z"/><path style="fill:#f4e3d7;fill-opacity:1;fill-rule:evenodd;stroke:#000;stroke-width:4;stroke-linecap:butt;stroke-linejoin:miter;stroke-miterlimit:4;stroke-dasharray:none;stroke-opacity:1" d="m286.202 740.772 74.286-1.429s-2.258 37.338-34.286 37.22c-33.563-.123-40-35.791-40-35.791z"/><path style="fill:#ffe6d5;fill-rule:evenodd;stroke:#000;stroke-width:4;stroke-linecap:butt;stroke-linejoin:miter;stroke-miterlimit:4;stroke-dasharray:none;stroke-opacity:1" d="M254.958 590.433s-16.309 68.791-5.64 100.658c8.085 24.147 26.238 47.609 49.339 58.325 16.516 7.661 38.35 8.169 54.62 0 20.212-10.148 34.267-32.682 40.53-54.414 9.287-32.216-7.931-100.27-7.931-100.27"/><path style="fill:#fff;fill-rule:evenodd;stroke:#000;stroke-width:4;stroke-linecap:butt;stroke-linejoin:miter;stroke-miterlimit:4;stroke-dasharray:none;stroke-opacity:1" d="M296.094 645.678c-6.312-1.748-12.821-1.162-18.199 3.17-17.894 14.414 13.404 34.735 23.61 23.773 7.918-8.504 10.125-26.943-5.41-26.943z"/><ellipse style="fill:#000;fill-opacity:1;stroke:#000;stroke-width:1.34574461;stroke-miterlimit:4;stroke-dasharray:none;stroke-opacity:1" cx="288.47" cy="658.885" rx="3.197" ry="3.698"/><path d="M345.545 647.032c6.312-1.749 12.821-1.162 18.199 3.17 17.894 14.414-13.404 34.735-23.61 23.773-7.918-8.504-10.125-26.943 5.41-26.943z" style="fill:#fff;fill-rule:evenodd;stroke:#000;stroke-width:4;stroke-linecap:butt;stroke-linejoin:miter;stroke-miterlimit:4;stroke-dasharray:none;stroke-opacity:1"/><ellipse ry="3.698" rx="3.197" cy="660.239" cx="349.986" style="fill:#000;fill-opacity:1;stroke:#000;stroke-width:1.34574461;stroke-miterlimit:4;stroke-dasharray:none;stroke-opacity:1"/><path style="fill:none;fill-rule:evenodd;stroke:#000;stroke-width:4;stroke-linecap:butt;stroke-linejoin:miter;stroke-miterlimit:4;stroke-dasharray:none;stroke-opacity:1" d="M307.696 684.582c12.15 24.61 25.891-.613 25.532 0"/><g style="stroke-width:4;stroke-miterlimit:4;stroke-dasharray:none"><path d="M111.17 536.139c11.862-6.174 14.728-9.3 15.16-9.84" style="fill:none;fill-rule:evenodd;stroke:#000;stroke-width:4;stroke-linecap:butt;stroke-linejoin:miter;stroke-miterlimit:4;stroke-dasharray:none;stroke-opacity:1" transform="translate(163.95 173.996)"/><path d="M118.085 531.086c23.471 35.016 61.832 30.635 77.66 4.255" style="fill:none;fill-rule:evenodd;stroke:#000;stroke-width:4;stroke-linecap:butt;stroke-linejoin:miter;stroke-miterlimit:4;stroke-dasharray:none;stroke-opacity:1" transform="translate(163.95 173.996)"/><path d="M190.16 528.958c4.812 7.047 5.93 8.057 10.372 12.766" style="fill:none;fill-rule:evenodd;stroke:#000;stroke-width:4;stroke-linecap:butt;stroke-linejoin:miter;stroke-miterlimit:4;stroke-dasharray:none;stroke-opacity:1" transform="translate(163.95 173.996)"/></g><path style="fill:none;fill-rule:evenodd;stroke:#000;stroke-width:3;stroke-linecap:butt;stroke-linejoin:miter;stroke-miterlimit:4;stroke-dasharray:none;stroke-opacity:1" d="m325.497 1116.682-1.504-71.077M307.71 1038.241c4.202 4.98 10.793 7.846 17.301 7.523 6.127-.305 12.058-3.412 15.797-8.275l-.752-.752"/><path style="fill:#241c1c;fill-opacity:1;fill-rule:evenodd;stroke:#000;stroke-width:4;stroke-linecap:butt;stroke-linejoin:miter;stroke-miterlimit:4;stroke-dasharray:none;stroke-opacity:1" d="m315.65 1189.101 1.605 53.79h-30.488a19.433 19.433 0 0 0-5.57-3.753 19.504 19.504 0 0 0-10.477-1.502l-8.023 5.651H179.28c-4.619-4.222-7.595-10.197-8.181-16.427-.587-6.23 1.222-12.656 4.972-17.666 2.82-3.767 6.654-6.7 10.825-8.879 4.17-2.18 8.683-3.636 13.244-4.795a112.942 112.942 0 0 1 48.116-1.605l67.395-4.814zM336.225 1189.816l-1.605 53.79h30.489a19.433 19.433 0 0 1 5.57-3.754 19.504 19.504 0 0 1 10.476-1.502l8.023 5.651h83.418c4.62-4.221 7.595-10.197 8.182-16.427.586-6.23-1.222-12.656-4.972-17.665-2.82-3.768-6.654-6.7-10.825-8.88-4.171-2.179-8.684-3.635-13.245-4.795a112.944 112.944 0 0 0-48.116-1.604l-67.395-4.814z"/><path style="fill:none;fill-rule:evenodd;stroke:#000;stroke-width:4.00000048;stroke-linecap:butt;stroke-linejoin:miter;stroke-miterlimit:4;stroke-dasharray:none;stroke-opacity:1" d="m239.152 861.123 16.296-53.898M410.76 860.051l-14.276-50.866"/><path style="fill:#483737;fill-rule:evenodd;stroke:#000;stroke-width:3.07435679;stroke-linecap:butt;stroke-linejoin:miter;stroke-miterlimit:4;stroke-dasharray:none;stroke-opacity:1" d="M333.11 573.664c-16.046-8.8-25.104-21.48-55.124-5.435-30.02 11.387-39.855 34.42-48.136 71.428 26.138 12.164 62.111-5.435 62.111-5.435 17.34-5.952 28.468-17.34 40.372-38.82 0 0 15.167 32.985 30.28 40.373 13.022 6.366 43.478-.776 43.478-.776.212-22.192-3.167-39.459-15.528-56.677-.662-7.246-23.513-23.215-38.043-21.739-8.575.871-19.41 17.08-19.41 17.08z"/><path style="fill:none;fill-rule:evenodd;stroke:#000;stroke-width:3.00000024;stroke-linecap:butt;stroke-linejoin:miter;stroke-miterlimit:4;stroke-dasharray:none;stroke-opacity:1" d="M312.205 579.3c-19.014 5.556-37.07-4.222-58.589 41.416"/><path style="fill:none;fill-rule:evenodd;stroke:#000;stroke-width:3.00000024;stroke-linecap:butt;stroke-linejoin:miter;stroke-miterlimit:4;stroke-dasharray:none;stroke-opacity:1" d="M302.103 592.431c-20.034 4.883-25.422 12.796-34.345 25.254M276.85 620.716c14.647-5.051 22.728-12.627 30.304-21.214M372.547 624.507c-6.672-19.512-15.04-24.162-28.253-31.923M384.59 617.383c-6.672-19.511-8.978-25.172-24.212-27.883M366.248 575.259l14.142 13.637"/><path style="fill:#fff;fill-rule:evenodd;stroke:none;stroke-width:1px;stroke-linecap:butt;stroke-linejoin:miter;stroke-opacity:1" d="m399.688 1196.134-19.627 28.704 12.94.043 19.034-29.4zM420.248 1194.945l-17.048 30.647 12.494-.046 16.349-30.736zM250.53 1195.506l19.628 28.703-12.94.043-19.034-29.4zM229.971 1194.317l17.048 30.647-12.494-.046-16.349-30.736z"/><g style="font-style:normal;font-weight:400;font-size:53.75000381px;line-height:125%;font-family:sans-serif;letter-spacing:0;word-spacing:0;fill:#000;fill-opacity:1;stroke:none;stroke-width:1px;stroke-linecap:butt;stroke-linejoin:miter;stroke-opacity:1"><path d="M354.077 1108.352q.102.307 1.177.307h1.639q1.228 0 1.791-.563.87-.87.87-2.304v-1.28h12.081v11.98h-30.407v-10.904q0-5.068 4.812-8.498.717-.512 8.907-4.71 4.863-2.508 4.863-5.17 0-3.788-2.866-3.788-1.536 0-2.15 1.024-.615 1.024-.615 2.61v3.584h-11.927v-10.955q2.662-2.508 7.371-3.788 3.942-1.075 8.293-1.075 6.45 0 10.29 2.816 4.453 3.276 4.453 9.828 0 6.04-4.812 10.033-1.894 1.587-9.01 5.17-4.862 2.458-4.862 4.71 0 .614.102.973zM392.977 1117.464q-8.088 0-12.746-3.84-4.198-3.48-4.198-8.548 0-2.713 1.331-5.17 1.331-2.509 3.942-4.3.153-.103.153-.359 0-.46-.256-.665-2.2-1.894-3.327-4.096-1.126-2.252-1.126-4.453 0-4.76 4.249-8.14 4.3-3.43 10.954-3.43 7.935 0 12.44 3.891 3.89 3.379 3.89 8.19 0 2.407-1.075 4.454-1.024 2.048-3.02 3.276-.102.103-.102.564 0 .511.102.614 2.457 2.201 3.686 4.812 1.228 2.56 1.228 5.221 0 5.017-4.044 8.344-4.453 3.635-12.08 3.635zm2.56-31.226q0-1.178-.82-1.946-.767-.819-2.047-.819-1.177 0-1.894.87-.665.82-.665 1.997v2.969q0 1.075.87 1.843t1.996.768q1.024 0 1.792-.82.768-.818.768-1.893v-2.97zm0 15.971q0-1.177-.82-1.945-.767-.82-2.047-.82-1.177 0-1.894.87-.665.82-.665 1.997v4.3q0 1.075.87 1.843t1.996.768q1.024 0 1.792-.819t.768-1.894v-4.3z" style="font-style:normal;font-variant:normal;font-weight:100;font-stretch:normal;font-family:AcmeFont;-inkscape-font-specification:'AcmeFont Thin'"/></g><path d="M276.21 736.526c2.771-8.5-15.244-5.602-25.103-5.355-10.66-.262-9.717.086-14.47 6.939-11.821 17.082-41.853 65.07-50.876 123.303-.45 2.91 51.39.47 51.39.47" style="fill:url(#c);fill-opacity:1;fill-rule:evenodd;stroke:#000;stroke-width:4;stroke-linecap:butt;stroke-linejoin:miter;stroke-miterlimit:4;stroke-dasharray:none;stroke-opacity:1"/><path style="fill:url(#d);fill-opacity:1;fill-rule:evenodd;stroke:#000;stroke-width:4;stroke-linecap:butt;stroke-linejoin:miter;stroke-miterlimit:4;stroke-dasharray:none;stroke-opacity:1" d="M377.945 734.138c-2.771-8.5 11.203-5.602 21.062-5.355 10.66-.262 8.707 2.358 13.46 9.211l-1.262-1.515c11.82 17.083 43.115 66.587 52.138 124.819.45 2.91-51.39.47-51.39.47"/><g transform="matrix(.0128 0 0 .01134 353.423 781.712)"><path style="fill:#002394" d="M0 0h1010v2000H0z"/><path style="fill:#f8f8f8" d="M1000 0h1010v2000H1000z"/><path style="fill:#ee2838" d="M2000 0h1000v2000H2000z"/></g><path style="fill:none;fill-opacity:1;stroke:#000;stroke-width:2.08612657;stroke-miterlimit:4;stroke-dasharray:none;stroke-dashoffset:0;stroke-opacity:1" d="M352.374 780.617h40.32v24.915h-40.32z"/></g></svg>