<svg xmlns="http://www.w3.org/2000/svg" width="334.825" height="737.125" viewBox="0 0 313.898 691.055"><g transform="translate(-168.988 -554.946)"><ellipse style="fill:#fca;fill-opacity:1;stroke:#000;stroke-width:4.22298098;stroke-miterlimit:4;stroke-dasharray:none;stroke-opacity:1" cx="396.571" cy="654.076" rx="12.334" ry="14.479"/><ellipse style="fill:#fca;fill-opacity:1;stroke:#000;stroke-width:4.22298098;stroke-miterlimit:4;stroke-dasharray:none;stroke-opacity:1" cx="247.143" cy="654.648" rx="12.334" ry="14.479"/><ellipse style="fill:#fca;fill-opacity:1;stroke:#000;stroke-width:4.00000048;stroke-miterlimit:4;stroke-dasharray:none;stroke-opacity:1" cx="220.982" cy="987.777" rx="33.851" ry="36.86"/><ellipse style="fill:#fca;fill-opacity:1;stroke:#000;stroke-width:3;stroke-miterlimit:4;stroke-dasharray:none;stroke-opacity:1" cx="430.857" cy="994.548" rx="33.851" ry="36.86"/><path style="fill:#fca;fill-opacity:1;fill-rule:evenodd;stroke:#000;stroke-width:4.00000048;stroke-linecap:butt;stroke-linejoin:miter;stroke-miterlimit:4;stroke-dasharray:none;stroke-opacity:1" d="m245.03 978.815 1.01-126.775-54.043 4.041 3.398 109.667M402.406 980.58l-1.01-126.774 54.043 4.04-3.398 109.667M312.327 1214.866l4.581-120.346-73.328-2.388 9.112 108.953M337.73 1214.202l-4.58-120.346 73.328-2.388-9.112 108.953"/><path style="fill:#025;fill-opacity:1;fill-rule:evenodd;stroke:#000;stroke-width:4;stroke-linecap:butt;stroke-linejoin:miter;stroke-miterlimit:4;stroke-dasharray:none;stroke-opacity:1" d="M240.54 949.992c61.163.772 109.827-5.116 166.245-1.505 17.425 67.211 7.74 86.487 6.018 170.646-46.666 15.5-72.162 1.633-88.012-3.761-22.053 16.582-86.913 10.205-87.26 6.77-11.127-148.263 2.64-165.748 3.009-172.15z"/><path style="fill:#003380;fill-opacity:1;fill-rule:evenodd;stroke:#000;stroke-width:4.00000048;stroke-linecap:butt;stroke-linejoin:miter;stroke-miterlimit:4;stroke-dasharray:none;stroke-opacity:1" d="M235.323 737.74c-11.82 17.083-41.852 65.071-50.875 123.303-.451 2.91 54.704-.635 54.704-.635l-6.429 114.286 182.858 1.429-4.286-116.43h49.286c-19.124-76.563-28.718-87.28-48.038-123.623-5.641-10.725-2.678-9.287-15.271-8.97L249.794 730.8c-10.661-.262-9.718.086-14.471 6.939z"/><path style="fill:#fca;fill-opacity:1;fill-rule:evenodd;stroke:#000;stroke-width:4;stroke-linecap:butt;stroke-linejoin:miter;stroke-miterlimit:4;stroke-dasharray:none;stroke-opacity:1" d="m286.202 740.772 74.286-1.429s-2.258 37.338-34.286 37.22c-33.563-.123-40-35.791-40-35.791z"/><path style="fill:#fca;fill-rule:evenodd;stroke:#000;stroke-width:4;stroke-linecap:butt;stroke-linejoin:miter;stroke-miterlimit:4;stroke-dasharray:none;stroke-opacity:1" d="M281.475 576.623s-28.919 23.944-31.277 38.234c-3.785 22.942-7.454 56.598-.88 76.234 8.085 24.147 26.238 47.609 49.339 58.325 16.516 7.661 38.35 8.169 54.62 0 20.212-10.148 34.267-32.682 40.53-54.414 9.287-32.216-7.931-100.27-7.931-100.27"/><path style="fill:#fff;fill-rule:evenodd;stroke:#000;stroke-width:4;stroke-linecap:butt;stroke-linejoin:miter;stroke-miterlimit:4;stroke-dasharray:none;stroke-opacity:1" d="M296.094 645.678c-6.312-1.748-12.821-1.162-18.199 3.17-17.894 14.414 13.404 34.735 23.61 23.773 7.918-8.504 10.125-26.943-5.41-26.943z"/><ellipse style="fill:#000;fill-opacity:1;stroke:#000;stroke-width:1.34574461;stroke-miterlimit:4;stroke-dasharray:none;stroke-opacity:1" cx="288.47" cy="658.885" rx="3.197" ry="3.698"/><path d="M345.545 647.032c6.312-1.749 12.821-1.162 18.199 3.17 17.894 14.414-13.404 34.735-23.61 23.773-7.918-8.504-10.125-26.943 5.41-26.943z" style="fill:#fff;fill-rule:evenodd;stroke:#000;stroke-width:4;stroke-linecap:butt;stroke-linejoin:miter;stroke-miterlimit:4;stroke-dasharray:none;stroke-opacity:1"/><ellipse ry="3.698" rx="3.197" cy="660.239" cx="349.986" style="fill:#000;fill-opacity:1;stroke:#000;stroke-width:1.34574461;stroke-miterlimit:4;stroke-dasharray:none;stroke-opacity:1"/><path style="fill:none;fill-rule:evenodd;stroke:#000;stroke-width:4;stroke-linecap:butt;stroke-linejoin:miter;stroke-miterlimit:4;stroke-dasharray:none;stroke-opacity:1" d="M318.685 697.197c8.97-1.795 12.895-4.299 11.35-7.796-6.967-15.766-7.3-16.103-6.967-15.766"/><g style="stroke-width:4;stroke-miterlimit:4;stroke-dasharray:none"><path d="M111.17 536.139c11.862-6.174 14.728-9.3 15.16-9.84" style="fill:none;fill-rule:evenodd;stroke:#000;stroke-width:4;stroke-linecap:butt;stroke-linejoin:miter;stroke-miterlimit:4;stroke-dasharray:none;stroke-opacity:1" transform="translate(163.95 173.996)"/><path d="M118.085 531.086c23.471 35.016 61.832 30.635 77.66 4.255" style="fill:none;fill-rule:evenodd;stroke:#000;stroke-width:4;stroke-linecap:butt;stroke-linejoin:miter;stroke-miterlimit:4;stroke-dasharray:none;stroke-opacity:1" transform="translate(163.95 173.996)"/><path d="M190.16 528.958c4.812 7.047 5.93 8.057 10.372 12.766" style="fill:none;fill-rule:evenodd;stroke:#000;stroke-width:4;stroke-linecap:butt;stroke-linejoin:miter;stroke-miterlimit:4;stroke-dasharray:none;stroke-opacity:1" transform="translate(163.95 173.996)"/></g><path style="fill:none;fill-rule:evenodd;stroke:#000;stroke-width:3;stroke-linecap:butt;stroke-linejoin:miter;stroke-miterlimit:4;stroke-dasharray:none;stroke-opacity:1" d="m325.497 1116.682-1.504-71.077M307.71 1038.241c4.202 4.98 10.793 7.846 17.301 7.523 6.127-.305 12.058-3.412 15.797-8.275l-.752-.752"/><path style="fill:#241c1c;fill-opacity:1;fill-rule:evenodd;stroke:#000;stroke-width:4;stroke-linecap:butt;stroke-linejoin:miter;stroke-miterlimit:4;stroke-dasharray:none;stroke-opacity:1" d="m315.65 1189.101 1.605 53.79h-30.488a19.433 19.433 0 0 0-5.57-3.753 19.504 19.504 0 0 0-10.477-1.502l-8.023 5.651H179.28c-4.619-4.222-7.595-10.197-8.181-16.427-.587-6.23 1.222-12.656 4.972-17.666 2.82-3.767 6.654-6.7 10.825-8.879 4.17-2.18 8.683-3.636 13.244-4.795a112.942 112.942 0 0 1 48.116-1.605l67.395-4.814zM336.225 1189.816l-1.605 53.79h30.489a19.433 19.433 0 0 1 5.57-3.754 19.504 19.504 0 0 1 10.476-1.502l8.023 5.651h83.418c4.62-4.221 7.595-10.197 8.182-16.427.586-6.23-1.222-12.656-4.972-17.665-2.82-3.768-6.654-6.7-10.825-8.88-4.171-2.179-8.684-3.635-13.245-4.795a112.944 112.944 0 0 0-48.116-1.604l-67.395-4.814z"/><path style="fill:none;fill-rule:evenodd;stroke:#000;stroke-width:4.00000048;stroke-linecap:butt;stroke-linejoin:miter;stroke-miterlimit:4;stroke-dasharray:none;stroke-opacity:1" d="m239.152 861.123 16.296-53.898M410.76 860.051l-14.276-50.866"/><path style="fill:#fff;fill-rule:evenodd;stroke:none;stroke-width:1px;stroke-linecap:butt;stroke-linejoin:miter;stroke-opacity:1" d="m399.688 1196.134-19.627 28.704 12.94.043 19.034-29.4zM420.248 1194.945l-17.048 30.647 12.494-.046 16.349-30.736zM250.53 1195.506l19.628 28.703-12.94.043-19.034-29.4zM229.971 1194.317l17.048 30.647-12.494-.046-16.349-30.736z"/><path style="fill:#1a1a1a;fill-rule:evenodd;stroke:#000;stroke-width:4.00000048;stroke-linecap:butt;stroke-linejoin:miter;stroke-miterlimit:4;stroke-dasharray:none;stroke-opacity:1" d="m253.834 647.043-13.639.552c-2.8-17.773-1.192-16.442 7.245-38.36 12.17-19.126 23.183-29.848 39.12-36.513 16.518-7.631 24.343-8.597 39.121-9.853 23.28.387 40.474 8.887 53.32 20.285 15.162 14.288 20.857 29.341 24.342 44.627 1.828 15.928-.055-.741-2.897 20.394l-10.433-1.16-1.448-3.586-24.342-31.296s1.225 7.709 2.898 15.358c1.083 4.954.198 9.256-2.609 8.404-11.924-3.621-31.296-29.848-31.296-29.848s3.152 7.085 2.318 13.91c-.75 6.142-3.77 9.348-5.506 6.955-10.134-13.978-27.487-29.53-42.018-39.121-6.19-4.086-15.806 8.177-20.946 14.906-10.773 18.26-12.529 23.856-13.23 44.346z"/><g style="font-style:normal;font-weight:400;font-size:52.99296188px;line-height:125%;font-family:sans-serif;letter-spacing:0;word-spacing:0;fill:#000;fill-opacity:1;stroke:none;stroke-width:1px;stroke-linecap:butt;stroke-linejoin:miter;stroke-opacity:1"><path d="M355.538 1104.962q.1.303 1.16.303h1.615q1.212 0 1.767-.555.858-.858.858-2.272v-1.261h11.91v11.81H342.87v-10.75q0-4.997 4.744-8.378.706-.505 8.782-4.643 4.794-2.473 4.794-5.098 0-3.735-2.826-3.735-1.514 0-2.12 1.01-.606 1.01-.606 2.574v3.532H343.88v-10.8q2.624-2.473 7.268-3.735 3.886-1.06 8.176-1.06 6.359 0 10.144 2.776 4.391 3.23 4.391 9.69 0 5.956-4.744 9.892-1.868 1.565-8.883 5.098-4.794 2.422-4.794 4.643 0 .606.1.959zM388.086 1097.038h-2.17v-7.52h2.422q3.18 0 4.391-.757 1.968-1.211 1.968-4.996 0-1.565-.807-2.22-.757-.707-2.17-.707-1.262 0-1.969.908-.656.858-.656 2.22v2.777h-11.76v-9.741q2.726-2.372 7.42-3.584 3.886-1.009 8.024-1.009 5.704 0 9.59 2.22 4.845 2.777 4.845 8.126 0 3.584-.505 5.25-.858 2.725-3.432 3.936-.353.151-.353.656 0 .454.303.606 3.18 1.716 4.037 4.34.505 1.565.505 6.41 0 5.299-4.441 8.226-4.139 2.725-10.8 2.725-4.29 0-7.925-.958-4.44-1.161-7.267-3.584v-10.8h12.062v3.533q0 1.06.656 2.069.656.959 1.868.959 1.312 0 1.968-.454.908-.606 1.06-1.918.202-1.312.202-2.12 0-3.18-2.12-4.088-1.161-.505-4.946-.505z" style="font-style:normal;font-variant:normal;font-weight:100;font-stretch:normal;font-family:AcmeFont;-inkscape-font-specification:'AcmeFont Thin';fill:#fff"/></g><path style="fill:#f8f8f8;stroke:#000;stroke-width:2.00000042;stroke-miterlimit:4;stroke-dasharray:none;stroke-opacity:1" d="M348.037 782.372h41.86v27.907h-41.86z"/><circle r="8.372" cx="368.967" cy="796.326" style="fill:#bd002e"/></g></svg>