<svg xmlns="http://www.w3.org/2000/svg" width="334.825" height="754.431" viewBox="0 0 313.898 707.279"><g transform="translate(-168.989 -538.722)"><ellipse style="fill:#e9c6af;fill-opacity:1;stroke:#000;stroke-width:4.22298098;stroke-miterlimit:4;stroke-dasharray:none;stroke-opacity:1" cx="396.571" cy="654.076" rx="12.334" ry="14.479"/><ellipse style="fill:#e9c6af;fill-opacity:1;stroke:#000;stroke-width:4.22298098;stroke-miterlimit:4;stroke-dasharray:none;stroke-opacity:1" cx="247.143" cy="654.648" rx="12.334" ry="14.479"/><ellipse style="fill:#e9c6af;fill-opacity:1;stroke:#000;stroke-width:4.00000048;stroke-miterlimit:4;stroke-dasharray:none;stroke-opacity:1" cx="220.982" cy="987.777" rx="33.851" ry="36.86"/><ellipse style="fill:#e9c6af;fill-opacity:1;stroke:#000;stroke-width:3;stroke-miterlimit:4;stroke-dasharray:none;stroke-opacity:1" cx="430.857" cy="994.548" rx="33.851" ry="36.86"/><path style="fill:#e9c6af;fill-opacity:1;fill-rule:evenodd;stroke:#000;stroke-width:4.00000048;stroke-linecap:butt;stroke-linejoin:miter;stroke-miterlimit:4;stroke-dasharray:none;stroke-opacity:1" d="m245.03 978.815 1.01-126.775-54.043 4.041 3.398 109.667M402.406 980.58l-1.01-126.774 54.043 4.04-3.398 109.667M312.327 1214.866l4.581-120.346-73.328-2.388 9.112 108.953M337.73 1214.202l-4.58-120.346 73.328-2.388-9.112 108.953"/><path style="fill:#f60;fill-opacity:1;fill-rule:evenodd;stroke:#000;stroke-width:4;stroke-linecap:butt;stroke-linejoin:miter;stroke-miterlimit:4;stroke-dasharray:none;stroke-opacity:1" d="M240.54 949.992c61.163.772 109.827-5.116 166.245-1.505 17.425 67.211 7.74 86.487 6.018 170.646-46.666 15.5-72.162 1.633-88.012-3.761-22.053 16.582-86.913 10.205-87.26 6.77-11.127-148.263 2.64-165.748 3.009-172.15z"/><path style="fill:#f60;fill-opacity:1;fill-rule:evenodd;stroke:#000;stroke-width:4.00000048;stroke-linecap:butt;stroke-linejoin:miter;stroke-miterlimit:4;stroke-dasharray:none;stroke-opacity:1" d="M235.323 737.74c-11.82 17.083-41.852 65.071-50.875 123.303-.451 2.91 54.704-.635 54.704-.635l-6.429 114.286 182.858 1.429-4.286-116.43h49.286c-19.124-76.563-28.718-87.28-48.038-123.623-5.641-10.725-2.678-9.287-15.271-8.97L249.794 730.8c-10.661-.262-9.718.086-14.471 6.939z"/><path style="fill:#21468b" d="M0 0h9v6H0z" transform="matrix(4.60824 0 0 4.64726 345.785 783.184)"/><path style="fill:#fff" d="M0 0h9v4H0z" transform="matrix(4.60824 0 0 4.64726 345.785 783.184)"/><path style="fill:#ae1c28" d="M0 0h9v2H0z" transform="matrix(4.60824 0 0 4.64726 345.785 783.184)"/><path style="fill:#e9c6af;fill-opacity:1;fill-rule:evenodd;stroke:#000;stroke-width:4;stroke-linecap:butt;stroke-linejoin:miter;stroke-miterlimit:4;stroke-dasharray:none;stroke-opacity:1" d="m286.202 740.772 74.286-1.429s-2.258 37.338-34.286 37.22c-33.563-.123-40-35.791-40-35.791z"/><path style="fill:#e9c6af;fill-rule:evenodd;stroke:#000;stroke-width:4;stroke-linecap:butt;stroke-linejoin:miter;stroke-miterlimit:4;stroke-dasharray:none;stroke-opacity:1" d="M254.958 590.433s-16.309 68.791-5.64 100.658c8.085 24.147 26.238 47.609 49.339 58.325 16.516 7.661 38.35 8.169 54.62 0 20.212-10.148 34.267-32.682 40.53-54.414 9.287-32.216-7.931-100.27-7.931-100.27"/><path style="fill:#fff;fill-rule:evenodd;stroke:#000;stroke-width:4;stroke-linecap:butt;stroke-linejoin:miter;stroke-miterlimit:4;stroke-dasharray:none;stroke-opacity:1" d="M296.094 645.678c-6.312-1.748-12.821-1.162-18.199 3.17-17.894 14.414 13.404 34.735 23.61 23.773 7.918-8.504 10.125-26.943-5.41-26.943z"/><ellipse style="fill:#000;fill-opacity:1;stroke:#000;stroke-width:1.34574461;stroke-miterlimit:4;stroke-dasharray:none;stroke-opacity:1" cx="288.47" cy="658.885" rx="3.197" ry="3.698"/><path d="M345.545 647.032c6.312-1.749 12.821-1.162 18.199 3.17 17.894 14.414-13.404 34.735-23.61 23.773-7.918-8.504-10.125-26.943 5.41-26.943z" style="fill:#fff;fill-rule:evenodd;stroke:#000;stroke-width:4;stroke-linecap:butt;stroke-linejoin:miter;stroke-miterlimit:4;stroke-dasharray:none;stroke-opacity:1"/><ellipse ry="3.698" rx="3.197" cy="660.239" cx="349.986" style="fill:#000;fill-opacity:1;stroke:#000;stroke-width:1.34574461;stroke-miterlimit:4;stroke-dasharray:none;stroke-opacity:1"/><path style="fill:none;fill-rule:evenodd;stroke:#000;stroke-width:4;stroke-linecap:butt;stroke-linejoin:miter;stroke-miterlimit:4;stroke-dasharray:none;stroke-opacity:1" d="M307.696 684.582c12.15 24.61 25.891-.613 25.532 0"/><g style="stroke-width:4;stroke-miterlimit:4;stroke-dasharray:none"><path d="M111.17 536.139c11.862-6.174 14.728-9.3 15.16-9.84" style="fill:none;fill-rule:evenodd;stroke:#000;stroke-width:4;stroke-linecap:butt;stroke-linejoin:miter;stroke-miterlimit:4;stroke-dasharray:none;stroke-opacity:1" transform="matrix(1 0 0 -1 163.95 1257.282)"/><path d="M118.085 531.086c23.471 35.016 61.832 30.635 77.66 4.255" style="fill:none;fill-rule:evenodd;stroke:#000;stroke-width:4;stroke-linecap:butt;stroke-linejoin:miter;stroke-miterlimit:4;stroke-dasharray:none;stroke-opacity:1" transform="matrix(1 0 0 -1 163.95 1257.282)"/><path d="M190.16 528.958c4.812 7.047 5.93 8.057 10.372 12.766" style="fill:none;fill-rule:evenodd;stroke:#000;stroke-width:4;stroke-linecap:butt;stroke-linejoin:miter;stroke-miterlimit:4;stroke-dasharray:none;stroke-opacity:1" transform="matrix(1 0 0 -1 163.95 1257.282)"/></g><path style="fill:none;fill-rule:evenodd;stroke:#000;stroke-width:3;stroke-linecap:butt;stroke-linejoin:miter;stroke-miterlimit:4;stroke-dasharray:none;stroke-opacity:1" d="m325.497 1116.682-1.504-71.077M307.71 1038.241c4.202 4.98 10.793 7.846 17.301 7.523 6.127-.305 12.058-3.412 15.797-8.275l-.752-.752"/><path style="fill:#241c1c;fill-opacity:1;fill-rule:evenodd;stroke:#000;stroke-width:4;stroke-linecap:butt;stroke-linejoin:miter;stroke-miterlimit:4;stroke-dasharray:none;stroke-opacity:1" d="m315.65 1189.101 1.605 53.79h-30.488a19.433 19.433 0 0 0-5.57-3.753 19.504 19.504 0 0 0-10.477-1.502l-8.023 5.651H179.28c-4.619-4.222-7.595-10.197-8.181-16.427-.587-6.23 1.222-12.656 4.972-17.666 2.82-3.767 6.654-6.7 10.825-8.879 4.17-2.18 8.683-3.636 13.244-4.795a112.942 112.942 0 0 1 48.116-1.605l67.395-4.814zM336.225 1189.816l-1.605 53.79h30.489a19.433 19.433 0 0 1 5.57-3.754 19.504 19.504 0 0 1 10.476-1.502l8.023 5.651h83.418c4.62-4.221 7.595-10.197 8.182-16.427.586-6.23-1.222-12.656-4.972-17.665-2.82-3.768-6.654-6.7-10.825-8.88-4.171-2.179-8.684-3.635-13.245-4.795a112.944 112.944 0 0 0-48.116-1.604l-67.395-4.814z"/><path style="fill:none;fill-rule:evenodd;stroke:#000;stroke-width:4.00000048;stroke-linecap:butt;stroke-linejoin:miter;stroke-miterlimit:4;stroke-dasharray:none;stroke-opacity:1" d="m239.152 861.123 16.296-53.898M410.76 860.051l-14.276-50.866"/><path style="fill:#fff;fill-rule:evenodd;stroke:none;stroke-width:1px;stroke-linecap:butt;stroke-linejoin:miter;stroke-opacity:1" d="m399.688 1196.134-19.627 28.704 12.94.043 19.034-29.4zM420.248 1194.945l-17.048 30.647 12.494-.046 16.349-30.736zM250.53 1195.506l19.628 28.703-12.94.043-19.034-29.4zM229.971 1194.317l17.048 30.647-12.494-.046-16.349-30.736z"/><path style="fill:#fff6d5;fill-opacity:1;stroke:#1a1919;stroke-width:2.74402165;stroke-linecap:round;stroke-linejoin:round;stroke-miterlimit:4;stroke-dasharray:none" d="M401.651 652.773c8.214-23.103.374-43.03.374-43.03l9.8 4.573c-4.9-43.446-42.465-47.694-42.465-47.694s-12.74-28.092-62.395-26.46c0 0 3.49 7.14 6.94 10.923 0 0-29.996-8.157-58.554 11.29 0 0 3.654 6.523 12.515 5.537 0 0-38.737 22.378-22.043 84.607 10.626-30.834 7.744-41.052 30.16-42.067l12.121-1.01-10.892 13.566c13.05-.739 34.22-12.8 34.22-12.8l4.184-3.697c-5.413 4.188-13.293 17.971-13.293 17.971 36.437.247 53.914-24.369 53.914-24.369s3.201 17.397 17.97 29.461l1.972-7.881c10.384 17.472 3.77 28.718 25.472 31.08"/><path style="opacity:1;fill:none;fill-opacity:1;stroke:#000;stroke-width:2.01674032;stroke-miterlimit:4;stroke-dasharray:none;stroke-opacity:1" d="M344.763 782.115h43.338v29.956h-43.338z"/><g style="font-style:normal;font-weight:400;font-size:53.94265366px;line-height:125%;font-family:sans-serif;letter-spacing:0;word-spacing:0;fill:#000;fill-opacity:1;stroke:none;stroke-width:1px;stroke-linecap:butt;stroke-linejoin:miter;stroke-opacity:1"><path d="M390.518 1112.173q-7.706 0-11.559-3.031-4.16-3.288-4.16-10.43V1081.4q0-6.37 4.828-9.556 4.059-2.671 10.635-2.671 5.086 0 9.144 2.209 6.01 3.288 6.01 10.275v17.056q0 8.58-5.136 11.61-3.134 1.85-9.762 1.85zm2.004-31.544q0-1.079-.72-1.798-.718-.72-1.849-.72-1.078 0-1.746.771-.617.72-.617 1.799v20.909q0 1.027.72 1.746.77.668 1.849.668.925 0 1.644-.719.72-.72.72-1.747v-20.909z" style="font-style:normal;font-variant:normal;font-weight:100;font-stretch:normal;font-family:AcmeFont;-inkscape-font-specification:'AcmeFont Thin';fill:#f9f9f9"/></g></g></svg>