<svg xmlns="http://www.w3.org/2000/svg" width="334.825" height="748.882" viewBox="0 0 313.898 702.077"><g transform="translate(-168.989 -543.925)"><ellipse style="fill:#803300;fill-opacity:1;stroke:#000;stroke-width:4.22298098;stroke-miterlimit:4;stroke-dasharray:none;stroke-opacity:1" cx="396.571" cy="654.076" rx="12.334" ry="14.479"/><ellipse style="fill:#803300;fill-opacity:1;stroke:#000;stroke-width:4.22298098;stroke-miterlimit:4;stroke-dasharray:none;stroke-opacity:1" cx="247.143" cy="654.648" rx="12.334" ry="14.479"/><ellipse style="fill:#803300;fill-opacity:1;stroke:#000;stroke-width:4.00000048;stroke-miterlimit:4;stroke-dasharray:none;stroke-opacity:1" cx="220.982" cy="987.777" rx="33.851" ry="36.86"/><ellipse style="fill:#803300;fill-opacity:1;stroke:#000;stroke-width:3;stroke-miterlimit:4;stroke-dasharray:none;stroke-opacity:1" cx="430.857" cy="994.548" rx="33.851" ry="36.86"/><path style="fill:#803300;fill-opacity:1;fill-rule:evenodd;stroke:#000;stroke-width:4.00000048;stroke-linecap:butt;stroke-linejoin:miter;stroke-miterlimit:4;stroke-dasharray:none;stroke-opacity:1" d="m245.03 978.815 1.01-126.775-54.043 4.041 3.398 109.667M402.406 980.58l-1.01-126.774 54.043 4.04-3.398 109.667M312.327 1214.866l4.581-120.346-73.328-2.388 9.112 108.953M337.73 1214.202l-4.58-120.346 73.328-2.388-9.112 108.953"/><path style="fill:#fff;fill-opacity:1;fill-rule:evenodd;stroke:#000;stroke-width:4;stroke-linecap:butt;stroke-linejoin:miter;stroke-miterlimit:4;stroke-dasharray:none;stroke-opacity:1" d="M240.54 949.992c61.163.772 109.827-5.116 166.245-1.505 17.425 67.211 7.74 86.487 6.018 170.646-46.666 15.5-72.162 1.633-88.012-3.761-22.053 16.582-86.913 10.205-87.26 6.77-11.127-148.263 2.64-165.748 3.009-172.15z"/><path style="fill:#5fd35f;fill-opacity:1;fill-rule:evenodd;stroke:#000;stroke-width:4;stroke-linecap:butt;stroke-linejoin:miter;stroke-miterlimit:4;stroke-dasharray:none;stroke-opacity:1" d="M235.323 737.74c-11.82 17.083-41.852 65.071-50.875 123.303-.451 2.91 54.704-.635 54.704-.635l-6.429 114.286 182.858 1.429-4.286-116.43h49.286c-19.124-76.563-28.718-87.28-48.038-123.623-5.641-10.725-2.678-9.287-15.271-8.97L249.794 730.8c-10.661-.262-9.718.086-14.471 6.939z"/><path style="fill:#803300;fill-opacity:1;fill-rule:evenodd;stroke:#000;stroke-width:4;stroke-linecap:butt;stroke-linejoin:miter;stroke-miterlimit:4;stroke-dasharray:none;stroke-opacity:1" d="m286.202 740.772 74.286-1.429s-2.258 37.338-34.286 37.22c-33.563-.123-40-35.791-40-35.791z"/><path style="fill:#803300;fill-rule:evenodd;stroke:#000;stroke-width:4;stroke-linecap:butt;stroke-linejoin:miter;stroke-miterlimit:4;stroke-dasharray:none;stroke-opacity:1" d="M268.167 591.42c-26.24 21.324-25.423 80.035-18.849 99.67 8.085 24.148 26.238 47.61 49.339 58.326 16.516 7.661 38.35 8.169 54.62 0 20.212-10.148 35.754-32.308 40.53-54.414 7.131-32.995 1.662-82.205-13.4-101.442-23.311-29.773-83.2-25.74-112.24-2.14z"/><path style="fill:#2b1100;fill-rule:evenodd;stroke:#000;stroke-width:4.00000048;stroke-linecap:butt;stroke-linejoin:miter;stroke-miterlimit:4;stroke-dasharray:none;stroke-opacity:1" d="M221.428 624.973c.23-5.41 13.258-9.39 13.258-9.39s-10.22-11.007-7.734-16.574c2.59-5.798 18.23-5.524 18.23-5.524s-9.616-13.376-5.524-18.23c4.785-5.675 22.097 2.762 22.097 2.762s-2.247-12.773 2.21-15.468c5.183-3.135 17.125 6.077 17.125 6.077s8.519-16.626 16.573-18.23c6.786-1.352 18.783 8.838 18.783 8.838s12.371-14.182 20.44-13.258c7.116.816 14.915 15.468 14.915 15.468s15.174-13.422 22.65-9.943c5.916 2.753 5.524 18.782 5.524 18.782s16.21-6.633 19.887-1.105c3.969 5.966-9.391 19.335-9.391 19.335 6.814 2.21 17.01.34 20.44 6.63 3.1 5.685-4.972 18.782-4.972 18.782s17.563-3.201 17.678 2.762c.427 22.34-9.392 13.258-9.392 13.258s12.204 15.536-12.706 10.496c-4.956-1.002-2.762-14.915-2.762-14.915s-13.477 14.01-19.887 10.21c-6.021-3.57-.552-20.993-.552-20.993s-13.823 10.78-20.44 7.734c-6.403-2.946-7.182-19.887-7.182-19.887s-7.703 9.022-12.706 8.286c-7.627-1.122-14.915-17.677-14.915-17.677s-.405 13.526-5.524 15.468c-7.86 2.98-22.098-12.154-22.098-12.154s-6.062 13.677-12.153 17.125c-8.357 4.732-28.726 2.21-28.726 2.21s9.466 13.491 6.077 19.335c-3.689 6.359-14.41 6.474-21.545 4.706-7.484-1.855-18.004-7.213-17.678-14.916z"/><path style="fill:#fff;fill-rule:evenodd;stroke:#000;stroke-width:4;stroke-linecap:butt;stroke-linejoin:miter;stroke-miterlimit:4;stroke-dasharray:none;stroke-opacity:1" d="M296.094 645.678c-6.312-1.748-12.821-1.162-18.199 3.17-17.894 14.414 13.404 34.735 23.61 23.773 7.918-8.504 10.125-26.943-5.41-26.943z"/><ellipse style="fill:#000;fill-opacity:1;stroke:#000;stroke-width:1.34574461;stroke-miterlimit:4;stroke-dasharray:none;stroke-opacity:1" cx="288.47" cy="658.885" rx="3.197" ry="3.698"/><path d="M345.545 647.032c6.312-1.749 12.821-1.162 18.199 3.17 17.894 14.414-13.404 34.735-23.61 23.773-7.918-8.504-10.125-26.943 5.41-26.943z" style="fill:#fff;fill-rule:evenodd;stroke:#000;stroke-width:4;stroke-linecap:butt;stroke-linejoin:miter;stroke-miterlimit:4;stroke-dasharray:none;stroke-opacity:1"/><ellipse ry="3.698" rx="3.197" cy="660.239" cx="349.986" style="fill:#000;fill-opacity:1;stroke:#000;stroke-width:1.34574461;stroke-miterlimit:4;stroke-dasharray:none;stroke-opacity:1"/><path style="fill:none;fill-rule:evenodd;stroke:#000;stroke-width:4;stroke-linecap:butt;stroke-linejoin:miter;stroke-miterlimit:4;stroke-dasharray:none;stroke-opacity:1" d="M318.685 697.197c8.97-1.795 12.895-4.299 11.35-7.796-6.967-15.766-7.3-16.103-6.967-15.766"/><g style="stroke-width:4;stroke-miterlimit:4;stroke-dasharray:none"><path d="M111.17 536.139c11.862-6.174 14.728-9.3 15.16-9.84" style="fill:none;fill-rule:evenodd;stroke:#000;stroke-width:4;stroke-linecap:butt;stroke-linejoin:miter;stroke-miterlimit:4;stroke-dasharray:none;stroke-opacity:1" transform="translate(163.95 173.996)"/><path d="M118.085 531.086c23.471 35.016 61.832 30.635 77.66 4.255" style="fill:none;fill-rule:evenodd;stroke:#000;stroke-width:4;stroke-linecap:butt;stroke-linejoin:miter;stroke-miterlimit:4;stroke-dasharray:none;stroke-opacity:1" transform="translate(163.95 173.996)"/><path d="M190.16 528.958c4.812 7.047 5.93 8.057 10.372 12.766" style="fill:none;fill-rule:evenodd;stroke:#000;stroke-width:4;stroke-linecap:butt;stroke-linejoin:miter;stroke-miterlimit:4;stroke-dasharray:none;stroke-opacity:1" transform="translate(163.95 173.996)"/></g><path style="fill:none;fill-rule:evenodd;stroke:#000;stroke-width:3;stroke-linecap:butt;stroke-linejoin:miter;stroke-miterlimit:4;stroke-dasharray:none;stroke-opacity:1" d="m325.497 1116.682-1.504-71.077M307.71 1038.241c4.202 4.98 10.793 7.846 17.301 7.523 6.127-.305 12.058-3.412 15.797-8.275l-.752-.752"/><path style="fill:#241c1c;fill-opacity:1;fill-rule:evenodd;stroke:#000;stroke-width:4;stroke-linecap:butt;stroke-linejoin:miter;stroke-miterlimit:4;stroke-dasharray:none;stroke-opacity:1" d="m315.65 1189.101 1.605 53.79h-30.488a19.433 19.433 0 0 0-5.57-3.753 19.504 19.504 0 0 0-10.477-1.502l-8.023 5.651H179.28c-4.619-4.222-7.595-10.197-8.181-16.427-.587-6.23 1.222-12.656 4.972-17.666 2.82-3.767 6.654-6.7 10.825-8.879 4.17-2.18 8.683-3.636 13.244-4.795a112.942 112.942 0 0 1 48.116-1.605l67.395-4.814zM336.225 1189.816l-1.605 53.79h30.489a19.433 19.433 0 0 1 5.57-3.754 19.504 19.504 0 0 1 10.476-1.502l8.023 5.651h83.418c4.62-4.221 7.595-10.197 8.182-16.427.586-6.23-1.222-12.656-4.972-17.665-2.82-3.768-6.654-6.7-10.825-8.88-4.171-2.179-8.684-3.635-13.245-4.795a112.944 112.944 0 0 0-48.116-1.604l-67.395-4.814z"/><path style="fill:none;fill-rule:evenodd;stroke:#fff;stroke-width:7.37596369;stroke-linecap:butt;stroke-linejoin:miter;stroke-miterlimit:4;stroke-dasharray:none;stroke-opacity:.94117647" d="m257.898 785.289 35.252 40.841 32.048-36.857 30.98 36.857 29.91-33.868 23.502 31.876"/><path style="fill:none;fill-rule:evenodd;stroke:#000;stroke-width:4.00000048;stroke-linecap:butt;stroke-linejoin:miter;stroke-miterlimit:4;stroke-dasharray:none;stroke-opacity:1" d="m410.76 860.051-14.276-50.866"/><path style="fill:#fff;fill-rule:evenodd;stroke:none;stroke-width:1px;stroke-linecap:butt;stroke-linejoin:miter;stroke-opacity:1" d="m399.688 1196.134-19.627 28.704 12.94.043 19.034-29.4zM420.248 1194.945l-17.048 30.647 12.494-.046 16.349-30.736zM250.53 1195.506l19.628 28.703-12.94.043-19.034-29.4zM229.971 1194.317l17.048 30.647-12.494-.046-16.349-30.736z"/><path d="M384.82 782.435v-.062m-.031.064v-.065m-.023.066v-.067" style="fill:none;stroke:#000;stroke-width:.00053333"/><path style="fill:none;fill-rule:evenodd;stroke:#000;stroke-width:4.00000048;stroke-linecap:butt;stroke-linejoin:miter;stroke-miterlimit:4;stroke-dasharray:none;stroke-opacity:1" d="m239.152 861.123 16.296-53.898"/><path style="fill:#fff;fill-rule:evenodd;stroke-width:1pt" d="M0 212.6h744.09v496.06H0z" transform="matrix(.0503 0 0 .04954 351.066 773.376)"/><path style="fill:#36a100;fill-rule:evenodd;stroke-width:1pt" d="M496.06 212.6h248.03v496.06H496.06zM0 212.6h248.03v496.06H0z" transform="matrix(.0503 0 0 .04954 351.066 773.376)"/><path style="opacity:1;fill:none;fill-opacity:1;stroke:#000;stroke-width:2.58583093;stroke-miterlimit:4;stroke-dasharray:none;stroke-opacity:1" d="M349.879 783.397h39.914v26.581h-39.914z"/><g style="font-style:normal;font-weight:400;font-size:52.99295807px;line-height:125%;font-family:sans-serif;letter-spacing:0;word-spacing:0;fill:#5fd35f;fill-opacity:1;stroke:none;stroke-width:1px;stroke-linecap:butt;stroke-linejoin:miter;stroke-opacity:1"><path d="M354.782 1094.912h-2.17v-7.52h2.422q3.18 0 4.39-.757 1.97-1.211 1.97-4.996 0-1.565-.808-2.221-.757-.707-2.17-.707-1.262 0-1.969.909-.656.858-.656 2.22v2.776h-11.76v-9.74q2.726-2.372 7.42-3.584 3.886-1.009 8.024-1.009 5.703 0 9.59 2.22 4.845 2.777 4.845 8.126 0 3.584-.505 5.25-.858 2.725-3.432 3.936-.353.151-.353.656 0 .454.303.606 3.18 1.716 4.037 4.34.505 1.564.505 6.41 0 5.299-4.442 8.226-4.138 2.725-10.8 2.725-4.29 0-7.924-.959-4.441-1.16-7.267-3.583v-10.8h12.062v3.533q0 1.06.656 2.069.656.959 1.867.959 1.313 0 1.969-.454.908-.606 1.06-1.918.201-1.313.201-2.12 0-3.18-2.12-4.088-1.16-.505-4.945-.505zM391.27 1102.836q.1.303 1.16.303h1.615q1.211 0 1.766-.555.858-.858.858-2.272v-1.261h11.911v11.81h-29.979v-10.75q0-4.997 4.744-8.378.707-.505 8.782-4.644 4.795-2.473 4.795-5.097 0-3.735-2.827-3.735-1.514 0-2.12 1.01-.605 1.009-.605 2.574v3.532h-11.76v-10.8q2.625-2.473 7.268-3.735 3.886-1.06 8.176-1.06 6.36 0 10.145 2.776 4.39 3.23 4.39 9.69 0 5.956-4.744 9.892-1.867 1.565-8.882 5.098-4.795 2.422-4.795 4.643 0 .606.101.959z" style="font-style:normal;font-variant:normal;font-weight:100;font-stretch:normal;font-family:AcmeFont;-inkscape-font-specification:'AcmeFont Thin';fill:#5fd35f;fill-opacity:1"/></g><path style="fill:none;fill-rule:evenodd;stroke:#fff;stroke-width:7.37596369;stroke-linecap:butt;stroke-linejoin:miter;stroke-miterlimit:4;stroke-dasharray:none;stroke-opacity:.94117647" d="m239.606 926.58 35.252 40.84 32.048-36.856 30.98 36.857 29.91-33.869 23.502 31.877 17.092-27.892"/><path style="fill:none;fill-rule:evenodd;stroke:#fff;stroke-width:7.28972578;stroke-linecap:butt;stroke-linejoin:miter;stroke-miterlimit:4;stroke-dasharray:none;stroke-opacity:.94117647" d="m242.6 880.559 34.366 40.92 31.243-36.928 30.2 36.928 29.16-33.934 22.911 31.938 16.663-27.946"/><path style="fill:none;fill-rule:evenodd;stroke:#fff;stroke-width:7.37596369;stroke-linecap:butt;stroke-linejoin:miter;stroke-miterlimit:4;stroke-dasharray:none;stroke-opacity:.94117647" d="m251.998 832.164 35.253 40.841 32.047-36.857 30.98 36.857 29.91-33.868 23.502 31.876"/><path style="fill:#bec8b7;fill-opacity:1;fill-rule:evenodd;stroke:#000;stroke-width:4;stroke-linecap:butt;stroke-linejoin:miter;stroke-miterlimit:4;stroke-dasharray:none;stroke-opacity:1" d="M276.41 735.536c2.77-8.5-15.244-5.602-25.103-5.355-10.66-.262-9.717.086-14.47 6.939-11.821 17.082-41.853 65.071-50.876 123.303-.45 2.91 51.39.47 51.39.47M374.157 733.421c-2.771-8.5 15.243-5.602 25.102-5.354 10.661-.263 9.718.085 14.471 6.938 11.82 17.083 41.852 65.071 50.875 123.303.451 2.91-51.39.47-51.39.47"/></g></svg>