<svg xmlns="http://www.w3.org/2000/svg" width="334.825" height="737.125" viewBox="0 0 313.898 691.055"><g transform="translate(-168.988 -554.946)"><ellipse style="fill:#e9c6af;fill-opacity:1;stroke:#000;stroke-width:4.22298098;stroke-miterlimit:4;stroke-dasharray:none;stroke-opacity:1" cx="398.571" cy="654.076" rx="12.334" ry="14.479"/><ellipse style="fill:#e9c6af;fill-opacity:1;stroke:#000;stroke-width:4.22298098;stroke-miterlimit:4;stroke-dasharray:none;stroke-opacity:1" cx="247.143" cy="654.648" rx="12.334" ry="14.479"/><ellipse style="fill:#e9c6af;fill-opacity:1;stroke:#000;stroke-width:4.00000048;stroke-miterlimit:4;stroke-dasharray:none;stroke-opacity:1" cx="220.982" cy="987.777" rx="33.851" ry="36.86"/><ellipse style="fill:#e9c6af;fill-opacity:1;stroke:#000;stroke-width:3;stroke-miterlimit:4;stroke-dasharray:none;stroke-opacity:1" cx="430.857" cy="994.548" rx="33.851" ry="36.86"/><path style="fill:#e9c6af;fill-opacity:1;fill-rule:evenodd;stroke:#000;stroke-width:4.00000048;stroke-linecap:butt;stroke-linejoin:miter;stroke-miterlimit:4;stroke-dasharray:none;stroke-opacity:1" d="m245.03 978.815 1.01-126.775-54.043 4.041 3.398 109.667M402.406 980.58l-1.01-126.774 54.043 4.04-3.398 109.667M312.327 1214.866l4.581-120.346-73.328-2.388 9.112 108.953M337.73 1214.202l-4.58-120.346 73.328-2.388-9.112 108.953"/><path style="fill:#f9f9f9;fill-opacity:1;fill-rule:evenodd;stroke:#000;stroke-width:4;stroke-linecap:butt;stroke-linejoin:miter;stroke-miterlimit:4;stroke-dasharray:none;stroke-opacity:1" d="M240.54 949.992c61.163.772 109.827-5.116 166.245-1.505 17.425 67.211 7.74 86.487 6.018 170.646-46.666 15.5-72.162 1.633-88.012-3.761-22.053 16.582-86.913 10.205-87.26 6.77-11.127-148.263 2.64-165.748 3.009-172.15z"/><path style="fill:#fff;fill-opacity:1;fill-rule:evenodd;stroke:#000;stroke-width:4.00000048;stroke-linecap:butt;stroke-linejoin:miter;stroke-miterlimit:4;stroke-dasharray:none;stroke-opacity:1" d="M240.162 731.043s-44.393 56.938-55.714 130c-.451 2.91 54.704-.635 54.704-.635l-6.429 114.286 182.858 1.429-4.286-116.43h49.286c-20.65-82.67-30.188-88.57-52.858-132.856Z"/><path style="fill:#e9c6af;fill-opacity:1;fill-rule:evenodd;stroke:#000;stroke-width:4;stroke-linecap:butt;stroke-linejoin:miter;stroke-miterlimit:4;stroke-dasharray:none;stroke-opacity:1" d="m286.202 740.772 74.286-1.429s-2.258 37.338-34.286 37.22c-33.563-.123-40-35.791-40-35.791z"/><path style="fill:#e9c6af;fill-rule:evenodd;stroke:#000;stroke-width:4;stroke-linecap:butt;stroke-linejoin:miter;stroke-miterlimit:4;stroke-dasharray:none;stroke-opacity:1" d="M254.958 590.433s-16.309 68.791-5.64 100.658c8.085 24.147 26.238 47.609 49.339 58.325 16.516 7.661 38.35 8.169 54.62 0 20.212-10.148 34.267-32.682 40.53-54.414 9.287-32.216-7.931-100.27-7.931-100.27"/><path style="fill:#fff;fill-rule:evenodd;stroke:#000;stroke-width:4;stroke-linecap:butt;stroke-linejoin:miter;stroke-miterlimit:4;stroke-dasharray:none;stroke-opacity:1" d="M296.094 645.678c-6.312-1.748-12.821-1.162-18.199 3.17-17.894 14.414 13.404 34.735 23.61 23.773 7.918-8.504 10.125-26.943-5.41-26.943z"/><ellipse style="fill:#000;fill-opacity:1;stroke:#000;stroke-width:1.34574461;stroke-miterlimit:4;stroke-dasharray:none;stroke-opacity:1" cx="288.47" cy="658.885" rx="3.197" ry="3.698"/><path d="M345.545 647.032c6.312-1.749 12.821-1.162 18.199 3.17 17.894 14.414-13.404 34.735-23.61 23.773-7.918-8.504-10.125-26.943 5.41-26.943z" style="fill:#fff;fill-rule:evenodd;stroke:#000;stroke-width:4;stroke-linecap:butt;stroke-linejoin:miter;stroke-miterlimit:4;stroke-dasharray:none;stroke-opacity:1"/><ellipse ry="3.698" rx="3.197" cy="660.239" cx="349.986" style="fill:#000;fill-opacity:1;stroke:#000;stroke-width:1.34574461;stroke-miterlimit:4;stroke-dasharray:none;stroke-opacity:1"/><path style="fill:none;fill-rule:evenodd;stroke:#000;stroke-width:4;stroke-linecap:butt;stroke-linejoin:miter;stroke-miterlimit:4;stroke-dasharray:none;stroke-opacity:1" d="M307.696 684.582c12.15 24.61 25.891-.613 25.532 0"/><g style="stroke-width:4;stroke-miterlimit:4;stroke-dasharray:none"><path d="M111.17 536.139c11.862-6.174 14.728-9.3 15.16-9.84" style="fill:none;fill-rule:evenodd;stroke:#000;stroke-width:4;stroke-linecap:butt;stroke-linejoin:miter;stroke-miterlimit:4;stroke-dasharray:none;stroke-opacity:1" transform="translate(163.95 173.996)"/><path d="M118.085 531.086c23.471 35.016 61.832 30.635 77.66 4.255" style="fill:none;fill-rule:evenodd;stroke:#000;stroke-width:4;stroke-linecap:butt;stroke-linejoin:miter;stroke-miterlimit:4;stroke-dasharray:none;stroke-opacity:1" transform="translate(163.95 173.996)"/><path d="M190.16 528.958c4.812 7.047 5.93 8.057 10.372 12.766" style="fill:none;fill-rule:evenodd;stroke:#000;stroke-width:4;stroke-linecap:butt;stroke-linejoin:miter;stroke-miterlimit:4;stroke-dasharray:none;stroke-opacity:1" transform="translate(163.95 173.996)"/></g><path style="fill:none;fill-rule:evenodd;stroke:#000;stroke-width:3;stroke-linecap:butt;stroke-linejoin:miter;stroke-miterlimit:4;stroke-dasharray:none;stroke-opacity:1" d="m325.497 1116.682-1.504-71.077M307.71 1038.241c4.202 4.98 10.793 7.846 17.301 7.523 6.127-.305 12.058-3.412 15.797-8.275l-.752-.752"/><path style="fill:#241c1c;fill-opacity:1;fill-rule:evenodd;stroke:#000;stroke-width:4;stroke-linecap:butt;stroke-linejoin:miter;stroke-miterlimit:4;stroke-dasharray:none;stroke-opacity:1" d="m315.65 1189.101 1.605 53.79h-30.488a19.433 19.433 0 0 0-5.57-3.753 19.504 19.504 0 0 0-10.477-1.502l-8.023 5.651H179.28c-4.619-4.222-7.595-10.197-8.181-16.427-.587-6.23 1.222-12.656 4.972-17.666 2.82-3.767 6.654-6.7 10.825-8.879 4.17-2.18 8.683-3.636 13.244-4.795a112.942 112.942 0 0 1 48.116-1.605l67.395-4.814zM336.225 1189.816l-1.605 53.79h30.489a19.433 19.433 0 0 1 5.57-3.754 19.504 19.504 0 0 1 10.476-1.502l8.023 5.651h83.418c4.62-4.221 7.595-10.197 8.182-16.427.586-6.23-1.222-12.656-4.972-17.665-2.82-3.768-6.654-6.7-10.825-8.88-4.171-2.179-8.684-3.635-13.245-4.795a112.944 112.944 0 0 0-48.116-1.604l-67.395-4.814z"/><path style="fill:none;fill-rule:evenodd;stroke:#000;stroke-width:4.00000048;stroke-linecap:butt;stroke-linejoin:miter;stroke-miterlimit:4;stroke-dasharray:none;stroke-opacity:1" d="m239.152 861.123 16.296-53.898M410.76 860.051l-14.276-50.866"/><path style="fill:#1a1a1a;fill-rule:evenodd;stroke:#000;stroke-width:3.07435679;stroke-linecap:butt;stroke-linejoin:miter;stroke-miterlimit:4;stroke-dasharray:none;stroke-opacity:1" d="M333.11 573.664c-16.046-8.8-25.104-21.48-55.124-5.435-30.02 11.387-39.855 34.42-48.136 71.428 26.138 12.164 62.111-5.435 62.111-5.435 17.34-5.952 28.468-17.34 40.372-38.82 0 0 15.167 32.985 30.28 40.373 13.022 6.366 43.478-.776 43.478-.776.212-22.192-3.167-39.459-15.528-56.677-.662-7.246-23.513-23.215-38.043-21.739-8.575.871-19.41 17.08-19.41 17.08z"/><path style="fill:none;fill-rule:evenodd;stroke:#000;stroke-width:3.00000024;stroke-linecap:butt;stroke-linejoin:miter;stroke-miterlimit:4;stroke-dasharray:none;stroke-opacity:1" d="M312.205 579.3c-19.014 5.556-37.07-4.222-58.589 41.416"/><path style="fill:none;fill-rule:evenodd;stroke:#000;stroke-width:3.00000024;stroke-linecap:butt;stroke-linejoin:miter;stroke-miterlimit:4;stroke-dasharray:none;stroke-opacity:1" d="M302.103 592.431c-20.034 4.883-25.422 12.796-34.345 25.254M276.85 620.716c14.647-5.051 22.728-12.627 30.304-21.214M372.547 624.507c-6.672-19.512-15.04-24.162-28.253-31.923M384.59 617.383c-6.672-19.511-8.978-25.172-24.212-27.883M366.248 575.259l14.142 13.637"/><path style="fill:#fff;fill-rule:evenodd;stroke:none;stroke-width:1px;stroke-linecap:butt;stroke-linejoin:miter;stroke-opacity:1" d="m399.688 1196.134-19.627 28.704 12.94.043 19.034-29.4zM420.248 1194.945l-17.048 30.647 12.494-.046 16.349-30.736zM250.53 1195.506l19.628 28.703-12.94.043-19.034-29.4zM229.971 1194.317l17.048 30.647-12.494-.046-16.349-30.736z"/><g style="font-style:normal;font-weight:400;font-size:54.26683044px;line-height:125%;font-family:sans-serif;letter-spacing:0;word-spacing:0;fill:#000;fill-opacity:1;stroke:none;stroke-width:1px;stroke-linecap:butt;stroke-linejoin:miter;stroke-opacity:1"><path d="M354.2 1106.257q.104.31 1.19.31h1.653q1.24 0 1.809-.568.879-.879.879-2.326v-1.292h12.197v12.094h-30.7v-11.008q0-5.117 4.858-8.58.724-.517 8.993-4.755 4.91-2.532 4.91-5.22 0-3.824-2.894-3.824-1.55 0-2.171 1.034-.62 1.033-.62 2.635v3.618h-12.042v-11.06q2.687-2.532 7.442-3.824 3.98-1.086 8.373-1.086 6.512 0 10.388 2.843 4.496 3.307 4.496 9.923 0 6.098-4.858 10.13-1.912 1.602-9.096 5.22-4.91 2.48-4.91 4.754 0 .62.103.982zM376.523 1084.086q0-5.892 4.806-8.735 3.876-2.274 10.233-2.274 4.393 0 8.321 1.086 3.98 1.033 6.77 3.41v8.89h-12.3v-2.43q0-1.498-.62-2.066-.568-.62-1.809-.62-1.447 0-2.015.723-.517.724-.517 2.016v1.809q-.052.568-.052.878 0 .775.362 1.24.413.414 1.705.414.982-.052 1.861-.103.879-.104 2.067-.104 5.582 0 8.476 1.912 3.515 2.326 3.515 7.598v8.114q0 4.755-4.342 7.287-3.928 2.274-10.078 2.274-6.564 0-11.008-2.325-5.375-2.843-5.375-8.063v-20.931zm12.662 20.776q0 .982.93 1.55.982.569 2.12.569 1.033 0 1.808-.568.775-.62.775-1.603v-5.84q0-1.499-.671-2.067-.672-.569-1.861-.569-1.395 0-2.274.517-.827.517-.827 1.55v6.461z" style="font-style:normal;font-variant:normal;font-weight:100;font-stretch:normal;font-family:AcmeFont;-inkscape-font-specification:'AcmeFont Thin';fill:green"/></g><path style="fill:#006c35;fill-rule:evenodd;stroke:#000;stroke-opacity:1;stroke-width:2.00000018;stroke-miterlimit:4;stroke-dasharray:none" d="M347.094 785.157h42v28h-42z"/><path style="fill:#fff;fill-rule:evenodd" d="M357.679 793.094c-.049.654-.107 1.805.449 1.923.672.065.302-1.138.545-1.356.046-.108.13-.108.138.028v1.02c-.006.331.211.43.38.498.177-.014.295-.008.364.163l.083 1.765s.408.117.428-.993c.02-.65-.13-1.196-.042-1.323.003-.124.162-.132.272-.071.176.124.254.277.527.215.415-.114.665-.316.672-.635-.025-.303-.059-.606-.19-.91.018-.055-.08-.198-.062-.253.074.117.188.107.214 0-.07-.233-.18-.457-.358-.553-.147-.13-.362-.103-.441.167-.037.312.112.681.339.983.048.118.115.313.086.49-.121.068-.241.04-.343-.067 0 0-.33-.248-.33-.303.087-.562.019-.626-.03-.782-.034-.215-.136-.284-.219-.431-.082-.088-.194-.088-.248 0-.146.253-.078.797.028 1.04.076.225.193.366.138.366-.046.126-.14.097-.208-.05-.097-.301-.117-.752-.117-.955-.029-.252-.061-.788-.227-.925-.1-.138-.25-.07-.303.055-.01.25-.012.5.016.73.114.404.15.759.205 1.172.015.554-.32.24-.305-.034.077-.357.057-.918-.012-1.06-.054-.143-.119-.178-.251-.155-.105-.006-.376.29-.452.78 0 0-.065.253-.093.478-.037.253-.204.431-.32-.036-.102-.34-.164-1.178-.333-.981z"/><path style="fill:#fff;fill-rule:evenodd" d="M359.505 795.777c-.593.29-1.167.56-1.75.841.021-.396.832-1.113 1.385-1.123.36.01.27.14.365.282z"/><path style="fill:#fff;fill-rule:evenodd" d="M359.2 796.326c-.923 2.378 2.16 2.71 2.505.097.032-.107.162-.214.185-.039-.071 2.366-2.385 2.528-2.778 1.784-.098-.175-.127-.565-.137-.8-.058-.464-.302-.285-.34.176-.04.257-.03.329-.03.575.124 1.869 3.103 1.066 3.587-.477.256-.855-.042-1.485.097-1.482.296.318.709.042.8-.068.038-.055.136-.091.204-.02.23.167.637.088.721-.204.05-.286.088-.582.098-.887-.189.059-.328.098-.341.175l-.039.254c-.016.081-.179.084-.185-.02-.072-.325-.368-.367-.546.137-.12.097-.338.117-.36-.03.029-.337-.108-.383-.381-.224-.088-.67-.175-1.31-.263-1.978.114-.003.218.081.322-.05-.114-.353-.354-1.078-.488-1.13-.065-.078-.12-.03-.204-.01-.143.046-.276.169-.235.41.17 1.026.28 1.809.45 2.836.025.12-.076.28-.206.263-.22-.15-.276-.452-.653-.439-.273.003-.585.3-.624.585-.045.227-.061.475 0 .673.192.23.423.208.624.156.166-.069.303-.234.36-.195.04.048.01.594-.779 1.013-.477.215-.858.264-1.062-.126-.127-.244.01-1.17-.303-.955z"/><path style="fill:#fff;fill-rule:evenodd" d="M363.113 793.908c.185-.068 1.063-1.071 1.063-1.071-.046-.04-.087-.069-.132-.108-.049-.042-.044-.084 0-.127.217-.126.147-.404.034-.53a.532.532 0 0 0-.473.004c-.152.146-.188.38-.068.526.117.056.234.174.156.239-.359.384-1.342 1.045-1.228 1.067.024.033.629.031.648 0zM357.815 797.461c-.33.524-.357 1.307-.176 1.541.096.11.255.159.372.124.207-.09.297-.508.248-.662-.069-.108-.123-.125-.192-.033-.145.296-.206.093-.218-.073a3.761 3.761 0 0 1 .041-.829c.036-.234-.001-.162-.075-.068zM371.875 796.622c-.319-.685-.759-1.362-.899-1.621-.14-.26-1.198-1.796-1.354-1.969-.343-.408.558.17-.114-.64-.256-.22-.27-.233-.484-.413-.107-.076-.369-.215-.415.015-.024.204-.01.314.023.484.026.112.19.3.271.41 1.073 1.443 2.025 2.9 2.943 4.732.145-.07.113-.884.029-.998z"/><path style="fill:#fff;fill-rule:evenodd" d="M370.478 798.913c-.062.07.155.37.437.37.472-.055.886-.32 1.27-1.017.103-.163.284-.51.29-.78.035-1.582-.08-2.813-.317-3.956-.015-.112-.006-.242.013-.276.031-.036.134 0 .19-.09.08-.082-.215-.764-.382-1.026-.06-.118-.081-.195-.18.013-.104.17-.174.468-.165.745.225 1.557.294 2.92.44 4.478.013.15-.01.37-.11.457-.37.387-.904.862-1.486 1.082zM376.849 798.904c-.338.196-.339.421-.065.43.471-.055 1.029-.094 1.413-.675.103-.163.225-.602.23-.872.036-1.582-.02-2.763-.258-3.906-.015-.111-.064-.368-.045-.401.03-.078.184.008.24-.082.08-.082-.399-.697-.567-.96-.06-.117-.08-.195-.179.015-.104.17-.14.475-.099.744.25 1.691.437 2.962.475 4.461-.021.142-.027.22-.093.398-.148.19-.312.426-.465.54-.153.115-.48.224-.587.308z"/><path style="fill:#fff;fill-rule:evenodd" d="M377.103 797.388c-.004-.395.006-.737-.007-1.032a1.85 1.85 0 0 0-.168-.745c-.096-.224-.036-.404-.082-.644-.045-.239-.034-.597-.103-.88-.018-.111-.076-.466-.058-.5.028-.08.134.002.187-.09.077-.085-.27-.984-.447-1.241-.064-.115-.179-.076-.321.11-.132.125-.082.406-.032.673.338 1.766.59 3.364.535 5.045-.016.143.5-.426.496-.696zM374.602 795.198c-.213-.004-.659-.415-.788-.655a.442.442 0 0 1 .025-.351c.079-.052.2-.11.29-.054 0 0 .095.132.077.149.116.056.165.023.177-.024.008-.083-.034-.132-.035-.223.05-.247.332-.286.438-.128.078.096.107.3.119.438-.001.07-.115-.012-.18.005-.065.017-.081.091-.086.159-.011.18-.033.467-.037.684zM370.674 797.827c.059-.538-.021-1.495-.027-1.812-.021-.75-.144-2.196-.202-2.438-.066-.456.187.05.152-.215-.081-.455-.334-.764-.63-1.18-.096-.136-.093-.164-.24.032-.164.371-.023.626.02.915.213.941.338 1.807.396 2.663.058.856.076 1.781.023 2.683.16.006.418-.26.508-.648z"/><path style="fill:#fff;fill-rule:evenodd" d="M377.827 796.966c-.376-.63-.942-1.312-1.093-1.566-.151-.253-1.43-1.904-1.594-2.07-.468-.492.215-.08-.09-.46-.257-.282-.332-.371-.552-.541-.11-.072-.178-.208-.214.024-.015.205-.03.44-.016.613 0 .095.099.275.185.38 1.135 1.396 2.373 2.82 3.369 4.61.142-.076.095-.88.005-.99z"/><path style="fill:#006c35;fill-rule:evenodd" d="M360.799 795.804c-.028.047-.087.109-.068.172.043.058.077.069.147.072.06 0 .146.014.164-.022a.18.18 0 0 0 .03-.18c-.063-.158-.24-.098-.273-.042z"/><path style="fill:#fff;fill-rule:evenodd" d="M373.463 804.983c.502.019.83.023 1.277.076 0 0 .385-.038.523-.059.58-.055.606.83.606.83-.006.52-.206.546-.463.602-.146.018-.222-.088-.3-.201-.096.04-.227.046-.385.024-.21-.013-.42-.012-.628-.025-.222-.02-.34.023-.563.003-.045.072-.105.171-.24.14-.114-.013-.248-.33-.208-.571.081-.174.059-.118.05-.194-2.052-.053-4.124-.144-6.137-.118-1.575.007-3.13.072-4.686.138-.83-.014-1.464-.144-1.902-.785.04 0 2.118.118 2.726.079 1.124-.013 2.15-.105 3.294-.138 2.255.04 4.49.04 6.744.196-.215-.147-.223-.496.11-.581.027-.02.042.173.092.17.265-.02.149.34.09.414zM364.41 792.555c-.341.976.196 2.045.569 1.94.27.112.44-.4.55-.96.075-.157.132-.174.171-.093-.01.745.054.91.245 1.136.428.33.78.042.809.015l.333-.333c.073-.078.172-.082.277-.014.101.093.087.252.304.363.184.073.576.017.667-.141.121-.209.15-.281.207-.36.087-.117.236-.065.236-.028-.014.064-.101.13-.042.246.104.078.128.027.189.01.217-.104.38-.575.38-.575.01-.175-.089-.161-.153-.125-.083.051-.088.067-.172.118-.106.016-.311.086-.413-.071-.104-.19-.105-.454-.185-.644 0-.014-.137-.301-.01-.32.065.013.203.049.225-.067.068-.114-.145-.434-.291-.597-.127-.139-.302-.155-.471-.013-.119.109-.102.23-.125.346a.54.54 0 0 0 .111.472c.118.233.334.534.263.956 0 0-.126.2-.346.174-.091-.02-.24-.059-.32-.645-.06-.444.015-1.064-.173-1.356-.069-.175-.118-.345-.284-.044-.044.118-.236.297-.097.665.114.234.16.614.108 1.037-.078.12-.096.16-.199.28-.145.156-.302.116-.422.059-.112-.076-.2-.115-.252-.356.01-.384.031-1.011-.04-1.145-.102-.206-.273-.131-.346-.069-.35.32-.522.86-.628 1.29-.097.312-.2.223-.272.096-.177-.165-.19-1.46-.403-1.247z"/><path style="fill:#fff;fill-rule:evenodd" d="M365.44 794.678c.155-.11.082-.187.314.045.29.497.477 1.14.506 1.71-.013.14.086.23.132.199.026-.33.828-.79 1.563-.856.113-.025.058-.24.076-.35-.044-.408.23-.78.613-.81.521.078.695.356.704.78-.056.817-.906.955-1.384 1.02-.073.029-.104.062 0 .102l2.001.009.102.06c.013.047-.029.007-.108.138-.079.13-.195.43-.201.63-.597.191-1.213.275-1.84.351-.218.11-.326.257-.281.422.073.183.555.367.555.375.092.058.2.191-.026.466-.976-.043-1.732-.458-1.994-1.044-.079-.061-.164 0-.218.079-.381.49-.757.933-1.406 1.168-.388.097-.784-.06-.972-.313-.125-.144-.12-.304-.166-.338-.21.092-2.012.858-1.784.501.439-.47 1.198-.814 1.869-1.278.048-.155.136-.68.401-.851.015.002-.042.308-.036.438.003.106-.007.148.015.12.045-.028.86-.668.922-.864.08-.112.024-.397.024-.406-.153-.393-.367-.426-.446-.622-.072-.26-.039-.556.11-.638.13-.12.287-.105.431.026.164.147.31.435.352.649-.028.085-.215-.056-.28-.014.116.119.169.255.21.423.107.45.074.624-.033.914-.361.76-.823.986-1.226 1.267-.012.004-.019.194.133.296.053.054.263.083.511.004.479-.262.976-.743 1.223-1.278.071-.406-.028-.836-.133-1.21-.16-.367-.346-.89-.346-.898-.006-.23.012-.308.112-.422zM360.2 792.565c.23.11.663.063.645-.308 0-.033-.008-.144-.011-.174-.048-.11-.176-.082-.205.03-.01.038.017.098-.017.116-.02.02-.093.008-.09-.094 0-.033-.024-.068-.038-.089-.015-.01-.025-.012-.05-.012-.033.002-.032.01-.05.037-.007.027-.018.054-.018.085-.004.037-.017.05-.044.055-.03 0-.023.003-.048-.012-.014-.016-.032-.022-.032-.049a.28.28 0 0 0-.015-.091c-.013-.017-.033-.025-.057-.03-.125 0-.134.143-.127.198-.01.01-.015.267.157.338z"/><path style="fill:#fff;fill-rule:evenodd" d="M366.952 795.423c.23.11.779.047.645-.308 0-.033-.008-.144-.012-.174-.046-.11-.175-.083-.204.03-.009.038.017.098-.017.117-.02.019-.093.008-.09-.095 0-.033-.024-.068-.038-.089-.015-.01-.024-.012-.05-.012-.033.001-.032.01-.05.037-.007.027-.017.054-.017.085-.005.037-.018.05-.045.055-.03 0-.024.003-.048-.012-.015-.016-.033-.022-.033-.049a.285.285 0 0 0-.014-.091c-.013-.017-.033-.025-.056-.03-.126 0-.135.143-.128.197-.01.011-.014.269.157.34zM370.89 794.24c.23.11.663.064.644-.308 0-.033-.008-.144-.01-.174-.048-.11-.176-.083-.205.03-.01.037.016.098-.018.116-.019.02-.092.008-.09-.094 0-.033-.024-.068-.038-.088-.015-.01-.024-.013-.05-.013-.032.001-.032.01-.05.037-.007.028-.017.054-.017.085-.004.037-.018.05-.045.055-.03 0-.023.003-.047-.012-.015-.016-.033-.022-.033-.049a.287.287 0 0 0-.015-.092c-.013-.016-.033-.024-.056-.03-.126 0-.134.144-.127.199-.01.01-.015.267.156.338zM372.929 797.211c-.402.453-.225 1.201-.134 1.362.132.265.24.435.497.566.234.172.417.065.518-.056.236-.245.238-.87.35-.994.077-.227.273-.188.368-.087.092.132.2.218.336.29.22.194.483.23.742.052.176-.099.292-.228.395-.482.116-.308.051-1.73.028-2.574-.008-.066-.228-1.16-.228-1.172 0-.012-.03-.558-.054-.688-.004-.053-.017-.068.038-.061.059.05.067.052.104.069.059.01.112-.09.076-.183l-.55-1.014c-.043-.043-.1-.091-.17.013a.397.397 0 0 0-.136.3c.016.24.058.485.075.725l.22 1.234c.069.879.086 1.598.155 2.478-.01.372-.125.696-.234.743 0 0-.165.096-.276-.01-.08-.032-.403-.537-.403-.537-.165-.151-.273-.108-.39 0-.324.312-.47.896-.69 1.3-.056.09-.217.166-.395-.008-.45-.615-.186-1.491-.242-1.266zM370.993 792.084c.206.086.352.504.304.709-.04.252-.15.524-.229.489-.086-.032.058-.251-.024-.481-.045-.15-.327-.423-.298-.504-.058-.169.12-.243.247-.213z"/><path style="fill:#fff;fill-rule:evenodd" d="M373.593 797.46c.043-.503-.03-.809-.043-1.104-.012-.295-.334-2.546-.398-2.77-.079-.422.311-.056.269-.301-.135-.31-.472-.76-.577-1.03-.063-.114-.037-.217-.178-.03-.133.43-.178.783-.128 1.05.339 1.766.686 3.235.63 4.916.16 0 .346-.368.425-.732zM377.119 792.795c.188.093.299.618.278.767-.038.274-.137.569-.21.53-.077-.034.016-.405-.021-.52-.042-.163-.298-.459-.272-.546-.052-.183.11-.263.225-.23zM363.137 796.51c.18.069.286.454.266.563-.036.201-.132.419-.2.39-.075-.025.015-.298-.021-.382-.016-.206-.265-.313-.26-.402-.046-.163.104-.193.215-.169z"/><path style="fill:#006c35;fill-rule:evenodd" d="M367.485 797.088c.232.015.348.196.131.273-.215.074-.421.131-.422.441.08.432-.11.284-.22.225-.134-.095-.505-.323-.557-.817-.008-.118.083-.217.231-.217.223.061.552.065.837.095z"/><path style="fill:#fff;fill-rule:evenodd" d="M358.327 791.96c.266.08.282.47.262.584-.036.208-.13.433-.197.403-.074-.026-.003-.309-.038-.396-.04-.124-.264-.35-.239-.416-.05-.14.104-.2.212-.176zM363.57 793.8c-.203.11-.282.438-.155.629.118.169.306.106.33.106.2.025.318-.374.318-.374s.006-.112-.23.1c-.1.018-.112-.019-.138-.075a.493.493 0 0 1 .031-.312c.036-.1-.04-.143-.155-.075zM365.099 791.808c-.103.069-.306.28-.313.523-.006.138-.031.137.059.224.064.094.13.086.26.017a.28.28 0 0 0 .127-.185c.03-.156-.165.074-.19-.1-.043-.16.082-.227.2-.383.005-.107.002-.182-.143-.096zM366.33 792.027c-.044.098-.097.607-.088.607-.035.152.158.216.247.021.132-.357.132-.509.14-.66-.04-.232-.197-.224-.3.032zM374.09 795.977c.027-.027 1.095-.786 1.095-.786.108-.038.085.392.035.389.02.085-1.052.814-1.13.784-.052.039-.105-.294 0-.387zM375.064 795.97c.188.094.263.644.243.794.007.29-.182.524-.254.486-.078-.034.007-.361-.03-.477-.042-.162-.202-.467-.175-.554-.053-.183.1-.28.216-.249zM368.716 798.34c.075-.108.304-.264.309-.264.105-.053.21.04.202.035.019.106-.066.204-.04.345.023.057.04.12.144.096.17-.133.327-.141.496-.15.13.008.135.228.054.23-.314.067-.454.151-.677.236-.106.062-.197-.017-.197-.025 0-.01-.062-.06-.018-.2.007-.113-.038-.174-.132-.162-.07.038-.132.064-.168-.017-.014-.06-.018-.09.027-.124zM376.187 798.636c.046.058.075.113-.004.208-.075.069-.127.107-.202.175-.035.06-.058.152.05.181.2.056.661-.243.661-.25.075-.056.05-.162.044-.162-.044-.05-.143-.02-.209-.028-.031 0-.134-.016-.085-.107a.64.64 0 0 0 .084-.162c.03-.069.004-.114-.109-.152-.114-.02-.16-.01-.286 0-.069.015-.092.046-.105.129.005.126.082.119.161.168z"/><ellipse style="fill:#259f00;fill-rule:evenodd" transform="rotate(30.045)" cx="717.322" cy="504.009" rx=".194" ry=".106"/><ellipse style="fill:#006c35;fill-rule:evenodd" transform="matrix(.41447 .91006 -.9713 .23788 0 0)" cx="871.487" cy="-2.7" rx=".148" ry=".103"/><path style="fill:#209000;fill-rule:evenodd" d="M373.522 805.663c.511.025.992.006 1.503.03.093.08.026.273-.035.26-.167-.006-.262-.009-.428-.013-.006-.163-.422-.136-.41.005-.224.027-.427-.008-.652-.017-.066-.082-.057-.231.022-.265z"/></g></svg>