<?xml version="1.0" encoding="UTF-8" standalone="no"?>
<!-- Created with Inkscape (http://www.inkscape.org/) -->

<svg
   xmlns:dc="http://purl.org/dc/elements/1.1/"
   xmlns:cc="http://creativecommons.org/ns#"
   xmlns:rdf="http://www.w3.org/1999/02/22-rdf-syntax-ns#"
   xmlns:svg="http://www.w3.org/2000/svg"
   xmlns="http://www.w3.org/2000/svg"
   xmlns:sodipodi="http://sodipodi.sourceforge.net/DTD/sodipodi-0.dtd"
   xmlns:inkscape="http://www.inkscape.org/namespaces/inkscape"
   width="88.589127mm"
   height="195.0311mm"
   viewBox="0 0 313.89849 691.05507"
   id="svg2"
   version="1.1"
   inkscape:version="0.91 r13725"
   sodipodi:docname="soccer_saudi arabia.svg"
   inkscape:export-filename="F:\daten\Dokumente\Schule\Fußballer\soccer_saudi arabia.png"
   inkscape:export-xdpi="114.73759"
   inkscape:export-ydpi="114.73759">
  <defs
     id="defs4">
    <inkscape:path-effect
       effect="spiro"
       id="path-effect4138"
       is_visible="true" />
    <inkscape:path-effect
       effect="spiro"
       id="path-effect4192-6-2"
       is_visible="true" />
    <inkscape:path-effect
       effect="spiro"
       id="path-effect4192-3-1"
       is_visible="true" />
    <inkscape:path-effect
       effect="spiro"
       id="path-effect4192-2"
       is_visible="true" />
    <inkscape:path-effect
       effect="spiro"
       id="path-effect4192-6"
       is_visible="true" />
    <inkscape:path-effect
       effect="spiro"
       id="path-effect4192-3"
       is_visible="true" />
    <inkscape:path-effect
       effect="spiro"
       id="path-effect4192"
       is_visible="true" />
    <inkscape:path-effect
       is_visible="true"
       id="path-effect4188"
       effect="spiro" />
    <inkscape:path-effect
       effect="spiro"
       id="path-effect4184"
       is_visible="true" />
    <inkscape:path-effect
       effect="spiro"
       id="path-effect4176"
       is_visible="true" />
    <inkscape:path-effect
       effect="spiro"
       id="path-effect4172"
       is_visible="true" />
    <inkscape:path-effect
       effect="spiro"
       id="path-effect4162"
       is_visible="true" />
    <inkscape:path-effect
       effect="spiro"
       id="path-effect4158"
       is_visible="true" />
    <inkscape:path-effect
       effect="spiro"
       id="path-effect4157-7"
       is_visible="true" />
    <inkscape:path-effect
       effect="spiro"
       id="path-effect4157"
       is_visible="true" />
    <inkscape:path-effect
       effect="spiro"
       id="path-effect4180"
       is_visible="true" />
    <inkscape:path-effect
       effect="spiro"
       id="path-effect4273"
       is_visible="true" />
    <inkscape:path-effect
       effect="spiro"
       id="path-effect4269"
       is_visible="true" />
    <inkscape:path-effect
       effect="spiro"
       id="path-effect4302"
       is_visible="true" />
    <inkscape:path-effect
       effect="spiro"
       id="path-effect4306"
       is_visible="true" />
    <inkscape:path-effect
       effect="spiro"
       id="path-effect4310"
       is_visible="true" />
    <inkscape:path-effect
       effect="spiro"
       id="path-effect4302-2"
       is_visible="true" />
    <inkscape:path-effect
       effect="spiro"
       id="path-effect4306-8"
       is_visible="true" />
    <inkscape:path-effect
       effect="spiro"
       id="path-effect4310-6"
       is_visible="true" />
  </defs>
  <sodipodi:namedview
     id="base"
     pagecolor="#ffffff"
     bordercolor="#666666"
     borderopacity="1.0"
     inkscape:pageopacity="0.0"
     inkscape:pageshadow="2"
     inkscape:zoom="0.7"
     inkscape:cx="-460.43213"
     inkscape:cy="375.95972"
     inkscape:document-units="px"
     inkscape:current-layer="layer1"
     showgrid="false"
     fit-margin-top="0"
     fit-margin-left="0"
     fit-margin-right="0"
     fit-margin-bottom="0"
     inkscape:window-width="1920"
     inkscape:window-height="1017"
     inkscape:window-x="-8"
     inkscape:window-y="-8"
     inkscape:window-maximized="1" />
  <metadata
     id="metadata7">
    <rdf:RDF>
      <cc:Work
         rdf:about="">
        <dc:format>image/svg+xml</dc:format>
        <dc:type
           rdf:resource="http://purl.org/dc/dcmitype/StillImage" />
        <dc:title />
      </cc:Work>
    </rdf:RDF>
  </metadata>
  <g
     inkscape:label="Ebene 1"
     inkscape:groupmode="layer"
     id="layer1"
     transform="translate(-168.9885,-554.94629)">
    <ellipse
       style="fill:#e9c6af;fill-opacity:1;stroke:#000000;stroke-width:4.22298098;stroke-miterlimit:4;stroke-dasharray:none;stroke-opacity:1"
       id="path4387-0"
       cx="398.57144"
       cy="654.07648"
       rx="12.333632"
       ry="14.479342" />
    <ellipse
       style="fill:#e9c6af;fill-opacity:1;stroke:#000000;stroke-width:4.22298098;stroke-miterlimit:4;stroke-dasharray:none;stroke-opacity:1"
       id="path4387-0-4"
       cx="247.14287"
       cy="654.64789"
       rx="12.333632"
       ry="14.479342" />
    <ellipse
       style="fill:#e9c6af;fill-opacity:1;stroke:#000000;stroke-width:4.00000048;stroke-miterlimit:4;stroke-dasharray:none;stroke-opacity:1"
       id="path4250"
       cx="220.98157"
       cy="987.77747"
       rx="33.850857"
       ry="36.859821" />
    <ellipse
       style="fill:#e9c6af;fill-opacity:1;stroke:#000000;stroke-width:3;stroke-miterlimit:4;stroke-dasharray:none;stroke-opacity:1"
       id="path4250-7"
       cx="430.85687"
       cy="994.54761"
       rx="33.850857"
       ry="36.859821" />
    <path
       style="fill:#e9c6af;fill-opacity:1;fill-rule:evenodd;stroke:#000000;stroke-width:4.00000048;stroke-linecap:butt;stroke-linejoin:miter;stroke-miterlimit:4;stroke-dasharray:none;stroke-opacity:1"
       d="m 245.02983,978.8146 1.01016,-126.77414 -54.04317,4.04061 3.39812,109.66719"
       id="path6385"
       inkscape:connector-curvature="0"
       sodipodi:nodetypes="cccc" />
    <path
       style="fill:#e9c6af;fill-opacity:1;fill-rule:evenodd;stroke:#000000;stroke-width:4.00000048;stroke-linecap:butt;stroke-linejoin:miter;stroke-miterlimit:4;stroke-dasharray:none;stroke-opacity:1"
       d="m 402.40576,980.57983 -1.01016,-126.77415 54.04317,4.04061 -3.39812,109.6672"
       id="path6385-0"
       inkscape:connector-curvature="0"
       sodipodi:nodetypes="cccc" />
    <path
       style="fill:#e9c6af;fill-opacity:1;fill-rule:evenodd;stroke:#000000;stroke-width:4.00000048;stroke-linecap:butt;stroke-linejoin:miter;stroke-miterlimit:4;stroke-dasharray:none;stroke-opacity:1"
       d="m 312.32683,1214.8655 4.58159,-120.3455 -73.32888,-2.388 9.1124,108.9529"
       id="path6385-4"
       inkscape:connector-curvature="0"
       sodipodi:nodetypes="cccc" />
    <path
       style="fill:#e9c6af;fill-opacity:1;fill-rule:evenodd;stroke:#000000;stroke-width:4.00000048;stroke-linecap:butt;stroke-linejoin:miter;stroke-miterlimit:4;stroke-dasharray:none;stroke-opacity:1"
       d="m 337.73084,1214.2016 -4.58159,-120.3456 73.32889,-2.388 -9.1124,108.953"
       id="path6385-4-8"
       inkscape:connector-curvature="0"
       sodipodi:nodetypes="cccc" />
    <path
       style="fill:#f9f9f9;fill-opacity:1;fill-rule:evenodd;stroke:#000000;stroke-width:4;stroke-linecap:butt;stroke-linejoin:miter;stroke-miterlimit:4;stroke-dasharray:none;stroke-opacity:1"
       d="m 240.53983,949.99181 c 61.16302,0.77236 109.82713,-5.11572 166.24531,-1.50448 17.42484,67.21087 7.73954,86.48677 6.01793,170.64547 -46.66599,15.4996 -72.16179,1.6334 -88.01223,-3.7612 -22.05292,16.5823 -86.91318,10.2055 -87.25997,6.7701 -11.12659,-148.263 2.64065,-165.7477 3.00896,-172.14989 z"
       id="path4154"
       inkscape:connector-curvature="0"
       sodipodi:nodetypes="cccccc" />
    <path
       style="fill:#ffffff;fill-opacity:1;fill-rule:evenodd;stroke:#000000;stroke-width:4.00000048;stroke-linecap:butt;stroke-linejoin:miter;stroke-miterlimit:4;stroke-dasharray:none;stroke-opacity:1"
       d="m 240.16215,731.04328 c 0,0 -44.3934,56.93725 -55.71429,130 -0.45095,2.91034 54.70414,-0.63506 54.70414,-0.63506 l -6.42857,114.28571 182.85714,1.42857 -4.28571,-116.42857 49.28571,0 C 439.93107,777.02242 430.39324,771.1225 407.72343,726.83679 Z"
       id="path6383"
       inkscape:connector-curvature="0"
       sodipodi:nodetypes="csccccccc" />
    <path
       style="fill:#e9c6af;fill-opacity:1;fill-rule:evenodd;stroke:#000000;stroke-width:4;stroke-linecap:butt;stroke-linejoin:miter;stroke-miterlimit:4;stroke-dasharray:none;stroke-opacity:1"
       d="m 286.202,740.77178 74.28571,-1.42857 c 0,0 -2.25735,37.33743 -34.28571,37.22009 -33.56347,-0.12296 -40,-35.79152 -40,-35.79152 z"
       id="path5606"
       inkscape:connector-curvature="0"
       sodipodi:nodetypes="ccsc" />
    <path
       style="fill:#e9c6af;fill-rule:evenodd;stroke:#000000;stroke-width:4;stroke-linecap:butt;stroke-linejoin:miter;stroke-miterlimit:4;stroke-dasharray:none;stroke-opacity:1"
       d="m 254.95849,590.43341 c 0,0 -16.30943,68.7907 -5.64041,100.65712 8.08465,24.14739 26.23834,47.60922 49.33877,58.32502 16.51636,7.66159 38.34934,8.16919 54.62062,0 20.212,-10.14767 34.26641,-32.68155 40.53032,-54.41318 9.28601,-32.21632 -7.93181,-100.27053 -7.93181,-100.27053"
       id="path4140"
       inkscape:connector-curvature="0"
       sodipodi:nodetypes="caaaac" />
    <path
       style="fill:#ffffff;fill-rule:evenodd;stroke:#000000;stroke-width:4;stroke-linecap:butt;stroke-linejoin:miter;stroke-miterlimit:4;stroke-dasharray:none;stroke-opacity:1"
       d="m 296.0943,645.67807 c -6.31189,-1.74857 -12.82162,-1.16196 -18.199,3.16973 -17.8941,14.41441 13.40326,34.73506 23.60951,23.77301 7.91779,-8.50413 10.12548,-26.94274 -5.41051,-26.94274 z"
       id="path4864"
       inkscape:connector-curvature="0" />
    <ellipse
       style="fill:#000000;fill-opacity:1;stroke:#000000;stroke-width:1.34574461;stroke-miterlimit:4;stroke-dasharray:none;stroke-opacity:1"
       id="path4866"
       cx="288.47037"
       cy="658.88531"
       rx="3.1971221"
       ry="3.6980233" />
    <path
       inkscape:connector-curvature="0"
       id="path4874"
       d="m 345.54466,647.03204 c 6.31189,-1.74857 12.82162,-1.16196 18.199,3.16974 17.8941,14.4144 -13.40326,34.73505 -23.60951,23.773 -7.91779,-8.50413 -10.12548,-26.94274 5.41051,-26.94274 z"
       style="fill:#ffffff;fill-rule:evenodd;stroke:#000000;stroke-width:4;stroke-linecap:butt;stroke-linejoin:miter;stroke-miterlimit:4;stroke-dasharray:none;stroke-opacity:1" />
    <ellipse
       ry="3.6980233"
       rx="3.1971221"
       cy="660.23932"
       cx="349.98553"
       id="ellipse4876"
       style="fill:#000000;fill-opacity:1;stroke:#000000;stroke-width:1.34574461;stroke-miterlimit:4;stroke-dasharray:none;stroke-opacity:1" />
    <path
       style="fill:none;fill-rule:evenodd;stroke:#000000;stroke-width:4;stroke-linecap:butt;stroke-linejoin:miter;stroke-miterlimit:4;stroke-dasharray:none;stroke-opacity:1"
       d="m 307.69574,684.58226 c 12.15021,24.61042 25.89155,-0.6135 25.53191,0"
       id="path4878"
       inkscape:connector-curvature="0"
       sodipodi:nodetypes="cc" />
    <g
       id="g4889"
       transform="translate(163.94966,173.99639)"
       style="stroke-width:4;stroke-miterlimit:4;stroke-dasharray:none">
      <path
         inkscape:connector-curvature="0"
         id="path4882"
         d="m 111.17021,536.1388 c 11.86211,-6.17337 14.72731,-9.3001 15.15957,-9.84043"
         style="fill:none;fill-rule:evenodd;stroke:#000000;stroke-width:4;stroke-linecap:butt;stroke-linejoin:miter;stroke-miterlimit:4;stroke-dasharray:none;stroke-opacity:1"
         sodipodi:nodetypes="cc" />
      <path
         inkscape:connector-curvature="0"
         id="path4884"
         d="m 118.08511,531.08561 c 23.47092,35.01681 61.83175,30.63501 77.65957,4.25532"
         style="fill:none;fill-rule:evenodd;stroke:#000000;stroke-width:4;stroke-linecap:butt;stroke-linejoin:miter;stroke-miterlimit:4;stroke-dasharray:none;stroke-opacity:1" />
      <path
         inkscape:connector-curvature="0"
         id="path4886"
         d="m 190.15957,528.95795 c 4.81235,7.04684 5.9297,8.05735 10.37235,12.76596"
         style="fill:none;fill-rule:evenodd;stroke:#000000;stroke-width:4;stroke-linecap:butt;stroke-linejoin:miter;stroke-miterlimit:4;stroke-dasharray:none;stroke-opacity:1"
         sodipodi:nodetypes="cc" />
    </g>
    <path
       style="fill:none;fill-rule:evenodd;stroke:#000000;stroke-width:3;stroke-linecap:butt;stroke-linejoin:miter;stroke-miterlimit:4;stroke-dasharray:none;stroke-opacity:1"
       d="m 325.49745,1116.6817 -1.50449,-71.0765"
       id="path4156"
       inkscape:path-effect="#path-effect4158"
       inkscape:original-d="m 325.49745,1116.6817 -1.50449,-71.0765"
       inkscape:connector-curvature="0"
       sodipodi:nodetypes="cc" />
    <path
       style="fill:none;fill-rule:evenodd;stroke:#000000;stroke-width:3;stroke-linecap:butt;stroke-linejoin:miter;stroke-miterlimit:4;stroke-dasharray:none;stroke-opacity:1"
       d="m 307.70961,1038.2412 c 4.20202,4.9799 10.79371,7.8459 17.30155,7.5224 6.12655,-0.3045 12.05833,-3.4117 15.79707,-8.2747 l -0.75224,-0.7522"
       id="path4160"
       inkscape:path-effect="#path-effect4162"
       inkscape:original-d="m 307.70961,1038.2412 c 0,0 11.01696,7.75 17.30155,7.5224 5.94045,-0.2151 15.79707,-8.2747 15.79707,-8.2747 l -0.75224,-0.7522"
       inkscape:connector-curvature="0"
       sodipodi:nodetypes="cscc" />
    <path
       style="fill:#241c1c;fill-opacity:1;fill-rule:evenodd;stroke:#000000;stroke-width:4;stroke-linecap:butt;stroke-linejoin:miter;stroke-miterlimit:4;stroke-dasharray:none;stroke-opacity:1"
       d="m 315.65033,1189.1014 1.60465,53.7903 -30.48819,0 c -1.61985,-1.5618 -3.51398,-2.8384 -5.56957,-3.7537 -3.26437,-1.4535 -6.93558,-1.9798 -10.47684,-1.502 l -8.02321,5.6511 -83.41815,0 c -4.6189,-4.2219 -7.5947,-10.1972 -8.18117,-16.4273 -0.58647,-6.2302 1.22199,-12.6558 4.97189,-17.6655 2.82009,-3.7675 6.65396,-6.6997 10.82494,-8.8792 4.17098,-2.1794 8.68367,-3.6356 13.24467,-4.7951 15.67405,-3.9846 32.21134,-4.5361 48.11604,-1.6046 l 67.39494,-4.814 z"
       id="path4300"
       inkscape:path-effect="#path-effect4302"
       inkscape:original-d="m 315.65033,1189.1014 1.60465,53.7903 -30.48819,0 c 0,0 -0.60452,0.4524 -5.56957,-3.7537 -3.26499,-2.7658 -10.47684,-1.502 -10.47684,-1.502 l -8.02321,5.6511 -83.41815,0 c 0,0 -8.48177,-23.969 -3.20928,-34.0928 4.26231,-8.1842 15.18874,-11.1687 24.06961,-13.6743 15.44465,-4.3575 48.11604,-1.6046 48.11604,-1.6046 z"
       inkscape:connector-curvature="0"
       sodipodi:nodetypes="cccscccaacc" />
    <path
       style="fill:#241c1c;fill-opacity:1;fill-rule:evenodd;stroke:#000000;stroke-width:4;stroke-linecap:butt;stroke-linejoin:miter;stroke-miterlimit:4;stroke-dasharray:none;stroke-opacity:1"
       d="m 336.22513,1189.8157 -1.60465,53.7903 30.48819,0 c 1.61985,-1.5618 3.51398,-2.8384 5.56957,-3.7537 3.26437,-1.4535 6.93558,-1.9798 10.47684,-1.502 l 8.02321,5.6511 83.41815,0 c 4.61894,-4.2219 7.59476,-10.1972 8.18122,-16.4274 0.58647,-6.2302 -1.22201,-12.6558 -4.97194,-17.6655 -2.8201,-3.7675 -6.65397,-6.6997 -10.82495,-8.8791 -4.17098,-2.1794 -8.68367,-3.6356 -13.24466,-4.7951 -15.67406,-3.9846 -32.21133,-4.5361 -48.11604,-1.6047 l -67.39494,-4.8139 z"
       id="path4300-8"
       inkscape:path-effect="#path-effect4302-2"
       inkscape:original-d="m 336.22513,1189.8157 -1.60465,53.7903 30.48819,0 c 0,0 0.60452,0.4523 5.56957,-3.7537 3.26499,-2.7658 10.47684,-1.502 10.47684,-1.502 l 8.02321,5.6511 83.41815,0 c 0,0 8.48177,-23.969 3.20928,-34.0929 -4.26231,-8.1841 -15.18874,-11.1686 -24.06961,-13.6742 -15.44465,-4.3575 -48.11604,-1.6047 -48.11604,-1.6047 z"
       inkscape:connector-curvature="0"
       sodipodi:nodetypes="cccscccaacc" />
    <path
       style="fill:none;fill-rule:evenodd;stroke:#000000;stroke-width:4.00000048;stroke-linecap:butt;stroke-linejoin:miter;stroke-miterlimit:4;stroke-dasharray:none;stroke-opacity:1"
       d="m 239.152,861.12251 16.29551,-53.89704"
       id="path6498"
       inkscape:connector-curvature="0"
       sodipodi:nodetypes="cc" />
    <path
       style="fill:none;fill-rule:evenodd;stroke:#000000;stroke-width:4.00000048;stroke-linecap:butt;stroke-linejoin:miter;stroke-miterlimit:4;stroke-dasharray:none;stroke-opacity:1"
       d="M 410.75916,860.05109 396.48395,809.18451"
       id="path6498-6"
       inkscape:connector-curvature="0"
       sodipodi:nodetypes="cc" />
    <path
       style="fill:#1a1a1a;fill-rule:evenodd;stroke:#000000;stroke-width:3.07435679;stroke-linecap:butt;stroke-linejoin:miter;stroke-miterlimit:4;stroke-dasharray:none;stroke-opacity:1"
       d="m 333.10982,573.66371 c -16.04544,-8.79911 -25.10335,-21.48019 -55.12385,-5.43475 -30.0205,11.38709 -39.8548,34.42006 -48.13632,71.42809 26.13854,12.16348 62.11138,-5.43474 62.11138,-5.43474 17.33943,-5.95234 28.46771,-17.33943 40.3724,-38.81962 0,0 15.16683,32.98407 30.2793,40.3724 13.02204,6.36634 43.47796,-0.77639 43.47796,-0.77639 0.21246,-22.19155 -3.16636,-39.45845 -15.52784,-56.67664 -0.66177,-7.24633 -23.5126,-23.21533 -38.04323,-21.73898 -8.57424,0.87116 -19.4098,17.08063 -19.4098,17.08063 z"
       id="path6526"
       inkscape:connector-curvature="0"
       sodipodi:nodetypes="cccccaccac" />
    <path
       style="fill:none;fill-rule:evenodd;stroke:#000000;stroke-width:3.00000024;stroke-linecap:butt;stroke-linejoin:miter;stroke-miterlimit:4;stroke-dasharray:none;stroke-opacity:1"
       d="m 312.20498,579.29927 c -19.01409,5.55706 -37.0697,-4.22175 -58.58885,41.41626"
       id="path6528"
       inkscape:connector-curvature="0"
       sodipodi:nodetypes="cc" />
    <path
       style="fill:none;fill-rule:evenodd;stroke:#000000;stroke-width:3.00000024;stroke-linecap:butt;stroke-linejoin:miter;stroke-miterlimit:4;stroke-dasharray:none;stroke-opacity:1"
       d="m 302.10345,592.43126 c -20.03469,4.8824 -25.42217,12.79526 -34.34518,25.25381"
       id="path6530"
       inkscape:connector-curvature="0"
       sodipodi:nodetypes="cc" />
    <path
       style="fill:none;fill-rule:evenodd;stroke:#000000;stroke-width:3.00000024;stroke-linecap:butt;stroke-linejoin:miter;stroke-miterlimit:4;stroke-dasharray:none;stroke-opacity:1"
       d="m 276.84964,620.71553 c 14.64721,-5.05076 22.72843,-12.62691 30.30457,-21.21321"
       id="path6532"
       inkscape:connector-curvature="0"
       sodipodi:nodetypes="cc" />
    <path
       style="fill:none;fill-rule:evenodd;stroke:#000000;stroke-width:3.00000024;stroke-linecap:butt;stroke-linejoin:miter;stroke-miterlimit:4;stroke-dasharray:none;stroke-opacity:1"
       d="M 372.54685,624.50713 C 365.87457,604.9954 357.50739,600.34476 344.29371,592.58368"
       id="path6530-4"
       inkscape:connector-curvature="0"
       sodipodi:nodetypes="cc" />
    <path
       style="fill:none;fill-rule:evenodd;stroke:#000000;stroke-width:3.00000024;stroke-linecap:butt;stroke-linejoin:miter;stroke-miterlimit:4;stroke-dasharray:none;stroke-opacity:1"
       d="m 384.59059,617.3833 c -6.67228,-19.51173 -8.97854,-25.17252 -24.21253,-27.88284"
       id="path6530-4-3"
       inkscape:connector-curvature="0"
       sodipodi:nodetypes="cc"
       inkscape:transform-center-x="2.3501186"
       inkscape:transform-center-y="10.505551" />
    <path
       style="fill:none;fill-rule:evenodd;stroke:#000000;stroke-width:3.00000024;stroke-linecap:butt;stroke-linejoin:miter;stroke-miterlimit:4;stroke-dasharray:none;stroke-opacity:1"
       d="m 366.24814,575.25866 14.14213,13.63706"
       id="path6564"
       inkscape:connector-curvature="0" />
    <path
       style="fill:#ffffff;fill-rule:evenodd;stroke:none;stroke-width:1px;stroke-linecap:butt;stroke-linejoin:miter;stroke-opacity:1"
       d="m 399.68843,1196.1341 -19.62754,28.7035 12.94072,0.043 19.03318,-29.3999 z"
       id="path4198"
       inkscape:connector-curvature="0"
       sodipodi:nodetypes="ccccc" />
    <path
       style="fill:#ffffff;fill-rule:evenodd;stroke:none;stroke-width:1px;stroke-linecap:butt;stroke-linejoin:miter;stroke-opacity:1"
       d="m 420.24757,1194.9453 -17.04786,30.6468 12.49429,-0.046 16.3489,-30.7361 z"
       id="path4198-0"
       inkscape:connector-curvature="0"
       sodipodi:nodetypes="ccccc" />
    <path
       style="fill:#ffffff;fill-rule:evenodd;stroke:none;stroke-width:1px;stroke-linecap:butt;stroke-linejoin:miter;stroke-opacity:1"
       d="m 250.53055,1195.5058 19.62754,28.7035 -12.94072,0.043 -19.03318,-29.3999 z"
       id="path4198-2"
       inkscape:connector-curvature="0"
       sodipodi:nodetypes="ccccc" />
    <path
       style="fill:#ffffff;fill-rule:evenodd;stroke:none;stroke-width:1px;stroke-linecap:butt;stroke-linejoin:miter;stroke-opacity:1"
       d="m 229.97141,1194.317 17.04786,30.6468 -12.49429,-0.046 -16.34891,-30.7361 z"
       id="path4198-0-9"
       inkscape:connector-curvature="0"
       sodipodi:nodetypes="ccccc" />
    <g
       style="font-style:normal;font-weight:normal;font-size:54.26683044px;line-height:125%;font-family:sans-serif;letter-spacing:0px;word-spacing:0px;fill:#000000;fill-opacity:1;stroke:none;stroke-width:1px;stroke-linecap:butt;stroke-linejoin:miter;stroke-opacity:1"
       id="text4203">
      <path
         d="m 354.20049,1106.2575 q 0.10337,0.3101 1.1887,0.3101 l 1.65385,0 q 1.24039,0 1.80889,-0.5685 0.87861,-0.8786 0.87861,-2.3258 l 0,-1.292 12.19712,0 0,12.0937 -30.69952,0 0,-11.0084 q 0,-5.1166 4.85817,-8.5793 0.72356,-0.5168 8.99279,-4.7548 4.90985,-2.5325 4.90985,-5.22 0,-3.8245 -2.89423,-3.8245 -1.55048,0 -2.17067,1.0337 -0.62019,1.0336 -0.62019,2.6358 l 0,3.6178 -12.04207,0 0,-11.0601 q 2.6875,-2.5325 7.44231,-3.8246 3.97957,-1.0853 8.37259,-1.0853 6.51202,0 10.38823,2.8426 4.49639,3.3076 4.49639,9.923 0,6.0986 -4.85817,10.1298 -1.91226,1.6022 -9.09616,5.22 -4.90985,2.4808 -4.90985,4.7548 0,0.6202 0.10336,0.982 z"
         style="font-style:normal;font-variant:normal;font-weight:100;font-stretch:normal;font-family:AcmeFont;-inkscape-font-specification:'AcmeFont Thin';fill:#008000"
         id="path4208" />
      <path
         d="m 376.52278,1084.0856 q 0,-5.8918 4.80649,-8.7344 3.8762,-2.274 10.23317,-2.274 4.39303,0 8.32091,1.0853 3.97957,1.0337 6.77044,3.4111 l 0,8.8894 -12.30048,0 0,-2.4291 q 0,-1.4988 -0.6202,-2.0673 -0.56851,-0.6202 -1.80889,-0.6202 -1.44712,0 -2.01563,0.7236 -0.51682,0.7235 -0.51682,2.0156 l 0,1.8089 q -0.0517,0.5685 -0.0517,0.8786 0,0.7752 0.36178,1.2404 0.41346,0.4134 1.70553,0.4134 0.98197,-0.052 1.86058,-0.1033 0.8786,-0.1034 2.06731,-0.1034 5.58173,0 8.47596,1.9123 3.51442,2.3257 3.51442,7.5973 l 0,8.1142 q 0,4.7548 -4.34134,7.2873 -3.92789,2.274 -10.07813,2.274 -6.5637,0 -11.00841,-2.3257 -5.375,-2.8426 -5.375,-8.0625 l 0,-20.9315 z m 12.66226,20.7764 q 0,0.982 0.93028,1.5505 0.98198,0.5685 2.11899,0.5685 1.03366,0 1.8089,-0.5685 0.77524,-0.6202 0.77524,-1.6021 l 0,-5.8402 q 0,-1.4988 -0.67188,-2.0673 -0.67187,-0.5685 -1.86057,-0.5685 -1.39544,0 -2.27404,0.5168 -0.82692,0.5169 -0.82692,1.5505 l 0,6.4603 z"
         style="font-style:normal;font-variant:normal;font-weight:100;font-stretch:normal;font-family:AcmeFont;-inkscape-font-specification:'AcmeFont Thin';fill:#008000"
         id="path4210" />
    </g>
    <rect
       id="rect681"
       style="fill:#006c35;fill-rule:evenodd;stroke:#000000;stroke-opacity:1;stroke-width:2.00000018;stroke-miterlimit:4;stroke-dasharray:none"
       height="28.000002"
       width="42.000004"
       y="785.15668"
       x="347.09436" />
    <path
       id="path766"
       inkscape:connector-curvature="0"
       sodipodi:nodetypes="cccccccccccccccccccccccccccccccccccccccc"
       style="fill:#ffffff;fill-rule:evenodd"
       d="m 357.67889,793.09394 c -0.0486,0.65363 -0.10668,1.8051 0.44873,1.92307 0.67226,0.0649 0.30198,-1.13793 0.54526,-1.3558 0.0457,-0.10781 0.13039,-0.10838 0.13773,0.0276 l 0,1.01996 c -0.006,0.33133 0.21166,0.42955 0.381,0.49784 0.17667,-0.0135 0.29407,-0.008 0.3635,0.16369 0.0271,0.58816 0.0548,1.17631 0.0824,1.76447 0,0 0.40866,0.11684 0.42842,-0.9923 0.0197,-0.65137 -0.13039,-1.19663 -0.0423,-1.32363 0.003,-0.12418 0.162,-0.13208 0.27207,-0.0711 0.17611,0.12418 0.254,0.27714 0.52719,0.21562 0.41544,-0.11402 0.66549,-0.31666 0.67169,-0.63557 -0.0243,-0.30311 -0.0581,-0.60622 -0.18965,-0.90989 0.0181,-0.0547 -0.0802,-0.19756 -0.0621,-0.25287 0.0745,0.11684 0.18853,0.10724 0.21449,0 -0.0711,-0.23312 -0.18062,-0.45664 -0.35842,-0.55316 -0.14732,-0.12926 -0.36238,-0.10273 -0.4414,0.16707 -0.0361,0.31158 0.11232,0.68129 0.33923,0.98271 0.048,0.11797 0.11571,0.31383 0.0858,0.48994 -0.12079,0.0689 -0.24102,0.0401 -0.34206,-0.0666 0,0 -0.33076,-0.24779 -0.33076,-0.3031 0.0875,-0.56219 0.0192,-0.62598 -0.0294,-0.78176 -0.0339,-0.21506 -0.13603,-0.28449 -0.219,-0.43124 -0.0824,-0.0881 -0.19474,-0.0881 -0.24836,0 -0.14563,0.25343 -0.0779,0.79756 0.0277,1.04084 0.0768,0.22408 0.19304,0.3652 0.13829,0.3652 -0.0457,0.12643 -0.13942,0.0971 -0.20772,-0.0491 -0.0971,-0.30198 -0.11684,-0.75297 -0.11684,-0.95561 -0.0294,-0.25174 -0.0615,-0.78853 -0.22691,-0.92513 -0.10103,-0.13773 -0.25118,-0.0706 -0.3031,0.0548 -0.0113,0.25005 -0.0124,0.5001 0.0158,0.7304 0.11345,0.40358 0.14958,0.75861 0.20433,1.17179 0.0152,0.55429 -0.32004,0.24046 -0.3048,-0.0339 0.0773,-0.35673 0.0576,-0.91835 -0.0113,-1.06059 -0.0548,-0.14225 -0.1191,-0.17724 -0.25174,-0.1541 -0.10499,-0.006 -0.37593,0.28956 -0.45213,0.78007 0,0 -0.0649,0.25287 -0.0926,0.47696 -0.0373,0.25343 -0.20376,0.4318 -0.3206,-0.0356 -0.10104,-0.34037 -0.16313,-1.17744 -0.33246,-0.98101 z" />
    <path
       id="path767"
       inkscape:connector-curvature="0"
       sodipodi:nodetypes="cccc"
       style="fill:#ffffff;fill-rule:evenodd"
       d="m 359.50544,795.77732 c -0.59323,0.29013 -1.16728,0.5605 -1.75035,0.84103 0.0209,-0.39681 0.83199,-1.11309 1.38515,-1.12325 0.36012,0.0102 0.26924,0.13942 0.3652,0.28222 z" />
    <path
       id="path768"
       inkscape:connector-curvature="0"
       sodipodi:nodetypes="cccccccccccccccccccccccccccccccccc"
       style="fill:#ffffff;fill-rule:evenodd"
       d="m 359.19951,796.32597 c -0.92231,2.37801 2.16071,2.70934 2.50502,0.0971 0.0327,-0.10668 0.16256,-0.21393 0.18514,-0.0389 -0.0711,2.3656 -2.38479,2.52817 -2.77765,1.78366 -0.0976,-0.17498 -0.127,-0.56501 -0.1366,-0.79926 -0.0581,-0.46454 -0.30198,-0.28561 -0.34092,0.17554 -0.0389,0.25683 -0.0294,0.32851 -0.0294,0.57518 0.12361,1.86832 3.10277,1.06567 3.58706,-0.47753 0.25626,-0.85457 -0.0423,-1.48449 0.0971,-1.48167 0.29577,0.31835 0.70838,0.0423 0.79926,-0.0683 0.0389,-0.0548 0.13659,-0.0909 0.20489,-0.0192 0.2303,0.16595 0.6367,0.0875 0.7208,-0.2049 0.0491,-0.28561 0.0881,-0.58138 0.0976,-0.88674 -0.18853,0.0587 -0.32794,0.0976 -0.34093,0.17554 -0.013,0.0847 -0.026,0.16877 -0.0389,0.25344 -0.0164,0.0813 -0.17893,0.0841 -0.18514,-0.0198 -0.0717,-0.32512 -0.36746,-0.36689 -0.54582,0.1366 -0.12023,0.0977 -0.33811,0.11684 -0.36069,-0.0294 0.0294,-0.33754 -0.10724,-0.38326 -0.38043,-0.22409 -0.0875,-0.66944 -0.17498,-1.30952 -0.26304,-1.97839 0.11402,-0.003 0.21788,0.0813 0.32174,-0.0491 -0.11402,-0.35391 -0.35391,-1.07866 -0.48768,-1.13059 -0.0649,-0.0779 -0.12023,-0.0294 -0.20433,-0.01 -0.14281,0.0457 -0.27602,0.16877 -0.23425,0.40922 0.16933,1.02673 0.2794,1.80962 0.44874,2.83635 0.026,0.12023 -0.0751,0.27941 -0.2049,0.26304 -0.2207,-0.14958 -0.27601,-0.45156 -0.65306,-0.43858 -0.27263,0.003 -0.58477,0.29916 -0.62372,0.58477 -0.0452,0.22747 -0.0615,0.4747 0,0.67282 0.19191,0.23029 0.42221,0.20772 0.62372,0.15579 0.16594,-0.0683 0.30254,-0.23368 0.36068,-0.19474 0.0389,0.0485 0.01,0.59437 -0.77951,1.01319 -0.47752,0.21449 -0.85796,0.26359 -1.06229,-0.12644 -0.127,-0.24384 0.01,-1.16954 -0.30254,-0.95504 z" />
    <path
       id="path769"
       inkscape:connector-curvature="0"
       sodipodi:nodetypes="cccccccccc"
       style="fill:#ffffff;fill-rule:evenodd"
       d="m 363.11283,793.90843 c 0.18514,-0.0683 1.06285,-1.07188 1.06285,-1.07188 -0.0457,-0.0389 -0.0864,-0.0683 -0.13208,-0.10725 -0.0485,-0.0423 -0.0435,-0.0847 0,-0.127 0.21788,-0.12643 0.14789,-0.40414 0.0344,-0.53114 -0.18852,-0.0841 -0.35278,-0.0564 -0.473,0.005 -0.15241,0.14619 -0.18797,0.37987 -0.0683,0.52606 0.1174,0.0553 0.23424,0.17385 0.15635,0.23876 -0.35899,0.38383 -1.34169,1.0448 -1.22824,1.06737 0.0243,0.0327 0.6288,0.0311 0.64799,0 z" />
    <path
       id="path770"
       inkscape:connector-curvature="0"
       sodipodi:nodetypes="ccccccsc"
       style="fill:#ffffff;fill-rule:evenodd"
       d="m 357.81492,797.46107 c -0.32907,0.52437 -0.3573,1.30726 -0.17611,1.54094 0.0965,0.11007 0.25513,0.15861 0.37254,0.12362 0.20658,-0.0892 0.2969,-0.50801 0.24779,-0.66154 -0.0689,-0.10781 -0.12305,-0.12474 -0.19191,-0.0333 -0.14563,0.29577 -0.20603,0.0931 -0.21844,-0.0723 -0.0226,-0.3127 0.007,-0.60114 0.0412,-0.82917 0.0361,-0.23425 -0.001,-0.16256 -0.0751,-0.0683 z" />
    <path
       id="path771"
       inkscape:connector-curvature="0"
       sodipodi:nodetypes="csccccsccc"
       style="fill:#ffffff;fill-rule:evenodd"
       d="m 371.87475,796.62174 c -0.31835,-0.68468 -0.75862,-1.36145 -0.8986,-1.6211 -0.14055,-0.26021 -1.19832,-1.79551 -1.35411,-1.96823 -0.34318,-0.40809 0.55824,0.17046 -0.11402,-0.64065 -0.25626,-0.21957 -0.27093,-0.23311 -0.48373,-0.41261 -0.10725,-0.0762 -0.36915,-0.21505 -0.41543,0.0152 -0.0237,0.2032 -0.0107,0.31383 0.0231,0.48317 0.0265,0.11289 0.19078,0.30141 0.2715,0.41092 1.07301,1.44273 2.02467,2.89957 2.94246,4.7312 0.14507,-0.0689 0.11346,-0.88336 0.0288,-0.99794 z" />
    <path
       id="path793"
       inkscape:connector-curvature="0"
       sodipodi:nodetypes="ccccccccccccc"
       style="fill:#ffffff;fill-rule:evenodd"
       d="m 370.47831,798.91283 c -0.0627,0.07 0.15466,0.37084 0.43632,0.37028 0.47187,-0.0548 0.88674,-0.31948 1.27113,-1.01714 0.10273,-0.16256 0.28336,-0.51026 0.289,-0.78006 0.0356,-1.58215 -0.0796,-2.81265 -0.31666,-3.95622 -0.0147,-0.1112 -0.006,-0.24215 0.013,-0.27545 0.031,-0.0367 0.13434,0 0.18909,-0.0897 0.0807,-0.0824 -0.21393,-0.76426 -0.38157,-1.02673 -0.0598,-0.1174 -0.0807,-0.1953 -0.17949,0.0136 -0.10386,0.17046 -0.17385,0.46736 -0.16539,0.74451 0.22522,1.55731 0.29408,2.92045 0.44084,4.47776 0.0124,0.15071 -0.0102,0.36971 -0.11007,0.4572 -0.37028,0.38665 -0.90481,0.86248 -1.48619,1.08205 z" />
    <path
       id="path794"
       inkscape:connector-curvature="0"
       sodipodi:nodetypes="ccccccccccccsc"
       style="fill:#ffffff;fill-rule:evenodd"
       d="m 376.84867,798.90436 c -0.33811,0.19587 -0.33867,0.42108 -0.0649,0.42898 0.47131,-0.0548 1.02898,-0.0937 1.41337,-0.67451 0.10273,-0.16256 0.22465,-0.60227 0.2303,-0.87207 0.0356,-1.58159 -0.0209,-2.76241 -0.25796,-3.90598 -0.0152,-0.1112 -0.0643,-0.36746 -0.0457,-0.40076 0.0311,-0.0785 0.18458,0.008 0.23933,-0.0818 0.0807,-0.0818 -0.39794,-0.69709 -0.56614,-0.95956 -0.0593,-0.1174 -0.0802,-0.1953 -0.17893,0.0141 -0.10386,0.1699 -0.13998,0.47527 -0.0988,0.74395 0.25062,1.69165 0.43632,2.96222 0.4747,4.46139 -0.0214,0.14224 -0.0265,0.21901 -0.0931,0.39794 -0.14789,0.18965 -0.31158,0.42616 -0.46454,0.54017 -0.15353,0.11459 -0.48035,0.22353 -0.58759,0.30819 z" />
    <path
       id="path795"
       inkscape:connector-curvature="0"
       sodipodi:nodetypes="cssscccccccc"
       style="fill:#ffffff;fill-rule:evenodd"
       d="m 377.10267,797.38826 c -0.004,-0.39568 0.006,-0.73717 -0.007,-1.03238 -0.013,-0.29464 -0.0655,-0.5351 -0.16764,-0.74451 -0.0965,-0.22465 -0.0361,-0.40471 -0.0818,-0.64403 -0.0452,-0.23933 -0.0339,-0.59719 -0.10273,-0.8811 -0.0186,-0.11064 -0.0762,-0.46567 -0.0587,-0.49954 0.0282,-0.079 0.13434,0.002 0.18683,-0.0892 0.0773,-0.0852 -0.27037,-0.98496 -0.44647,-1.24179 -0.0638,-0.11515 -0.17893,-0.0762 -0.32117,0.1112 -0.13152,0.12361 -0.0824,0.40471 -0.0322,0.67225 0.33811,1.7656 0.59041,3.36411 0.53566,5.04504 -0.0169,0.14281 0.49897,-0.42616 0.49559,-0.69596 z" />
    <path
       id="path796"
       inkscape:connector-curvature="0"
       sodipodi:nodetypes="cccccccccscc"
       style="fill:#ffffff;fill-rule:evenodd"
       d="m 374.60216,795.19763 c -0.21279,-0.004 -0.65871,-0.4143 -0.78853,-0.65419 -0.0491,-0.13829 -0.0181,-0.27263 0.0254,-0.35165 0.079,-0.0514 0.20038,-0.10894 0.29069,-0.0536 0,0 0.0943,0.13152 0.0762,0.14845 0.11571,0.0559 0.16538,0.0237 0.17724,-0.0237 0.008,-0.083 -0.0344,-0.13208 -0.035,-0.22296 0.0491,-0.24723 0.3319,-0.28617 0.43801,-0.12813 0.0779,0.096 0.10668,0.30029 0.11854,0.43801 -0.001,0.0706 -0.11515,-0.0118 -0.18006,0.005 -0.0649,0.0169 -0.0807,0.0914 -0.0858,0.15918 -0.0113,0.17949 -0.0327,0.4668 -0.0367,0.68354 z" />
    <path
       id="path797"
       inkscape:connector-curvature="0"
       sodipodi:nodetypes="cscccccscc"
       style="fill:#ffffff;fill-rule:evenodd"
       d="m 370.67417,797.82683 c 0.0587,-0.53735 -0.0215,-1.49466 -0.0271,-1.81188 -0.0215,-0.74902 -0.14394,-2.19626 -0.20207,-2.43785 -0.0655,-0.45607 0.18739,0.0497 0.1524,-0.21505 -0.0819,-0.45551 -0.33416,-0.7637 -0.63106,-1.18026 -0.0954,-0.13603 -0.0926,-0.16369 -0.23989,0.0327 -0.16369,0.37084 -0.0226,0.62597 0.0198,0.91497 0.21392,0.94093 0.33867,1.80679 0.39681,2.6625 0.0581,0.8557 0.0762,1.78139 0.0231,2.68282 0.1603,0.006 0.41825,-0.25965 0.508,-0.64799 z" />
    <path
       id="path798"
       inkscape:connector-curvature="0"
       sodipodi:nodetypes="csccccsccc"
       style="fill:#ffffff;fill-rule:evenodd"
       d="m 377.82685,796.96605 c -0.37535,-0.62992 -0.94149,-1.31178 -1.09277,-1.56578 -0.15127,-0.25344 -1.43087,-1.90445 -1.594,-2.07039 -0.46849,-0.49164 0.21449,-0.0802 -0.0897,-0.46003 -0.25739,-0.28222 -0.33246,-0.37084 -0.5526,-0.5413 -0.11063,-0.0711 -0.1778,-0.20772 -0.21392,0.0248 -0.0147,0.20433 -0.0294,0.44027 -0.0158,0.61243 -5.6e-4,0.0954 0.0988,0.27488 0.18458,0.381 1.1351,1.39475 2.37293,2.81829 3.36918,4.60872 0.14225,-0.0751 0.0948,-0.87885 0.005,-0.98948 z" />
    <path
       id="path799"
       inkscape:connector-curvature="0"
       sodipodi:nodetypes="cccccc"
       style="fill:#006c35;fill-rule:evenodd"
       d="m 360.79859,795.80385 c -0.0271,0.0474 -0.0869,0.10894 -0.0672,0.17216 0.0423,0.0576 0.0762,0.0689 0.14619,0.0723 0.061,0 0.1462,0.0141 0.16426,-0.022 0.0327,-0.0361 0.0581,-0.1095 0.0305,-0.17949 -0.0632,-0.15861 -0.24046,-0.0993 -0.27376,-0.0429 z" />
    <path
       id="path800"
       inkscape:connector-curvature="0"
       sodipodi:nodetypes="cccccccccccccccccccsc"
       style="fill:#ffffff;fill-rule:evenodd"
       d="m 373.46311,804.98347 c 0.50179,0.0181 0.8303,0.0226 1.27678,0.0756 0,0 0.38495,-0.0378 0.52268,-0.0587 0.58081,-0.0553 0.60678,0.82974 0.60678,0.82974 -0.006,0.51929 -0.20659,0.54638 -0.46285,0.6017 -0.14619,0.0186 -0.22295,-0.0875 -0.29972,-0.20094 -0.0965,0.0406 -0.22747,0.0463 -0.38608,0.0243 -0.20941,-0.013 -0.41882,-0.0124 -0.62767,-0.0254 -0.22239,-0.0192 -0.34036,0.0231 -0.56275,0.003 -0.0457,0.0722 -0.10499,0.1716 -0.24102,0.13999 -0.11289,-0.013 -0.24723,-0.3302 -0.20772,-0.57122 0.0818,-0.17329 0.0593,-0.11741 0.0508,-0.19361 -2.05233,-0.0525 -4.12385,-0.14393 -6.13724,-0.11797 -1.57481,0.007 -3.13043,0.0723 -4.68605,0.13773 -0.82974,-0.0136 -1.46361,-0.14394 -1.90162,-0.78459 0.0395,0 2.11781,0.11741 2.72515,0.0785 1.12438,-0.013 2.15055,-0.10442 3.29412,-0.13716 2.25497,0.0389 4.49018,0.0389 6.74459,0.19586 -0.21562,-0.14732 -0.22296,-0.49615 0.10894,-0.58138 0.0282,-0.0192 0.0429,0.17329 0.0926,0.1699 0.26529,-0.0198 0.14901,0.3398 0.0903,0.41431 z" />
    <path
       id="path801"
       inkscape:connector-curvature="0"
       sodipodi:nodetypes="cccccccccccccccccccccccccccccccccccccccc"
       style="fill:#ffffff;fill-rule:evenodd"
       d="m 364.41049,792.55489 c -0.34149,0.97649 0.19587,2.04499 0.5684,1.94057 0.26924,0.11176 0.44027,-0.40019 0.55034,-0.96013 0.0751,-0.15748 0.13208,-0.17385 0.17103,-0.0931 -0.0102,0.74507 0.0536,0.90989 0.24497,1.13623 0.42728,0.32964 0.78063,0.0418 0.80829,0.0141 0.0276,-0.0277 0.33302,-0.33246 0.33302,-0.33246 0.0739,-0.0779 0.17272,-0.0824 0.27714,-0.0141 0.1016,0.0926 0.0875,0.25231 0.30481,0.36294 0.18344,0.0734 0.57517,0.0169 0.66604,-0.14111 0.12193,-0.20884 0.15128,-0.28109 0.20772,-0.36012 0.0869,-0.11627 0.23594,-0.0643 0.23594,-0.0282 -0.0141,0.0649 -0.1016,0.12983 -0.0418,0.2461 0.1033,0.0779 0.12757,0.0277 0.18853,0.0107 0.21674,-0.10386 0.37987,-0.57518 0.37987,-0.57518 0.01,-0.17554 -0.0886,-0.16143 -0.1524,-0.1253 -0.0835,0.0514 -0.0886,0.0672 -0.17216,0.11853 -0.10611,0.0152 -0.31157,0.0858 -0.41317,-0.0717 -0.10386,-0.18909 -0.10499,-0.45326 -0.18458,-0.64404 0,-0.0141 -0.13772,-0.30085 -0.01,-0.31948 0.0649,0.0124 0.20263,0.0485 0.22465,-0.0672 0.0677,-0.11345 -0.14507,-0.43406 -0.29126,-0.59662 -0.12643,-0.13885 -0.30198,-0.15579 -0.47131,-0.0135 -0.11854,0.10893 -0.1016,0.23085 -0.12474,0.34657 -0.0299,0.13264 -0.0237,0.29577 0.11119,0.47131 0.11797,0.23312 0.33415,0.53397 0.26303,0.95674 0,0 -0.12587,0.19981 -0.346,0.17329 -0.0914,-0.0198 -0.23989,-0.0587 -0.31948,-0.6446 -0.0598,-0.44366 0.0147,-1.06455 -0.17385,-1.35581 -0.0683,-0.17554 -0.11797,-0.34488 -0.28335,-0.0446 -0.0446,0.11797 -0.23594,0.2969 -0.0971,0.66548 0.11346,0.23369 0.15974,0.61356 0.10781,1.03633 -0.0785,0.12023 -0.0959,0.16087 -0.19868,0.2811 -0.14507,0.15578 -0.30198,0.11571 -0.42221,0.0581 -0.11233,-0.0762 -0.20038,-0.11514 -0.25174,-0.3556 0.01,-0.38382 0.031,-1.01149 -0.0395,-1.1447 -0.10329,-0.20659 -0.27375,-0.13151 -0.34657,-0.0694 -0.34995,0.32005 -0.52268,0.85966 -0.62823,1.2892 -0.0971,0.31327 -0.20038,0.22352 -0.27263,0.0971 -0.17667,-0.16538 -0.18909,-1.46023 -0.40245,-1.24743 z" />
    <path
       id="path802"
       inkscape:connector-curvature="0"
       sodipodi:nodetypes="ccccccccccccsccccccccccccccccccccccccccccccc"
       style="fill:#ffffff;fill-rule:evenodd"
       d="m 365.43948,794.67778 c 0.15522,-0.10951 0.083,-0.18684 0.31496,0.0452 0.29013,0.49672 0.47696,1.14019 0.50518,1.71028 -0.0124,0.13998 0.0864,0.22917 0.13208,0.19869 0.0265,-0.32964 0.82861,-0.7891 1.56353,-0.85627 0.11232,-0.0243 0.0576,-0.23989 0.0762,-0.34996 -0.044,-0.4081 0.22916,-0.7795 0.61242,-0.80942 0.52155,0.0773 0.6954,0.3556 0.70443,0.78063 -0.0564,0.8162 -0.9065,0.95449 -1.38402,1.01996 -0.0734,0.0277 -0.10386,0.0615 0,0.10104 l 2.00096,0.009 0.10217,0.0593 c 0.0124,0.048 -0.0293,0.008 -0.10837,0.13829 -0.079,0.12982 -0.1953,0.4301 -0.20151,0.62992 -0.59606,0.19191 -1.213,0.27601 -1.83954,0.35165 -0.21787,0.11007 -0.32568,0.25682 -0.28109,0.42221 0.0734,0.18288 0.55541,0.36632 0.55541,0.37479 0.092,0.0576 0.20038,0.19135 -0.026,0.46623 -0.97593,-0.0429 -1.73229,-0.45833 -1.9942,-1.04479 -0.079,-0.061 -0.16425,0 -0.21844,0.079 -0.381,0.49107 -0.75636,0.9336 -1.40604,1.16841 -0.38721,0.0971 -0.78401,-0.0593 -0.97141,-0.31327 -0.12531,-0.14393 -0.12079,-0.30367 -0.16651,-0.3381 -0.20941,0.0926 -2.0117,0.85852 -1.78366,0.50179 0.43858,-0.46962 1.19832,-0.8145 1.86889,-1.27791 0.0485,-0.15522 0.13603,-0.68016 0.40132,-0.85175 0.0152,0.002 -0.0423,0.30875 -0.0367,0.43801 0.003,0.10668 -0.007,0.14845 0.0158,0.12079 0.0451,-0.0288 0.85909,-0.6683 0.92174,-0.86417 0.0796,-0.11232 0.0237,-0.39737 0.0237,-0.40583 -0.1524,-0.39342 -0.36633,-0.42673 -0.44592,-0.62203 -0.0717,-0.25964 -0.0389,-0.55598 0.10951,-0.63895 0.13151,-0.11966 0.28786,-0.10442 0.4318,0.026 0.16425,0.14733 0.30988,0.43519 0.35221,0.64912 -0.0282,0.0852 -0.21505,-0.0559 -0.27996,-0.0141 0.11514,0.1191 0.1682,0.25569 0.20997,0.4239 0.10612,0.44873 0.0734,0.62315 -0.0333,0.91328 -0.36125,0.75974 -0.82297,0.98665 -1.22655,1.26775 -0.0113,0.004 -0.0181,0.19304 0.13378,0.2952 0.0525,0.0548 0.26303,0.083 0.51082,0.004 0.47866,-0.26134 0.97593,-0.74225 1.2226,-1.27791 0.0717,-0.40527 -0.0277,-0.83538 -0.13321,-1.21017 -0.15861,-0.36633 -0.34544,-0.88957 -0.34544,-0.89804 -0.006,-0.2286 0.0124,-0.30762 0.11232,-0.42164 z" />
    <path
       id="path803"
       inkscape:connector-curvature="0"
       sodipodi:nodetypes="ccccccccccccccccc"
       style="fill:#ffffff;fill-rule:evenodd"
       d="m 360.19971,792.56505 c 0.2303,0.11007 0.66379,0.0632 0.64517,-0.30819 0,-0.0327 -0.008,-0.14393 -0.0113,-0.17385 -0.0474,-0.1095 -0.17555,-0.0824 -0.20433,0.0305 -0.01,0.0373 0.0164,0.0971 -0.0175,0.11571 -0.0192,0.0198 -0.0926,0.008 -0.0897,-0.0943 0,-0.0327 -0.0243,-0.0677 -0.0384,-0.0886 -0.0147,-0.01 -0.0243,-0.0124 -0.0502,-0.0124 -0.0322,0.002 -0.0316,0.01 -0.0497,0.0367 -0.007,0.0277 -0.0175,0.0548 -0.0175,0.0858 -0.004,0.0361 -0.0175,0.0491 -0.0446,0.0548 -0.0299,0 -0.0231,0.003 -0.0474,-0.0124 -0.0147,-0.0158 -0.0327,-0.0214 -0.0327,-0.0485 0,-0.0282 -0.006,-0.0734 -0.0147,-0.0914 -0.013,-0.0169 -0.0333,-0.0248 -0.0564,-0.0305 -0.12587,0 -0.13434,0.14337 -0.127,0.19812 -0.01,0.0102 -0.0152,0.26755 0.15635,0.33867 z" />
    <path
       id="path804"
       inkscape:connector-curvature="0"
       sodipodi:nodetypes="ccccccccccccccccc"
       style="fill:#ffffff;fill-rule:evenodd"
       d="m 366.9522,795.42341 c 0.2303,0.10951 0.77838,0.0463 0.64517,-0.30819 0,-0.0333 -0.008,-0.14393 -0.0119,-0.17441 -0.0469,-0.1095 -0.17498,-0.0824 -0.20433,0.0305 -0.009,0.0373 0.0164,0.0977 -0.0169,0.11628 -0.0198,0.0192 -0.0931,0.008 -0.0898,-0.0948 0,-0.0327 -0.0243,-0.0677 -0.0389,-0.0886 -0.0147,-0.01 -0.0237,-0.0118 -0.0502,-0.0118 -0.0322,0.001 -0.0316,0.01 -0.0491,0.0367 -0.007,0.0271 -0.0175,0.0542 -0.0175,0.0852 -0.005,0.0367 -0.0181,0.0497 -0.0452,0.0548 -0.0299,0 -0.0231,0.003 -0.0474,-0.0118 -0.0147,-0.0158 -0.0327,-0.022 -0.0327,-0.0491 0,-0.0277 -0.006,-0.0728 -0.0147,-0.0914 -0.0124,-0.0169 -0.0327,-0.0248 -0.0559,-0.0305 -0.12587,5.6e-4 -0.1349,0.14393 -0.12756,0.19812 -0.01,0.0107 -0.0147,0.26811 0.15691,0.33923 z" />
    <path
       id="path805"
       inkscape:connector-curvature="0"
       sodipodi:nodetypes="ccccccccccccccccc"
       style="fill:#ffffff;fill-rule:evenodd"
       d="m 370.88923,794.24033 c 0.23085,0.11007 0.66379,0.0632 0.64516,-0.30819 0,-0.0327 -0.008,-0.14393 -0.0113,-0.17441 -0.0469,-0.10951 -0.17554,-0.0824 -0.20433,0.031 -0.01,0.0367 0.0164,0.0971 -0.0175,0.11571 -0.0192,0.0192 -0.0926,0.008 -0.0897,-0.0948 0,-0.0322 -0.0243,-0.0677 -0.0384,-0.0881 -0.0147,-0.01 -0.0243,-0.0124 -0.0502,-0.0124 -0.0322,0.001 -0.0316,0.01 -0.0491,0.0367 -0.008,0.0277 -0.0181,0.0542 -0.0181,0.0852 -0.004,0.0367 -0.0175,0.0497 -0.0446,0.0553 -0.0299,0 -0.0231,0.003 -0.0474,-0.0124 -0.0147,-0.0158 -0.0327,-0.022 -0.0327,-0.0485 0,-0.0282 -0.006,-0.0734 -0.0147,-0.092 -0.013,-0.0164 -0.0333,-0.0243 -0.0564,-0.0305 -0.12587,5.6e-4 -0.13433,0.14393 -0.127,0.19868 -0.01,0.0102 -0.0152,0.26755 0.15636,0.33867 z" />
    <path
       id="path806"
       inkscape:connector-curvature="0"
       sodipodi:nodetypes="cccccccccccccccccccccccccccc"
       style="fill:#ffffff;fill-rule:evenodd"
       d="m 372.92858,797.21102 c -0.40133,0.45269 -0.22409,1.20114 -0.13378,1.36201 0.13265,0.26473 0.23933,0.43463 0.49672,0.56558 0.23481,0.17272 0.41712,0.0649 0.51816,-0.0559 0.23594,-0.24497 0.23876,-0.86925 0.34939,-0.99343 0.0779,-0.22691 0.27376,-0.18853 0.36859,-0.0875 0.092,0.13265 0.20038,0.21788 0.33584,0.28956 0.22014,0.19417 0.48317,0.22973 0.74225,0.0531 0.17667,-0.0993 0.29182,-0.22804 0.39568,-0.4826 0.11515,-0.30763 0.0508,-1.7306 0.0277,-2.57388 -0.008,-0.0661 -0.2286,-1.15995 -0.2286,-1.1718 0,-0.0124 -0.0294,-0.55824 -0.0536,-0.68806 -0.004,-0.0531 -0.0169,-0.0683 0.0384,-0.0615 0.0587,0.0497 0.0666,0.0525 0.10329,0.0689 0.0593,0.0107 0.11233,-0.0897 0.0762,-0.18288 -0.18288,-0.33754 -0.36633,-0.67565 -0.54921,-1.01319 -0.044,-0.0435 -0.10103,-0.0914 -0.17102,0.0124 -0.0666,0.0581 -0.13829,0.16425 -0.13604,0.30085 0.0164,0.23989 0.0587,0.4843 0.0751,0.72475 0.0734,0.41092 0.14619,0.82184 0.21957,1.23332 0.0694,0.87885 0.0864,1.59852 0.15578,2.47793 -0.01,0.37197 -0.1253,0.69653 -0.23368,0.74337 0,0 -0.16538,0.096 -0.27601,-0.0102 -0.0807,-0.0322 -0.40302,-0.53679 -0.40302,-0.53679 -0.16482,-0.15127 -0.27376,-0.10837 -0.3906,0 -0.32343,0.31214 -0.47018,0.89635 -0.68975,1.29936 -0.0564,0.0897 -0.21675,0.16708 -0.39455,-0.007 -0.45043,-0.61581 -0.18627,-1.49184 -0.24271,-1.26662 z" />
    <path
       id="path807"
       inkscape:connector-curvature="0"
       sodipodi:nodetypes="cccccc"
       style="fill:#ffffff;fill-rule:evenodd"
       d="m 370.99308,792.08357 c 0.20603,0.0864 0.35166,0.50462 0.30424,0.70895 -0.0412,0.25231 -0.15071,0.52494 -0.22916,0.48938 -0.0858,-0.0316 0.0581,-0.25118 -0.0237,-0.48091 -0.0457,-0.14958 -0.32738,-0.42334 -0.29803,-0.50405 -0.0581,-0.16877 0.11966,-0.24272 0.24666,-0.21337 z" />
    <path
       id="path808"
       inkscape:connector-curvature="0"
       sodipodi:nodetypes="csccccccc"
       style="fill:#ffffff;fill-rule:evenodd"
       d="m 373.59293,797.45938 c 0.0435,-0.50236 -0.0294,-0.80829 -0.0429,-1.1035 -0.0124,-0.29464 -0.33359,-2.54622 -0.3985,-2.76918 -0.0785,-0.42221 0.31158,-0.0564 0.26924,-0.30198 -0.1349,-0.30988 -0.47131,-0.76031 -0.5763,-1.02899 -0.0638,-0.11515 -0.0373,-0.21788 -0.17893,-0.0305 -0.13208,0.43067 -0.1778,0.78289 -0.12756,1.05044 0.33867,1.76559 0.6858,3.23429 0.63049,4.91521 0.1603,0.001 0.34544,-0.36745 0.42446,-0.73152 z" />
    <path
       id="path809"
       inkscape:connector-curvature="0"
       sodipodi:nodetypes="cccccc"
       style="fill:#ffffff;fill-rule:evenodd"
       d="m 377.11904,792.79534 c 0.18796,0.0931 0.29859,0.61751 0.27771,0.76709 -0.0373,0.27319 -0.13717,0.5684 -0.20885,0.53001 -0.0779,-0.0344 0.0152,-0.40527 -0.022,-0.52098 -0.0418,-0.162 -0.29803,-0.45833 -0.2715,-0.54526 -0.0525,-0.18288 0.1095,-0.26303 0.22465,-0.23086 z" />
    <path
       id="path810"
       inkscape:connector-curvature="0"
       sodipodi:nodetypes="cccccc"
       style="fill:#ffffff;fill-rule:evenodd"
       d="m 363.1371,796.50998 c 0.18006,0.0689 0.28561,0.45381 0.26585,0.56331 -0.0361,0.20095 -0.13151,0.41826 -0.20038,0.39004 -0.0745,-0.0254 0.0152,-0.29803 -0.0209,-0.3827 -0.0152,-0.20602 -0.26473,-0.31214 -0.25965,-0.40132 -0.0463,-0.16313 0.10443,-0.19304 0.21506,-0.16933 z" />
    <path
       id="path811"
       inkscape:connector-curvature="0"
       sodipodi:nodetypes="ccccccc"
       style="fill:#006c35;fill-rule:evenodd"
       d="m 367.48504,797.08797 c 0.23199,0.0147 0.34826,0.19643 0.13095,0.27319 -0.21505,0.0734 -0.42108,0.13095 -0.4222,0.44084 0.0796,0.43236 -0.10894,0.28391 -0.2207,0.22521 -0.13265,-0.0948 -0.50406,-0.32343 -0.55655,-0.81732 -0.008,-0.11797 0.0835,-0.21731 0.23142,-0.21675 0.22296,0.061 0.55203,0.0649 0.83708,0.0948 z" />
    <path
       id="path812"
       inkscape:connector-curvature="0"
       sodipodi:nodetypes="cccccc"
       style="fill:#ffffff;fill-rule:evenodd"
       d="m 358.32744,791.9594 c 0.26529,0.0802 0.28109,0.47018 0.26134,0.5842 -0.0356,0.20828 -0.12926,0.43293 -0.197,0.40358 -0.0734,-0.026 -0.003,-0.30875 -0.0378,-0.39624 -0.0395,-0.12362 -0.26416,-0.3494 -0.23876,-0.416 -0.0497,-0.13942 0.10329,-0.20038 0.21223,-0.17554 z" />
    <path
       id="path813"
       inkscape:connector-curvature="0"
       sodipodi:nodetypes="cccccccc"
       style="fill:#ffffff;fill-rule:evenodd"
       d="m 363.57059,793.7995 c -0.20376,0.11006 -0.28278,0.43857 -0.15578,0.62936 0.11853,0.16877 0.30593,0.10611 0.33076,0.10611 0.19925,0.0248 0.31779,-0.37423 0.31779,-0.37423 0,0 0.006,-0.11176 -0.23086,0.0999 -0.0993,0.0186 -0.11176,-0.0186 -0.13716,-0.0751 -0.0209,-0.10386 -0.0164,-0.20772 0.031,-0.31158 0.0356,-0.0999 -0.0412,-0.14337 -0.15579,-0.0745 z" />
    <path
       id="path814"
       inkscape:connector-curvature="0"
       sodipodi:nodetypes="cccccccc"
       style="fill:#ffffff;fill-rule:evenodd"
       d="m 365.09855,791.80812 c -0.10216,0.0689 -0.30593,0.27997 -0.31214,0.52325 -0.006,0.13716 -0.0316,0.13659 0.0581,0.22408 0.0649,0.0937 0.13039,0.0852 0.26134,0.0164 0.0751,-0.0553 0.10047,-0.092 0.12587,-0.18514 0.031,-0.15578 -0.16481,0.074 -0.18965,-0.0993 -0.0435,-0.16087 0.0824,-0.22691 0.20038,-0.38326 0.005,-0.10668 0.002,-0.18232 -0.14394,-0.096 z" />
    <path
       id="path815"
       inkscape:connector-curvature="0"
       sodipodi:nodetypes="ccccc"
       style="fill:#ffffff;fill-rule:evenodd"
       d="m 366.32962,792.02713 c -0.044,0.0976 -0.0971,0.60678 -0.0881,0.60678 -0.035,0.15184 0.15861,0.21618 0.24723,0.0214 0.13208,-0.3573 0.13208,-0.50913 0.14111,-0.66097 -0.0418,-0.23086 -0.19755,-0.22352 -0.30028,0.0327 z" />
    <path
       id="path816"
       inkscape:connector-curvature="0"
       sodipodi:nodetypes="ccccc"
       style="fill:#ffffff;fill-rule:evenodd"
       d="m 374.09077,795.97657 c 0.0265,-0.0265 1.0939,-0.78515 1.0939,-0.78515 0.10838,-0.0384 0.0852,0.39117 0.035,0.38834 0.0209,0.0852 -1.05213,0.81394 -1.1289,0.78459 -0.0531,0.0384 -0.10555,-0.29408 0,-0.38778 z" />
    <path
       id="path817"
       inkscape:connector-curvature="0"
       sodipodi:nodetypes="cccccc"
       style="fill:#ffffff;fill-rule:evenodd"
       d="m 375.06388,795.97036 c 0.18853,0.0937 0.26304,0.64347 0.24271,0.79362 0.007,0.29069 -0.18175,0.52437 -0.25343,0.48599 -0.0779,-0.0344 0.007,-0.36125 -0.0305,-0.47696 -0.0412,-0.162 -0.20151,-0.4668 -0.17442,-0.55429 -0.053,-0.18288 0.10047,-0.28053 0.21562,-0.24836 z" />
    <path
       id="path818"
       inkscape:connector-curvature="0"
       sodipodi:nodetypes="ccccccccccccc"
       style="fill:#ffffff;fill-rule:evenodd"
       d="m 368.7161,798.33992 c 0.0745,-0.10838 0.30367,-0.26417 0.30875,-0.26417 0.10556,-0.053 0.20941,0.0412 0.20264,0.035 0.0181,0.10612 -0.0666,0.20433 -0.0401,0.34544 0.0231,0.057 0.0401,0.12023 0.14393,0.096 0.1699,-0.13321 0.32681,-0.14168 0.49615,-0.15015 0.12982,0.008 0.1349,0.22748 0.0531,0.22917 -0.31327,0.0677 -0.45325,0.15184 -0.67678,0.23707 -0.10555,0.0615 -0.19642,-0.0169 -0.19642,-0.0254 0,-0.009 -0.0621,-0.0604 -0.0186,-0.20038 0.007,-0.11233 -0.0378,-0.17385 -0.13152,-0.16143 -0.0706,0.0384 -0.13264,0.0638 -0.1682,-0.0175 -0.0136,-0.0598 -0.0181,-0.0892 0.0271,-0.12361 z" />
    <path
       id="path819"
       inkscape:connector-curvature="0"
       sodipodi:nodetypes="ccccccccccccc"
       style="fill:#ffffff;fill-rule:evenodd"
       d="m 376.18713,798.63625 c 0.0457,0.0581 0.0751,0.11233 -0.004,0.20772 -0.0751,0.0689 -0.12756,0.10668 -0.20263,0.17498 -0.035,0.0604 -0.0576,0.15183 0.0502,0.18118 0.19982,0.0559 0.66153,-0.24327 0.66153,-0.24948 0.0745,-0.0565 0.0497,-0.16256 0.0435,-0.16256 -0.0435,-0.0497 -0.14224,-0.0203 -0.20828,-0.0282 -0.0316,0 -0.13491,-0.0158 -0.0852,-0.10724 0.0406,-0.0564 0.0553,-0.0914 0.0835,-0.16143 0.031,-0.0689 0.004,-0.11459 -0.10837,-0.15184 -0.11402,-0.0209 -0.15974,-0.0107 -0.28674,0 -0.0683,0.0147 -0.092,0.0452 -0.10442,0.12813 0.005,0.12644 0.0818,0.1191 0.16086,0.16877 z" />
    <ellipse
       id="path820"
       style="fill:#259f00;fill-rule:evenodd"
       transform="matrix(0.8656318,0.50068112,-0.50068207,0.86563126,0,0)"
       cx="717.32245"
       cy="504.00891"
       rx="0.19402939"
       ry="0.10583476" />
    <ellipse
       id="path821"
       style="fill:#006c35;fill-rule:evenodd"
       transform="matrix(0.41446626,0.91006468,-0.97129397,0.23788239,0,0)"
       cx="871.48694"
       cy="-2.6997695"
       rx="0.14829859"
       ry="0.1033508" />
    <path
       id="path822"
       inkscape:connector-curvature="0"
       sodipodi:nodetypes="ccccccc"
       style="fill:#209000;fill-rule:evenodd"
       d="m 373.52181,805.66306 c 0.51139,0.0248 0.99174,0.006 1.50313,0.0305 0.0931,0.079 0.0265,0.27207 -0.035,0.25852 -0.16651,-0.005 -0.2619,-0.008 -0.42842,-0.0124 -0.006,-0.16312 -0.42164,-0.13603 -0.40922,0.005 -0.22465,0.0271 -0.42729,-0.008 -0.65194,-0.0164 -0.066,-0.0824 -0.0576,-0.23142 0.0215,-0.26529 z" />
  </g>
</svg>
