<svg xmlns="http://www.w3.org/2000/svg" width="334.825" height="748.882" viewBox="0 0 313.898 702.077"><g transform="translate(-168.989 -543.925)"><ellipse style="fill:#803300;fill-opacity:1;stroke:#000;stroke-width:4.22298098;stroke-miterlimit:4;stroke-dasharray:none;stroke-opacity:1" cx="396.571" cy="654.076" rx="12.334" ry="14.479"/><ellipse style="fill:#803300;fill-opacity:1;stroke:#000;stroke-width:4.22298098;stroke-miterlimit:4;stroke-dasharray:none;stroke-opacity:1" cx="247.143" cy="654.648" rx="12.334" ry="14.479"/><ellipse style="fill:#803300;fill-opacity:1;stroke:#000;stroke-width:4.00000048;stroke-miterlimit:4;stroke-dasharray:none;stroke-opacity:1" cx="220.982" cy="987.777" rx="33.851" ry="36.86"/><ellipse style="fill:#803300;fill-opacity:1;stroke:#000;stroke-width:3;stroke-miterlimit:4;stroke-dasharray:none;stroke-opacity:1" cx="430.857" cy="994.548" rx="33.851" ry="36.86"/><path style="fill:#803300;fill-opacity:1;fill-rule:evenodd;stroke:#000;stroke-width:4.00000048;stroke-linecap:butt;stroke-linejoin:miter;stroke-miterlimit:4;stroke-dasharray:none;stroke-opacity:1" d="m245.03 978.815 1.01-126.775-54.043 4.041 3.398 109.667M402.406 980.58l-1.01-126.774 54.043 4.04-3.398 109.667M312.327 1214.866l4.581-120.346-73.328-2.388 9.112 108.953M337.73 1214.202l-4.58-120.346 73.328-2.388-9.112 108.953"/><path style="fill:#052;fill-opacity:1;fill-rule:evenodd;stroke:#000;stroke-width:4;stroke-linecap:butt;stroke-linejoin:miter;stroke-miterlimit:4;stroke-dasharray:none;stroke-opacity:1" d="M240.54 949.992c61.163.772 109.827-5.116 166.245-1.505 17.425 67.211 7.74 86.487 6.018 170.646-46.666 15.5-72.162 1.633-88.012-3.761-22.053 16.582-86.913 10.205-87.26 6.77-11.127-148.263 2.64-165.748 3.009-172.15z"/><path style="fill:#052;fill-opacity:1;fill-rule:evenodd;stroke:#000;stroke-width:4.00000048;stroke-linecap:butt;stroke-linejoin:miter;stroke-miterlimit:4;stroke-dasharray:none;stroke-opacity:1" d="M235.323 737.74c-11.82 17.083-41.852 65.071-50.875 123.303-.451 2.91 54.704-.635 54.704-.635l-6.429 114.286 182.858 1.429-4.286-116.43h49.286c-19.124-76.563-28.718-87.28-48.038-123.623-5.641-10.725-2.678-9.287-15.271-8.97L249.794 730.8c-10.661-.262-9.718.086-14.471 6.939z"/><path style="fill:#803300;fill-opacity:1;fill-rule:evenodd;stroke:#000;stroke-width:4;stroke-linecap:butt;stroke-linejoin:miter;stroke-miterlimit:4;stroke-dasharray:none;stroke-opacity:1" d="m286.202 740.772 74.286-1.429s-2.258 37.338-34.286 37.22c-33.563-.123-40-35.791-40-35.791z"/><path style="fill:#803300;fill-rule:evenodd;stroke:#000;stroke-width:4;stroke-linecap:butt;stroke-linejoin:miter;stroke-miterlimit:4;stroke-dasharray:none;stroke-opacity:1" d="M268.167 591.42c-26.24 21.324-25.423 80.035-18.849 99.67 8.085 24.148 26.238 47.61 49.339 58.326 16.516 7.661 38.35 8.169 54.62 0 20.212-10.148 35.754-32.308 40.53-54.414 7.131-32.995 1.662-82.205-13.4-101.442-23.311-29.773-83.2-25.74-112.24-2.14z"/><path style="fill:#2b1100;fill-rule:evenodd;stroke:#000;stroke-width:4.00000048;stroke-linecap:butt;stroke-linejoin:miter;stroke-miterlimit:4;stroke-dasharray:none;stroke-opacity:1" d="M221.428 624.973c.23-5.41 13.258-9.39 13.258-9.39s-10.22-11.007-7.734-16.574c2.59-5.798 18.23-5.524 18.23-5.524s-9.616-13.376-5.524-18.23c4.785-5.675 22.097 2.762 22.097 2.762s-2.247-12.773 2.21-15.468c5.183-3.135 17.125 6.077 17.125 6.077s8.519-16.626 16.573-18.23c6.786-1.352 18.783 8.838 18.783 8.838s12.371-14.182 20.44-13.258c7.116.816 14.915 15.468 14.915 15.468s15.174-13.422 22.65-9.943c5.916 2.753 5.524 18.782 5.524 18.782s16.21-6.633 19.887-1.105c3.969 5.966-9.391 19.335-9.391 19.335 6.814 2.21 17.01.34 20.44 6.63 3.1 5.685-4.972 18.782-4.972 18.782s17.563-3.201 17.678 2.762c.427 22.34-9.392 13.258-9.392 13.258s12.204 15.536-12.706 10.496c-4.956-1.002-2.762-14.915-2.762-14.915s-13.477 14.01-19.887 10.21c-6.021-3.57-.552-20.993-.552-20.993s-13.823 10.78-20.44 7.734c-6.403-2.946-7.182-19.887-7.182-19.887s-7.703 9.022-12.706 8.286c-7.627-1.122-14.915-17.677-14.915-17.677s-.405 13.526-5.524 15.468c-7.86 2.98-22.098-12.154-22.098-12.154s-6.062 13.677-12.153 17.125c-8.357 4.732-28.726 2.21-28.726 2.21s9.466 13.491 6.077 19.335c-3.689 6.359-14.41 6.474-21.545 4.706-7.484-1.855-18.004-7.213-17.678-14.916z"/><path style="fill:#fff;fill-rule:evenodd;stroke:#000;stroke-width:4;stroke-linecap:butt;stroke-linejoin:miter;stroke-miterlimit:4;stroke-dasharray:none;stroke-opacity:1" d="M296.094 645.678c-6.312-1.748-12.821-1.162-18.199 3.17-17.894 14.414 13.404 34.735 23.61 23.773 7.918-8.504 10.125-26.943-5.41-26.943z"/><ellipse style="fill:#000;fill-opacity:1;stroke:#000;stroke-width:1.34574461;stroke-miterlimit:4;stroke-dasharray:none;stroke-opacity:1" cx="288.47" cy="658.885" rx="3.197" ry="3.698"/><path d="M345.545 647.032c6.312-1.749 12.821-1.162 18.199 3.17 17.894 14.414-13.404 34.735-23.61 23.773-7.918-8.504-10.125-26.943 5.41-26.943z" style="fill:#fff;fill-rule:evenodd;stroke:#000;stroke-width:4;stroke-linecap:butt;stroke-linejoin:miter;stroke-miterlimit:4;stroke-dasharray:none;stroke-opacity:1"/><ellipse ry="3.698" rx="3.197" cy="660.239" cx="349.986" style="fill:#000;fill-opacity:1;stroke:#000;stroke-width:1.34574461;stroke-miterlimit:4;stroke-dasharray:none;stroke-opacity:1"/><path style="fill:none;fill-rule:evenodd;stroke:#000;stroke-width:4;stroke-linecap:butt;stroke-linejoin:miter;stroke-miterlimit:4;stroke-dasharray:none;stroke-opacity:1" d="M318.685 697.197c8.97-1.795 12.895-4.299 11.35-7.796-6.967-15.766-7.3-16.103-6.967-15.766"/><g style="stroke-width:4;stroke-miterlimit:4;stroke-dasharray:none"><path d="M111.17 536.139c11.862-6.174 14.728-9.3 15.16-9.84" style="fill:none;fill-rule:evenodd;stroke:#000;stroke-width:4;stroke-linecap:butt;stroke-linejoin:miter;stroke-miterlimit:4;stroke-dasharray:none;stroke-opacity:1" transform="translate(163.95 173.996)"/><path d="M118.085 531.086c23.471 35.016 61.832 30.635 77.66 4.255" style="fill:none;fill-rule:evenodd;stroke:#000;stroke-width:4;stroke-linecap:butt;stroke-linejoin:miter;stroke-miterlimit:4;stroke-dasharray:none;stroke-opacity:1" transform="translate(163.95 173.996)"/><path d="M190.16 528.958c4.812 7.047 5.93 8.057 10.372 12.766" style="fill:none;fill-rule:evenodd;stroke:#000;stroke-width:4;stroke-linecap:butt;stroke-linejoin:miter;stroke-miterlimit:4;stroke-dasharray:none;stroke-opacity:1" transform="translate(163.95 173.996)"/></g><path style="fill:none;fill-rule:evenodd;stroke:#000;stroke-width:3;stroke-linecap:butt;stroke-linejoin:miter;stroke-miterlimit:4;stroke-dasharray:none;stroke-opacity:1" d="m325.497 1116.682-1.504-71.077M307.71 1038.241c4.202 4.98 10.793 7.846 17.301 7.523 6.127-.305 12.058-3.412 15.797-8.275l-.752-.752"/><path style="fill:#241c1c;fill-opacity:1;fill-rule:evenodd;stroke:#000;stroke-width:4;stroke-linecap:butt;stroke-linejoin:miter;stroke-miterlimit:4;stroke-dasharray:none;stroke-opacity:1" d="m315.65 1189.101 1.605 53.79h-30.488a19.433 19.433 0 0 0-5.57-3.753 19.504 19.504 0 0 0-10.477-1.502l-8.023 5.651H179.28c-4.619-4.222-7.595-10.197-8.181-16.427-.587-6.23 1.222-12.656 4.972-17.666 2.82-3.767 6.654-6.7 10.825-8.879 4.17-2.18 8.683-3.636 13.244-4.795a112.942 112.942 0 0 1 48.116-1.605l67.395-4.814zM336.225 1189.816l-1.605 53.79h30.489a19.433 19.433 0 0 1 5.57-3.754 19.504 19.504 0 0 1 10.476-1.502l8.023 5.651h83.418c4.62-4.221 7.595-10.197 8.182-16.427.586-6.23-1.222-12.656-4.972-17.665-2.82-3.768-6.654-6.7-10.825-8.88-4.171-2.179-8.684-3.635-13.245-4.795a112.944 112.944 0 0 0-48.116-1.604l-67.395-4.814z"/><path style="fill:none;fill-rule:evenodd;stroke:#000;stroke-width:4.00000048;stroke-linecap:butt;stroke-linejoin:miter;stroke-miterlimit:4;stroke-dasharray:none;stroke-opacity:1" d="m410.76 860.051-14.276-50.866"/><path style="fill:#fff;fill-rule:evenodd;stroke:none;stroke-width:1px;stroke-linecap:butt;stroke-linejoin:miter;stroke-opacity:1" d="m399.688 1196.134-19.627 28.704 12.94.043 19.034-29.4zM420.248 1194.945l-17.048 30.647 12.494-.046 16.349-30.736zM250.53 1195.506l19.628 28.703-12.94.043-19.034-29.4zM229.971 1194.317l17.048 30.647-12.494-.046-16.349-30.736z"/><path d="M384.82 782.435v-.062m-.031.064v-.065m-.023.066v-.067" style="fill:none;stroke:#000;stroke-width:.00053333"/><path style="fill:none;fill-rule:evenodd;stroke:#000;stroke-width:4.00000048;stroke-linecap:butt;stroke-linejoin:miter;stroke-miterlimit:4;stroke-dasharray:none;stroke-opacity:1" d="m239.152 861.123 16.296-53.898"/><path style="fill:#0b7226;stroke-width:34.01549911;stroke-miterlimit:4;stroke-dasharray:none" d="M-16.479 1128.905h13.333v23.333h-13.333z" transform="matrix(1 0 0 1.07103 365.754 -424.896)"/><path style="fill:#ff0;stroke-width:34.01549911;stroke-miterlimit:4;stroke-dasharray:none" d="M-3.146 1128.905h13.333v23.333H-3.146z" transform="matrix(1 0 0 1.07103 365.754 -424.896)"/><path style="fill:#bc0000;stroke-width:34.01549911;stroke-miterlimit:4;stroke-dasharray:none" d="M10.188 1128.905h13.333v23.333H10.188z" transform="matrix(1 0 0 1.07103 365.754 -424.896)"/><path transform="matrix(.0588 0 0 .06297 349.185 784.19)" style="fill:#0b7226" d="M246.09 171.54h72.18l23.41-73.674 21.46 73.674h74.12l-58.52 45.03 21.46 71.63-58.52-45.03-58.53 42.98 21.46-69.58z"/><path style="opacity:1;fill:none;fill-opacity:1;stroke:#000;stroke-width:2.58583093;stroke-miterlimit:4;stroke-dasharray:none;stroke-opacity:1" d="M349.879 783.397h39.914v26.581h-39.914z"/><g style="font-style:normal;font-weight:400;font-size:53.6223259px;line-height:125%;font-family:sans-serif;letter-spacing:0;word-spacing:0;fill:#000;fill-opacity:1;stroke:none;stroke-width:1px;stroke-linecap:butt;stroke-linejoin:miter;stroke-opacity:1"><path d="M380.264 1094.616h-2.196v-7.609h2.451q3.217 0 4.443-.766 1.992-1.226 1.992-5.056 0-1.583-.817-2.247-.766-.715-2.196-.715-1.277 0-1.992.92-.664.868-.664 2.247v2.808h-11.899v-9.856q2.758-2.4 7.507-3.626 3.933-1.021 8.12-1.021 5.77 0 9.703 2.247 4.903 2.809 4.903 8.222 0 3.626-.51 5.311-.869 2.758-3.474 3.984-.357.153-.357.663 0 .46.306.613 3.218 1.737 4.086 4.392.51 1.583.51 6.486 0 5.362-4.493 8.324-4.188 2.758-10.93 2.758-4.34 0-8.017-.97-4.494-1.175-7.354-3.626v-10.93h12.206v3.576q0 1.072.663 2.094.664.97 1.89.97 1.328 0 1.992-.46.919-.613 1.072-1.94.204-1.328.204-2.145 0-3.218-2.144-4.137-1.175-.51-5.005-.51z" style="font-style:normal;font-variant:normal;font-weight:100;font-stretch:normal;font-family:AcmeFont;-inkscape-font-specification:'AcmeFont Thin';fill:#fff"/></g></g></svg>