<svg width="1363" height="301" viewBox="0 0 1363 301" fill="none" xmlns="http://www.w3.org/2000/svg">
<rect width="1363" height="301" rx="15" fill="white"/>
<path d="M0 15C0 6.71573 6.71573 0 15 0H37V301H15C6.71573 301 0 294.284 0 286V15Z" fill="black"/>
<path d="M110.933 127.376H100.862L100.809 121.2H108.973C110.441 121.2 111.613 121.039 112.491 120.716C113.368 120.376 114.004 119.884 114.397 119.239C114.809 118.595 115.015 117.789 115.015 116.822C115.015 115.712 114.809 114.817 114.397 114.137C113.986 113.456 113.332 112.964 112.437 112.66C111.56 112.337 110.423 112.176 109.026 112.176H104.407V144H94.981V104.898H109.026C111.443 104.898 113.601 105.122 115.499 105.57C117.396 106 119.008 106.662 120.333 107.557C121.675 108.452 122.696 109.58 123.394 110.941C124.092 112.284 124.441 113.868 124.441 115.694C124.441 117.288 124.101 118.783 123.421 120.179C122.741 121.576 121.604 122.713 120.01 123.59C118.435 124.449 116.277 124.897 113.538 124.933L110.933 127.376ZM110.557 144H98.5796L101.802 136.749H110.557C111.846 136.749 112.876 136.552 113.646 136.158C114.433 135.746 114.997 135.209 115.337 134.547C115.695 133.867 115.875 133.115 115.875 132.291C115.875 131.288 115.704 130.42 115.364 129.686C115.042 128.952 114.523 128.388 113.807 127.994C113.09 127.582 112.133 127.376 110.933 127.376H103.011L103.064 121.2H112.544L114.747 123.67C117.361 123.563 119.428 123.93 120.95 124.771C122.49 125.613 123.591 126.723 124.253 128.102C124.916 129.48 125.247 130.921 125.247 132.425C125.247 134.986 124.692 137.125 123.582 138.844C122.49 140.562 120.852 141.852 118.667 142.711C116.483 143.57 113.78 144 110.557 144ZM147.027 136.937V114.942H156.104V144H147.618L147.027 136.937ZM147.886 131.029L150.25 130.975C150.25 132.927 150.017 134.735 149.551 136.4C149.086 138.047 148.396 139.479 147.483 140.697C146.588 141.914 145.478 142.863 144.153 143.543C142.846 144.206 141.333 144.537 139.615 144.537C138.182 144.537 136.867 144.34 135.667 143.946C134.485 143.535 133.465 142.899 132.605 142.04C131.746 141.162 131.075 140.043 130.591 138.683C130.126 137.304 129.893 135.657 129.893 133.741V114.942H138.943V133.795C138.943 134.439 139.024 134.994 139.185 135.46C139.346 135.925 139.579 136.319 139.883 136.642C140.188 136.946 140.564 137.179 141.011 137.34C141.477 137.483 142.005 137.555 142.596 137.555C143.956 137.555 145.022 137.268 145.792 136.695C146.561 136.122 147.098 135.344 147.403 134.359C147.725 133.374 147.886 132.264 147.886 131.029ZM170.66 114.942V144H161.583V114.942H170.66ZM161.045 107.45C161.045 106.161 161.511 105.104 162.442 104.281C163.373 103.457 164.581 103.045 166.067 103.045C167.553 103.045 168.762 103.457 169.693 104.281C170.624 105.104 171.089 106.161 171.089 107.45C171.089 108.739 170.624 109.795 169.693 110.619C168.762 111.442 167.553 111.854 166.067 111.854C164.581 111.854 163.373 111.442 162.442 110.619C161.511 109.795 161.045 108.739 161.045 107.45ZM185.806 102.75V144H176.729V102.75H185.806ZM208.096 137.34V102.75H217.2V144H209.036L208.096 137.34ZM190.264 129.82V129.256C190.264 127.054 190.506 125.049 190.989 123.241C191.473 121.415 192.189 119.848 193.138 118.541C194.087 117.216 195.268 116.196 196.683 115.479C198.097 114.763 199.726 114.405 201.57 114.405C203.217 114.405 204.659 114.79 205.894 115.56C207.129 116.312 208.186 117.368 209.063 118.729C209.94 120.09 210.656 121.683 211.211 123.509C211.766 125.318 212.187 127.269 212.474 129.364V130.035C212.187 132.005 211.766 133.867 211.211 135.621C210.656 137.358 209.94 138.897 209.063 140.24C208.186 141.583 207.12 142.639 205.867 143.409C204.632 144.161 203.182 144.537 201.517 144.537C199.673 144.537 198.043 144.17 196.629 143.436C195.232 142.702 194.06 141.673 193.111 140.348C192.18 139.023 191.473 137.465 190.989 135.675C190.506 133.884 190.264 131.933 190.264 129.82ZM199.314 129.256V129.82C199.314 130.912 199.386 131.924 199.529 132.855C199.673 133.786 199.914 134.61 200.254 135.326C200.612 136.024 201.078 136.57 201.651 136.964C202.242 137.358 202.967 137.555 203.826 137.555C204.99 137.555 205.948 137.277 206.7 136.722C207.47 136.167 208.034 135.379 208.392 134.359C208.768 133.338 208.929 132.139 208.875 130.76V128.639C208.911 127.457 208.83 126.419 208.633 125.523C208.436 124.61 208.123 123.849 207.693 123.241C207.282 122.632 206.753 122.175 206.109 121.871C205.482 121.549 204.739 121.388 203.88 121.388C203.038 121.388 202.322 121.585 201.731 121.979C201.159 122.372 200.693 122.927 200.335 123.644C199.977 124.342 199.717 125.174 199.556 126.141C199.395 127.09 199.314 128.128 199.314 129.256ZM227.432 104.898H235.113L243.841 132.103L252.569 104.898H260.25L246.956 144H240.726L227.432 104.898ZM222.759 104.898H230.708L232.186 134.869V144H222.759V104.898ZM256.973 104.898H264.949V144H255.496V134.869L256.973 104.898ZM284.634 144.537C282.271 144.537 280.158 144.17 278.296 143.436C276.434 142.684 274.859 141.655 273.57 140.348C272.299 139.041 271.323 137.537 270.643 135.836C269.98 134.135 269.649 132.336 269.649 130.438V129.417C269.649 127.287 269.944 125.318 270.535 123.509C271.126 121.683 272.003 120.09 273.167 118.729C274.331 117.368 275.79 116.312 277.544 115.56C279.299 114.79 281.34 114.405 283.667 114.405C285.726 114.405 287.57 114.736 289.2 115.399C290.829 116.061 292.208 117.01 293.335 118.246C294.481 119.481 295.35 120.976 295.94 122.73C296.549 124.485 296.854 126.454 296.854 128.639V132.318H273.113V126.651H288.018V125.953C288.036 124.986 287.866 124.163 287.508 123.482C287.168 122.802 286.666 122.283 286.004 121.925C285.341 121.567 284.536 121.388 283.587 121.388C282.602 121.388 281.788 121.603 281.143 122.032C280.516 122.462 280.024 123.053 279.666 123.805C279.326 124.539 279.084 125.389 278.941 126.356C278.798 127.323 278.726 128.343 278.726 129.417V130.438C278.726 131.512 278.869 132.488 279.156 133.365C279.46 134.243 279.89 134.994 280.445 135.621C281.018 136.23 281.698 136.704 282.486 137.044C283.292 137.385 284.205 137.555 285.225 137.555C286.46 137.555 287.678 137.322 288.877 136.856C290.077 136.391 291.106 135.621 291.966 134.547L296.075 139.435C295.484 140.276 294.642 141.091 293.55 141.878C292.476 142.666 291.187 143.311 289.683 143.812C288.179 144.295 286.496 144.537 284.634 144.537Z" fill="black"/>
<path d="M114.473 55.1172V80H109.346L99.3486 63.3203V80H94.2217V55.1172H99.3486L109.363 71.814V55.1172H114.473ZM128.606 75.8301V67.5928C128.606 67.0003 128.51 66.4933 128.316 66.0718C128.122 65.6388 127.82 65.3027 127.41 65.0635C127.011 64.8242 126.493 64.7046 125.855 64.7046C125.308 64.7046 124.835 64.8014 124.437 64.9951C124.038 65.1774 123.73 65.4451 123.514 65.7983C123.297 66.1401 123.189 66.5446 123.189 67.0117H118.267C118.267 66.2256 118.449 65.4793 118.814 64.7729C119.179 64.0666 119.708 63.4456 120.403 62.9102C121.098 62.3633 121.924 61.936 122.881 61.6284C123.85 61.3208 124.932 61.167 126.128 61.167C127.564 61.167 128.84 61.4062 129.957 61.8848C131.073 62.3633 131.95 63.0811 132.588 64.0381C133.238 64.9951 133.562 66.1914 133.562 67.627V75.5396C133.562 76.5535 133.625 77.3853 133.75 78.0347C133.876 78.6727 134.058 79.231 134.297 79.7095V80H129.324C129.085 79.4987 128.903 78.8721 128.777 78.1201C128.663 77.3568 128.606 76.5934 128.606 75.8301ZM129.256 68.7378L129.29 71.5234H126.539C125.889 71.5234 125.325 71.5975 124.847 71.7456C124.368 71.8937 123.975 72.1045 123.667 72.3779C123.36 72.64 123.132 72.9476 122.984 73.3008C122.847 73.654 122.779 74.0413 122.779 74.4629C122.779 74.8844 122.876 75.2661 123.069 75.6079C123.263 75.9383 123.542 76.2004 123.907 76.394C124.271 76.5763 124.699 76.6675 125.188 76.6675C125.929 76.6675 126.573 76.5194 127.12 76.2231C127.667 75.9269 128.088 75.5623 128.384 75.1294C128.692 74.6965 128.851 74.2863 128.863 73.8989L130.162 75.9839C129.979 76.451 129.729 76.9352 129.41 77.4365C129.102 77.9378 128.709 78.4106 128.23 78.855C127.752 79.2879 127.177 79.6468 126.504 79.9316C125.832 80.2051 125.035 80.3418 124.112 80.3418C122.938 80.3418 121.873 80.1082 120.916 79.6411C119.97 79.1626 119.218 78.5075 118.66 77.6758C118.113 76.8327 117.84 75.8757 117.84 74.8047C117.84 73.8363 118.022 72.9761 118.387 72.2241C118.751 71.4722 119.287 70.8398 119.993 70.3271C120.711 69.8031 121.605 69.41 122.676 69.1479C123.747 68.8745 124.989 68.7378 126.402 68.7378H129.256ZM148.277 75.9668V53.75H153.233V80H148.772L148.277 75.9668ZM136.587 70.9766V70.6177C136.587 69.2049 136.747 67.9232 137.066 66.7725C137.385 65.6104 137.852 64.6134 138.467 63.7817C139.083 62.95 139.84 62.3063 140.74 61.8506C141.64 61.3949 142.666 61.167 143.816 61.167C144.899 61.167 145.844 61.3949 146.653 61.8506C147.474 62.3063 148.169 62.9557 148.738 63.7988C149.319 64.6305 149.786 65.616 150.14 66.7554C150.493 67.8833 150.749 69.1195 150.909 70.4639V71.25C150.749 72.5374 150.493 73.7337 150.14 74.8389C149.786 75.944 149.319 76.9124 148.738 77.7441C148.169 78.5645 147.474 79.2025 146.653 79.6582C145.833 80.1139 144.876 80.3418 143.782 80.3418C142.632 80.3418 141.606 80.1082 140.706 79.6411C139.817 79.174 139.065 78.5189 138.45 77.6758C137.846 76.8327 137.385 75.8415 137.066 74.7021C136.747 73.5628 136.587 72.321 136.587 70.9766ZM141.509 70.6177V70.9766C141.509 71.7399 141.566 72.452 141.68 73.1128C141.806 73.7736 142.005 74.3604 142.278 74.873C142.563 75.3743 142.928 75.7674 143.372 76.0522C143.828 76.3257 144.38 76.4624 145.03 76.4624C145.873 76.4624 146.568 76.2744 147.115 75.8984C147.662 75.5111 148.077 74.9813 148.362 74.3091C148.659 73.6369 148.829 72.8621 148.875 71.9849V69.7461C148.841 69.0283 148.738 68.3846 148.567 67.8149C148.408 67.2339 148.169 66.7383 147.85 66.3281C147.542 65.918 147.155 65.599 146.688 65.3711C146.232 65.1432 145.691 65.0293 145.064 65.0293C144.426 65.0293 143.879 65.1774 143.423 65.4736C142.968 65.7585 142.597 66.1515 142.312 66.6528C142.039 67.1541 141.834 67.7466 141.697 68.4302C141.572 69.1024 141.509 69.8315 141.509 70.6177ZM162.273 61.5088V80H157.334V61.5088H162.273ZM157.027 56.6895C157.027 55.9717 157.278 55.3792 157.779 54.9121C158.28 54.445 158.952 54.2114 159.795 54.2114C160.627 54.2114 161.294 54.445 161.795 54.9121C162.308 55.3792 162.564 55.9717 162.564 56.6895C162.564 57.4072 162.308 57.9997 161.795 58.4668C161.294 58.9339 160.627 59.1675 159.795 59.1675C158.952 59.1675 158.28 58.9339 157.779 58.4668C157.278 57.9997 157.027 57.4072 157.027 56.6895ZM171.263 65.3369V80H166.324V61.5088H170.955L171.263 65.3369ZM170.579 70.105H169.212C169.212 68.8175 169.366 67.6326 169.673 66.5503C169.992 65.4565 170.454 64.5109 171.058 63.7134C171.673 62.9045 172.431 62.2778 173.331 61.8335C174.231 61.3892 175.273 61.167 176.458 61.167C177.278 61.167 178.03 61.2923 178.714 61.543C179.397 61.7822 179.984 62.1639 180.474 62.688C180.975 63.2007 181.363 63.8729 181.636 64.7046C181.91 65.5249 182.046 66.5104 182.046 67.6611V80H177.125V68.208C177.125 67.3649 177.011 66.7155 176.783 66.2598C176.555 65.804 176.23 65.485 175.809 65.3027C175.398 65.1204 174.903 65.0293 174.322 65.0293C173.684 65.0293 173.125 65.1603 172.647 65.4224C172.18 65.6844 171.792 66.049 171.485 66.5161C171.177 66.9718 170.949 67.5073 170.801 68.1226C170.653 68.7378 170.579 69.3986 170.579 70.105ZM181.585 69.541L179.825 69.7632C179.825 68.5555 179.973 67.4333 180.269 66.3965C180.577 65.3597 181.027 64.4482 181.619 63.6621C182.223 62.876 182.969 62.2664 183.858 61.8335C184.747 61.3892 185.772 61.167 186.934 61.167C187.823 61.167 188.632 61.298 189.361 61.5601C190.09 61.8107 190.711 62.2152 191.224 62.7734C191.748 63.3203 192.146 64.0381 192.42 64.9268C192.705 65.8154 192.847 66.9035 192.847 68.1909V80H187.908V68.1909C187.908 67.3364 187.794 66.687 187.566 66.2427C187.35 65.7869 187.031 65.4736 186.609 65.3027C186.199 65.1204 185.709 65.0293 185.14 65.0293C184.547 65.0293 184.029 65.1489 183.584 65.3882C183.14 65.616 182.77 65.9351 182.474 66.3452C182.177 66.7554 181.955 67.2339 181.807 67.7808C181.659 68.3162 181.585 68.903 181.585 69.541ZM225.933 55.1172V80H220.806L210.809 63.3203V80H205.682V55.1172H210.809L220.823 71.814V55.1172H225.933ZM240.066 75.8301V67.5928C240.066 67.0003 239.97 66.4933 239.776 66.0718C239.582 65.6388 239.28 65.3027 238.87 65.0635C238.471 64.8242 237.953 64.7046 237.315 64.7046C236.768 64.7046 236.295 64.8014 235.896 64.9951C235.498 65.1774 235.19 65.4451 234.974 65.7983C234.757 66.1401 234.649 66.5446 234.649 67.0117H229.727C229.727 66.2256 229.909 65.4793 230.274 64.7729C230.639 64.0666 231.168 63.4456 231.863 62.9102C232.558 62.3633 233.384 61.936 234.341 61.6284C235.31 61.3208 236.392 61.167 237.588 61.167C239.024 61.167 240.3 61.4062 241.417 61.8848C242.533 62.3633 243.41 63.0811 244.048 64.0381C244.698 64.9951 245.022 66.1914 245.022 67.627V75.5396C245.022 76.5535 245.085 77.3853 245.21 78.0347C245.336 78.6727 245.518 79.231 245.757 79.7095V80H240.784C240.545 79.4987 240.363 78.8721 240.237 78.1201C240.123 77.3568 240.066 76.5934 240.066 75.8301ZM240.716 68.7378L240.75 71.5234H237.999C237.349 71.5234 236.785 71.5975 236.307 71.7456C235.828 71.8937 235.435 72.1045 235.127 72.3779C234.82 72.64 234.592 72.9476 234.444 73.3008C234.307 73.654 234.239 74.0413 234.239 74.4629C234.239 74.8844 234.336 75.2661 234.529 75.6079C234.723 75.9383 235.002 76.2004 235.367 76.394C235.731 76.5763 236.159 76.6675 236.648 76.6675C237.389 76.6675 238.033 76.5194 238.58 76.2231C239.126 75.9269 239.548 75.5623 239.844 75.1294C240.152 74.6965 240.311 74.2863 240.323 73.8989L241.622 75.9839C241.439 76.451 241.189 76.9352 240.87 77.4365C240.562 77.9378 240.169 78.4106 239.69 78.855C239.212 79.2879 238.637 79.6468 237.964 79.9316C237.292 80.2051 236.495 80.3418 235.572 80.3418C234.398 80.3418 233.333 80.1082 232.376 79.6411C231.43 79.1626 230.678 78.5075 230.12 77.6758C229.573 76.8327 229.3 75.8757 229.3 74.8047C229.3 73.8363 229.482 72.9761 229.847 72.2241C230.211 71.4722 230.747 70.8398 231.453 70.3271C232.171 69.8031 233.065 69.41 234.136 69.1479C235.207 68.8745 236.449 68.7378 237.862 68.7378H240.716ZM253.619 53.75V80H248.697V53.75H253.619ZM252.918 70.105H251.568C251.579 68.8175 251.75 67.6326 252.081 66.5503C252.411 65.4565 252.884 64.5109 253.499 63.7134C254.114 62.9045 254.849 62.2778 255.704 61.8335C256.569 61.3892 257.527 61.167 258.575 61.167C259.486 61.167 260.312 61.298 261.053 61.5601C261.805 61.8107 262.448 62.2209 262.984 62.7905C263.531 63.3488 263.952 64.0837 264.249 64.9951C264.545 65.9066 264.693 67.0117 264.693 68.3105V80H259.737V68.2764C259.737 67.4561 259.617 66.8123 259.378 66.3452C259.15 65.8667 258.814 65.5306 258.37 65.3369C257.937 65.1318 257.401 65.0293 256.763 65.0293C256.057 65.0293 255.453 65.1603 254.952 65.4224C254.462 65.6844 254.069 66.049 253.772 66.5161C253.476 66.9718 253.26 67.5073 253.123 68.1226C252.986 68.7378 252.918 69.3986 252.918 70.105ZM273.631 53.75V80H268.692V53.75H273.631ZM286.209 80.3418C284.773 80.3418 283.486 80.1139 282.347 79.6582C281.207 79.1911 280.239 78.5474 279.441 77.7271C278.655 76.9067 278.051 75.9554 277.63 74.873C277.208 73.7793 276.998 72.6172 276.998 71.3867V70.7031C276.998 69.3018 277.197 68.02 277.596 66.8579C277.994 65.6958 278.564 64.6875 279.305 63.833C280.057 62.9785 280.968 62.3234 282.039 61.8677C283.11 61.4006 284.318 61.167 285.662 61.167C286.972 61.167 288.134 61.3835 289.148 61.8164C290.162 62.2493 291.011 62.8646 291.695 63.6621C292.39 64.4596 292.914 65.4167 293.267 66.5332C293.62 67.6383 293.797 68.8688 293.797 70.2246V72.2754H279.1V68.9941H288.96V68.6182C288.96 67.9346 288.835 67.325 288.584 66.7896C288.345 66.2427 287.981 65.8097 287.491 65.4907C287.001 65.1717 286.374 65.0122 285.611 65.0122C284.961 65.0122 284.403 65.1546 283.936 65.4395C283.469 65.7243 283.087 66.123 282.791 66.6357C282.506 67.1484 282.29 67.7523 282.142 68.4473C282.005 69.1309 281.937 69.8828 281.937 70.7031V71.3867C281.937 72.1273 282.039 72.8109 282.244 73.4375C282.461 74.0641 282.763 74.6053 283.15 75.061C283.549 75.5168 284.027 75.87 284.585 76.1206C285.155 76.3713 285.799 76.4966 286.517 76.4966C287.405 76.4966 288.231 76.3257 288.995 75.9839C289.769 75.6307 290.436 75.1009 290.994 74.3945L293.387 76.9922C292.999 77.5505 292.47 78.0859 291.797 78.5986C291.137 79.1113 290.339 79.5329 289.405 79.8633C288.471 80.1823 287.405 80.3418 286.209 80.3418Z" fill="#888888"/>
<rect x="92" y="181" width="1179" height="80" rx="13.3333" fill="#CCCCCC"/>
<rect x="107" y="196.333" width="208" height="49.3333" rx="4.66667" fill="black" stroke="#888888" stroke-width="4"/>
<path d="M184.5 213.167H190.469C191.635 213.167 192.649 213.34 193.51 213.687C194.372 214.035 195.035 214.549 195.5 215.229C195.972 215.91 196.208 216.75 196.208 217.75C196.208 218.618 196.073 219.344 195.802 219.927C195.531 220.51 195.153 220.993 194.667 221.375C194.188 221.75 193.628 222.059 192.99 222.302L191.792 222.979H186.781L186.76 220.156H190.469C190.934 220.156 191.319 220.073 191.625 219.906C191.931 219.74 192.16 219.503 192.313 219.198C192.472 218.885 192.552 218.514 192.552 218.083C192.552 217.646 192.472 217.271 192.313 216.958C192.153 216.646 191.917 216.406 191.604 216.24C191.299 216.073 190.92 215.99 190.469 215.99H188.156V228.333H184.5V213.167ZM192.802 228.333L189.448 221.625L193.323 221.604L196.719 228.177V228.333H192.802ZM203.708 228.542C202.792 228.542 201.972 228.399 201.25 228.115C200.528 227.823 199.917 227.424 199.417 226.917C198.924 226.41 198.545 225.826 198.281 225.167C198.024 224.507 197.896 223.809 197.896 223.073V222.677C197.896 221.851 198.01 221.087 198.24 220.385C198.469 219.677 198.809 219.059 199.26 218.531C199.712 218.003 200.278 217.594 200.958 217.302C201.639 217.003 202.431 216.854 203.333 216.854C204.132 216.854 204.847 216.983 205.479 217.24C206.111 217.497 206.646 217.865 207.083 218.344C207.528 218.823 207.865 219.403 208.094 220.083C208.33 220.764 208.448 221.528 208.448 222.375V223.802H199.24V221.604H205.021V221.333C205.028 220.958 204.962 220.639 204.823 220.375C204.691 220.111 204.497 219.91 204.24 219.771C203.983 219.632 203.67 219.562 203.302 219.562C202.92 219.562 202.604 219.646 202.354 219.812C202.111 219.979 201.92 220.208 201.781 220.5C201.649 220.785 201.556 221.115 201.5 221.49C201.444 221.865 201.417 222.26 201.417 222.677V223.073C201.417 223.49 201.472 223.868 201.583 224.208C201.701 224.549 201.868 224.84 202.083 225.083C202.306 225.319 202.569 225.503 202.875 225.635C203.187 225.767 203.542 225.833 203.937 225.833C204.417 225.833 204.889 225.743 205.354 225.562C205.819 225.382 206.219 225.083 206.552 224.667L208.146 226.562C207.917 226.889 207.59 227.205 207.167 227.51C206.75 227.816 206.25 228.066 205.667 228.26C205.083 228.448 204.431 228.542 203.708 228.542ZM215.729 225.5V220.854C215.729 220.535 215.684 220.26 215.594 220.031C215.503 219.802 215.361 219.625 215.167 219.5C214.972 219.368 214.712 219.302 214.385 219.302C214.122 219.302 213.896 219.347 213.708 219.437C213.521 219.528 213.378 219.663 213.281 219.844C213.184 220.024 213.135 220.253 213.135 220.531H209.625C209.625 220.01 209.74 219.528 209.969 219.083C210.205 218.632 210.538 218.24 210.969 217.906C211.406 217.573 211.927 217.316 212.531 217.135C213.142 216.948 213.823 216.854 214.573 216.854C215.469 216.854 216.267 217.003 216.969 217.302C217.677 217.601 218.236 218.049 218.646 218.646C219.056 219.236 219.26 219.979 219.26 220.875V225.49C219.26 226.226 219.302 226.785 219.385 227.167C219.469 227.542 219.587 227.872 219.74 228.156V228.333H216.219C216.052 227.986 215.927 227.562 215.844 227.062C215.767 226.556 215.729 226.035 215.729 225.5ZM216.156 221.448L216.177 223.323H214.625C214.299 223.323 214.021 223.368 213.792 223.458C213.569 223.549 213.389 223.674 213.25 223.833C213.118 223.986 213.021 224.16 212.958 224.354C212.903 224.549 212.875 224.753 212.875 224.969C212.875 225.177 212.924 225.365 213.021 225.531C213.125 225.691 213.264 225.816 213.438 225.906C213.611 225.997 213.806 226.042 214.021 226.042C214.41 226.042 214.74 225.969 215.01 225.823C215.288 225.67 215.5 225.486 215.646 225.271C215.792 225.056 215.865 224.854 215.865 224.667L216.635 226.104C216.497 226.382 216.337 226.663 216.156 226.948C215.983 227.233 215.764 227.497 215.5 227.74C215.243 227.976 214.927 228.17 214.552 228.323C214.177 228.469 213.722 228.542 213.188 228.542C212.493 228.542 211.854 228.399 211.271 228.115C210.694 227.83 210.233 227.434 209.885 226.927C209.538 226.413 209.365 225.823 209.365 225.156C209.365 224.573 209.469 224.052 209.677 223.594C209.892 223.135 210.215 222.747 210.646 222.427C211.076 222.108 211.625 221.865 212.292 221.698C212.958 221.531 213.743 221.448 214.646 221.448H216.156ZM225.969 225.833C226.295 225.833 226.573 225.774 226.802 225.656C227.038 225.531 227.215 225.358 227.333 225.135C227.458 224.906 227.517 224.632 227.51 224.312H230.813C230.819 225.16 230.611 225.903 230.188 226.542C229.771 227.174 229.201 227.667 228.479 228.021C227.764 228.368 226.955 228.542 226.052 228.542C225.17 228.542 224.399 228.399 223.74 228.115C223.08 227.823 222.528 227.42 222.083 226.906C221.646 226.385 221.316 225.778 221.094 225.083C220.878 224.389 220.771 223.635 220.771 222.823V222.583C220.771 221.771 220.878 221.017 221.094 220.323C221.316 219.622 221.646 219.014 222.083 218.5C222.528 217.979 223.076 217.576 223.729 217.292C224.389 217 225.156 216.854 226.031 216.854C226.969 216.854 227.795 217.031 228.51 217.385C229.233 217.74 229.799 218.253 230.208 218.927C230.618 219.601 230.819 220.417 230.813 221.375H227.51C227.517 221.035 227.465 220.729 227.354 220.458C227.243 220.187 227.069 219.972 226.833 219.812C226.604 219.646 226.309 219.562 225.948 219.562C225.587 219.562 225.295 219.642 225.073 219.802C224.851 219.962 224.681 220.184 224.563 220.469C224.451 220.747 224.375 221.066 224.333 221.427C224.299 221.788 224.281 222.174 224.281 222.583V222.823C224.281 223.24 224.299 223.632 224.333 224C224.375 224.361 224.455 224.681 224.573 224.958C224.691 225.229 224.861 225.444 225.083 225.604C225.306 225.757 225.601 225.833 225.969 225.833ZM238.25 217.062V219.5H231.458V217.062H238.25ZM232.885 214.26H236.396V224.656C236.396 224.955 236.431 225.187 236.5 225.354C236.569 225.514 236.688 225.628 236.854 225.698C237.028 225.76 237.257 225.792 237.542 225.792C237.743 225.792 237.91 225.788 238.042 225.781C238.174 225.767 238.299 225.75 238.417 225.729V228.24C238.118 228.337 237.806 228.41 237.479 228.458C237.153 228.514 236.806 228.542 236.438 228.542C235.688 228.542 235.045 228.424 234.51 228.187C233.983 227.951 233.58 227.58 233.302 227.073C233.024 226.566 232.885 225.906 232.885 225.094V214.26Z" fill="white"/>
<rect x="339" y="196.333" width="208" height="49.3333" rx="4.66667" fill="black" stroke="#888888" stroke-width="4"/>
<path d="M419.937 213.167V228.333H416.292L410.927 218.896V228.333H407.271V213.167H410.927L416.292 222.604V213.167H419.937ZM421.646 222.812V222.594C421.646 221.767 421.764 221.007 422 220.312C422.236 219.611 422.583 219.003 423.042 218.49C423.5 217.976 424.066 217.576 424.74 217.292C425.413 217 426.191 216.854 427.073 216.854C427.962 216.854 428.743 217 429.417 217.292C430.097 217.576 430.667 217.976 431.125 218.49C431.583 219.003 431.931 219.611 432.167 220.312C432.403 221.007 432.521 221.767 432.521 222.594V222.812C432.521 223.632 432.403 224.392 432.167 225.094C431.931 225.788 431.583 226.396 431.125 226.917C430.667 227.431 430.101 227.83 429.427 228.115C428.753 228.399 427.976 228.542 427.094 228.542C426.212 228.542 425.431 228.399 424.75 228.115C424.069 227.83 423.5 227.431 423.042 226.917C422.583 226.396 422.236 225.788 422 225.094C421.764 224.392 421.646 223.632 421.646 222.812ZM425.156 222.594V222.812C425.156 223.236 425.187 223.632 425.25 224C425.312 224.368 425.417 224.691 425.562 224.969C425.708 225.24 425.906 225.451 426.156 225.604C426.406 225.757 426.719 225.833 427.094 225.833C427.462 225.833 427.767 225.757 428.01 225.604C428.26 225.451 428.458 225.24 428.604 224.969C428.75 224.691 428.854 224.368 428.917 224C428.979 223.632 429.01 223.236 429.01 222.812V222.594C429.01 222.184 428.979 221.799 428.917 221.437C428.854 221.069 428.75 220.747 428.604 220.469C428.458 220.184 428.26 219.962 428.01 219.802C427.76 219.642 427.448 219.562 427.073 219.562C426.705 219.562 426.396 219.642 426.146 219.802C425.903 219.962 425.708 220.184 425.562 220.469C425.417 220.747 425.312 221.069 425.25 221.437C425.187 221.799 425.156 222.184 425.156 222.594ZM440.563 225.75V212.333H444.094V228.333H440.927L440.563 225.75ZM433.646 222.833V222.615C433.646 221.76 433.74 220.983 433.927 220.281C434.115 219.573 434.392 218.965 434.76 218.458C435.128 217.944 435.587 217.549 436.135 217.271C436.684 216.993 437.316 216.854 438.031 216.854C438.67 216.854 439.229 217.003 439.708 217.302C440.188 217.594 440.597 218.003 440.938 218.531C441.278 219.059 441.556 219.677 441.771 220.385C441.986 221.087 442.149 221.844 442.26 222.656V222.917C442.149 223.681 441.986 224.403 441.771 225.083C441.556 225.757 441.278 226.354 440.938 226.875C440.597 227.396 440.184 227.806 439.698 228.104C439.219 228.396 438.656 228.542 438.01 228.542C437.295 228.542 436.663 228.399 436.115 228.115C435.573 227.83 435.118 227.431 434.75 226.917C434.389 226.403 434.115 225.799 433.927 225.104C433.74 224.41 433.646 223.653 433.646 222.833ZM437.156 222.615V222.833C437.156 223.257 437.184 223.649 437.24 224.01C437.295 224.372 437.389 224.691 437.521 224.969C437.66 225.24 437.84 225.451 438.063 225.604C438.292 225.757 438.573 225.833 438.906 225.833C439.358 225.833 439.729 225.726 440.021 225.51C440.319 225.295 440.538 224.99 440.677 224.594C440.823 224.198 440.885 223.733 440.865 223.198V222.375C440.878 221.917 440.847 221.514 440.771 221.167C440.694 220.812 440.573 220.517 440.406 220.281C440.247 220.045 440.042 219.868 439.792 219.75C439.549 219.625 439.26 219.562 438.927 219.562C438.601 219.562 438.323 219.639 438.094 219.792C437.872 219.944 437.691 220.16 437.552 220.437C437.413 220.708 437.313 221.031 437.25 221.406C437.188 221.774 437.156 222.177 437.156 222.615ZM451.542 228.542C450.625 228.542 449.806 228.399 449.083 228.115C448.361 227.823 447.75 227.424 447.25 226.917C446.757 226.41 446.378 225.826 446.115 225.167C445.858 224.507 445.729 223.809 445.729 223.073V222.677C445.729 221.851 445.844 221.087 446.073 220.385C446.302 219.677 446.642 219.059 447.094 218.531C447.545 218.003 448.111 217.594 448.792 217.302C449.472 217.003 450.264 216.854 451.167 216.854C451.965 216.854 452.681 216.983 453.313 217.24C453.944 217.497 454.479 217.865 454.917 218.344C455.361 218.823 455.698 219.403 455.927 220.083C456.163 220.764 456.281 221.528 456.281 222.375V223.802H447.073V221.604H452.854V221.333C452.861 220.958 452.795 220.639 452.656 220.375C452.524 220.111 452.33 219.91 452.073 219.771C451.816 219.632 451.503 219.562 451.135 219.562C450.753 219.562 450.438 219.646 450.188 219.812C449.944 219.979 449.753 220.208 449.615 220.5C449.483 220.785 449.389 221.115 449.333 221.49C449.278 221.865 449.25 222.26 449.25 222.677V223.073C449.25 223.49 449.306 223.868 449.417 224.208C449.535 224.549 449.701 224.84 449.917 225.083C450.139 225.319 450.403 225.503 450.708 225.635C451.021 225.767 451.375 225.833 451.771 225.833C452.25 225.833 452.722 225.743 453.188 225.562C453.653 225.382 454.052 225.083 454.385 224.667L455.979 226.562C455.75 226.889 455.424 227.205 455 227.51C454.583 227.816 454.083 228.066 453.5 228.26C452.917 228.448 452.264 228.542 451.542 228.542ZM457.938 226.687C457.938 226.187 458.118 225.771 458.479 225.437C458.84 225.097 459.306 224.927 459.875 224.927C460.451 224.927 460.917 225.097 461.271 225.437C461.632 225.771 461.813 226.187 461.813 226.687C461.813 227.187 461.632 227.608 461.271 227.948C460.917 228.281 460.451 228.448 459.875 228.448C459.306 228.448 458.84 228.281 458.479 227.948C458.118 227.608 457.938 227.187 457.938 226.687ZM464.427 217.062H467.948V228.698C467.948 229.601 467.774 230.361 467.427 230.979C467.08 231.604 466.583 232.076 465.937 232.396C465.292 232.722 464.521 232.885 463.625 232.885C463.326 232.885 463.052 232.872 462.802 232.844C462.545 232.823 462.264 232.778 461.958 232.708V230.052C462.139 230.08 462.306 230.101 462.458 230.115C462.611 230.135 462.778 230.146 462.958 230.146C463.278 230.146 463.545 230.094 463.76 229.99C463.976 229.885 464.139 229.726 464.25 229.51C464.368 229.295 464.427 229.024 464.427 228.698V217.062ZM464.167 214.156C464.167 213.656 464.347 213.247 464.708 212.927C465.069 212.608 465.538 212.448 466.115 212.448C466.691 212.448 467.16 212.608 467.521 212.927C467.882 213.247 468.062 213.656 468.062 214.156C468.062 214.656 467.882 215.066 467.521 215.385C467.16 215.705 466.691 215.865 466.115 215.865C465.538 215.865 465.069 215.705 464.708 215.385C464.347 215.066 464.167 214.656 464.167 214.156ZM475.844 225.167C475.844 224.972 475.778 224.806 475.646 224.667C475.521 224.521 475.299 224.389 474.979 224.271C474.66 224.146 474.212 224.021 473.635 223.896C473.087 223.778 472.569 223.622 472.083 223.427C471.604 223.233 471.184 222.997 470.823 222.719C470.462 222.441 470.177 222.111 469.969 221.729C469.767 221.347 469.667 220.91 469.667 220.417C469.667 219.937 469.767 219.486 469.969 219.062C470.177 218.632 470.479 218.253 470.875 217.927C471.278 217.594 471.767 217.333 472.344 217.146C472.92 216.951 473.576 216.854 474.312 216.854C475.326 216.854 476.201 217.01 476.937 217.323C477.674 217.628 478.24 218.059 478.635 218.615C479.038 219.163 479.24 219.799 479.24 220.521H475.729C475.729 220.236 475.681 219.993 475.583 219.792C475.493 219.59 475.344 219.437 475.135 219.333C474.927 219.222 474.649 219.167 474.302 219.167C474.059 219.167 473.837 219.212 473.635 219.302C473.441 219.392 473.285 219.517 473.167 219.677C473.049 219.837 472.99 220.024 472.99 220.24C472.99 220.392 473.024 220.531 473.094 220.656C473.17 220.774 473.285 220.885 473.437 220.99C473.59 221.087 473.785 221.177 474.021 221.26C474.257 221.337 474.542 221.406 474.875 221.469C475.632 221.608 476.34 221.806 477 222.062C477.66 222.319 478.194 222.684 478.604 223.156C479.021 223.628 479.229 224.264 479.229 225.062C479.229 225.562 479.115 226.024 478.885 226.448C478.656 226.865 478.326 227.233 477.896 227.552C477.465 227.865 476.948 228.108 476.344 228.281C475.74 228.455 475.059 228.542 474.302 228.542C473.226 228.542 472.316 228.351 471.573 227.969C470.83 227.58 470.267 227.094 469.885 226.51C469.51 225.92 469.323 225.323 469.323 224.719H472.594C472.608 225.066 472.691 225.351 472.844 225.573C473.003 225.795 473.215 225.958 473.479 226.062C473.743 226.167 474.049 226.219 474.396 226.219C474.715 226.219 474.979 226.174 475.187 226.083C475.403 225.993 475.566 225.872 475.677 225.719C475.788 225.559 475.844 225.375 475.844 225.167Z" fill="white"/>
<rect x="571" y="196.333" width="208" height="49.3333" rx="4.66667" fill="black" stroke="black" stroke-width="4"/>
<path d="M631.656 213.167H634.635L638.021 223.719L641.406 213.167H644.385L639.229 228.333H636.813L631.656 213.167ZM629.844 213.167H632.927L633.5 224.792V228.333H629.844V213.167ZM643.115 213.167H646.208V228.333H642.542V224.792L643.115 213.167ZM647.948 222.812V222.594C647.948 221.767 648.066 221.007 648.302 220.312C648.538 219.611 648.885 219.003 649.344 218.49C649.802 217.976 650.368 217.576 651.042 217.292C651.715 217 652.493 216.854 653.375 216.854C654.264 216.854 655.045 217 655.719 217.292C656.399 217.576 656.969 217.976 657.427 218.49C657.885 219.003 658.233 219.611 658.469 220.312C658.705 221.007 658.823 221.767 658.823 222.594V222.812C658.823 223.632 658.705 224.392 658.469 225.094C658.233 225.788 657.885 226.396 657.427 226.917C656.969 227.431 656.403 227.83 655.729 228.115C655.056 228.399 654.278 228.542 653.396 228.542C652.514 228.542 651.733 228.399 651.052 228.115C650.372 227.83 649.802 227.431 649.344 226.917C648.885 226.396 648.538 225.788 648.302 225.094C648.066 224.392 647.948 223.632 647.948 222.812ZM651.458 222.594V222.812C651.458 223.236 651.49 223.632 651.552 224C651.615 224.368 651.719 224.691 651.865 224.969C652.01 225.24 652.208 225.451 652.458 225.604C652.708 225.757 653.021 225.833 653.396 225.833C653.764 225.833 654.069 225.757 654.313 225.604C654.563 225.451 654.76 225.24 654.906 224.969C655.052 224.691 655.156 224.368 655.219 224C655.281 223.632 655.313 223.236 655.313 222.812V222.594C655.313 222.184 655.281 221.799 655.219 221.437C655.156 221.069 655.052 220.747 654.906 220.469C654.76 220.184 654.563 219.962 654.313 219.802C654.063 219.642 653.75 219.562 653.375 219.562C653.007 219.562 652.698 219.642 652.448 219.802C652.205 219.962 652.01 220.184 651.865 220.469C651.719 220.747 651.615 221.069 651.552 221.437C651.49 221.799 651.458 222.184 651.458 222.594ZM663.833 219.469V228.333H660.323V217.062H663.615L663.833 219.469ZM663.417 222.312L662.594 222.333C662.594 221.472 662.698 220.705 662.906 220.031C663.115 219.351 663.41 218.774 663.792 218.302C664.174 217.83 664.628 217.472 665.156 217.229C665.691 216.979 666.285 216.854 666.938 216.854C667.458 216.854 667.934 216.931 668.365 217.083C668.802 217.236 669.177 217.483 669.49 217.823C669.809 218.163 670.052 218.615 670.219 219.177C670.392 219.733 670.479 220.42 670.479 221.24V228.333H666.948V221.229C666.948 220.778 666.885 220.434 666.76 220.198C666.635 219.955 666.455 219.788 666.219 219.698C665.983 219.608 665.694 219.562 665.354 219.562C664.993 219.562 664.688 219.632 664.438 219.771C664.188 219.91 663.986 220.104 663.833 220.354C663.688 220.597 663.58 220.885 663.51 221.219C663.448 221.552 663.417 221.917 663.417 222.312ZM679.51 217.062H682.698V227.896C682.698 228.937 682.458 229.819 681.979 230.542C681.5 231.271 680.83 231.823 679.969 232.198C679.115 232.58 678.115 232.771 676.969 232.771C676.462 232.771 675.944 232.705 675.417 232.573C674.889 232.448 674.396 232.26 673.938 232.01C673.479 231.76 673.094 231.451 672.781 231.083L674.25 229.021C674.535 229.34 674.892 229.611 675.323 229.833C675.753 230.062 676.26 230.177 676.844 230.177C677.351 230.177 677.774 230.087 678.115 229.906C678.462 229.726 678.726 229.462 678.906 229.115C679.087 228.774 679.177 228.361 679.177 227.875V219.729L679.51 217.062ZM672.021 222.833V222.615C672.021 221.76 672.125 220.983 672.333 220.281C672.549 219.573 672.854 218.965 673.25 218.458C673.653 217.944 674.139 217.549 674.708 217.271C675.278 216.993 675.92 216.854 676.635 216.854C677.406 216.854 678.038 217.003 678.531 217.302C679.031 217.594 679.431 218.003 679.729 218.531C680.035 219.059 680.271 219.677 680.438 220.385C680.611 221.087 680.757 221.844 680.875 222.656V222.917C680.757 223.681 680.594 224.403 680.385 225.083C680.184 225.757 679.92 226.354 679.594 226.875C679.267 227.396 678.858 227.806 678.365 228.104C677.878 228.396 677.295 228.542 676.615 228.542C675.906 228.542 675.267 228.399 674.698 228.115C674.135 227.83 673.653 227.431 673.25 226.917C672.854 226.403 672.549 225.799 672.333 225.104C672.125 224.41 672.021 223.653 672.021 222.833ZM675.531 222.615V222.833C675.531 223.257 675.569 223.649 675.646 224.01C675.729 224.372 675.854 224.691 676.021 224.969C676.188 225.24 676.392 225.451 676.635 225.604C676.885 225.757 677.177 225.833 677.51 225.833C678.017 225.833 678.427 225.726 678.74 225.51C679.052 225.295 679.278 224.99 679.417 224.594C679.556 224.198 679.615 223.733 679.594 223.198V222.375C679.608 221.917 679.576 221.514 679.5 221.167C679.424 220.812 679.302 220.517 679.135 220.281C678.976 220.045 678.76 219.868 678.49 219.75C678.226 219.625 677.906 219.562 677.531 219.562C677.205 219.562 676.917 219.639 676.667 219.792C676.417 219.944 676.208 220.16 676.042 220.437C675.875 220.708 675.747 221.031 675.656 221.406C675.573 221.774 675.531 222.177 675.531 222.615ZM684.281 222.812V222.594C684.281 221.767 684.399 221.007 684.635 220.312C684.872 219.611 685.219 219.003 685.677 218.49C686.135 217.976 686.701 217.576 687.375 217.292C688.049 217 688.826 216.854 689.708 216.854C690.597 216.854 691.378 217 692.052 217.292C692.733 217.576 693.302 217.976 693.76 218.49C694.219 219.003 694.566 219.611 694.802 220.312C695.038 221.007 695.156 221.767 695.156 222.594V222.812C695.156 223.632 695.038 224.392 694.802 225.094C694.566 225.788 694.219 226.396 693.76 226.917C693.302 227.431 692.736 227.83 692.063 228.115C691.389 228.399 690.611 228.542 689.729 228.542C688.847 228.542 688.066 228.399 687.385 228.115C686.705 227.83 686.135 227.431 685.677 226.917C685.219 226.396 684.872 225.788 684.635 225.094C684.399 224.392 684.281 223.632 684.281 222.812ZM687.792 222.594V222.812C687.792 223.236 687.823 223.632 687.885 224C687.948 224.368 688.052 224.691 688.198 224.969C688.344 225.24 688.542 225.451 688.792 225.604C689.042 225.757 689.354 225.833 689.729 225.833C690.097 225.833 690.403 225.757 690.646 225.604C690.896 225.451 691.094 225.24 691.24 224.969C691.385 224.691 691.49 224.368 691.552 224C691.615 223.632 691.646 223.236 691.646 222.812V222.594C691.646 222.184 691.615 221.799 691.552 221.437C691.49 221.069 691.385 220.747 691.24 220.469C691.094 220.184 690.896 219.962 690.646 219.802C690.396 219.642 690.083 219.562 689.708 219.562C689.34 219.562 689.031 219.642 688.781 219.802C688.538 219.962 688.344 220.184 688.198 220.469C688.052 220.747 687.948 221.069 687.885 221.437C687.823 221.799 687.792 222.184 687.792 222.594ZM701.813 228.333H698.448L698.469 225.521H701.813C702.507 225.521 703.094 225.354 703.573 225.021C704.059 224.687 704.427 224.191 704.677 223.531C704.934 222.865 705.063 222.045 705.063 221.073V220.417C705.063 219.687 704.99 219.049 704.844 218.5C704.705 217.944 704.497 217.483 704.219 217.115C703.941 216.74 703.594 216.458 703.177 216.271C702.767 216.083 702.295 215.99 701.76 215.99H698.385V213.167H701.76C702.788 213.167 703.729 213.344 704.583 213.698C705.444 214.045 706.188 214.545 706.813 215.198C707.444 215.844 707.931 216.611 708.271 217.5C708.618 218.382 708.792 219.361 708.792 220.437V221.073C708.792 222.142 708.618 223.122 708.271 224.01C707.931 224.899 707.448 225.667 706.823 226.312C706.198 226.958 705.458 227.458 704.604 227.812C703.757 228.16 702.826 228.333 701.813 228.333ZM700.542 213.167V228.333H696.885V213.167H700.542ZM716.885 221.885H712.979L712.958 219.49H716.125C716.694 219.49 717.149 219.427 717.49 219.302C717.83 219.17 718.076 218.979 718.229 218.729C718.389 218.479 718.469 218.167 718.469 217.792C718.469 217.361 718.389 217.014 718.229 216.75C718.069 216.486 717.816 216.295 717.469 216.177C717.128 216.052 716.688 215.99 716.146 215.99H714.354V228.333H710.698V213.167H716.146C717.083 213.167 717.92 213.253 718.656 213.427C719.392 213.594 720.017 213.851 720.531 214.198C721.052 214.545 721.448 214.983 721.719 215.51C721.99 216.031 722.125 216.646 722.125 217.354C722.125 217.972 721.993 218.552 721.729 219.094C721.465 219.635 721.024 220.076 720.406 220.417C719.795 220.75 718.958 220.924 717.896 220.937L716.885 221.885ZM716.74 228.333H712.094L713.344 225.521H716.74C717.24 225.521 717.639 225.444 717.938 225.292C718.243 225.132 718.462 224.924 718.594 224.667C718.733 224.403 718.802 224.111 718.802 223.792C718.802 223.403 718.736 223.066 718.604 222.781C718.479 222.497 718.278 222.278 718 222.125C717.722 221.965 717.351 221.885 716.885 221.885H713.813L713.833 219.49H717.51L718.365 220.448C719.378 220.406 720.181 220.549 720.771 220.875C721.368 221.201 721.795 221.632 722.052 222.167C722.309 222.701 722.438 223.26 722.438 223.844C722.438 224.837 722.222 225.667 721.792 226.333C721.368 227 720.733 227.5 719.885 227.833C719.038 228.167 717.99 228.333 716.74 228.333Z" fill="white"/>
<rect x="804" y="196.333" width="208" height="49.3333" rx="4.66667" fill="black" stroke="black" stroke-width="4"/>
<path d="M881.427 225.521V228.333H873.344V225.521H881.427ZM874.646 213.167V228.333H870.99V213.167H874.646ZM880.385 219.187V221.906H873.344V219.187H880.385ZM881.458 213.167V215.99H873.344V213.167H881.458ZM885.74 217.062L887.323 220.167L888.958 217.062H892.604L889.646 222.552L892.76 228.333H889.083L887.323 225L885.573 228.333H881.896L885.01 222.552L882.062 217.062H885.74ZM897.302 219.229V232.667H893.792V217.062H897.062L897.302 219.229ZM904.219 222.562V222.781C904.219 223.601 904.125 224.361 903.937 225.062C903.75 225.764 903.472 226.375 903.104 226.896C902.736 227.417 902.278 227.823 901.729 228.115C901.187 228.399 900.559 228.542 899.844 228.542C899.17 228.542 898.59 228.392 898.104 228.094C897.618 227.795 897.212 227.382 896.885 226.854C896.559 226.326 896.295 225.722 896.094 225.042C895.892 224.361 895.733 223.642 895.615 222.885V222.604C895.733 221.792 895.892 221.038 896.094 220.344C896.295 219.642 896.559 219.031 896.885 218.51C897.212 217.99 897.615 217.583 898.094 217.292C898.58 217 899.16 216.854 899.833 216.854C900.549 216.854 901.177 216.99 901.719 217.26C902.267 217.531 902.726 217.92 903.094 218.427C903.469 218.927 903.75 219.528 903.937 220.229C904.125 220.931 904.219 221.708 904.219 222.562ZM900.708 222.781V222.562C900.708 222.125 900.677 221.726 900.615 221.365C900.552 220.997 900.451 220.677 900.312 220.406C900.181 220.135 900.003 219.927 899.781 219.781C899.559 219.635 899.285 219.562 898.958 219.562C898.583 219.562 898.267 219.622 898.01 219.74C897.76 219.851 897.559 220.024 897.406 220.26C897.26 220.49 897.156 220.778 897.094 221.125C897.038 221.465 897.014 221.865 897.021 222.323V223.177C897.007 223.705 897.059 224.17 897.177 224.573C897.295 224.969 897.5 225.278 897.792 225.5C898.083 225.722 898.479 225.833 898.979 225.833C899.312 225.833 899.59 225.757 899.812 225.604C900.035 225.444 900.212 225.226 900.344 224.948C900.476 224.663 900.569 224.337 900.625 223.969C900.681 223.601 900.708 223.205 900.708 222.781ZM909.323 219.854V228.333H905.812V217.062H909.094L909.323 219.854ZM912.656 216.979L912.594 220.24C912.455 220.226 912.267 220.208 912.031 220.187C911.795 220.167 911.597 220.156 911.437 220.156C911.028 220.156 910.674 220.205 910.375 220.302C910.083 220.392 909.84 220.531 909.646 220.719C909.458 220.899 909.319 221.128 909.229 221.406C909.146 221.684 909.108 222.007 909.115 222.375L908.479 221.958C908.479 221.201 908.552 220.514 908.698 219.896C908.851 219.271 909.066 218.733 909.344 218.281C909.622 217.823 909.958 217.472 910.354 217.229C910.75 216.979 911.194 216.854 911.687 216.854C911.861 216.854 912.031 216.865 912.198 216.885C912.372 216.906 912.524 216.937 912.656 216.979ZM919.115 228.542C918.198 228.542 917.378 228.399 916.656 228.115C915.934 227.823 915.323 227.424 914.823 226.917C914.33 226.41 913.951 225.826 913.687 225.167C913.431 224.507 913.302 223.809 913.302 223.073V222.677C913.302 221.851 913.417 221.087 913.646 220.385C913.875 219.677 914.215 219.059 914.667 218.531C915.118 218.003 915.684 217.594 916.365 217.302C917.045 217.003 917.837 216.854 918.74 216.854C919.538 216.854 920.253 216.983 920.885 217.24C921.517 217.497 922.052 217.865 922.49 218.344C922.934 218.823 923.271 219.403 923.5 220.083C923.736 220.764 923.854 221.528 923.854 222.375V223.802H914.646V221.604H920.427V221.333C920.434 220.958 920.368 220.639 920.229 220.375C920.097 220.111 919.903 219.91 919.646 219.771C919.389 219.632 919.076 219.562 918.708 219.562C918.326 219.562 918.01 219.646 917.76 219.812C917.517 219.979 917.326 220.208 917.187 220.5C917.056 220.785 916.962 221.115 916.906 221.49C916.851 221.865 916.823 222.26 916.823 222.677V223.073C916.823 223.49 916.878 223.868 916.99 224.208C917.108 224.549 917.274 224.84 917.49 225.083C917.712 225.319 917.976 225.503 918.281 225.635C918.594 225.767 918.948 225.833 919.344 225.833C919.823 225.833 920.295 225.743 920.76 225.562C921.226 225.382 921.625 225.083 921.958 224.667L923.552 226.562C923.323 226.889 922.997 227.205 922.573 227.51C922.156 227.816 921.656 228.066 921.073 228.26C920.49 228.448 919.837 228.542 919.115 228.542ZM931.187 225.167C931.187 224.972 931.122 224.806 930.99 224.667C930.865 224.521 930.642 224.389 930.323 224.271C930.003 224.146 929.556 224.021 928.979 223.896C928.431 223.778 927.913 223.622 927.427 223.427C926.948 223.233 926.528 222.997 926.167 222.719C925.806 222.441 925.521 222.111 925.312 221.729C925.111 221.347 925.01 220.91 925.01 220.417C925.01 219.937 925.111 219.486 925.312 219.062C925.521 218.632 925.823 218.253 926.219 217.927C926.622 217.594 927.111 217.333 927.687 217.146C928.264 216.951 928.92 216.854 929.656 216.854C930.67 216.854 931.545 217.01 932.281 217.323C933.017 217.628 933.583 218.059 933.979 218.615C934.382 219.163 934.583 219.799 934.583 220.521H931.073C931.073 220.236 931.024 219.993 930.927 219.792C930.837 219.59 930.687 219.437 930.479 219.333C930.271 219.222 929.993 219.167 929.646 219.167C929.403 219.167 929.181 219.212 928.979 219.302C928.785 219.392 928.628 219.517 928.51 219.677C928.392 219.837 928.333 220.024 928.333 220.24C928.333 220.392 928.368 220.531 928.437 220.656C928.514 220.774 928.628 220.885 928.781 220.99C928.934 221.087 929.128 221.177 929.365 221.26C929.601 221.337 929.885 221.406 930.219 221.469C930.976 221.608 931.684 221.806 932.344 222.062C933.003 222.319 933.538 222.684 933.948 223.156C934.365 223.628 934.573 224.264 934.573 225.062C934.573 225.562 934.458 226.024 934.229 226.448C934 226.865 933.67 227.233 933.24 227.552C932.809 227.865 932.292 228.108 931.687 228.281C931.083 228.455 930.403 228.542 929.646 228.542C928.569 228.542 927.66 228.351 926.917 227.969C926.174 227.58 925.611 227.094 925.229 226.51C924.854 225.92 924.667 225.323 924.667 224.719H927.937C927.951 225.066 928.035 225.351 928.187 225.573C928.347 225.795 928.559 225.958 928.823 226.062C929.087 226.167 929.392 226.219 929.74 226.219C930.059 226.219 930.323 226.174 930.531 226.083C930.747 225.993 930.91 225.872 931.021 225.719C931.132 225.559 931.187 225.375 931.187 225.167ZM942.125 225.167C942.125 224.972 942.059 224.806 941.927 224.667C941.802 224.521 941.58 224.389 941.26 224.271C940.941 224.146 940.493 224.021 939.917 223.896C939.368 223.778 938.851 223.622 938.365 223.427C937.885 223.233 937.465 222.997 937.104 222.719C936.743 222.441 936.458 222.111 936.25 221.729C936.049 221.347 935.948 220.91 935.948 220.417C935.948 219.937 936.049 219.486 936.25 219.062C936.458 218.632 936.76 218.253 937.156 217.927C937.559 217.594 938.049 217.333 938.625 217.146C939.201 216.951 939.858 216.854 940.594 216.854C941.608 216.854 942.483 217.01 943.219 217.323C943.955 217.628 944.521 218.059 944.917 218.615C945.319 219.163 945.521 219.799 945.521 220.521H942.01C942.01 220.236 941.962 219.993 941.865 219.792C941.774 219.59 941.625 219.437 941.417 219.333C941.208 219.222 940.931 219.167 940.583 219.167C940.34 219.167 940.118 219.212 939.917 219.302C939.722 219.392 939.566 219.517 939.448 219.677C939.33 219.837 939.271 220.024 939.271 220.24C939.271 220.392 939.306 220.531 939.375 220.656C939.451 220.774 939.566 220.885 939.719 220.99C939.872 221.087 940.066 221.177 940.302 221.26C940.538 221.337 940.823 221.406 941.156 221.469C941.913 221.608 942.622 221.806 943.281 222.062C943.941 222.319 944.476 222.684 944.885 223.156C945.302 223.628 945.51 224.264 945.51 225.062C945.51 225.562 945.396 226.024 945.167 226.448C944.937 226.865 944.608 227.233 944.177 227.552C943.747 227.865 943.229 228.108 942.625 228.281C942.021 228.455 941.34 228.542 940.583 228.542C939.507 228.542 938.597 228.351 937.854 227.969C937.111 227.58 936.549 227.094 936.167 226.51C935.792 225.92 935.604 225.323 935.604 224.719H938.875C938.889 225.066 938.972 225.351 939.125 225.573C939.285 225.795 939.497 225.958 939.76 226.062C940.024 226.167 940.33 226.219 940.677 226.219C940.997 226.219 941.26 226.174 941.469 226.083C941.684 225.993 941.847 225.872 941.958 225.719C942.069 225.559 942.125 225.375 942.125 225.167Z" fill="white"/>
<rect x="1036" y="196.333" width="208" height="49.3333" rx="4.66667" fill="black" stroke="#888888" stroke-width="4"/>
<path d="M1129.15 220.229V226.458C1128.89 226.743 1128.49 227.049 1127.96 227.375C1127.43 227.694 1126.76 227.969 1125.96 228.198C1125.15 228.427 1124.2 228.542 1123.11 228.542C1122.11 228.542 1121.19 228.382 1120.37 228.062C1119.56 227.736 1118.85 227.26 1118.26 226.635C1117.68 226.003 1117.23 225.233 1116.91 224.323C1116.59 223.406 1116.44 222.358 1116.44 221.177V220.333C1116.44 219.153 1116.6 218.104 1116.92 217.187C1117.24 216.271 1117.68 215.5 1118.26 214.875C1118.84 214.243 1119.53 213.764 1120.31 213.437C1121.1 213.111 1121.97 212.948 1122.92 212.948C1124.31 212.948 1125.45 213.17 1126.32 213.615C1127.2 214.052 1127.86 214.66 1128.31 215.437C1128.76 216.208 1129.04 217.101 1129.14 218.115H1125.62C1125.56 217.615 1125.42 217.191 1125.23 216.844C1125.04 216.49 1124.77 216.222 1124.42 216.042C1124.06 215.854 1123.6 215.76 1123.04 215.76C1122.6 215.76 1122.2 215.854 1121.84 216.042C1121.49 216.229 1121.19 216.514 1120.94 216.896C1120.69 217.271 1120.49 217.743 1120.35 218.312C1120.22 218.882 1120.16 219.549 1120.16 220.312V221.177C1120.16 221.934 1120.22 222.597 1120.34 223.167C1120.48 223.736 1120.67 224.212 1120.93 224.594C1121.19 224.969 1121.52 225.253 1121.93 225.448C1122.34 225.635 1122.82 225.729 1123.37 225.729C1123.76 225.729 1124.1 225.698 1124.37 225.635C1124.65 225.566 1124.88 225.483 1125.06 225.385C1125.25 225.281 1125.39 225.184 1125.49 225.094V222.74H1122.95V220.229H1129.15ZM1137.02 225.167C1137.02 224.972 1136.95 224.806 1136.82 224.667C1136.7 224.521 1136.48 224.389 1136.16 224.271C1135.84 224.146 1135.39 224.021 1134.81 223.896C1134.26 223.778 1133.75 223.622 1133.26 223.427C1132.78 223.233 1132.36 222.997 1132 222.719C1131.64 222.441 1131.35 222.111 1131.15 221.729C1130.94 221.347 1130.84 220.91 1130.84 220.417C1130.84 219.937 1130.94 219.486 1131.15 219.062C1131.35 218.632 1131.66 218.253 1132.05 217.927C1132.45 217.594 1132.94 217.333 1133.52 217.146C1134.1 216.951 1134.75 216.854 1135.49 216.854C1136.5 216.854 1137.38 217.01 1138.11 217.323C1138.85 217.628 1139.42 218.059 1139.81 218.615C1140.22 219.163 1140.42 219.799 1140.42 220.521H1136.91C1136.91 220.236 1136.86 219.993 1136.76 219.792C1136.67 219.59 1136.52 219.437 1136.31 219.333C1136.1 219.222 1135.83 219.167 1135.48 219.167C1135.24 219.167 1135.01 219.212 1134.81 219.302C1134.62 219.392 1134.46 219.517 1134.34 219.677C1134.23 219.837 1134.17 220.024 1134.17 220.24C1134.17 220.392 1134.2 220.531 1134.27 220.656C1134.35 220.774 1134.46 220.885 1134.61 220.99C1134.77 221.087 1134.96 221.177 1135.2 221.26C1135.43 221.337 1135.72 221.406 1136.05 221.469C1136.81 221.608 1137.52 221.806 1138.18 222.062C1138.84 222.319 1139.37 222.684 1139.78 223.156C1140.2 223.628 1140.41 224.264 1140.41 225.062C1140.41 225.562 1140.29 226.024 1140.06 226.448C1139.83 226.865 1139.5 227.233 1139.07 227.552C1138.64 227.865 1138.12 228.108 1137.52 228.281C1136.92 228.455 1136.24 228.542 1135.48 228.542C1134.4 228.542 1133.49 228.351 1132.75 227.969C1132.01 227.58 1131.44 227.094 1131.06 226.51C1130.69 225.92 1130.5 225.323 1130.5 224.719H1133.77C1133.78 225.066 1133.87 225.351 1134.02 225.573C1134.18 225.795 1134.39 225.958 1134.66 226.062C1134.92 226.167 1135.23 226.219 1135.57 226.219C1135.89 226.219 1136.16 226.174 1136.36 226.083C1136.58 225.993 1136.74 225.872 1136.85 225.719C1136.97 225.559 1137.02 225.375 1137.02 225.167ZM1147.91 225.5V220.854C1147.91 220.535 1147.86 220.26 1147.77 220.031C1147.68 219.802 1147.54 219.625 1147.34 219.5C1147.15 219.368 1146.89 219.302 1146.56 219.302C1146.3 219.302 1146.07 219.347 1145.89 219.437C1145.7 219.528 1145.56 219.663 1145.46 219.844C1145.36 220.024 1145.31 220.253 1145.31 220.531H1141.8C1141.8 220.01 1141.92 219.528 1142.15 219.083C1142.38 218.632 1142.72 218.24 1143.15 217.906C1143.58 217.573 1144.1 217.316 1144.71 217.135C1145.32 216.948 1146 216.854 1146.75 216.854C1147.65 216.854 1148.44 217.003 1149.15 217.302C1149.85 217.601 1150.41 218.049 1150.82 218.646C1151.23 219.236 1151.44 219.979 1151.44 220.875V225.49C1151.44 226.226 1151.48 226.785 1151.56 227.167C1151.65 227.542 1151.76 227.872 1151.92 228.156V228.333H1148.4C1148.23 227.986 1148.1 227.562 1148.02 227.062C1147.94 226.556 1147.91 226.035 1147.91 225.5ZM1148.33 221.448L1148.35 223.323H1146.8C1146.48 223.323 1146.2 223.368 1145.97 223.458C1145.75 223.549 1145.57 223.674 1145.43 223.833C1145.3 223.986 1145.2 224.16 1145.14 224.354C1145.08 224.549 1145.05 224.753 1145.05 224.969C1145.05 225.177 1145.1 225.365 1145.2 225.531C1145.3 225.691 1145.44 225.816 1145.61 225.906C1145.79 225.997 1145.98 226.042 1146.2 226.042C1146.59 226.042 1146.92 225.969 1147.19 225.823C1147.47 225.67 1147.68 225.486 1147.82 225.271C1147.97 225.056 1148.04 224.854 1148.04 224.667L1148.81 226.104C1148.67 226.382 1148.51 226.663 1148.33 226.948C1148.16 227.233 1147.94 227.497 1147.68 227.74C1147.42 227.976 1147.1 228.17 1146.73 228.323C1146.35 228.469 1145.9 228.542 1145.36 228.542C1144.67 228.542 1144.03 228.399 1143.45 228.115C1142.87 227.83 1142.41 227.434 1142.06 226.927C1141.72 226.413 1141.54 225.823 1141.54 225.156C1141.54 224.573 1141.65 224.052 1141.85 223.594C1142.07 223.135 1142.39 222.747 1142.82 222.427C1143.25 222.108 1143.8 221.865 1144.47 221.698C1145.14 221.531 1145.92 221.448 1146.82 221.448H1148.33ZM1156.93 219.229V232.667H1153.42V217.062H1156.69L1156.93 219.229ZM1163.84 222.562V222.781C1163.84 223.601 1163.75 224.361 1163.56 225.062C1163.37 225.764 1163.1 226.375 1162.73 226.896C1162.36 227.417 1161.9 227.823 1161.35 228.115C1160.81 228.399 1160.18 228.542 1159.47 228.542C1158.8 228.542 1158.22 228.392 1157.73 228.094C1157.24 227.795 1156.84 227.382 1156.51 226.854C1156.18 226.326 1155.92 225.722 1155.72 225.042C1155.52 224.361 1155.36 223.642 1155.24 222.885V222.604C1155.36 221.792 1155.52 221.038 1155.72 220.344C1155.92 219.642 1156.18 219.031 1156.51 218.51C1156.84 217.99 1157.24 217.583 1157.72 217.292C1158.2 217 1158.78 216.854 1159.46 216.854C1160.17 216.854 1160.8 216.99 1161.34 217.26C1161.89 217.531 1162.35 217.92 1162.72 218.427C1163.09 218.927 1163.37 219.528 1163.56 220.229C1163.75 220.931 1163.84 221.708 1163.84 222.562ZM1160.33 222.781V222.562C1160.33 222.125 1160.3 221.726 1160.24 221.365C1160.18 220.997 1160.08 220.677 1159.94 220.406C1159.81 220.135 1159.63 219.927 1159.41 219.781C1159.18 219.635 1158.91 219.562 1158.58 219.562C1158.21 219.562 1157.89 219.622 1157.64 219.74C1157.39 219.851 1157.18 220.024 1157.03 220.26C1156.89 220.49 1156.78 220.778 1156.72 221.125C1156.66 221.465 1156.64 221.865 1156.65 222.323V223.177C1156.63 223.705 1156.68 224.17 1156.8 224.573C1156.92 224.969 1157.12 225.278 1157.42 225.5C1157.71 225.722 1158.1 225.833 1158.6 225.833C1158.94 225.833 1159.22 225.757 1159.44 225.604C1159.66 225.444 1159.84 225.226 1159.97 224.948C1160.1 224.663 1160.19 224.337 1160.25 223.969C1160.31 223.601 1160.33 223.205 1160.33 222.781Z" fill="white"/>
</svg>
